<?xml version="1.0" standalone="no"?>
<!DOCTYPE svg PUBLIC "-//W3C//DTD SVG 1.1//EN" "http://www.w3.org/Graphics/SVG/1.1/DTD/svg11.dtd" >
<svg xmlns="http://www.w3.org/2000/svg" xmlns:xlink="http://www.w3.org/1999/xlink" version="1.1">
<metadata>
Created by FontForge 20201107 at Sat Apr 29 23:20:59 2017
 By 
</metadata>
<defs>
<font id="SVN-AgencyFBBold" horiz-adv-x="924" >
  <font-face 
    font-family="SVN-Agency FB"
    font-weight="700"
    font-stretch="normal"
    units-per-em="2048"
    panose-1="2 4 6 3 5 5 6 2 2 4"
    ascent="1638"
    descent="-410"
    x-height="1010"
    cap-height="1565"
    bbox="-100 -410 1294 2278"
    underline-thickness="109"
    underline-position="-250"
    unicode-range="U+0020-2122"
  />
<missing-glyph horiz-adv-x="422" 
 />
    <glyph glyph-name=".notdef" horiz-adv-x="422" 
 />
    <glyph glyph-name=".null" horiz-adv-x="0" 
 />
    <glyph glyph-name="nonmarkingreturn" horiz-adv-x="571" 
 />
    <glyph glyph-name="space" unicode=" " horiz-adv-x="422" 
 />
    <glyph glyph-name="exclam" unicode="!" horiz-adv-x="438" 
d="M344 1565l-33 -1200h-184l-33 1200h250zM334 0h-232v240h232v-240z" />
    <glyph glyph-name="quotedbl" unicode="&#x22;" horiz-adv-x="707" 
d="M631 1565l-43 -490h-142l-43 490h228zM303 1565l-45 -490h-139l-45 490h229z" />
    <glyph glyph-name="numbersign" unicode="#" horiz-adv-x="1110" 
d="M1065 979h-188l-64 -397h180v-191h-211l-63 -391h-207l63 391h-165l-62 -391h-209l64 391h-156v191h186l64 397h-178v190h209l63 396h207l-63 -396h165l64 396h209l-66 -396h158v-190zM670 979h-166l-64 -397h166z" />
    <glyph glyph-name="dollar" unicode="$" horiz-adv-x="936" 
d="M840 158q0 -88 -54 -121q-39 -24 -124 -24q-14 0 -44 1h-45v-139h-219v139h-45q-29 -1 -44 -1q-84 0 -123 24q-52 32 -52 121v358h234v-313h282v305l-465 440q-51 49 -51 127v332q0 88 52 121q39 24 123 24q15 0 44.5 -1t44.5 -1v140h219v-140q15 0 45.5 1t45.5 1
q84 0 123 -24q53 -32 53 -119v-338h-234v287h-282v-275l462 -436q54 -50 54 -127v-362z" />
    <glyph glyph-name="percent" unicode="%" horiz-adv-x="1343" 
d="M1157 1536l-840 -1536h-135v28l841 1537h134v-29zM1294 121q0 -121 -121 -121h-270q-121 0 -121 121v554q0 121 121 121h270q121 0 121 -121v-554zM1126 146v504h-178v-504h178zM555 890q0 -121 -121 -121h-270q-121 0 -121 121v554q0 121 121 121h270q121 0 121 -121
v-554zM387 915v504h-178v-504h178z" />
    <glyph glyph-name="ampersand" unicode="&#x26;" horiz-adv-x="999" 
d="M954 715h-110v-715h-613q-141 0 -141 141v477q0 76 50 120q59 40 118 79q-57 38 -114 77q-50 43 -50 116v413q0 142 142 142h475q141 0 141 -142v-325h-229v270h-297v-379l106 -74h522v-200zM616 197v518h-190l-107 -76v-442h297z" />
    <glyph glyph-name="quotesingle" unicode="'" horiz-adv-x="377" 
d="M303 1565l-45 -490h-139l-45 490h229z" />
    <glyph glyph-name="parenleft" unicode="(" horiz-adv-x="623" 
d="M571 -201h-231q-256 406 -256 883t256 883h231v-11q-237 -412 -237 -872t237 -872v-11z" />
    <glyph glyph-name="parenright" unicode=")" horiz-adv-x="623" 
d="M541 682q0 -477 -256 -883h-232v11q238 412 238 872t-238 872v11h232q256 -406 256 -883z" />
    <glyph glyph-name="asterisk" unicode="*" horiz-adv-x="938" 
d="M862 1085l-108 -174l-203 150l18 -260h-202l22 260l-205 -150l-106 174l241 105l-241 106l106 174l205 -147l-22 258h202l-18 -258l203 147l108 -174l-241 -106z" />
    <glyph glyph-name="plus" unicode="+" horiz-adv-x="971" 
d="M897 588h-305v-299h-213v299h-305v194h305v299h213v-299h305v-194z" />
    <glyph glyph-name="comma" unicode="," horiz-adv-x="377" 
d="M324 240l-117 -402h-152l29 402h240z" />
    <glyph glyph-name="hyphen" unicode="-" horiz-adv-x="631" 
d="M553 498h-477v209h477v-209z" />
    <glyph glyph-name="period" unicode="." horiz-adv-x="377" 
d="M301 0h-225v242h225v-242z" />
    <glyph glyph-name="slash" unicode="/" horiz-adv-x="909" 
d="M870 1550l-618 -1550h-213v14l618 1551h213v-15z" />
    <glyph glyph-name="zero" unicode="0" horiz-adv-x="956" 
d="M862 143q0 -143 -141 -143h-488q-139 0 -139 143v1278q0 144 142 144h485q141 0 141 -144v-1278zM633 201v1163h-309v-1163h309z" />
    <glyph glyph-name="one" unicode="1" horiz-adv-x="481" 
d="M377 0h-230v1104h-90v31l121 430h199v-1565z" />
    <glyph glyph-name="two" unicode="2" horiz-adv-x="903" 
d="M829 1120q0 -74 -51 -164l-430 -751h479v-205h-759v145l530 932v289h-285v-291h-229v348q0 142 143 142h459q143 0 143 -142v-303z" />
    <glyph glyph-name="three" unicode="3" horiz-adv-x="942" 
d="M854 143q0 -143 -141 -143h-480q-139 0 -139 143v361h230v-303h301v393l-287 197v49l287 194v330h-301v-285h-230v342q0 144 142 144h477q141 0 141 -144v-368q0 -93 -78 -144l-145 -94l147 -92q76 -47 76 -141v-439z" />
    <glyph glyph-name="four" unicode="4" horiz-adv-x="932" 
d="M891 295h-119v-295h-223v295h-514v139l389 1131h238v-9l-365 -1062h252v471h223v-471h119v-199z" />
    <glyph glyph-name="five" unicode="5" horiz-adv-x="930" 
d="M842 143q0 -143 -142 -143h-469q-139 0 -139 143v361h230v-303h290v602h-520l25 762h714v-205h-497l-15 -356h381q142 0 142 -142v-719z" />
    <glyph glyph-name="six" unicode="6" horiz-adv-x="944" 
d="M852 143q0 -143 -141 -143h-475q-142 0 -142 143v1278q0 144 139 144h474q141 0 141 -144v-331h-230v274h-294v-471h387q141 0 141 -141v-609zM623 201v493h-299v-493h299z" />
    <glyph glyph-name="seven" unicode="7" horiz-adv-x="883" 
d="M834 1415l-361 -1415h-240l351 1364h-299v-229h-226v430h775v-150z" />
    <glyph glyph-name="eight" unicode="8" horiz-adv-x="961" 
d="M866 143q0 -143 -141 -143h-494q-139 0 -139 143v455q0 87 58 133q69 40 139 80l-134 78q-61 48 -61 129v403q0 144 142 144h487q139 0 139 -144v-403q0 -82 -60 -129l-134 -78q69 -40 139 -80q59 -46 59 -133v-455zM631 993v375h-303v-375l151 -90zM633 197v434l-154 88
l-155 -88v-434h309z" />
    <glyph glyph-name="nine" unicode="9" horiz-adv-x="944" 
d="M850 143q0 -143 -141 -143h-471q-142 0 -142 143v332h230v-274h292v471h-389q-139 0 -139 141v608q0 144 139 144h478q143 0 143 -144v-1278zM618 870v494h-299v-494h299z" />
    <glyph glyph-name="colon" unicode=":" horiz-adv-x="377" 
d="M301 635h-225v244h225v-244zM301 0h-225v242h225v-242z" />
    <glyph glyph-name="semicolon" unicode=";" horiz-adv-x="377" 
d="M301 635h-225v244h225v-244zM315 240l-116 -402h-152l29 402h239z" />
    <glyph glyph-name="less" unicode="&#x3c;" horiz-adv-x="745" 
d="M659 203h-12l-581 413v119l593 414v-242l-344 -231l344 -232v-241z" />
    <glyph glyph-name="equal" unicode="=" horiz-adv-x="956" 
d="M877 768h-797v193h797v-193zM877 373h-797v190h797v-190z" />
    <glyph glyph-name="greater" unicode="&#x3e;" horiz-adv-x="745" 
d="M682 616l-582 -413h-14v241l346 232l-346 231v242h14l582 -414v-119z" />
    <glyph glyph-name="question" unicode="?" horiz-adv-x="868" 
d="M797 1098q0 -76 -41 -131l-228 -308v-294h-227v266q0 79 41 135l225 305v299h-264v-285h-229v336q0 144 143 144h436q144 0 144 -144v-323zM532 0h-235v240h235v-240z" />
    <glyph glyph-name="at" unicode="@" horiz-adv-x="1194" 
d="M1102 0h-920q-90 0 -90 90v1385q0 90 90 90h830q90 0 90 -90v-1043q0 -90 -90 -90h-557q-90 0 -90 88v350q0 90 90 90h204v224h-129v-140h-155v187q0 90 88 90h268q90 0 90 -90v-692h174v1013h-796v-1360h903v-102zM659 473v268h-133v-268h133z" />
    <glyph glyph-name="A" unicode="A" 
d="M887 0h-232l-47 297h-293l-47 -297h-231v4l303 1563h246zM575 498l-114 706l-115 -706h229z" />
    <glyph glyph-name="B" unicode="B" horiz-adv-x="952" 
d="M862 143q0 -143 -143 -143h-625v1565h621q139 0 139 -144v-403q0 -80 -50 -124q-7 -6 -122 -77q119 -73 126 -80q54 -47 54 -129v-465zM621 989v379h-293v-459h180zM627 197v446l-115 76h-184v-522h299z" />
    <glyph glyph-name="C" unicode="C" horiz-adv-x="954" 
d="M864 143q0 -143 -143 -143h-488q-139 0 -139 143v1278q0 144 139 144h488q143 0 143 -144v-366h-233v309h-303v-1163h303v329h233v-387z" />
    <glyph glyph-name="D" unicode="D" horiz-adv-x="961" 
d="M874 295q0 -138 -82 -216.5t-221 -78.5h-477v1565h477q139 0 221 -79.5t82 -217.5v-973zM639 334v899q0 131 -137 131h-174v-1163h168q143 0 143 133z" />
    <glyph glyph-name="E" unicode="E" horiz-adv-x="809" 
d="M743 0h-649v1565h643v-207h-409v-457h352v-203h-352v-491h415v-207z" />
    <glyph glyph-name="F" unicode="F" horiz-adv-x="772" 
d="M733 1358h-405v-463h346v-203h-346v-692h-234v1565h639v-207z" />
    <glyph glyph-name="G" unicode="G" horiz-adv-x="961" 
d="M868 143q0 -143 -143 -143h-492q-139 0 -139 143v1278q0 144 142 144h489q143 0 143 -144v-334h-235v277h-305v-1163h305v438h-174v199h409v-695z" />
    <glyph glyph-name="H" unicode="H" horiz-adv-x="973" 
d="M881 0h-236v702h-317v-702h-234v1565h234v-645h317v645h236v-1565z" />
    <glyph glyph-name="I" unicode="I" horiz-adv-x="430" 
d="M332 0h-234v1565h234v-1565z" />
    <glyph glyph-name="J" unicode="J" horiz-adv-x="889" 
d="M797 143q0 -143 -144 -143h-444q-141 0 -141 143v385h233v-327h262v1364h234v-1422z" />
    <glyph glyph-name="K" unicode="K" horiz-adv-x="883" 
d="M883 0h-258l-297 698v-698h-234v1565h234v-662l260 662h256v-11l-318 -743z" />
    <glyph glyph-name="L" unicode="L" horiz-adv-x="754" 
d="M709 0h-615v1565h234v-1356h381v-209z" />
    <glyph glyph-name="M" unicode="M" horiz-adv-x="1133" 
d="M1040 0h-225v772q0 61 14 170l-202 -799h-119l-203 799q14 -111 14 -170v-772h-225v1565h221l246 -865q4 -14 6 -71q0 25 6 71l246 865h221v-1565z" />
    <glyph glyph-name="N" unicode="N" horiz-adv-x="981" 
d="M887 0h-205l-375 985q15 -72 15 -113v-872h-228v1565h205l375 -965q-15 72 -15 113v852h228v-1565z" />
    <glyph glyph-name="O" unicode="O" horiz-adv-x="977" 
d="M883 143q0 -143 -142 -143h-508q-139 0 -139 143v1278q0 144 139 144h508q142 0 142 -144v-1278zM649 201v1163h-321v-1163h321z" />
    <glyph glyph-name="P" unicode="P" horiz-adv-x="922" 
d="M850 713q0 -146 -143 -146h-379v-567h-234v1565h613q143 0 143 -144v-708zM614 768v596h-286v-596h286z" />
    <glyph glyph-name="Q" unicode="Q" horiz-adv-x="1008" 
d="M989 -2h-16l-105 80q-28 -78 -127 -78h-508q-139 0 -139 143v1278q0 144 142 144h505q142 0 142 -144v-1132l106 -76v-215zM649 201v55l-137 104v213h14l123 -92v883h-321v-1163h321z" />
    <glyph glyph-name="R" unicode="R" horiz-adv-x="944" 
d="M895 0h-244l-258 727v141h230v496h-295v-1364h-234v1565h621q141 0 141 -144v-569q0 -99 -67 -128q-36 -15 -152 -15z" />
    <glyph glyph-name="S" unicode="S" horiz-adv-x="936" 
d="M844 143q0 -143 -142 -143h-471q-141 0 -141 143v373h234v-319h286v307l-469 444q-51 49 -51 125v348q0 144 141 144h471q142 0 142 -142v-350h-234v295h-286v-283l469 -442q51 -48 51 -127v-373z" />
    <glyph glyph-name="T" unicode="T" horiz-adv-x="799" 
d="M774 1358h-258v-1358h-233v1358h-258v207h749v-207z" />
    <glyph glyph-name="U" unicode="U" horiz-adv-x="971" 
d="M877 143q0 -143 -144 -143h-497q-142 0 -142 143v1422h234v-1364h315v1364h234v-1422z" />
    <glyph glyph-name="V" unicode="V" horiz-adv-x="911" 
d="M873 1565l-300 -1567h-233l-299 1567h235l175 -1073q2 -46 6 -134q-1 46 6 134l176 1073h234z" />
    <glyph glyph-name="W" unicode="W" horiz-adv-x="1286" 
d="M1249 1565l-229 -1567h-229l-140 887q-2 48 -8 143q0 -48 -8 -143l-139 -887h-230l-229 1567h237l121 -928q3 -48 8 -143q1 48 9 143l135 928h192l135 -928q3 -48 9 -143q1 48 8 143l121 928h237z" />
    <glyph glyph-name="X" unicode="X" horiz-adv-x="901" 
d="M874 0h-253l-172 551l-173 -551h-249v8l292 793q-275 760 -274 764h250l156 -510l157 510h248v-9l-274 -749z" />
    <glyph glyph-name="Y" unicode="Y" horiz-adv-x="907" 
d="M881 1556l-207 -654q-38 -97 -103 -327v-575h-235v575q-16 78 -46 165q-53 149 -57 162l-206 654q-1 1 0 9h241l187 -680l186 680h240v-9z" />
    <glyph glyph-name="Z" unicode="Z" horiz-adv-x="799" 
d="M758 0h-719v125l438 1229h-403v211h682v-135l-437 -1219h439v-211z" />
    <glyph glyph-name="bracketleft" unicode="[" horiz-adv-x="602" 
d="M530 -248h-299q-137 0 -137 137v1541q0 135 137 135h299v-209h-206v-1395h206v-209z" />
    <glyph glyph-name="backslash" unicode="\" horiz-adv-x="909" 
d="M870 0h-213l-618 1565h213z" />
    <glyph glyph-name="bracketright" unicode="]" horiz-adv-x="602" 
d="M510 -111q0 -137 -137 -137h-301v209h209v1395h-209v209h301q137 0 137 -135v-1541z" />
    <glyph glyph-name="asciicircum" unicode="^" horiz-adv-x="854" 
d="M776 1012h-184l-166 311l-166 -311h-182v12l250 541h202z" />
    <glyph glyph-name="underscore" unicode="_" horiz-adv-x="809" 
d="M811 -410h-811v174h811v-174z" />
    <glyph glyph-name="grave" unicode="`" horiz-adv-x="836" 
d="M690 1077h-168l-291 264v9h285l174 -265v-8z" />
    <glyph glyph-name="a" unicode="a" horiz-adv-x="815" 
d="M733 0h-219v35l-156 -24q-102 -15 -155 -15q-125 0 -125 123v364q0 125 129 125h309v232h-219v-144h-207v189q0 125 129 125h387q127 0 127 -125v-885zM516 182v271h-219v-279z" />
    <glyph glyph-name="b" unicode="b" horiz-adv-x="838" 
d="M756 203q0 -95 -57 -149t-152 -54h-465v1565h229v-592q80 12 160 25q101 16 160 16q125 0 125 -123v-688zM526 266v553l-215 -4v-625h142q73 0 73 76z" />
    <glyph glyph-name="c" unicode="c" horiz-adv-x="817" 
d="M735 125q0 -125 -127 -125h-397q-129 0 -129 125v760q0 125 129 125h397q127 0 127 -125v-240h-223v174h-205v-629h205v193h223v-258z" />
    <glyph glyph-name="d" unicode="d" horiz-adv-x="836" 
d="M752 0h-228v35q-232 -41 -260 -41q-86 0 -135 50.5t-49 137.5v625q0 123 88 171q64 36 194 36q29 0 84 -2t78 -2v555h228v-1565zM524 197v622h-141q-76 0 -76 -76v-483q0 -74 72 -74q17 0 145 11z" />
    <glyph glyph-name="e" unicode="e" horiz-adv-x="819" 
d="M735 125q0 -125 -129 -125h-395q-129 0 -129 125v760q0 125 129 125h395q129 0 129 -125v-371l-63 -63h-371v-283h215v168h219v-211zM516 600v242h-215v-242h215z" />
    <glyph glyph-name="f" unicode="f" horiz-adv-x="528" 
d="M526 1366h-168v-356h146v-195h-146v-815h-227v815h-104v195h104v430q0 125 127 125h268v-199z" />
    <glyph glyph-name="g" unicode="g" horiz-adv-x="836" 
d="M752 -244q0 -125 -129 -125h-398q-129 0 -129 125v162h221v-121h207v209h-235q-96 0 -152.5 54t-56.5 149v618q0 87 49 137t135 50q43 0 260 -41v37h228v-1254zM524 190v621q-115 12 -143 12q-74 0 -74 -73v-484q0 -76 76 -76h141z" />
    <glyph glyph-name="h" unicode="h" horiz-adv-x="838" 
d="M756 0h-230v819l-215 -4v-815h-229v1565h229v-592q80 12 160 25q101 16 160 16q125 0 125 -123v-891z" />
    <glyph glyph-name="i" unicode="i" horiz-adv-x="401" 
d="M315 1155h-229v236h229v-236zM313 0h-225v1010h225v-1010z" />
    <glyph glyph-name="j" unicode="j" horiz-adv-x="401" 
d="M315 1155h-229v236h229v-236zM313 -244q0 -125 -127 -125h-243v191h145v1188h225v-1254z" />
    <glyph glyph-name="k" unicode="k" horiz-adv-x="772" 
d="M756 0h-244l-201 463v-463h-229v1565h229v-940l181 385h239v-4l-233 -459z" />
    <glyph glyph-name="l" unicode="l" horiz-adv-x="401" 
d="M313 0h-225v1565h225v-1565z" />
    <glyph glyph-name="m" unicode="m" horiz-adv-x="1278" 
d="M1196 0h-227v819l-215 -4v-815h-228v819l-215 -4v-815h-229v1010h229v-37q80 13 159 26q97 15 161 15q79 0 102 -45q84 13 168 27q111 18 170 18q125 0 125 -123v-891z" />
    <glyph glyph-name="n" unicode="n" horiz-adv-x="838" 
d="M756 0h-230v819l-215 -4v-815h-229v1010h229v-37q80 13 159 25q98 16 161 16q125 0 125 -123v-891z" />
    <glyph glyph-name="o" unicode="o" horiz-adv-x="831" 
d="M748 125q0 -125 -127 -125h-410q-129 0 -129 125v760q0 125 129 125h410q127 0 127 -125v-760zM524 190v629h-217v-629h217z" />
    <glyph glyph-name="p" unicode="p" horiz-adv-x="836" 
d="M756 203q0 -123 -88 -172q-64 -35 -194 -35q-30 0 -84.5 2t-78.5 2v-369h-229v1379h229v-37q80 12 160 25q101 16 160 16q125 0 125 -123v-688zM526 266v553l-215 -4v-625h142q73 0 73 76z" />
    <glyph glyph-name="q" unicode="q" horiz-adv-x="836" 
d="M752 -369h-228v369h-235q-96 0 -152.5 54t-56.5 149v624q0 87 49 137t135 50q43 0 260 -41v37h228v-1379zM524 190v621q-125 12 -145 12q-72 0 -72 -73v-484q0 -76 74 -76h143z" />
    <glyph glyph-name="r" unicode="r" horiz-adv-x="766" 
d="M719 588h-227v231l-181 -4v-815h-229v1010h229v-37q71 13 141 26q85 15 142 15q125 0 125 -123v-303z" />
    <glyph glyph-name="s" unicode="s" horiz-adv-x="795" 
d="M717 125q0 -125 -127 -125h-385q-127 0 -127 125v217h219v-170h201v160l-351 207q-69 41 -69 110v236q0 125 129 125h381q127 0 127 -125v-203h-217v156h-201v-146l350 -205q70 -40 70 -112v-250z" />
    <glyph glyph-name="t" unicode="t" horiz-adv-x="563" 
d="M518 0h-254q-127 0 -127 125v690h-108v195h108v274h228v-274h147v-195h-147v-620h153v-195z" />
    <glyph glyph-name="u" unicode="u" horiz-adv-x="838" 
d="M754 0h-228v35q-79 -13 -159 -26q-97 -15 -160 -15q-125 0 -125 125v891h227v-820l217 5v815h228v-1010z" />
    <glyph glyph-name="v" unicode="v" horiz-adv-x="797" 
d="M766 1010l-258 -1012h-219l-258 1012h235l133 -664l133 664h234z" />
    <glyph glyph-name="w" unicode="w" horiz-adv-x="1112" 
d="M1081 1010l-217 -1012h-200l-109 559l-109 -559h-198l-217 1012h219l110 -645l109 645h174l109 -645l110 645h219z" />
    <glyph glyph-name="x" unicode="x" horiz-adv-x="778" 
d="M758 0h-248l-121 317l-125 -317h-244v4l244 516l-221 490h236l110 -293l115 293h231v-4l-221 -484z" />
    <glyph glyph-name="y" unicode="y" horiz-adv-x="797" 
d="M766 1010l-253 -997l-97 -382h-234l105 377l-256 1002h235l133 -664l133 664h234z" />
    <glyph glyph-name="z" unicode="z" horiz-adv-x="711" 
d="M653 0h-608v135l336 688h-309v187h581v-136l-338 -688h338v-186z" />
    <glyph glyph-name="braceleft" unicode="{" horiz-adv-x="760" 
d="M688 -248h-199q-239 0 -239 248v479l-197 193v37l197 192v416q0 248 239 248h199v-207q-12 0 -43 2t-48 2q-116 0 -116 -84v-354q0 -57 -11 -83t-52 -61l-109 -90l109 -92q41 -35 53 -63q10 -24 10 -78v-414q0 -87 119 -87q16 0 46 1.5t42 1.5v-207z" />
    <glyph glyph-name="bar" unicode="|" horiz-adv-x="430" 
d="M328 -360h-226v1925h226v-1925z" />
    <glyph glyph-name="braceright" unicode="}" horiz-adv-x="760" 
d="M707 672l-197 -193v-479q0 -248 -240 -248h-198v207q11 0 41 -1.5t46 -1.5q122 0 122 87v414q0 56 10 81.5t51 59.5l109 92l-109 90q-41 34 -52 63q-9 23 -9 81v354q0 83 -119 83q-17 0 -48 -1.5t-42 -1.5v207h198q240 0 240 -248v-416l197 -192v-37z" />
    <glyph glyph-name="asciitilde" unicode="~" horiz-adv-x="1036" 
d="M907 545q0 -123 -116 -123q-55 0 -132 31l-331 133v-158h-199v250q0 121 117 121q52 0 129 -31l332 -133v158h200v-248z" />
    <glyph glyph-name="sterling" unicode="&#xa3;" horiz-adv-x="942" 
d="M877 0h-828v201h105v454h-105v197h105v569q0 144 143 144h428q141 0 141 -142v-340h-229v283h-254v-514h279v-197h-279v-454h494v-201z" />
    <glyph glyph-name="yen" unicode="&#xa5;" horiz-adv-x="907" 
d="M881 1556l-181 -571h158v-186h-217l-45 -148h262v-188h-287v-463h-235v463h-285v188h260l-45 148h-215v186h156q-182 576 -180 580h241l187 -680l186 680h240v-9z" />
    <glyph glyph-name="section" unicode="&#xa7;" horiz-adv-x="913" 
d="M825 125q0 -125 -127 -125h-483q-127 0 -127 125v237h227v-190h285v195l-434 180q-78 32 -78 112v177q0 77 50 113q3 2 124 59q-120 57 -122 59q-52 37 -52 113v260q0 125 127 125h483q127 0 127 -125v-238h-225v191h-285v-195l433 -180q77 -33 77 -113v-176
q0 -78 -50 -114q-1 -1 -124 -58q122 -58 123 -59q51 -36 51 -113v-260zM604 694v176l-147 68l-146 -68v-176l146 -67z" />
    <glyph glyph-name="dieresis" unicode="&#xa8;" horiz-adv-x="1024" 
 />
    <glyph glyph-name="copyright" unicode="&#xa9;" horiz-adv-x="1194" 
d="M1102 90q0 -90 -90 -90h-830q-90 0 -90 90v1385q0 90 90 90h830q90 0 90 -90v-1385zM995 102v1360h-796v-1360h796zM825 438q0 -94 -94 -94h-272q-94 0 -94 94v692q0 97 94 97h272q94 0 94 -97v-219h-161v168h-138v-590h138v179h161v-230z" />
    <glyph glyph-name="registered" unicode="&#xae;" horiz-adv-x="1194" 
d="M1102 90q0 -90 -90 -90h-830q-90 0 -90 90v1385q0 90 90 90h830q90 0 90 -90v-1385zM995 102v1360h-796v-1360h796zM858 344h-164l-141 381l12 115h107v250h-148v-746h-162v881h377q92 0 92 -95v-319q0 -91 -112 -94z" />
    <glyph glyph-name="acute" unicode="&#xb4;" horiz-adv-x="836" 
d="M604 1341l-291 -264h-168v8l172 265h287v-9z" />
    <glyph glyph-name="paragraph" unicode="&#xb6;" horiz-adv-x="1040" 
d="M946 0h-213v561h-119v-561h-213v561h-182q-141 0 -141 141v721q0 142 141 142h727v-1565zM733 768v590h-252v-590h252z" />
    <glyph glyph-name="onequarter" unicode="&#xbc;" horiz-adv-x="1780" 
 />
    <glyph glyph-name="onehalf" unicode="&#xbd;" horiz-adv-x="1780" 
 />
    <glyph glyph-name="threequarters" unicode="&#xbe;" horiz-adv-x="1780" 
 />
    <glyph glyph-name=".notdef.106" unicode="&#xc0;" 
d="M887 0h-232l-47 297h-293l-47 -297h-231v4l303 1563h246zM575 498l-114 706l-115 -706h229zM604 1637h-168l-291 264v9h285l174 -265v-8z" />
    <glyph glyph-name=".notdef.107" unicode="&#xc1;" 
d="M887 0h-232l-47 297h-293l-47 -297h-231v4l303 1563h246zM575 498l-114 706l-115 -706h229zM775 1900l-291 -264h-168v8l172 265h287v-9z" />
    <glyph glyph-name=".notdef.111" unicode="&#xc2;" 
d="M887 0h-232l-47 297h-293l-47 -297h-231v4l303 1563h246zM575 498l-114 706l-115 -706h229zM747 1637h-150l-137 115l-137 -115h-148v8l207 261h158l207 -261v-8z" />
    <glyph glyph-name=".notdef.109" unicode="&#xc3;" 
d="M887 0h-232l-47 297h-293l-47 -297h-231v4l303 1563h246zM575 498l-114 706l-115 -706h229zM712 1730q0 -94 -94 -94q-52 0 -143 35q-67 28 -134 55v-88h-157v158q0 94 94 94q54 0 141 -34q67 -28 136 -56v88h157v-158z" />
    <glyph glyph-name=".notdef.123" unicode="&#xc8;" horiz-adv-x="809" 
d="M743 0h-649v1565h643v-207h-409v-457h352v-203h-352v-491h415v-207zM588 1638h-168l-291 264v9h285l174 -265v-8z" />
    <glyph glyph-name=".notdef.124" unicode="&#xc9;" horiz-adv-x="809" 
d="M743 0h-649v1565h643v-207h-409v-457h352v-203h-352v-491h415v-207zM694 1902l-291 -264h-168v8l172 265h287v-9z" />
    <glyph glyph-name=".notdef.128" unicode="&#xca;" horiz-adv-x="809" 
d="M743 0h-649v1565h643v-207h-409v-457h352v-203h-352v-491h415v-207zM706 1638h-150l-137 115l-137 -115h-148v8l207 261h158l207 -261v-8z" />
    <glyph glyph-name=".notdef.104" unicode="&#xcc;" horiz-adv-x="430" 
d="M332 0h-234v1565h234v-1565zM376 1638h-168l-291 264v9h285l174 -265v-8z" />
    <glyph glyph-name=".notdef.103" unicode="&#xcd;" horiz-adv-x="430" 
d="M332 0h-234v1565h234v-1565zM517 1902l-291 -264h-168v8l172 265h287v-9z" />
    <glyph glyph-name=".notdef.099" unicode="&#xd2;" horiz-adv-x="977" 
d="M883 143q0 -143 -142 -143h-508q-139 0 -139 143v1278q0 144 139 144h508q142 0 142 -144v-1278zM649 201v1163h-321v-1163h321zM641 1638h-168l-291 264v9h285l174 -265v-8z" />
    <glyph glyph-name=".notdef.098" unicode="&#xd3;" horiz-adv-x="977" 
d="M883 143q0 -143 -142 -143h-508q-139 0 -139 143v1278q0 144 139 144h508q142 0 142 -144v-1278zM649 201v1163h-321v-1163h321zM797 1902l-291 -264h-168v8l172 265h287v-9z" />
    <glyph glyph-name=".notdef.094" unicode="&#xd4;" horiz-adv-x="977" 
d="M883 143q0 -143 -142 -143h-508q-139 0 -139 143v1278q0 144 139 144h508q142 0 142 -144v-1278zM649 201v1163h-321v-1163h321zM774 1638h-150l-137 115l-137 -115h-148v8l207 261h158l207 -261v-8z" />
    <glyph glyph-name=".notdef.096" unicode="&#xd5;" horiz-adv-x="977" 
d="M883 143q0 -143 -142 -143h-508q-139 0 -139 143v1278q0 144 139 144h508q142 0 142 -144v-1278zM649 201v1163h-321v-1163h321zM751 1732q0 -94 -94 -94q-52 0 -143 35q-67 28 -134 55v-88h-157v158q0 94 94 94q54 0 141 -34q67 -28 136 -56v88h157v-158z" />
    <glyph glyph-name=".notdef.088" unicode="&#xd9;" horiz-adv-x="971" 
d="M877 143q0 -143 -144 -143h-497q-142 0 -142 143v1422h234v-1364h315v1364h234v-1422zM640 1638h-168l-291 264v9h285l174 -265v-8z" />
    <glyph glyph-name=".notdef.087" unicode="&#xda;" horiz-adv-x="971" 
d="M877 143q0 -143 -144 -143h-497q-142 0 -142 143v1422h234v-1364h315v1364h234v-1422zM788 1902l-291 -264h-168v8l172 265h287v-9z" />
    <glyph glyph-name=".notdef.070" unicode="&#xdd;" horiz-adv-x="907" 
d="M881 1556l-207 -654q-38 -97 -103 -327v-575h-235v575q-16 78 -46 165q-53 149 -57 162l-206 654q-1 1 0 9h241l187 -680l186 680h240v-9zM783 1902l-291 -264h-168v8l172 265h287v-9z" />
    <glyph glyph-name=".notdef.066" unicode="&#xe0;" horiz-adv-x="815" 
d="M733 0h-219v35l-156 -24q-102 -15 -155 -15q-125 0 -125 123v364q0 125 129 125h309v232h-219v-144h-207v189q0 125 129 125h387q127 0 127 -125v-885zM516 182v271h-219v-279zM579 1077h-168l-291 264v9h285l174 -265v-8z" />
    <glyph glyph-name=".notdef.065" unicode="&#xe1;" horiz-adv-x="815" 
d="M733 0h-219v35l-156 -24q-102 -15 -155 -15q-125 0 -125 123v364q0 125 129 125h309v232h-219v-144h-207v189q0 125 129 125h387q127 0 127 -125v-885zM516 182v271h-219v-279zM711 1341l-291 -264h-168v8l172 265h287v-9z" />
    <glyph glyph-name=".notdef.061" unicode="&#xe2;" horiz-adv-x="815" 
d="M733 0h-219v35l-156 -24q-102 -15 -155 -15q-125 0 -125 123v364q0 125 129 125h309v232h-219v-144h-207v189q0 125 129 125h387q127 0 127 -125v-885zM516 182v271h-219v-279zM700 1077h-150l-137 115l-137 -115h-148v8l207 261h158l207 -261v-8z" />
    <glyph glyph-name=".notdef.063" unicode="&#xe3;" horiz-adv-x="815" 
d="M733 0h-219v35l-156 -24q-102 -15 -155 -15q-125 0 -125 123v364q0 125 129 125h309v232h-219v-144h-207v189q0 125 129 125h387q127 0 127 -125v-885zM516 182v271h-219v-279zM679 1172q0 -94 -94 -94q-52 0 -143 35q-67 28 -134 55v-88h-157v158q0 94 94 94
q54 0 141 -34q67 -28 136 -56v88h157v-158z" />
    <glyph glyph-name=".notdef.049" unicode="&#xe8;" horiz-adv-x="819" 
d="M735 125q0 -125 -129 -125h-395q-129 0 -129 125v760q0 125 129 125h395q129 0 129 -125v-371l-63 -63h-371v-283h215v168h219v-211zM516 600v242h-215v-242h215zM574 1077h-168l-291 264v9h285l174 -265v-8z" />
    <glyph glyph-name=".notdef.048" unicode="&#xe9;" horiz-adv-x="819" 
d="M735 125q0 -125 -129 -125h-395q-129 0 -129 125v760q0 125 129 125h395q129 0 129 -125v-371l-63 -63h-371v-283h215v168h219v-211zM516 600v242h-215v-242h215zM703 1341l-291 -264h-168v8l172 265h287v-9z" />
    <glyph glyph-name=".notdef.044" unicode="&#xea;" horiz-adv-x="819" 
d="M735 125q0 -125 -129 -125h-395q-129 0 -129 125v760q0 125 129 125h395q129 0 129 -125v-371l-63 -63h-371v-283h215v168h219v-211zM516 600v242h-215v-242h215zM696 1077h-150l-137 115l-137 -115h-148v8l207 261h158l207 -261v-8z" />
    <glyph glyph-name=".notdef.038" unicode="&#xec;" horiz-adv-x="401" 
d="M313 0h-225v1010h225v-1010zM359 1077h-168l-291 264v9h285l174 -265v-8z" />
    <glyph glyph-name=".notdef.037" unicode="&#xed;" horiz-adv-x="401" 
d="M313 0h-225v1010h225v-1010zM498 1341l-291 -264h-168v8l172 265h287v-9z" />
    <glyph glyph-name=".notdef.033" unicode="&#xf2;" horiz-adv-x="831" 
d="M748 125q0 -125 -127 -125h-410q-129 0 -129 125v760q0 125 129 125h410q127 0 127 -125v-760zM524 190v629h-217v-629h217zM574 1077h-168l-291 264v9h285l174 -265v-8z" />
    <glyph glyph-name=".notdef.032" unicode="&#xf3;" horiz-adv-x="831" 
d="M748 125q0 -125 -127 -125h-410q-129 0 -129 125v760q0 125 129 125h410q127 0 127 -125v-760zM524 190v629h-217v-629h217zM713 1341l-291 -264h-168v8l172 265h287v-9z" />
    <glyph glyph-name=".notdef.028" unicode="&#xf4;" horiz-adv-x="831" 
d="M748 125q0 -125 -127 -125h-410q-129 0 -129 125v760q0 125 129 125h410q127 0 127 -125v-760zM524 190v629h-217v-629h217zM693 1077h-150l-137 115l-137 -115h-148v8l207 261h158l207 -261v-8z" />
    <glyph glyph-name=".notdef.030" unicode="&#xf5;" horiz-adv-x="831" 
d="M748 125q0 -125 -127 -125h-410q-129 0 -129 125v760q0 125 129 125h410q127 0 127 -125v-760zM524 190v629h-217v-629h217zM679 1172q0 -94 -94 -94q-52 0 -143 35q-67 28 -134 55v-88h-157v158q0 94 94 94q54 0 141 -34q67 -28 136 -56v88h157v-158z" />
    <glyph glyph-name="divide" unicode="&#xf7;" horiz-adv-x="1706" 
 />
    <glyph glyph-name=".notdef.022" unicode="&#xf9;" horiz-adv-x="838" 
d="M754 0h-228v35q-79 -13 -159 -26q-97 -15 -160 -15q-125 0 -125 125v891h227v-820l217 5v815h228v-1010zM577 1077h-168l-291 264v9h285l174 -265v-8z" />
    <glyph glyph-name=".notdef.021" unicode="&#xfa;" horiz-adv-x="838" 
d="M754 0h-228v35q-79 -13 -159 -26q-97 -15 -160 -15q-125 0 -125 125v891h227v-820l217 5v815h228v-1010zM712 1341l-291 -264h-168v8l172 265h287v-9z" />
    <glyph glyph-name=".notdef.004" unicode="&#xfd;" horiz-adv-x="797" 
d="M766 1010l-253 -997l-97 -382h-234l105 377l-256 1002h235l133 -664l133 664h234zM727 1341l-291 -264h-168v8l172 265h287v-9z" />
    <glyph glyph-name=".notdef.117" unicode="&#x102;" 
d="M887 0h-232l-47 297h-293l-47 -297h-231v4l303 1563h246zM575 498l-114 706l-115 -706h229zM699 1752q0 -114 -116 -114h-238q-116 0 -116 114v112h142v-94h184v94h144v-112z" />
    <glyph glyph-name=".notdef.055" unicode="&#x103;" horiz-adv-x="815" 
d="M733 0h-219v35l-156 -24q-102 -15 -155 -15q-125 0 -125 123v364q0 125 129 125h309v232h-219v-144h-207v189q0 125 129 125h387q127 0 127 -125v-885zM516 182v271h-219v-279zM649 1192q0 -114 -116 -114h-238q-116 0 -116 114v112h142v-94h184v94h144v-112z" />
    <glyph glyph-name="Ccaron" unicode="&#x10c;" horiz-adv-x="1274" 
 />
    <glyph glyph-name="ccaron" unicode="&#x10d;" horiz-adv-x="922" 
 />
    <glyph glyph-name="Dslash" unicode="&#x110;" horiz-adv-x="961" 
d="M874 295q0 -138 -82 -216.5t-221 -78.5h-477v709h-95v226h95v630h477q139 0 221 -79.5t82 -217.5v-973zM465 709h-137v-508h168q143 0 143 133v899q0 131 -137 131h-174v-429h137v-226z" />
    <glyph glyph-name="dcroat" unicode="&#x111;" horiz-adv-x="836" 
d="M835 1129h-83v-1129h-228v35q-232 -41 -260 -41q-86 0 -135 50.5t-49 137.5v625q0 123 88 171q64 36 194 36q29 0 84 -2t78 -2v119h-155v226h155v210h228v-210h83v-226zM524 197v622h-141q-76 0 -76 -76v-483q0 -74 72 -74q17 0 145 11z" />
    <glyph glyph-name=".notdef.101" unicode="&#x128;" horiz-adv-x="430" 
d="M332 0h-234v1565h234v-1565zM484 1731q0 -94 -94 -94q-52 0 -143 35q-67 28 -134 55v-88h-157v158q0 94 94 94q54 0 141 -34q67 -28 136 -56v88h157v-158z" />
    <glyph glyph-name=".notdef.035" unicode="&#x129;" horiz-adv-x="401" 
d="M313 0h-225v1010h225v-1010zM462 1171q0 -94 -94 -94q-52 0 -143 35q-67 28 -134 55v-88h-157v158q0 94 94 94q54 0 141 -34q67 -28 136 -56v88h157v-158z" />
    <glyph glyph-name=".notdef.085" unicode="&#x168;" horiz-adv-x="971" 
d="M877 143q0 -143 -144 -143h-497q-142 0 -142 143v1422h234v-1364h315v1364h234v-1422zM756 1731q0 -94 -94 -94q-52 0 -143 35q-67 28 -134 55v-88h-157v158q0 94 94 94q54 0 141 -34q67 -28 136 -56v88h157v-158z" />
    <glyph glyph-name=".notdef.019" unicode="&#x169;" horiz-adv-x="838" 
d="M754 0h-228v35q-79 -13 -159 -26q-97 -15 -160 -15q-125 0 -125 125v891h227v-820l217 5v815h228v-1010zM679 1171q0 -94 -94 -94q-52 0 -143 35q-67 28 -134 55v-88h-157v158q0 94 94 94q54 0 141 -34q67 -28 136 -56v88h157v-158z" />
    <glyph glyph-name=".notdef.077" unicode="&#x1a0;" horiz-adv-x="1129" 
d="M1127 1565l-140 -304h-104v-1118q0 -143 -142 -143h-508q-139 0 -139 143v1278q0 144 139 144h508q142 0 142 -144v-50l42 194h202zM649 201v1163h-321v-1163h321z" />
    <glyph glyph-name=".notdef.011" unicode="&#x1a1;" horiz-adv-x="984" 
d="M990 1012l-140 -304h-102v-583q0 -125 -127 -125h-410q-129 0 -129 125v760q0 125 129 125h410q127 0 127 -125v-57l40 184h202zM524 190v629h-217v-629h217z" />
    <glyph glyph-name=".notdef.083" unicode="&#x1af;" horiz-adv-x="1127" 
d="M1127 1565l-140 -304h-110v-1118q0 -143 -144 -143h-497q-142 0 -142 143v1422h234v-1364h315v1364h234v-221l48 221h202z" />
    <glyph glyph-name=".notdef.017" unicode="&#x1b0;" horiz-adv-x="999" 
d="M1003 1012l-140 -304h-109v-708h-228v35q-79 -13 -159 -26q-97 -15 -160 -15q-125 0 -125 125v891h227v-820l217 5v815h228v-215l47 217h202z" />
    <glyph glyph-name=".notdef.110" unicode="&#x1ea0;" 
d="M887 0h-232l-47 297h-293l-47 -297h-231v4l303 1563h246zM575 498l-114 706l-115 -706h229zM574 -312h-222v239h222v-239z" />
    <glyph glyph-name=".notdef.062" unicode="&#x1ea1;" horiz-adv-x="815" 
d="M733 0h-219v35l-156 -24q-102 -15 -155 -15q-125 0 -125 123v364q0 125 129 125h309v232h-219v-144h-207v189q0 125 129 125h387q127 0 127 -125v-885zM516 182v271h-219v-279zM509 -312h-222v239h222v-239z" />
    <glyph glyph-name=".notdef.108" unicode="&#x1ea2;" 
d="M887 0h-232l-47 297h-293l-47 -297h-231v4l303 1563h246zM575 498l-114 706l-115 -706h229zM614 1821q0 -16 -4 -32t-18 -29q-14 -16 -24.5 -26t-22.5 -19q-2 -2 -5 -6.5l-5 -7.5l-3 -4.5t-6 -6.5v-51h-114v52q0 31 20 57l67 71q0 17 -0.5 31.5t-0.5 33.5l-66 1v-78
l-111 -1v110q0 31 21.5 52t56.5 21h136q37 0 57.5 -21t20.5 -52z" />
    <glyph glyph-name=".notdef.064" unicode="&#x1ea3;" horiz-adv-x="815" 
d="M733 0h-219v35l-156 -24q-102 -15 -155 -15q-125 0 -125 123v364q0 125 129 125h309v232h-219v-144h-207v189q0 125 129 125h387q127 0 127 -125v-885zM516 182v271h-219v-279zM574 1260q0 -16 -4 -32t-18 -29q-14 -16 -24.5 -26t-22.5 -19q-2 -2 -5 -6.5l-5 -7.5
l-3 -4.5t-6 -6.5v-51h-114v52q0 31 20 57l67 71q0 17 -0.5 31.5t-0.5 33.5l-66 1v-78l-111 -1v110q0 31 21.5 52t56.5 21h136q37 0 57.5 -21t20.5 -52z" />
    <glyph glyph-name=".notdef.113" unicode="&#x1ea4;" 
d="M887 0h-232l-47 297h-293l-47 -297h-231v4l303 1563h246zM575 498l-114 706l-115 -706h229zM747 1637h-150l-137 115l-137 -115h-148v8l207 261h158l207 -261v-8zM1106 2093l-291 -264h-168v8l172 265h287v-9z" />
    <glyph glyph-name=".notdef.059" unicode="&#x1ea5;" horiz-adv-x="815" 
d="M733 0h-219v35l-156 -24q-102 -15 -155 -15q-125 0 -125 123v364q0 125 129 125h309v232h-219v-144h-207v189q0 125 129 125h387q127 0 127 -125v-885zM516 182v271h-219v-279zM700 1077h-150l-137 115l-137 -115h-148v8l207 261h158l207 -261v-8zM1060 1533l-291 -264
h-168v8l172 265h287v-9z" />
    <glyph glyph-name=".notdef.112" unicode="&#x1ea6;" 
d="M887 0h-232l-47 297h-293l-47 -297h-231v4l303 1563h246zM575 498l-114 706l-115 -706h229zM747 1637h-150l-137 115l-137 -115h-148v8l207 261h158l207 -261v-8zM898 1829h-168l-291 264v9h285l174 -265v-8z" />
    <glyph glyph-name=".notdef.060" unicode="&#x1ea7;" horiz-adv-x="815" 
d="M733 0h-219v35l-156 -24q-102 -15 -155 -15q-125 0 -125 123v364q0 125 129 125h309v232h-219v-144h-207v189q0 125 129 125h387q127 0 127 -125v-885zM516 182v271h-219v-279zM700 1077h-150l-137 115l-137 -115h-148v8l207 261h158l207 -261v-8zM851 1268h-168
l-291 264v9h285l174 -265v-8z" />
    <glyph glyph-name=".notdef.114" unicode="&#x1ea8;" 
d="M887 0h-232l-47 297h-293l-47 -297h-231v4l303 1563h246zM575 498l-114 706l-115 -706h229zM747 1637h-150l-137 115l-137 -115h-148v8l207 261h158l207 -261v-8zM878 2010q0 -16 -4 -32t-18 -29q-14 -16 -24.5 -26t-22.5 -19q-2 -2 -5 -6.5l-5 -7.5l-3 -4.5t-6 -6.5v-51
h-114v52q0 31 20 57l67 71q0 17 -0.5 31.5t-0.5 33.5l-66 1v-78l-111 -1v110q0 31 21.5 52t56.5 21h136q37 0 57.5 -21t20.5 -52z" />
    <glyph glyph-name=".notdef.058" unicode="&#x1ea9;" horiz-adv-x="815" 
d="M733 0h-219v35l-156 -24q-102 -15 -155 -15q-125 0 -125 123v364q0 125 129 125h309v232h-219v-144h-207v189q0 125 129 125h387q127 0 127 -125v-885zM516 182v271h-219v-279zM700 1077h-150l-137 115l-137 -115h-148v8l207 261h158l207 -261v-8zM831 1450q0 -16 -4 -32
t-18 -29q-14 -16 -24.5 -26t-22.5 -19q-2 -2 -5 -6.5l-5 -7.5l-3 -4.5t-6 -6.5v-51h-114v52q0 31 20 57l67 71q0 17 -0.5 31.5t-0.5 33.5l-66 1v-78l-111 -1v110q0 31 21.5 52t56.5 21h136q37 0 57.5 -21t20.5 -52z" />
    <glyph glyph-name=".notdef.115" unicode="&#x1eaa;" 
d="M887 0h-232l-47 297h-293l-47 -297h-231v4l303 1563h246zM575 498l-114 706l-115 -706h229zM747 1637h-150l-137 115l-137 -115h-148v8l207 261h158l207 -261v-8zM718 2048q0 -94 -94 -94q-52 0 -143 35q-67 28 -134 55v-88h-157v158q0 94 94 94q54 0 141 -34
q67 -28 136 -56v88h157v-158z" />
    <glyph glyph-name=".notdef.057" unicode="&#x1eab;" horiz-adv-x="815" 
d="M733 0h-219v35l-156 -24q-102 -15 -155 -15q-125 0 -125 123v364q0 125 129 125h309v232h-219v-144h-207v189q0 125 129 125h387q127 0 127 -125v-885zM516 182v271h-219v-279zM700 1077h-150l-137 115l-137 -115h-148v8l207 261h158l207 -261v-8zM670 1488
q0 -94 -94 -94q-52 0 -143 35q-67 28 -134 55v-88h-157v158q0 94 94 94q54 0 141 -34q67 -28 136 -56v88h157v-158z" />
    <glyph glyph-name=".notdef.116" unicode="&#x1eac;" 
d="M887 0h-232l-47 297h-293l-47 -297h-231v4l303 1563h246zM575 498l-114 706l-115 -706h229zM747 1637h-150l-137 115l-137 -115h-148v8l207 261h158l207 -261v-8zM574 -312h-222v239h222v-239z" />
    <glyph glyph-name=".notdef.056" unicode="&#x1ead;" horiz-adv-x="815" 
d="M733 0h-219v35l-156 -24q-102 -15 -155 -15q-125 0 -125 123v364q0 125 129 125h309v232h-219v-144h-207v189q0 125 129 125h387q127 0 127 -125v-885zM516 182v271h-219v-279zM700 1077h-150l-137 115l-137 -115h-148v8l207 261h158l207 -261v-8zM509 -312h-222v239h222
v-239z" />
    <glyph glyph-name=".notdef.119" unicode="&#x1eae;" 
d="M887 0h-232l-47 297h-293l-47 -297h-231v4l303 1563h246zM575 498l-114 706l-115 -706h229zM699 1752q0 -114 -116 -114h-238q-116 0 -116 114v112h142v-94h184v94h144v-112zM820 2191l-291 -264h-168v8l172 265h287v-9z" />
    <glyph glyph-name=".notdef.053" unicode="&#x1eaf;" horiz-adv-x="815" 
d="M733 0h-219v35l-156 -24q-102 -15 -155 -15q-125 0 -125 123v364q0 125 129 125h309v232h-219v-144h-207v189q0 125 129 125h387q127 0 127 -125v-885zM516 182v271h-219v-279zM649 1192q0 -114 -116 -114h-238q-116 0 -116 114v112h142v-94h184v94h144v-112zM760 1641
l-291 -264h-168v8l172 265h287v-9z" />
    <glyph glyph-name=".notdef.118" unicode="&#x1eb0;" 
d="M887 0h-232l-47 297h-293l-47 -297h-231v4l303 1563h246zM575 498l-114 706l-115 -706h229zM699 1752q0 -114 -116 -114h-238q-116 0 -116 114v112h142v-94h184v94h144v-112zM579 1927h-168l-291 264v9h285l174 -265v-8z" />
    <glyph glyph-name=".notdef.054" unicode="&#x1eb1;" horiz-adv-x="815" 
d="M733 0h-219v35l-156 -24q-102 -15 -155 -15q-125 0 -125 123v364q0 125 129 125h309v232h-219v-144h-207v189q0 125 129 125h387q127 0 127 -125v-885zM516 182v271h-219v-279zM649 1192q0 -114 -116 -114h-238q-116 0 -116 114v112h142v-94h184v94h144v-112zM527 1375
h-168l-291 264v9h285l174 -265v-8z" />
    <glyph glyph-name=".notdef.120" unicode="&#x1eb2;" 
d="M887 0h-232l-47 297h-293l-47 -297h-231v4l303 1563h246zM575 498l-114 706l-115 -706h229zM699 1752q0 -114 -116 -114h-238q-116 0 -116 114v112h142v-94h184v94h144v-112zM609 2110q0 -16 -4 -32t-18 -29q-14 -16 -24.5 -26t-22.5 -19q-2 -2 -5 -6.5l-5 -7.5l-3 -4.5
t-6 -6.5v-51h-114v52q0 31 20 57l67 71q0 17 -0.5 31.5t-0.5 33.5l-66 1v-78l-111 -1v110q0 31 21.5 52t56.5 21h136q37 0 57.5 -21t20.5 -52z" />
    <glyph glyph-name=".notdef.052" unicode="&#x1eb3;" horiz-adv-x="815" 
d="M733 0h-219v35l-156 -24q-102 -15 -155 -15q-125 0 -125 123v364q0 125 129 125h309v232h-219v-144h-207v189q0 125 129 125h387q127 0 127 -125v-885zM516 182v271h-219v-279zM649 1192q0 -114 -116 -114h-238q-116 0 -116 114v112h142v-94h184v94h144v-112zM561 1558
q0 -16 -4 -32t-18 -29q-14 -16 -24.5 -26t-22.5 -19q-2 -2 -5 -6.5l-5 -7.5l-3 -4.5t-6 -6.5v-51h-114v52q0 31 20 57l67 71q0 17 -0.5 31.5t-0.5 33.5l-66 1v-78l-111 -1v110q0 31 21.5 52t56.5 21h136q37 0 57.5 -21t20.5 -52z" />
    <glyph glyph-name=".notdef.121" unicode="&#x1eb4;" 
d="M887 0h-232l-47 297h-293l-47 -297h-231v4l303 1563h246zM575 498l-114 706l-115 -706h229zM699 1752q0 -114 -116 -114h-238q-116 0 -116 114v112h142v-94h184v94h144v-112zM726 2024q0 -94 -94 -94q-52 0 -143 35q-67 28 -134 55v-88h-157v158q0 94 94 94q54 0 141 -34
q67 -28 136 -56v88h157v-158z" />
    <glyph glyph-name=".notdef.051" unicode="&#x1eb5;" horiz-adv-x="815" 
d="M733 0h-219v35l-156 -24q-102 -15 -155 -15q-125 0 -125 123v364q0 125 129 125h309v232h-219v-144h-207v189q0 125 129 125h387q127 0 127 -125v-885zM516 182v271h-219v-279zM649 1192q0 -114 -116 -114h-238q-116 0 -116 114v112h142v-94h184v94h144v-112zM672 1470
q0 -94 -94 -94q-52 0 -143 35q-67 28 -134 55v-88h-157v158q0 94 94 94q54 0 141 -34q67 -28 136 -56v88h157v-158z" />
    <glyph glyph-name=".notdef.122" unicode="&#x1eb6;" 
d="M887 0h-232l-47 297h-293l-47 -297h-231v4l303 1563h246zM575 498l-114 706l-115 -706h229zM699 1752q0 -114 -116 -114h-238q-116 0 -116 114v112h142v-94h184v94h144v-112zM574 -312h-222v239h222v-239z" />
    <glyph glyph-name=".notdef.050" unicode="&#x1eb7;" horiz-adv-x="815" 
d="M733 0h-219v35l-156 -24q-102 -15 -155 -15q-125 0 -125 123v364q0 125 129 125h309v232h-219v-144h-207v189q0 125 129 125h387q127 0 127 -125v-885zM516 182v271h-219v-279zM649 1192q0 -114 -116 -114h-238q-116 0 -116 114v112h142v-94h184v94h144v-112zM509 -312
h-222v239h222v-239z" />
    <glyph glyph-name=".notdef.127" unicode="&#x1eb8;" horiz-adv-x="809" 
d="M743 0h-649v1565h643v-207h-409v-457h352v-203h-352v-491h415v-207zM512 -312h-222v239h222v-239z" />
    <glyph glyph-name=".notdef.045" unicode="&#x1eb9;" horiz-adv-x="819" 
d="M735 125q0 -125 -129 -125h-395q-129 0 -129 125v760q0 125 129 125h395q129 0 129 -125v-371l-63 -63h-371v-283h215v168h219v-211zM516 600v242h-215v-242h215zM511 -312h-222v239h222v-239z" />
    <glyph glyph-name=".notdef.125" unicode="&#x1eba;" horiz-adv-x="809" 
d="M743 0h-649v1565h643v-207h-409v-457h352v-203h-352v-491h415v-207zM574 1820q0 -16 -4 -32t-18 -29q-14 -16 -24.5 -26t-22.5 -19q-2 -2 -5 -6.5l-5 -7.5l-3 -4.5t-6 -6.5v-51h-114v52q0 31 20 57l67 71q0 17 -0.5 31.5t-0.5 33.5l-66 1v-78l-111 -1v110q0 31 21.5 52
t56.5 21h136q37 0 57.5 -21t20.5 -52z" />
    <glyph glyph-name=".notdef.047" unicode="&#x1ebb;" horiz-adv-x="819" 
d="M735 125q0 -125 -129 -125h-395q-129 0 -129 125v760q0 125 129 125h395q129 0 129 -125v-371l-63 -63h-371v-283h215v168h219v-211zM516 600v242h-215v-242h215zM574 1260q0 -16 -4 -32t-18 -29q-14 -16 -24.5 -26t-22.5 -19q-2 -2 -5 -6.5l-5 -7.5l-3 -4.5t-6 -6.5v-51
h-114v52q0 31 20 57l67 71q0 17 -0.5 31.5t-0.5 33.5l-66 1v-78l-111 -1v110q0 31 21.5 52t56.5 21h136q37 0 57.5 -21t20.5 -52z" />
    <glyph glyph-name=".notdef.126" unicode="&#x1ebc;" horiz-adv-x="809" 
d="M743 0h-649v1565h643v-207h-409v-457h352v-203h-352v-491h415v-207zM694 1730q0 -94 -94 -94q-52 0 -143 35q-67 28 -134 55v-88h-157v158q0 94 94 94q54 0 141 -34q67 -28 136 -56v88h157v-158z" />
    <glyph glyph-name=".notdef.046" unicode="&#x1ebd;" horiz-adv-x="819" 
d="M735 125q0 -125 -129 -125h-395q-129 0 -129 125v760q0 125 129 125h395q129 0 129 -125v-371l-63 -63h-371v-283h215v168h219v-211zM516 600v242h-215v-242h215zM667 1173q0 -94 -94 -94q-52 0 -143 35q-67 28 -134 55v-88h-157v158q0 94 94 94q54 0 141 -34
q67 -28 136 -56v88h157v-158z" />
    <glyph glyph-name=".notdef.130" unicode="&#x1ebe;" horiz-adv-x="809" 
d="M743 0h-649v1565h643v-207h-409v-457h352v-203h-352v-491h415v-207zM706 1638h-150l-137 115l-137 -115h-148v8l207 261h158l207 -261v-8zM1064 2093l-291 -264h-168v8l172 265h287v-9z" />
    <glyph glyph-name=".notdef.042" unicode="&#x1ebf;" horiz-adv-x="819" 
d="M735 125q0 -125 -129 -125h-395q-129 0 -129 125v760q0 125 129 125h395q129 0 129 -125v-371l-63 -63h-371v-283h215v168h219v-211zM516 600v242h-215v-242h215zM696 1077h-150l-137 115l-137 -115h-148v8l207 261h158l207 -261v-8zM1055 1534l-291 -264h-168v8l172 265
h287v-9z" />
    <glyph glyph-name=".notdef.129" unicode="&#x1ec0;" horiz-adv-x="809" 
d="M743 0h-649v1565h643v-207h-409v-457h352v-203h-352v-491h415v-207zM706 1638h-150l-137 115l-137 -115h-148v8l207 261h158l207 -261v-8zM857 1830h-168l-291 264v9h285l174 -265v-8z" />
    <glyph glyph-name=".notdef.043" unicode="&#x1ec1;" horiz-adv-x="819" 
d="M735 125q0 -125 -129 -125h-395q-129 0 -129 125v760q0 125 129 125h395q129 0 129 -125v-371l-63 -63h-371v-283h215v168h219v-211zM516 600v242h-215v-242h215zM696 1077h-150l-137 115l-137 -115h-148v8l207 261h158l207 -261v-8zM847 1268h-168l-291 264v9h285
l174 -265v-8z" />
    <glyph glyph-name=".notdef.131" unicode="&#x1ec2;" horiz-adv-x="809" 
d="M743 0h-649v1565h643v-207h-409v-457h352v-203h-352v-491h415v-207zM706 1638h-150l-137 115l-137 -115h-148v8l207 261h158l207 -261v-8zM837 2011q0 -16 -4 -32t-18 -29q-14 -16 -24.5 -26t-22.5 -19q-2 -2 -5 -6.5l-5 -7.5l-3 -4.5t-6 -6.5v-51h-114v52q0 31 20 57
l67 71q0 17 -0.5 31.5t-0.5 33.5l-66 1v-78l-111 -1v110q0 31 21.5 52t56.5 21h136q37 0 57.5 -21t20.5 -52z" />
    <glyph glyph-name=".notdef.041" unicode="&#x1ec3;" horiz-adv-x="819" 
d="M735 125q0 -125 -129 -125h-395q-129 0 -129 125v760q0 125 129 125h395q129 0 129 -125v-371l-63 -63h-371v-283h215v168h219v-211zM516 600v242h-215v-242h215zM696 1077h-150l-137 115l-137 -115h-148v8l207 261h158l207 -261v-8zM827 1450q0 -16 -4 -32t-18 -29
q-14 -16 -24.5 -26t-22.5 -19q-2 -2 -5 -6.5l-5 -7.5l-3 -4.5t-6 -6.5v-51h-114v52q0 31 20 57l67 71q0 17 -0.5 31.5t-0.5 33.5l-66 1v-78l-111 -1v110q0 31 21.5 52t56.5 21h136q37 0 57.5 -21t20.5 -52z" />
    <glyph glyph-name=".notdef.132" unicode="&#x1ec4;" horiz-adv-x="809" 
d="M743 0h-649v1565h643v-207h-409v-457h352v-203h-352v-491h415v-207zM706 1638h-150l-137 115l-137 -115h-148v8l207 261h158l207 -261v-8zM684 2048q0 -94 -94 -94q-52 0 -143 35q-67 28 -134 55v-88h-157v158q0 94 94 94q54 0 141 -34q67 -28 136 -56v88h157v-158z" />
    <glyph glyph-name=".notdef.040" unicode="&#x1ec5;" horiz-adv-x="819" 
d="M735 125q0 -125 -129 -125h-395q-129 0 -129 125v760q0 125 129 125h395q129 0 129 -125v-371l-63 -63h-371v-283h215v168h219v-211zM516 600v242h-215v-242h215zM696 1077h-150l-137 115l-137 -115h-148v8l207 261h158l207 -261v-8zM670 1488q0 -94 -94 -94
q-52 0 -143 35q-67 28 -134 55v-88h-157v158q0 94 94 94q54 0 141 -34q67 -28 136 -56v88h157v-158z" />
    <glyph glyph-name=".notdef.105" unicode="&#x1ec6;" horiz-adv-x="809" 
d="M743 0h-649v1565h643v-207h-409v-457h352v-203h-352v-491h415v-207zM706 1638h-150l-137 115l-137 -115h-148v8l207 261h158l207 -261v-8zM512 -312h-222v239h222v-239z" />
    <glyph glyph-name=".notdef.039" unicode="&#x1ec7;" horiz-adv-x="819" 
d="M735 125q0 -125 -129 -125h-395q-129 0 -129 125v760q0 125 129 125h395q129 0 129 -125v-371l-63 -63h-371v-283h215v168h219v-211zM516 600v242h-215v-242h215zM696 1077h-150l-137 115l-137 -115h-148v8l207 261h158l207 -261v-8zM511 -312h-222v239h222v-239z" />
    <glyph glyph-name=".notdef.102" unicode="&#x1ec8;" horiz-adv-x="430" 
d="M332 0h-234v1565h234v-1565zM366 1820q0 -16 -4 -32t-18 -29q-14 -16 -24.5 -26t-22.5 -19q-2 -2 -5 -6.5l-5 -7.5l-3 -4.5t-6 -6.5v-51h-114v52q0 31 20 57l67 71q0 17 -0.5 31.5t-0.5 33.5l-66 1v-78l-111 -1v110q0 31 21.5 52t56.5 21h136q37 0 57.5 -21t20.5 -52z
" />
    <glyph glyph-name=".notdef.036" unicode="&#x1ec9;" horiz-adv-x="401" 
d="M313 0h-225v1010h225v-1010zM348 1260q0 -16 -4 -32t-18 -29q-14 -16 -24.5 -26t-22.5 -19q-2 -2 -5 -6.5l-5 -7.5l-3 -4.5t-6 -6.5v-51h-114v52q0 31 20 57l67 71q0 17 -0.5 31.5t-0.5 33.5l-66 1v-78l-111 -1v110q0 31 21.5 52t56.5 21h136q37 0 57.5 -21t20.5 -52z
" />
    <glyph glyph-name=".notdef.100" unicode="&#x1eca;" horiz-adv-x="430" 
d="M332 0h-234v1565h234v-1565zM329 -312h-222v239h222v-239z" />
    <glyph glyph-name=".notdef.034" unicode="&#x1ecb;" horiz-adv-x="401" 
d="M313 0h-225v1010h225v-1010zM309 -312h-222v239h222v-239zM315 1155h-229v236h229v-236z" />
    <glyph glyph-name=".notdef.095" unicode="&#x1ecc;" horiz-adv-x="977" 
d="M883 143q0 -143 -142 -143h-508q-139 0 -139 143v1278q0 144 139 144h508q142 0 142 -144v-1278zM649 201v1163h-321v-1163h321zM595 -312h-222v239h222v-239z" />
    <glyph glyph-name=".notdef.029" unicode="&#x1ecd;" horiz-adv-x="831" 
d="M748 125q0 -125 -127 -125h-410q-129 0 -129 125v760q0 125 129 125h410q127 0 127 -125v-760zM524 190v629h-217v-629h217zM528 -312h-222v239h222v-239z" />
    <glyph glyph-name=".notdef.097" unicode="&#x1ece;" horiz-adv-x="977" 
d="M883 143q0 -143 -142 -143h-508q-139 0 -139 143v1278q0 144 139 144h508q142 0 142 -144v-1278zM649 201v1163h-321v-1163h321zM635 1820q0 -16 -4 -32t-18 -29q-14 -16 -24.5 -26t-22.5 -19q-2 -2 -5 -6.5l-5 -7.5l-3 -4.5t-6 -6.5v-51h-114v52q0 31 20 57l67 71
q0 17 -0.5 31.5t-0.5 33.5l-66 1v-78l-111 -1v110q0 31 21.5 52t56.5 21h136q37 0 57.5 -21t20.5 -52z" />
    <glyph glyph-name=".notdef.031" unicode="&#x1ecf;" horiz-adv-x="831" 
d="M748 125q0 -125 -127 -125h-410q-129 0 -129 125v760q0 125 129 125h410q127 0 127 -125v-760zM524 190v629h-217v-629h217zM563 1260q0 -16 -4 -32t-18 -29q-14 -16 -24.5 -26t-22.5 -19q-2 -2 -5 -6.5l-5 -7.5l-3 -4.5t-6 -6.5v-51h-114v52q0 31 20 57l67 71
q0 17 -0.5 31.5t-0.5 33.5l-66 1v-78l-111 -1v110q0 31 21.5 52t56.5 21h136q37 0 57.5 -21t20.5 -52z" />
    <glyph glyph-name=".notdef.092" unicode="&#x1ed0;" horiz-adv-x="977" 
d="M883 143q0 -143 -142 -143h-508q-139 0 -139 143v1278q0 144 139 144h508q142 0 142 -144v-1278zM649 201v1163h-321v-1163h321zM774 1638h-150l-137 115l-137 -115h-148v8l207 261h158l207 -261v-8zM1133 2094l-291 -264h-168v8l172 265h287v-9z" />
    <glyph glyph-name=".notdef.026" unicode="&#x1ed1;" horiz-adv-x="831" 
d="M748 125q0 -125 -127 -125h-410q-129 0 -129 125v760q0 125 129 125h410q127 0 127 -125v-760zM524 190v629h-217v-629h217zM693 1077h-150l-137 115l-137 -115h-148v8l207 261h158l207 -261v-8zM1053 1533l-291 -264h-168v8l172 265h287v-9z" />
    <glyph glyph-name=".notdef.093" unicode="&#x1ed2;" horiz-adv-x="977" 
d="M883 143q0 -143 -142 -143h-508q-139 0 -139 143v1278q0 144 139 144h508q142 0 142 -144v-1278zM649 201v1163h-321v-1163h321zM774 1638h-150l-137 115l-137 -115h-148v8l207 261h158l207 -261v-8zM925 1829h-168l-291 264v9h285l174 -265v-8z" />
    <glyph glyph-name=".notdef.027" unicode="&#x1ed3;" horiz-adv-x="831" 
d="M748 125q0 -125 -127 -125h-410q-129 0 -129 125v760q0 125 129 125h410q127 0 127 -125v-760zM524 190v629h-217v-629h217zM693 1077h-150l-137 115l-137 -115h-148v8l207 261h158l207 -261v-8zM844 1268h-168l-291 264v9h285l174 -265v-8z" />
    <glyph glyph-name=".notdef.091" unicode="&#x1ed4;" horiz-adv-x="977" 
d="M883 143q0 -143 -142 -143h-508q-139 0 -139 143v1278q0 144 139 144h508q142 0 142 -144v-1278zM649 201v1163h-321v-1163h321zM774 1638h-150l-137 115l-137 -115h-148v8l207 261h158l207 -261v-8zM904 2011q0 -16 -4 -32t-18 -29q-14 -16 -24.5 -26t-22.5 -19
q-2 -2 -5 -6.5l-5 -7.5l-3 -4.5t-6 -6.5v-51h-114v52q0 31 20 57l67 71q0 17 -0.5 31.5t-0.5 33.5l-66 1v-78l-111 -1v110q0 31 21.5 52t56.5 21h136q37 0 57.5 -21t20.5 -52z" />
    <glyph glyph-name=".notdef.025" unicode="&#x1ed5;" horiz-adv-x="831" 
d="M748 125q0 -125 -127 -125h-410q-129 0 -129 125v760q0 125 129 125h410q127 0 127 -125v-760zM524 190v629h-217v-629h217zM693 1077h-150l-137 115l-137 -115h-148v8l207 261h158l207 -261v-8zM825 1450q0 -16 -4 -32t-18 -29q-14 -16 -24.5 -26t-22.5 -19
q-2 -2 -5 -6.5l-5 -7.5l-3 -4.5t-6 -6.5v-51h-114v52q0 31 20 57l67 71q0 17 -0.5 31.5t-0.5 33.5l-66 1v-78l-111 -1v110q0 31 21.5 52t56.5 21h136q37 0 57.5 -21t20.5 -52z" />
    <glyph glyph-name=".notdef.090" unicode="&#x1ed6;" horiz-adv-x="977" 
d="M883 143q0 -143 -142 -143h-508q-139 0 -139 143v1278q0 144 139 144h508q142 0 142 -144v-1278zM649 201v1163h-321v-1163h321zM774 1638h-150l-137 115l-137 -115h-148v8l207 261h158l207 -261v-8zM749 2048q0 -94 -94 -94q-52 0 -143 35q-67 28 -134 55v-88h-157v158
q0 94 94 94q54 0 141 -34q67 -28 136 -56v88h157v-158z" />
    <glyph glyph-name=".notdef.024" unicode="&#x1ed7;" horiz-adv-x="831" 
d="M748 125q0 -125 -127 -125h-410q-129 0 -129 125v760q0 125 129 125h410q127 0 127 -125v-760zM524 190v629h-217v-629h217zM693 1077h-150l-137 115l-137 -115h-148v8l207 261h158l207 -261v-8zM670 1488q0 -94 -94 -94q-52 0 -143 35q-67 28 -134 55v-88h-157v158
q0 94 94 94q54 0 141 -34q67 -28 136 -56v88h157v-158z" />
    <glyph glyph-name=".notdef.089" unicode="&#x1ed8;" horiz-adv-x="977" 
d="M883 143q0 -143 -142 -143h-508q-139 0 -139 143v1278q0 144 139 144h508q142 0 142 -144v-1278zM649 201v1163h-321v-1163h321zM774 1638h-150l-137 115l-137 -115h-148v8l207 261h158l207 -261v-8zM595 -312h-222v239h222v-239z" />
    <glyph glyph-name=".notdef.023" unicode="&#x1ed9;" horiz-adv-x="831" 
d="M748 125q0 -125 -127 -125h-410q-129 0 -129 125v760q0 125 129 125h410q127 0 127 -125v-760zM524 190v629h-217v-629h217zM693 1077h-150l-137 115l-137 -115h-148v8l207 261h158l207 -261v-8zM528 -312h-222v239h222v-239z" />
    <glyph glyph-name=".notdef.075" unicode="&#x1eda;" horiz-adv-x="1129" 
d="M1127 1565l-140 -304h-104v-1118q0 -143 -142 -143h-508q-139 0 -139 143v1278q0 144 139 144h508q142 0 142 -144v-50l42 194h202zM649 201v1163h-321v-1163h321zM797 1902l-291 -264h-168v8l172 265h287v-9z" />
    <glyph glyph-name=".notdef.009" unicode="&#x1edb;" horiz-adv-x="984" 
d="M990 1012l-140 -304h-102v-583q0 -125 -127 -125h-410q-129 0 -129 125v760q0 125 129 125h410q127 0 127 -125v-57l40 184h202zM524 190v629h-217v-629h217zM713 1341l-291 -264h-168v8l172 265h287v-9z" />
    <glyph glyph-name=".notdef.076" unicode="&#x1edc;" horiz-adv-x="1129" 
d="M1127 1565l-140 -304h-104v-1118q0 -143 -142 -143h-508q-139 0 -139 143v1278q0 144 139 144h508q142 0 142 -144v-50l42 194h202zM649 201v1163h-321v-1163h321zM638 1638h-168l-291 264v9h285l174 -265v-8z" />
    <glyph glyph-name=".notdef.010" unicode="&#x1edd;" horiz-adv-x="984" 
d="M990 1012l-140 -304h-102v-583q0 -125 -127 -125h-410q-129 0 -129 125v760q0 125 129 125h410q127 0 127 -125v-57l40 184h202zM524 190v629h-217v-629h217zM571 1077h-168l-291 264v9h285l174 -265v-8z" />
    <glyph glyph-name=".notdef.074" unicode="&#x1ede;" horiz-adv-x="1129" 
d="M1127 1565l-140 -304h-104v-1118q0 -143 -142 -143h-508q-139 0 -139 143v1278q0 144 139 144h508q142 0 142 -144v-50l42 194h202zM649 201v1163h-321v-1163h321zM635 1820q0 -16 -4 -32t-18 -29q-14 -16 -24.5 -26t-22.5 -19q-2 -2 -5 -7l-8 -12l-6 -6v-51h-114v52
q0 31 20 57l67 71q0 17 -0.5 31.5t-0.5 33.5l-66 1v-78l-111 -1v110q0 31 21.5 52t56.5 21h136q37 0 57.5 -21t20.5 -52z" />
    <glyph glyph-name=".notdef.008" unicode="&#x1edf;" horiz-adv-x="984" 
d="M990 1012l-140 -304h-102v-583q0 -125 -127 -125h-410q-129 0 -129 125v760q0 125 129 125h410q127 0 127 -125v-57l40 184h202zM524 190v629h-217v-629h217zM563 1260q0 -16 -4 -32t-18 -29q-14 -16 -24.5 -26t-22.5 -19q-2 -2 -5 -7l-8 -12l-6 -6v-51h-114v52
q0 31 20 57l67 71q0 17 -0.5 31.5t-0.5 33.5l-66 1v-78l-111 -1v110q0 31 21.5 52t56.5 21h136q37 0 57.5 -21t20.5 -52z" />
    <glyph glyph-name=".notdef.073" unicode="&#x1ee0;" horiz-adv-x="1129" 
d="M1127 1565l-140 -304h-104v-1118q0 -143 -142 -143h-508q-139 0 -139 143v1278q0 144 139 144h508q142 0 142 -144v-50l42 194h202zM649 201v1163h-321v-1163h321zM751 1732q0 -94 -94 -94q-52 0 -143 35q-67 28 -134 55v-88h-157v158q0 94 94 94q54 0 141 -34
q67 -28 136 -56v88h157v-158z" />
    <glyph glyph-name=".notdef.007" unicode="&#x1ee1;" horiz-adv-x="984" 
d="M990 1012l-140 -304h-102v-583q0 -125 -127 -125h-410q-129 0 -129 125v760q0 125 129 125h410q127 0 127 -125v-57l40 184h202zM524 190v629h-217v-629h217zM679 1172q0 -94 -94 -94q-52 0 -143 35q-67 28 -134 55v-88h-157v158q0 94 94 94q54 0 141 -34q67 -28 136 -56
v88h157v-158z" />
    <glyph glyph-name=".notdef.072" unicode="&#x1ee2;" horiz-adv-x="1129" 
d="M1127 1565l-140 -304h-104v-1118q0 -143 -142 -143h-508q-139 0 -139 143v1278q0 144 139 144h508q142 0 142 -144v-50l42 194h202zM649 201v1163h-321v-1163h321zM595 -312h-222v239h222v-239z" />
    <glyph glyph-name=".notdef.006" unicode="&#x1ee3;" horiz-adv-x="984" 
d="M990 1012l-140 -304h-102v-583q0 -125 -127 -125h-410q-129 0 -129 125v760q0 125 129 125h410q127 0 127 -125v-57l40 184h202zM524 190v629h-217v-629h217zM528 -312h-222v239h222v-239z" />
    <glyph glyph-name=".notdef.084" unicode="&#x1ee4;" horiz-adv-x="971" 
d="M877 143q0 -143 -144 -143h-497q-142 0 -142 143v1422h234v-1364h315v1364h234v-1422zM595 -312h-222v239h222v-239z" />
    <glyph glyph-name=".notdef.018" unicode="&#x1ee5;" horiz-adv-x="838" 
d="M754 0h-228v35q-79 -13 -159 -26q-97 -15 -160 -15q-125 0 -125 125v891h227v-820l217 5v815h228v-1010zM526 -312h-222v239h222v-239z" />
    <glyph glyph-name=".notdef.086" unicode="&#x1ee6;" horiz-adv-x="971" 
d="M877 143q0 -143 -144 -143h-497q-142 0 -142 143v1422h234v-1364h315v1364h234v-1422zM635 1820q0 -16 -4 -32t-18 -29q-14 -16 -24.5 -26t-22.5 -19q-2 -2 -5 -6.5l-5 -7.5l-3 -4.5t-6 -6.5v-51h-114v52q0 31 20 57l67 71q0 17 -0.5 31.5t-0.5 33.5l-66 1v-78l-111 -1
v110q0 31 21.5 52t56.5 21h136q37 0 57.5 -21t20.5 -52z" />
    <glyph glyph-name=".notdef.020" unicode="&#x1ee7;" horiz-adv-x="838" 
d="M754 0h-228v35q-79 -13 -159 -26q-97 -15 -160 -15q-125 0 -125 125v891h227v-820l217 5v815h228v-1010zM564 1260q0 -16 -4 -32t-18 -29q-14 -16 -24.5 -26t-22.5 -19q-2 -2 -5 -6.5l-5 -7.5l-3 -4.5t-6 -6.5v-51h-114v52q0 31 20 57l67 71q0 17 -0.5 31.5t-0.5 33.5
l-66 1v-78l-111 -1v110q0 31 21.5 52t56.5 21h136q37 0 57.5 -21t20.5 -52z" />
    <glyph glyph-name=".notdef.081" unicode="&#x1ee8;" horiz-adv-x="1127" 
d="M1127 1565l-140 -304h-110v-1118q0 -143 -144 -143h-497q-142 0 -142 143v1422h234v-1364h315v1364h234v-221l48 221h202zM788 1902l-291 -264h-168v8l172 265h287v-9z" />
    <glyph glyph-name=".notdef.015" unicode="&#x1ee9;" horiz-adv-x="999" 
d="M1003 1012l-140 -304h-109v-708h-228v35q-79 -13 -159 -26q-97 -15 -160 -15q-125 0 -125 125v891h227v-820l217 5v815h228v-215l47 217h202zM712 1341l-291 -264h-168v8l172 265h287v-9z" />
    <glyph glyph-name=".notdef.082" unicode="&#x1eea;" horiz-adv-x="1127" 
d="M1127 1565l-140 -304h-110v-1118q0 -143 -144 -143h-497q-142 0 -142 143v1422h234v-1364h315v1364h234v-221l48 221h202zM637 1638h-168l-291 264v9h285l174 -265v-8z" />
    <glyph glyph-name=".notdef.016" unicode="&#x1eeb;" horiz-adv-x="999" 
d="M1003 1012l-140 -304h-109v-708h-228v35q-79 -13 -159 -26q-97 -15 -160 -15q-125 0 -125 125v891h227v-820l217 5v815h228v-215l47 217h202zM574 1077h-168l-291 264v9h285l174 -265v-8z" />
    <glyph glyph-name=".notdef.080" unicode="&#x1eec;" horiz-adv-x="1127" 
d="M1127 1565l-140 -304h-110v-1118q0 -143 -144 -143h-497q-142 0 -142 143v1422h234v-1364h315v1364h234v-221l48 221h202zM635 1820q0 -16 -4 -32t-18 -29q-14 -16 -24.5 -26t-22.5 -19q-2 -2 -5 -7l-8 -12l-6 -6v-51h-114v52q0 31 20 57l67 71q0 17 -0.5 31.5t-0.5 33.5
l-66 1v-78l-111 -1v110q0 31 21.5 52t56.5 21h136q37 0 57.5 -21t20.5 -52z" />
    <glyph glyph-name=".notdef.014" unicode="&#x1eed;" horiz-adv-x="999" 
d="M1003 1012l-140 -304h-109v-708h-228v35q-79 -13 -159 -26q-97 -15 -160 -15q-125 0 -125 125v891h227v-820l217 5v815h228v-215l47 217h202zM564 1260q0 -16 -4 -32t-18 -29q-14 -16 -24.5 -26t-22.5 -19q-2 -2 -5 -7l-8 -12l-6 -6v-51h-114v52q0 31 20 57l67 71
q0 17 -0.5 31.5t-0.5 33.5l-66 1v-78l-111 -1v110q0 31 21.5 52t56.5 21h136q37 0 57.5 -21t20.5 -52z" />
    <glyph glyph-name=".notdef.079" unicode="&#x1eee;" horiz-adv-x="1127" 
d="M1127 1565l-140 -304h-110v-1118q0 -143 -144 -143h-497q-142 0 -142 143v1422h234v-1364h315v1364h234v-221l48 221h202zM756 1731q0 -94 -94 -94q-52 0 -143 35q-67 28 -134 55v-88h-157v158q0 94 94 94q54 0 141 -34q67 -28 136 -56v88h157v-158z" />
    <glyph glyph-name=".notdef.013" unicode="&#x1eef;" horiz-adv-x="999" 
d="M1003 1012l-140 -304h-109v-708h-228v35q-79 -13 -159 -26q-97 -15 -160 -15q-125 0 -125 125v891h227v-820l217 5v815h228v-215l47 217h202zM679 1171q0 -94 -94 -94q-52 0 -143 35q-67 28 -134 55v-88h-157v158q0 94 94 94q54 0 141 -34q67 -28 136 -56v88h157v-158z
" />
    <glyph glyph-name=".notdef.078" unicode="&#x1ef0;" horiz-adv-x="1127" 
d="M1127 1565l-140 -304h-110v-1118q0 -143 -144 -143h-497q-142 0 -142 143v1422h234v-1364h315v1364h234v-221l48 221h202zM595 -312h-222v239h222v-239z" />
    <glyph glyph-name=".notdef.012" unicode="&#x1ef1;" horiz-adv-x="999" 
d="M1003 1012l-140 -304h-109v-708h-228v35q-79 -13 -159 -26q-97 -15 -160 -15q-125 0 -125 125v891h227v-820l217 5v815h228v-215l47 217h202zM526 -312h-222v239h222v-239z" />
    <glyph glyph-name=".notdef.071" unicode="&#x1ef2;" horiz-adv-x="907" 
d="M881 1556l-207 -654q-38 -97 -103 -327v-575h-235v575q-16 78 -46 165q-53 149 -57 162l-206 654q-1 1 0 9h241l187 -680l186 680h240v-9zM601 1637h-168l-291 264v9h285l174 -265v-8z" />
    <glyph glyph-name=".notdef.005" unicode="&#x1ef3;" horiz-adv-x="797" 
d="M766 1010l-253 -997l-97 -382h-234l105 377l-256 1002h235l133 -664l133 664h234zM574 1077h-168l-291 264v9h285l174 -265v-8z" />
    <glyph glyph-name=".notdef.067" unicode="&#x1ef4;" horiz-adv-x="907" 
d="M881 1556l-207 -654q-38 -97 -103 -327v-575h-235v575q-16 78 -46 165q-53 149 -57 162l-206 654q-1 1 0 9h241l187 -680l186 680h240v-9zM564 -312h-222v239h222v-239z" />
    <glyph glyph-name=".notdef.001" unicode="&#x1ef5;" horiz-adv-x="797" 
d="M766 1010l-253 -997l-97 -382h-234l105 377l-256 1002h235l133 -664l133 664h234zM796 -312h-222v239h222v-239z" />
    <glyph glyph-name=".notdef.069" unicode="&#x1ef6;" horiz-adv-x="907" 
d="M881 1556l-207 -654q-38 -97 -103 -327v-575h-235v575q-16 78 -46 165q-53 149 -57 162l-206 654q-1 1 0 9h241l187 -680l186 680h240v-9zM601 1820q0 -16 -4 -32t-18 -29q-14 -16 -24.5 -26t-22.5 -19q-2 -2 -5 -6.5l-5 -7.5l-3 -4.5t-6 -6.5v-51h-114v52q0 31 20 57
l67 71q0 17 -0.5 31.5t-0.5 33.5l-66 1v-78l-111 -1v110q0 31 21.5 52t56.5 21h136q37 0 57.5 -21t20.5 -52z" />
    <glyph glyph-name=".notdef.003" unicode="&#x1ef7;" horiz-adv-x="797" 
d="M766 1010l-253 -997l-97 -382h-234l105 377l-256 1002h235l133 -664l133 664h234zM546 1260q0 -16 -4 -32t-18 -29q-14 -16 -24.5 -26t-22.5 -19q-2 -2 -5 -6.5l-5 -7.5l-3 -4.5t-6 -6.5v-51h-114v52q0 31 20 57l67 71q0 17 -0.5 31.5t-0.5 33.5l-66 1v-78l-111 -1v110
q0 31 21.5 52t56.5 21h136q37 0 57.5 -21t20.5 -52z" />
    <glyph glyph-name=".notdef.068" unicode="&#x1ef8;" horiz-adv-x="907" 
d="M881 1556l-207 -654q-38 -97 -103 -327v-575h-235v575q-16 78 -46 165q-53 149 -57 162l-206 654q-1 1 0 9h241l187 -680l186 680h240v-9zM729 1731q0 -94 -94 -94q-52 0 -143 35q-67 28 -134 55v-88h-157v158q0 94 94 94q54 0 141 -34q67 -28 136 -56v88h157v-158z" />
    <glyph glyph-name=".notdef.002" unicode="&#x1ef9;" horiz-adv-x="797" 
d="M766 1010l-253 -997l-97 -382h-234l105 377l-256 1002h235l133 -664l133 664h234zM679 1171q0 -94 -94 -94q-52 0 -143 35q-67 28 -134 55v-88h-157v158q0 94 94 94q54 0 141 -34q67 -28 136 -56v88h157v-158z" />
    <glyph glyph-name="endash" unicode="&#x2013;" horiz-adv-x="881" 
d="M805 494h-729v213h729v-213z" />
    <glyph glyph-name="quoteleft" unicode="&#x2018;" horiz-adv-x="401" 
d="M338 1565l-51 -490h-236l139 490h148z" />
    <glyph glyph-name="quoteright" unicode="&#x2019;" horiz-adv-x="401" 
d="M350 1565l-137 -490h-150l52 490h235z" />
    <glyph glyph-name="quotedblleft" unicode="&#x201c;" horiz-adv-x="735" 
d="M670 1565l-49 -490h-238l139 490h148zM338 1565l-51 -490h-238l141 490h148z" />
    <glyph glyph-name="quotedblright" unicode="&#x201d;" horiz-adv-x="735" 
d="M684 1565l-139 -490h-148l52 490h235zM350 1565l-137 -490h-150l52 490h235z" />
    <glyph glyph-name="bullet" unicode="&#x2022;" horiz-adv-x="944" 
d="M848 543q0 -146 -146 -146h-460q-148 0 -148 146v477q0 145 148 145h460q146 0 146 -145v-477z" />
    <glyph glyph-name="ellipsis" unicode="&#x2026;" horiz-adv-x="1133" 
d="M1055 0h-226v242h226v-242zM678 0h-225v242h225v-242zM301 0h-225v242h225v-242z" />
    <glyph glyph-name="Euro" unicode="&#x20ac;" horiz-adv-x="954" 
d="M867 570h-499v-374h270v264h216v-317q0 -143 -143 -143h-430q-140 0 -140 143v427h-61v162h61v134h-61v164h61v391q0 144 140 144h430q143 0 143 -144v-297h-216v245h-270v-339h499v-164h-499v-134h499v-162z" />
    <glyph glyph-name="trademark" unicode="&#x2122;" horiz-adv-x="1229" 
d="M1155 662h-145v485l-99 -397h-88l-98 397v-485h-143v903h153l133 -482l136 482h151v-903zM506 1430h-154v-768h-145v768h-156v135h455v-135z" />
    <glyph glyph-name="ugrave" horiz-adv-x="582" 
 />
    <glyph glyph-name="uacute" horiz-adv-x="580" 
 />
    <glyph glyph-name="yacute" horiz-adv-x="629" 
 />
    <glyph glyph-name="NULL" horiz-adv-x="0" 
 />
  </font>
</defs>
</svg>
