<?xml version="1.0" standalone="no"?>
<!DOCTYPE svg PUBLIC "-//W3C//DTD SVG 1.1//EN" "http://www.w3.org/Graphics/SVG/1.1/DTD/svg11.dtd" >
<svg xmlns="http://www.w3.org/2000/svg" xmlns:xlink="http://www.w3.org/1999/xlink" version="1.1">
<metadata>
Created by FontForge 20201107 at Mon Mar  4 13:28:35 2024
 By 
Copyright (c) 2018 by Pavel Korzhenko. Viet hoa by MTD. All rights reserved.
</metadata>
<defs>
<font id="MTD" horiz-adv-x="946" >
  <font-face 
    font-family="MTD VVD Golden Horn"
    font-weight="400"
    font-stretch="normal"
    units-per-em="2048"
    panose-1="0 0 5 0 0 0 0 0 0 0"
    ascent="1536"
    descent="-512"
    x-height="1311"
    cap-height="1434"
    bbox="-1477 -512 2054 2388"
    underline-thickness="102"
    underline-position="-204"
    unicode-range="U+0020-2122"
  />
<missing-glyph horiz-adv-x="1024" 
d="M840 1536v-2048h-650v2048h650zM682 1399h-338v-68h133v-76h-135v-67h340v67h-135v76h135v68zM547 1135h-205v-213h340v69h-135v144zM477 1065v-74h-67v74h67zM682 866h-340v-67h135v-76h-135v-68h205v144h135v67zM682 743h-68v-135h-272v-69h340v204zM682 494h-205v-115
h70v47h67v-96h-204v164h-68v-232h340v232zM682 139h-340v-231h340v231zM614 72v-97h-204v97h204zM682 -139h-340v-68h143l-143 -96v-68h340v68h-209l143 96h66v68z" />
    <glyph glyph-name=".notdef" horiz-adv-x="1024" 
d="M840 1536v-2048h-650v2048h650zM682 1399h-338v-68h133v-76h-135v-67h340v67h-135v76h135v68zM547 1135h-205v-213h340v69h-135v144zM477 1065v-74h-67v74h67zM682 866h-340v-67h135v-76h-135v-68h205v144h135v67zM682 743h-68v-135h-272v-69h340v204zM682 494h-205v-115
h70v47h67v-96h-204v164h-68v-232h340v232zM682 139h-340v-231h340v231zM614 72v-97h-204v97h204zM682 -139h-340v-68h143l-143 -96v-68h340v68h-209l143 96h66v68z" />
    <glyph glyph-name="uni0000" horiz-adv-x="0" 
 />
    <glyph glyph-name="uni0000" horiz-adv-x="0" 
 />
    <glyph glyph-name="nonmarkingreturn" horiz-adv-x="682" 
 />
    <glyph glyph-name="space" unicode=" " horiz-adv-x="389" 
 />
    <glyph glyph-name="exclam" unicode="!" horiz-adv-x="462" 
d="M461 1325q-33 -115 -58.5 -346t-37.5 -520h-267q-26 627 -96 866h459zM76 -20v311h311v-311h-311z" />
    <glyph glyph-name="quotedbl" unicode="&#x22;" horiz-adv-x="761" 
d="M117 954l-35 500h274l-34 -500h-205zM444 954l-34 500h274l-35 -500h-205z" />
    <glyph glyph-name="numbersign" unicode="#" horiz-adv-x="995" 
d="M942 750h-135l-23 -199h129l-26 -272h-135l-35 -299h-266l34 299h-84l-34 -299h-267l35 299h-135l27 272h141l22 199h-135l29 272h139l33 289h266l-33 -289h84l33 289h266l-32 -289h131zM434 551h84l23 199h-84z" />
    <glyph glyph-name="dollar" unicode="$" horiz-adv-x="880" 
d="M784 342q0 -134 -60.5 -229.5t-170.5 -132.5q-1 -25 7 -51.5t16 -42t32 -58.5h-354q18 32 26 47t17.5 43t11.5 53q-122 28 -188 119t-66 232v73l314 15q-35 -57 -23.5 -112.5t70.5 -55.5q29 0 45.5 17t20 36.5t3.5 48.5q0 64 -34 100t-125 62q-78 23 -133 54.5t-86 65
t-48.5 80.5t-22.5 89t-5 102q0 377 278 426q0 57 -55 150h354q-59 -107 -55 -164q211 -70 211 -412l-295 -14q6 28 5.5 65t-21 69t-54.5 32q-38 0 -53.5 -28t-15.5 -93q0 -66 31.5 -96.5t136.5 -71.5q159 -62 222.5 -162.5t63.5 -255.5z" />
    <glyph glyph-name="percent" unicode="%" horiz-adv-x="1187" 
d="M258 1393q118 0 189 -72.5t71 -194.5v-127q0 -121 -70.5 -193.5t-189.5 -72.5t-189.5 72.5t-70.5 193.5v127q0 122 71 194.5t189 72.5zM123 0l655 1311h226l-656 -1311h-225zM258 1178q-17 0 -24 -11.5t-7 -40.5v-127q0 -29 7 -40t24 -11t24 11t7 40v127q0 29 -7 40.5
t-24 11.5zM930 700q119 0 189.5 -72.5t70.5 -193.5v-127q0 -121 -70.5 -193.5t-189.5 -72.5t-189.5 72.5t-70.5 193.5v127q0 121 70.5 193.5t189.5 72.5zM930 485q-17 0 -24 -11t-7 -40v-127q0 -29 7 -40t24 -11t24 11t7 40v127q0 29 -7 40t-24 11z" />
    <glyph glyph-name="ampersand" unicode="&#x26;" horiz-adv-x="980" 
d="M827 266q119 -180 145 -211q31 -39 79 -75h-355l-20 53q-92 -74 -240 -74q-177 0 -277 99t-100 272q0 143 31.5 231.5t122.5 194.5q-71 119 -98 201.5t-27 179.5q0 163 84 250.5t242 87.5q155 0 240 -87.5t85 -244.5q0 -112 -45 -195.5t-170 -208.5l105 -164q0 103 6 179
l276 -25q-35 -69 -47.5 -135.5t-10 -110.5t-2 -103.5t-24.5 -113.5zM416 1233q-78 0 -78 -100q0 -84 57 -195q58 66 78.5 107t20.5 92q0 96 -78 96zM317 350q7 -71 45.5 -112t90.5 -41q49 0 94 39l-191 301q-27 -51 -36 -92.5t-3 -94.5z" />
    <glyph glyph-name="quotesingle" unicode="'" horiz-adv-x="434" 
d="M115 954l-35 500h274l-35 -500h-204z" />
    <glyph glyph-name="parenleft" unicode="(" horiz-adv-x="657" 
d="M670 1352q-146 -171 -212.5 -329t-66.5 -368t66.5 -367.5t212.5 -328.5h-316q-135 151 -198.5 312.5t-63.5 383.5t63.5 384t198.5 313h316z" />
    <glyph glyph-name="parenright" unicode=")" horiz-adv-x="657" 
d="M-12 -41q146 170 212 328t66 368t-66 368.5t-212 328.5h315q135 -151 198.5 -313t63.5 -384t-63.5 -383.5t-198.5 -312.5h-315z" />
    <glyph glyph-name="asterisk" unicode="*" horiz-adv-x="739" 
d="M668 1358l88 -262l-191 -47l125 -148l-221 -158l-100 164l-101 -164l-221 158l125 148l-190 47l88 262l176 -74l-13 191h271l-12 -191z" />
    <glyph glyph-name="plus" unicode="+" horiz-adv-x="757" 
d="M717 821v-209h-234v-233h-209v233h-233v209h233v234h209v-234h234z" />
    <glyph glyph-name="comma" unicode="," horiz-adv-x="462" 
d="M256 -270h-195l74 229h-59v311h311v-258z" />
    <glyph glyph-name="hyphen" unicode="-" horiz-adv-x="757" 
d="M41 612v209h676v-209h-676z" />
    <glyph glyph-name="period" unicode="." horiz-adv-x="462" 
d="M76 -20v311h311v-311h-311z" />
    <glyph glyph-name="slash" unicode="/" horiz-adv-x="770" 
d="M-16 -143l542 1659h262l-542 -1659h-262z" />
    <glyph glyph-name="zero" unicode="0" horiz-adv-x="888" 
d="M444 1331q180 0 286 -108.5t106 -294.5v-566q0 -186 -106 -294.5t-286 -108.5t-285.5 108.5t-105.5 294.5v566q0 186 105.5 294.5t285.5 108.5zM444 1049q-92 0 -92 -123v-561q0 -123 92 -123q93 0 93 123v561q0 123 -93 123z" />
    <glyph glyph-name="one" unicode="1" horiz-adv-x="567" 
d="M479 158q0 -73 35 -142l18 -36h-405l18 36q35 69 35 142v739h-176v231q69 2 108 9.5t64.5 28t38.5 45t33 74.5q6 17 10 26h221v-1153z" />
    <glyph glyph-name="two" unicode="2" horiz-adv-x="780" 
d="M760 827q0 -72 -5 -116.5t-22.5 -101t-56.5 -110t-103 -114.5l-124 -119h133q75 0 141 35l37 18v-339h-750v237l330 324q58 56 85.5 104.5t31.5 80t4 95.5v15v9v47t-1 39.5t-3 36t-6 28t-9.5 24t-14 15.5t-20 11t-26.5 3q-51 0 -68.5 -39t-6 -96.5t43.5 -127.5l-340 33
v137q0 173 101 274t274 101q174 0 274.5 -98.5t100.5 -269.5v-136z" />
    <glyph glyph-name="three" unicode="3" horiz-adv-x="819" 
d="M666 688q55 -37 82 -74t38 -96t11 -166q0 -184 -103.5 -288.5t-285.5 -104.5q-213 0 -301.5 117t-88.5 377l338 16q-22 -37 -25.5 -90.5t15.5 -95t55 -41.5q50 0 73.5 30.5t23.5 94.5q0 127 -21.5 178t-97.5 51h-72l4 160h68q56 0 80 38t24 115q0 85 -17 112.5t-71 27.5
q-24 0 -42 -21t-20.5 -62.5t27.5 -103.5l-340 17q0 234 86.5 343t294.5 109q178 0 279.5 -105t101.5 -288q0 -159 -116 -250z" />
    <glyph glyph-name="four" unicode="4" horiz-adv-x="841" 
d="M846 567l-49 -284h-56q0 -74 1 -104.5t13.5 -87t39.5 -111.5h-406q11 21 19.5 43.5t14 38t9.5 40.5t6 34.5t3 38.5t1 33.5v39v35.5h-454v229l473 799h280v-744h80h25zM328 565h114v193z" />
    <glyph glyph-name="five" unicode="5" horiz-adv-x="819" 
d="M467 872q155 0 244.5 -105.5t89.5 -287.5v-127q0 -183 -103.5 -288t-283.5 -105q-205 0 -296 106t-91 314l348 -8q-5 -27 -5 -55.5t16.5 -51t45.5 -22.5q32 0 51 36.5t19 88.5v98q0 67 -17 96t-63 29q-37 0 -53 -35.5t-11 -81.5l-327 39l32 799h689l-60 -338
q-40 33 -95 49.5t-98.5 19t-127.5 2.5h-23l-8 -196q56 24 127 24z" />
    <glyph glyph-name="six" unicode="6" horiz-adv-x="866" 
d="M504 805q150 0 238.5 -106t88.5 -285v-52q0 -186 -105.5 -294.5t-285.5 -108.5q-178 0 -282.5 109t-104.5 294v582q0 181 98.5 284t276.5 103q198 0 284.5 -108t86.5 -332l-320 -25q14 31 16 73t-16 76t-55 34q-36 0 -54 -34t-18 -93v-154q64 37 152 37zM442 522
q-90 0 -90 -123v-34q0 -123 90 -123t90 123v34q0 123 -90 123z" />
    <glyph glyph-name="seven" unicode="7" horiz-adv-x="751" 
d="M733 1311v-242q-93 -339 -137.5 -516.5t-61.5 -296t-10 -164.5t33 -112h-471q29 38 54.5 88.5t44.5 100t46.5 147t47 173.5t61 239t74.5 288q-37 0 -96 1t-82 1q-156 0 -267 -39l54 332h710z" />
    <glyph glyph-name="eight" unicode="8" horiz-adv-x="843" 
d="M690 668q131 -93 131 -310v-6q0 -183 -106.5 -288t-292.5 -105t-292.5 105t-106.5 288v6q0 217 131 310q-119 85 -119 270q0 183 103.5 288t283.5 105t283.5 -105t103.5 -288q0 -185 -119 -270zM422 1049q-88 0 -88 -113v-23q0 -112 88 -112t88 112v23q0 113 -88 113z
M422 518q-100 0 -100 -125v-26q0 -125 100 -125t100 125v26q0 125 -100 125z" />
    <glyph glyph-name="nine" unicode="9" horiz-adv-x="870" 
d="M381 485q-150 0 -239 106.5t-89 285.5v51q0 186 105.5 294.5t285.5 108.5q178 0 282.5 -109t104.5 -294v-582q0 -181 -98.5 -284t-275.5 -103q-198 0 -284.5 108t-86.5 332l320 25q-14 -31 -16 -73t16 -75.5t55 -33.5q71 0 71 127v153q-64 -37 -151 -37zM442 768
q90 0 90 123v35q0 123 -90 123t-90 -123v-35q0 -123 90 -123z" />
    <glyph glyph-name="colon" unicode=":" horiz-adv-x="462" 
d="M78 717v311h311v-311h-311zM78 -41v311h311v-311h-311z" />
    <glyph glyph-name="semicolon" unicode=";" horiz-adv-x="462" 
d="M78 717v311h311v-311h-311zM258 -270h-195l74 229h-59v311h311v-258z" />
    <glyph glyph-name="equal" unicode="=" horiz-adv-x="757" 
d="M41 750v208h676v-208h-676zM41 483v209h676v-209h-676z" />
    <glyph glyph-name="question" unicode="?" horiz-adv-x="755" 
d="M369 1311q175 0 269.5 -97t94.5 -276v-33q0 -107 -24 -162.5t-115 -126.5q-33 -25 -54 -43t-35.5 -36t-21.5 -29.5t-11 -32t-4.5 -33.5t-0.5 -43l-279 4q0 20 -1 53l-1.5 49.5t0.5 43t5 41t10.5 36t18.5 36t28.5 32.5t40 33.5t53.5 32.5q59 32 75.5 66t16.5 104
q0 52 -16 75t-51 23q-42 0 -61 -36t-9 -81.5t43 -72.5l-336 14q0 236 87.5 347.5t277.5 111.5zM172 -20v311h311v-311h-311z" />
    <glyph glyph-name="at" unicode="@" horiz-adv-x="1511" 
d="M1495 784q0 -186 -103 -324.5t-239 -164.5l94 -217q-171 -139 -450 -139q-168 0 -312.5 56t-245.5 155t-158.5 240t-57.5 306q0 236 93.5 417.5t264.5 281.5t393 100q211 0 375 -89.5t255 -251.5t91 -370zM1139 551q43 0 68.5 56.5t25.5 158.5q0 217 -123 344t-334 127
q-221 0 -350 -146t-129 -395q0 -227 137.5 -363t366.5 -136q190 0 319 94q-133 0 -209 100q-76 -88 -186 -88q-121 0 -214 100.5t-93 251.5v121q0 152 91 254.5t208 102.5q81 0 151 -58l4 35h228v-487q0 -41 8.5 -56.5t30.5 -15.5zM825 815q-7 39 -29 60.5t-48 21.5
q-31 0 -53.5 -26.5t-22.5 -73.5v-162q0 -47 21.5 -73.5t51.5 -26.5q28 0 50.5 21t29.5 62v197z" />
    <glyph glyph-name="A" unicode="A" horiz-adv-x="1021" 
d="M0 -20q60 110 134.5 429t115 629t14.5 396h490q-28 -84 14.5 -395.5t118.5 -629.5t135 -429h-410q24 32 27 80t-6 100h-252q-9 -55 -6 -103.5t28 -76.5h-403zM424 438h172l-84 541z" />
    <glyph glyph-name="B" unicode="B" horiz-adv-x="956" 
d="M926 453v-70q0 -196 -111.5 -299.5t-331.5 -103.5h-413q51 214 51 732t-51 722h397q211 0 319.5 -86.5t108.5 -255.5q0 -141 -21 -213.5t-92 -126.5q71 -45 107.5 -123.5t36.5 -175.5zM422 889h27q86 0 116.5 31t30.5 96q0 72 -26.5 103.5t-110.5 31.5h-37v-262zM422 262
h53q86 0 119 38t33 118v59q0 58 -35.5 90.5t-126.5 32.5h-43v-338z" />
    <glyph glyph-name="C" unicode="C" horiz-adv-x="956" 
d="M649 952q15 78 -16 150t-103 72q-90 0 -151.5 -113.5t-61.5 -355.5q0 -232 60.5 -347.5t142.5 -115.5q70 0 105 61t24 156l307 -101q4 -180 -124 -289.5t-312 -109.5q-87 0 -158.5 24t-122.5 65t-90 100t-63 123t-39.5 140.5t-21 146.5t-5.5 147q0 132 17 243.5
t55.5 206.5t97 161t145 103t195.5 37q189 0 309.5 -108.5t116.5 -290.5z" />
    <glyph glyph-name="D" unicode="D" horiz-adv-x="968" 
d="M475 1434q232 0 347.5 -102.5t115.5 -301.5v-647q0 -403 -463 -403h-405q38 98 52 415.5t-1 631.5t-51 407h405zM657 438v578q0 39 -13 67.5t-33.5 45.5t-52.5 26.5t-63 12.5t-73 3v-919q127 0 181 44t54 142z" />
    <glyph glyph-name="E" unicode="E" horiz-adv-x="907" 
d="M422 1151v-303h41q104 0 158 6.5t118 30.5v-359q-67 25 -130 32t-187 7v-303h166q109 0 149 6t86 29l33 -317h-786q39 97 53 416.5t-1.5 633.5t-51.5 404h786l-39 -318q-49 23 -86 29t-127 6h-182z" />
    <glyph glyph-name="F" unicode="F" horiz-adv-x="856" 
d="M811 1116q-49 23 -85.5 29t-125.5 6h-178v-303h33q93 0 157.5 6.5t126.5 30.5v-359q-105 39 -317 39q0 -56 -0.5 -132t-0.5 -111.5t0.5 -85.5t2.5 -73.5t5.5 -54.5t9 -49.5t14 -39t20.5 -39.5h-405q40 88 54 406.5t-1 636.5t-51 411h776z" />
    <glyph glyph-name="G" unicode="G" horiz-adv-x="956" 
d="M649 952q15 78 -16 150t-103 72q-84 0 -128 -109.5t-44 -359.5q0 -463 162 -463q58 0 91.5 56.5t39 135.5t-9 165t-45.5 144h360v-262q2 -135 -32 -237.5t-95.5 -163.5t-139.5 -91t-169 -30q-87 0 -158.5 24t-122.5 65t-90 100t-63 123t-39.5 140.5t-21 146.5t-5.5 147
q0 132 17 243.5t55.5 206.5t97 161t145 103t195.5 37q189 0 309.5 -108.5t116.5 -290.5z" />
    <glyph glyph-name="H" unicode="H" horiz-adv-x="1038" 
d="M979 -20h-404q13 27 22.5 55t15.5 66t9 65t4.5 81.5t1.5 85t-0.5 106.5t-0.5 116h-217q0 -42 -0.5 -130.5t-0.5 -120.5t2.5 -92.5t8.5 -91t16.5 -69.5t26.5 -71h-404q38 94 51.5 414t-1.5 636t-50 404h404q-21 -41 -33.5 -91t-16.5 -118.5t-5 -114t0.5 -138.5t1.5 -130
h217q0 34 1.5 126.5t0.5 138t-5.5 115.5t-16.5 120.5t-32 91.5h406q-40 -90 -57 -403.5t-1.5 -631.5t56.5 -419z" />
    <glyph glyph-name="I" unicode="I" horiz-adv-x="532" 
d="M469 -20h-403q38 92 51.5 410.5t-1.5 635t-50 408.5h403q-39 -90 -53 -408t1.5 -635.5t51.5 -410.5z" />
    <glyph glyph-name="J" unicode="J" horiz-adv-x="765" 
d="M322 1434h405q-23 -46 -35.5 -104.5t-17 -165.5t-4.5 -190.5t2 -282t2 -337.5q0 -192 -96 -293.5t-279 -101.5q-65 0 -159 8.5t-130 22.5l19 356q26 -43 88 -73.5t123 -30.5q60 0 97.5 33.5t37.5 105.5q0 130 2 327t1.5 276.5t-5 186.5t-17 163t-34.5 100z" />
    <glyph glyph-name="K" unicode="K" horiz-adv-x="987" 
d="M1059 -20h-469q10 16 15.5 32t6 37t-0.5 39t-10 49t-16.5 54.5t-25 68.5t-31 78t-38.5 96t-44 111h-57q0 -58 -1 -142t-1 -119t2 -87.5t8 -81.5t17 -64.5t28 -70.5h-403q37 95 52 409t0.5 630t-52.5 415h403q-18 -35 -28 -65t-16 -52.5t-8 -72.5t-2.5 -80.5t0.5 -125.5
t1 -161h57q88 189 124.5 294.5t36 160t-18.5 102.5h467q-18 -21 -33 -41t-32.5 -48.5t-30 -49t-33.5 -63t-34 -68.5t-41 -88t-44.5 -98t-55.5 -122.5t-63 -140.5q17 -44 52.5 -136t51 -132t45.5 -111.5t50.5 -110t49 -89t58.5 -87.5t64 -69z" />
    <glyph glyph-name="L" unicode="L" horiz-adv-x="894" 
d="M909 340l-59 -360h-760q11 245 14.5 536.5t-7.5 566t-38 351.5h404q-17 -34 -25.5 -57t-16.5 -49.5t-10 -69.5t-4 -87.5t-1 -135t1.5 -181t1.5 -256t1 -332.5h161q143 0 202.5 12.5t135.5 61.5z" />
    <glyph glyph-name="M" unicode="M" horiz-adv-x="1318" 
d="M1257 -20h-401q18 36 28.5 75t16.5 75t7.5 114t1.5 141t-1.5 211t-1.5 272l-155 -397h-187l-155 397q0 -124 -1.5 -268.5t-2 -208.5t1 -141t7.5 -114.5t16.5 -77.5t29.5 -78h-402q41 101 55.5 416.5t-1.5 627.5t-54 410h441l162 -404l180 404h420q-40 -91 -56.5 -405
t-2 -631.5t53.5 -417.5z" />
    <glyph glyph-name="N" unicode="N" horiz-adv-x="1075" 
d="M1014 -20h-334l-281 768q0 -107 -1 -235.5t-1.5 -180.5t1 -118t8 -96.5t17 -65.5t28.5 -72h-392q38 97 53 409.5t0.5 628t-53.5 416.5h365l252 -654q0 52 0.5 138.5t0.5 124.5t-1 99.5t-4.5 93t-9 72t-15 70t-22.5 56.5h393q-42 -99 -57.5 -415t0 -629t53.5 -410z" />
    <glyph glyph-name="O" unicode="O" horiz-adv-x="966" 
d="M483 1448q194 0 303 -108.5t109 -295.5v-688q0 -187 -109 -295t-303 -108t-302.5 108t-108.5 295v688q0 187 108.5 295.5t302.5 108.5zM483 1165q-48 0 -80 -40.5t-32 -102.5v-643q0 -143 112 -143q113 0 113 143v643q0 143 -113 143z" />
    <glyph glyph-name="P" unicode="P" horiz-adv-x="929" 
d="M467 1434q220 0 331 -104t111 -300v-176q0 -196 -111 -299.5t-331 -103.5h-55v-293q0 -43 11.5 -80t41.5 -98h-406q38 97 53 409.5t0.5 628t-53.5 416.5h408zM610 889v106q0 94 -38.5 125t-159.5 31v-418q123 0 160.5 32t37.5 124z" />
    <glyph glyph-name="Q" unicode="Q" horiz-adv-x="954" 
d="M913 39l-190 -191l-117 117q-58 -12 -123 -12q-194 0 -302.5 108t-108.5 295v688q0 187 108.5 295.5t302.5 108.5t303 -108.5t109 -295.5v-688q0 -143 -61 -237zM371 379q0 -143 112 -143q113 0 113 143v643q0 143 -113 143q-48 0 -80 -40.5t-32 -102.5v-643z" />
    <glyph glyph-name="R" unicode="R" horiz-adv-x="987" 
d="M954 -20h-438q25 35 33.5 66t-3 82.5t-34.5 109t-72 163.5h-49q0 -40 -0.5 -97.5t0 -78.5t0.5 -54.5t3 -46.5t5.5 -33.5t9.5 -35.5t14.5 -32t20.5 -43h-405q38 91 53 405.5t0 632t-53 416.5h407q220 0 331.5 -104t111.5 -300v-225q0 -119 -42 -212t-124 -128
q129 -363 231 -485zM590 840v155q0 93 -38.5 124.5t-160.5 31.5v-467q123 0 161 32t38 124z" />
    <glyph glyph-name="S" unicode="S" horiz-adv-x="825" 
d="M346 588q-162 69 -238.5 180.5t-76.5 251.5q0 210 99.5 322t297.5 112q193 0 285 -112.5t92 -321.5l-295 -14q7 21 9 47t-2.5 53.5t-24 46t-52.5 18.5q-49 0 -79.5 -29.5t-30.5 -90.5q0 -71 50 -131t173 -125q148 -78 210 -183.5t62 -269.5q0 -170 -106.5 -276.5
t-278.5 -106.5q-201 0 -293 108t-92 328l314 15q-22 -38 -23.5 -77t19 -65t59.5 -26q45 0 73.5 32t28.5 70q0 68 -48.5 138.5t-131.5 105.5z" />
    <glyph glyph-name="T" unicode="T" horiz-adv-x="884" 
d="M592 1147v-191.5v-182.5t0.5 -157.5t1.5 -150.5t3.5 -125.5t6.5 -118.5t9.5 -93t13.5 -85.5t18 -62.5h-405q10 27 18 60.5t13.5 84.5t9.5 93t6.5 118.5t3.5 126t1.5 151.5t0.5 158.5v183v191.5h-37q-83 0 -141 -11.5t-131 -50.5l41 349h835l39 -344q-71 37 -123 47
t-129 10h-55z" />
    <glyph glyph-name="U" unicode="U" horiz-adv-x="989" 
d="M948 1434q-19 -52 -31 -149.5t-16.5 -262.5t-5 -265.5t-0.5 -309.5v-105q0 -179 -109 -281t-290 -102t-292.5 103.5t-111.5 279.5v105q0 199 -0.5 307.5t-5 267t-16.5 258.5t-31 154h405q-19 -38 -28 -59t-17 -63.5t-9.5 -74t-2.5 -120t0.5 -170t2.5 -254.5t1 -345
q0 -51 31 -79.5t74 -28.5q40 0 70 28.5t30 79.5q0 190 2 384t2 274t-0.5 163.5t-7.5 118t-17 68t-32 78.5h405z" />
    <glyph glyph-name="V" unicode="V" horiz-adv-x="968" 
d="M973 1434q-35 -66 -93 -334.5t-171 -851.5q-34 -175 -52 -268h-346q-25 127 -62 317t-58 296t-49 247t-45.5 221.5t-37.5 165.5t-35 133.5t-28 73.5h416q-38 -74 -33.5 -151t65.5 -454q27 -166 43 -268q92 587 96 622q19 144 3 197q-7 22 -25 54h412z" />
    <glyph glyph-name="W" unicode="W" horiz-adv-x="1351" 
d="M1356 1434q-24 -44 -48 -125.5t-53.5 -228.5t-53 -278.5t-68 -384.5t-78.5 -437h-293l-88 495l-90 -495h-295q-33 187 -76.5 443t-66 383.5t-51 274t-51.5 226.5t-48 127h418q-19 -25 -26.5 -50.5t-9.5 -54t6.5 -89t19 -122t31.5 -189.5t40 -257l86 631h230l86 -631
q19 128 40 255.5t31.5 188.5t19.5 122t7 89.5t-10 54.5t-27 52h418z" />
    <glyph glyph-name="X" unicode="X" horiz-adv-x="954" 
d="M1067 -20h-440q34 55 -144 430q-177 -374 -143 -430h-440q47 51 171.5 273t250.5 478q-116 222 -236 430t-166 273h447q-20 -52 116 -361q136 310 117 361h447q-46 -65 -166 -273t-236 -430q126 -256 250.5 -478t171.5 -273z" />
    <glyph glyph-name="Y" unicode="Y" horiz-adv-x="905" 
d="M602 659q0 -255 10 -419.5t43 -259.5h-405q32 93 42.5 261t10.5 421q-104 248 -176 403.5t-106.5 218t-88.5 150.5h443q-21 -22 -26.5 -48.5t10 -89.5t32.5 -112t65 -180q1 -2 1 -3q83 245 95 303q15 78 -14 126q-2 2 -3 4h438q-63 -111 -93.5 -167t-103.5 -212.5
t-174 -395.5z" />
    <glyph glyph-name="Z" unicode="Z" horiz-adv-x="839" 
d="M834 319l-39 -339h-729l-86 206l503 965h-104q-123 0 -204 -10.5t-148 -46.5l39 340h729l65 -228l-504 -944q345 0 478 57z" />
    <glyph glyph-name="bracketleft" unicode="[" horiz-adv-x="659" 
d="M422 1114v-917h176v-238h-475v1393h475v-238h-176z" />
    <glyph glyph-name="backslash" unicode="\" horiz-adv-x="770" 
d="M526 -123l-544 1659h262l544 -1659h-262z" />
    <glyph glyph-name="bracketright" unicode="]" horiz-adv-x="659" 
d="M238 197v917h-177v238h476v-1393h-476v238h177z" />
    <glyph glyph-name="asciicircum" unicode="^" horiz-adv-x="880" 
d="M621 809l-179 328l-180 -328h-295l371 666h209l368 -666h-294z" />
    <glyph glyph-name="underscore" unicode="_" horiz-adv-x="942" 
d="M-20 -291v230h983v-230h-983z" />
    <glyph glyph-name="a" unicode="a" 
d="M936 -20h-410q24 32 27 80t-6 100h-170q-9 -55 -6 -103.5t28 -76.5h-403q50 110 110.5 398t95 567t17.5 366h490q-19 -85 17.5 -365t98.5 -567.5t111 -398.5zM510 438l-43 418l-47 -418h90z" />
    <glyph glyph-name="b" unicode="b" horiz-adv-x="894" 
d="M885 391v-8q0 -193 -105 -298t-297 -105h-413q51 214 51 670.5t-51 660.5h397q183 0 285 -88t102 -254q0 -127 -26 -189.5t-87 -89.5q71 -45 107.5 -123.5t36.5 -175.5zM422 827h27q59 0 82.5 27.5t23.5 89.5q0 40 -21 62t-75 22h-37v-201zM422 262h53q60 0 85.5 30.5
t25.5 104.5v39q0 53 -27.5 78t-93.5 25h-43v-277z" />
    <glyph glyph-name="c" unicode="c" horiz-adv-x="815" 
d="M508 848q8 39 10 74t-2 70t-22.5 56t-51.5 21q-16 0 -28.5 -7t-21.5 -22.5t-15 -32t-9.5 -45t-5.5 -51t-2.5 -60t-0.5 -63t0.5 -68t0.5 -67.5q0 -232 19 -321.5t63 -89.5q50 0 64 56.5t2 160.5l307 -101q4 -186 -97.5 -292.5t-281.5 -106.5q-175 0 -275 102.5t-100 282.5
v623q0 180 100 282.5t275 102.5q180 0 281.5 -107t97.5 -293z" />
    <glyph glyph-name="d" unicode="d" horiz-adv-x="968" 
d="M475 1311q204 0 313 -104t109 -300v-524q0 -196 -109 -299.5t-313 -103.5h-405q38 98 52 384.5t-1 570t-51 376.5h405zM618 438v455q0 83 -49 119.5t-147 36.5v-797q95 0 145.5 50.5t50.5 135.5z" />
    <glyph glyph-name="e" unicode="e" horiz-adv-x="866" 
d="M422 1028v-242h31q81 0 131.5 6.5t113.5 30.5v-358q-66 25 -124 32t-152 7v-242h143q96 0 134 6t83 29l33 -317h-745q39 98 53 386t-1.5 571.5t-51.5 373.5h745l-39 -318q-49 23 -83.5 29t-112.5 6h-158z" />
    <glyph glyph-name="f" unicode="f" horiz-adv-x="815" 
d="M770 993q-49 23 -84 29t-113 6h-151v-242h31q81 0 131.5 6.5t113.5 30.5v-358q-66 25 -124 32t-152 7q0 -57 -0.5 -129.5t-0.5 -104.5t0.5 -75.5t2.5 -62t5 -43.5t9.5 -40t14.5 -32t20 -37h-405q40 88 54 375.5t-1 574.5t-51 381h735z" />
    <glyph glyph-name="g" unicode="g" horiz-adv-x="868" 
d="M520 848q43 221 -65 221q-16 0 -28.5 -7t-21.5 -22.5t-15 -32t-9.5 -45t-5.5 -51t-2.5 -60t-0.5 -63t0.5 -68t0.5 -67.5q0 -180 10 -267t30 -115.5t62 -28.5q52 0 68 98.5t0.5 210t-43.5 154.5l327 -7v-340q4 -186 -97 -292.5t-281 -106.5q-175 0 -275 102.5t-100 282.5
v623q0 180 100 282.5t275 102.5q180 0 281 -107t97 -293z" />
    <glyph glyph-name="h" unicode="h" horiz-adv-x="997" 
d="M938 -20h-403q14 29 22.5 50t15 52t9 49t4 68t1.5 79.5t-0.5 112.5t-0.5 141h-176q0 -58 -0.5 -139t-0.5 -111.5t1 -79.5t4 -68t9.5 -50.5t15.5 -53t24 -50.5h-404q38 94 51.5 383.5t-1.5 574.5t-50 373h404q-7 -13 -19 -36.5t-14.5 -28t-9.5 -23.5t-7 -23.5t-3.5 -27
t-2 -36t0.5 -49t0.5 -66t1.5 -88v-114.5h176q0 91 2 211q1 128 -3.5 160t-35.5 93l-14 28h405q-40 -91 -57 -373t-1.5 -569.5t56.5 -388.5z" />
    <glyph glyph-name="i" unicode="i" horiz-adv-x="532" 
d="M469 -20h-403q38 92 51.5 380t-1.5 573.5t-50 377.5h403q-39 -90 -53 -377.5t1.5 -574t51.5 -379.5z" />
    <glyph glyph-name="j" unicode="j" horiz-adv-x="724" 
d="M281 1311h405q-19 -38 -28 -59t-16.5 -60.5t-9 -67.5t-3 -106t0 -147.5t2.5 -219.5t1 -297q0 -192 -96 -293.5t-279 -101.5q-60 0 -135.5 8.5t-112.5 22.5l19 315q32 -33 81 -54.5t97 -21.5q56 0 91.5 36.5t35.5 115.5q0 135 1 269.5t1 205.5t1.5 141t-1.5 104.5
t-4.5 65.5t-10.5 54t-15.5 39t-24.5 51z" />
    <glyph glyph-name="k" unicode="k" 
d="M1018 -20h-469q18 29 22.5 52t-7.5 64.5t-28 78t-55.5 128.5t-74.5 180h-17q0 -59 -1 -137.5t-1 -108t2 -72.5t8 -66t16.5 -53t28.5 -66h-403q38 95 52.5 378t0 568.5t-52.5 384.5h403q-17 -35 -27.5 -64.5t-16.5 -51.5t-8 -66.5t-2.5 -71t0.5 -107t1 -135.5h17
q87 158 124 251t36 144.5t-19 100.5h467q-4 -5 -28.5 -33.5t-28 -33t-24 -30.5t-26.5 -38t-26.5 -43t-33 -58t-36 -71t-46 -93.5t-52.5 -114t-66 -143.5q55 -121 128 -288q86 -198 114 -243.5t115 -127.5z" />
    <glyph glyph-name="l" unicode="l" horiz-adv-x="854" 
d="M868 340l-59 -360h-698q17 757 12 941q-7 248 -51 359q-6 16 -13 31h404q-22 -45 -32 -76.5t-17 -64.5t-7.5 -113t-0.5 -156.5t2 -264t2 -370.5h141q128 0 185 12.5t132 61.5z" />
    <glyph glyph-name="m" unicode="m" horiz-adv-x="1277" 
d="M1217 -20h-402q20 40 29 66t16 51.5t7.5 85t1 111t-1 188.5t-1.5 263l-135 -397h-186l-135 397q0 -126 -1.5 -259t-1.5 -186t0.5 -111.5t7.5 -85t16.5 -54.5t29.5 -69h-402q41 102 55.5 386.5t-1.5 565.5t-54 379h441l141 -404l160 404h420q-40 -91 -56.5 -374t-1.5 -570
t54 -387z" />
    <glyph glyph-name="n" unicode="n" horiz-adv-x="1034" 
d="M973 -20h-334l-240 686q0 -109 -1.5 -229.5t-1 -165t1.5 -98t8 -77.5t16 -50t29 -66h-392q38 97 53 379t0.5 566.5t-53.5 385.5h365l211 -551q0 54 0.5 133t0.5 109.5t-1 80t-4 70t-9 52.5t-15 55t-23 51h393q-42 -100 -57.5 -385t0 -566.5t53.5 -379.5z" />
    <glyph glyph-name="o" unicode="o" horiz-adv-x="925" 
d="M463 1325q180 0 285.5 -108.5t105.5 -294.5v-566q0 -186 -105.5 -294.5t-285.5 -108.5t-285.5 108.5t-105.5 294.5v566q0 186 105.5 294.5t285.5 108.5zM463 1042q-47 0 -69.5 -29.5t-22.5 -92.5v-562q0 -63 22.5 -92.5t69.5 -29.5t69.5 29.5t22.5 92.5v562
q0 63 -22.5 92.5t-69.5 29.5z" />
    <glyph glyph-name="p" unicode="p" horiz-adv-x="888" 
d="M467 1311q192 0 296.5 -105.5t104.5 -298.5v-114q0 -193 -104.5 -298.5t-296.5 -105.5h-55v-231q0 -43 11.5 -80t41.5 -98h-406q38 97 53 379t0.5 566.5t-53.5 385.5h408zM569 807v86q0 89 -30 112t-127 23v-356q98 0 127.5 24t29.5 111z" />
    <glyph glyph-name="q" unicode="q" horiz-adv-x="954" 
d="M893 59l-191 -190l-102 102q-64 -18 -137 -18q-180 0 -285.5 108.5t-105.5 294.5v566q0 186 105.5 294.5t285.5 108.5t285.5 -108.5t105.5 -294.5v-566q0 -122 -47 -211zM371 358q0 -63 22.5 -92.5t69.5 -29.5t69.5 29.5t22.5 92.5v562q0 63 -22.5 92.5t-69.5 29.5
t-69.5 -29.5t-22.5 -92.5v-562z" />
    <glyph glyph-name="r" unicode="r" horiz-adv-x="942" 
d="M954 -20h-438q30 41 28 90.5t-19.5 96t-78.5 177.5q-17 37 -26 57h-29q0 -40 -0.5 -97.5t0 -78.5t0.5 -54.5t3 -46.5t5.5 -33.5t9.5 -35.5t14.5 -32t20.5 -43h-405q38 91 53 374.5t0 570.5t-53 386h407q192 0 297 -105.5t105 -298.5v-102q0 -225 -146 -334
q42 -94 98 -221q61 -137 78 -168t62 -85q9 -11 14 -17zM549 819v74q0 89 -30.5 112t-127.5 23v-344q98 0 128 24t30 111z" />
    <glyph glyph-name="s" unicode="s" horiz-adv-x="784" 
d="M326 506q-78 23 -133 54.5t-86 65t-48.5 80.5t-22.5 89t-5 102q0 213 90.5 323.5t286.5 110.5q190 0 273 -110.5t83 -323.5l-295 -14q6 28 5.5 65t-21 69t-54.5 32q-38 0 -53.5 -28t-15.5 -93q0 -66 31.5 -96.5t136.5 -71.5q159 -62 222.5 -162.5t63.5 -255.5
q0 -173 -97.5 -278t-266.5 -105q-172 0 -268.5 96.5t-96.5 266.5v73l314 15q-35 -57 -23.5 -112.5t70.5 -55.5q29 0 45.5 17t20 36.5t3.5 48.5q0 64 -34 100t-125 62z" />
    <glyph glyph-name="t" unicode="t" horiz-adv-x="843" 
d="M571 1024q0 -581 5 -700q9 -233 49 -344h-406q26 69 38 196t13.5 243t1.5 417v188h-53q-91 0 -122 -8.5t-113 -52.5l41 348h794l39 -344q-80 41 -107 49t-104 8h-76z" />
    <glyph glyph-name="u" unicode="u" 
d="M907 1311q-19 -52 -31 -134t-16.5 -221.5t-5 -227t-0.5 -281.5v-105q0 -181 -100 -282t-279 -101t-281 102.5t-102 280.5v105q0 245 -1.5 369t-14 274t-37.5 221h405q-22 -44 -32 -74t-17 -61t-7.5 -104t-0.5 -143t2 -241.5t2 -339.5q0 -51 24.5 -79.5t57.5 -28.5
t57.5 28.5t24.5 79.5q0 164 2 332.5t2 238.5t-0.5 143.5t-7.5 106t-17 65t-32 77.5h405z" />
    <glyph glyph-name="v" unicode="v" horiz-adv-x="927" 
d="M932 1311q-56 -104 -268 -1195q-18 -89 -27 -136h-346q-16 82 -46 234q-59 300 -86 434.5t-62.5 301.5t-58 244.5t-42.5 116.5h416q-37 -73 -34.5 -139t51.5 -372q24 -147 38 -239q14 89 36 231q36 227 44.5 303t4 123t-31.5 93h412z" />
    <glyph glyph-name="w" unicode="w" horiz-adv-x="1310" 
d="M1315 1311q-25 -44 -46 -112t-48 -199.5t-47 -241t-63.5 -355t-76.5 -423.5h-293l-88 495l-90 -495h-295q-33 187 -74.5 430t-60.5 353t-44.5 238t-46.5 195.5t-46 114.5h418q-18 -25 -26.5 -50t-10.5 -50.5t5 -77t16 -102t26 -154t31 -205.5l86 608h229l86 -608
q17 116 37 237t28.5 168.5t12 99.5t-5.5 78t-31 56h418z" />
    <glyph glyph-name="x" unicode="x" horiz-adv-x="954" 
d="M973 -20h-441q25 25 33.5 57t-2.5 89t-30 116t-60 172q-51 -150 -70 -221.5t-16.5 -124.5t35.5 -88h-440q28 52 61.5 125t60.5 137t84.5 202.5t102.5 243.5q-27 61 -73.5 165t-62 138t-43.5 96t-42 89.5t-32.5 64t-37.5 70.5h451q-32 -21 -37 -68t13 -113t58 -165
q38 96 54.5 161.5t12 112t-33.5 72.5h447q-55 -101 -107 -212.5t-188 -418.5q44 -104 97 -233t81 -196.5t61.5 -142t63.5 -128.5z" />
    <glyph glyph-name="y" unicode="y" horiz-adv-x="864" 
d="M582 537q0 -229 9.5 -343.5t43.5 -213.5h-406q33 98 43.5 215.5t10.5 343.5q-179 426 -234 548.5t-117 223.5h443q-41 -45 -28.5 -133.5t89.5 -298.5q73 214 83.5 297.5t-25.5 134.5h438q-61 -107 -113 -221t-189 -439q-31 -74 -48 -114z" />
    <glyph glyph-name="z" unicode="z" horiz-adv-x="757" 
d="M752 319l-39 -339h-647l-86 206l421 842h-96q-96 0 -153 -10t-125 -47l39 340h647l65 -228l-422 -821q146 0 234 12.5t162 44.5z" />
    <glyph glyph-name="braceleft" unicode="{" horiz-adv-x="610" 
d="M395 840q0 -118 -73 -185q73 -67 73 -184v-176q0 -60 18 -80t76 -20q5 0 17 1t20 1l49 -238h-108q-170 0 -250 78.5t-80 245.5v168q0 58 -8.5 73t-46.5 15q-5 0 -20 -1t-25 -1v237q10 0 25 -1t20 -1q38 0 46.5 15t8.5 73v168q0 167 80 245.5t250 78.5h108l-49 -238
q-8 0 -20 1t-17 1q-58 0 -76 -20t-18 -80v-176z" />
    <glyph glyph-name="bar" unicode="|" horiz-adv-x="481" 
d="M117 -348v2130h248v-2130h-248z" />
    <glyph glyph-name="braceright" unicode="}" horiz-adv-x="610" 
d="M471 860q0 -58 8.5 -73t46.5 -15q5 0 20 1t25 1v-237q-10 0 -25 1t-20 1q-38 0 -46.5 -15t-8.5 -73v-168q0 -167 -80 -245.5t-250 -78.5h-108l49 238q8 0 20 -1t17 -1q58 0 76 20t18 80v176q0 116 74 184q-74 68 -74 185v176q0 60 -18 80t-76 20q-5 0 -17 -1t-20 -1
l-49 238h108q170 0 250 -78.5t80 -245.5v-168z" />
    <glyph glyph-name="exclamdown" unicode="&#xa1;" horiz-adv-x="462" 
d="M76 1182h311v-312h-311v312zM461 -164h-459q70 239 96 866h267q12 -289 37.5 -520t58.5 -346z" />
    <glyph glyph-name="cent" unicode="&#xa2;" horiz-adv-x="880" 
d="M481 559l344 -33q4 -149 -62.5 -251t-189.5 -136q5 -59 54 -157h-361q51 104 53 157q-118 34 -182.5 130t-64.5 239v233q0 143 64.5 239t182.5 130q-7 46 -53 137h361q-49 -102 -54 -137q123 -35 189.5 -136.5t62.5 -250.5l-346 -33q23 41 32 74t-4 56.5t-54 23.5
q-43 0 -62.5 -25.5t-19.5 -79.5v-229q0 -56 15.5 -80t57.5 -24q35 0 50 43.5t-13 109.5z" />
    <glyph glyph-name="sterling" unicode="&#xa3;" horiz-adv-x="880" 
d="M842 301v-340h-811v246q101 78 130 149t29 224h-159v221h159v176q0 192 96 293.5t279 101.5q141 0 240 -57l-10 -295q-75 70 -201 70q-105 0 -105 -160v-129h312v-221h-312q0 -139 -12.5 -205t-50.5 -127q18 0 58 -1t61 -1q192 0 297 55z" />
    <glyph glyph-name="yen" unicode="&#xa5;" horiz-adv-x="927" 
d="M967 1311q-58 -102 -106 -205.5t-150 -347.5h125v-230h-220v-57h220v-229h-213q9 -149 47 -262h-406q38 111 47 262h-213v229h219v57h-219v230h127q-107 257 -155 360t-103 193h443q-41 -45 -28.5 -133.5t89.5 -298.5q72 213 82.5 297t-25.5 135h439z" />
    <glyph glyph-name="section" unicode="&#xa7;" horiz-adv-x="831" 
d="M690 350q105 -96 105 -250q0 -184 -94.5 -275t-270.5 -91q-389 0 -389 418l285 -7q-22 -48 11.5 -94.5t82.5 -46.5q82 0 82 74q0 51 -25 73t-135 70q-187 80 -253 167t-66 241q0 155 118 250q-104 95 -104 249v37q0 152 98.5 241t265.5 89q179 0 284.5 -99t105.5 -268
v-51l-308 6q0 2 3.5 18.5t4.5 23t2 22.5t-1.5 24t-7.5 20.5t-14 18.5t-23.5 10.5t-34.5 4.5q-49 0 -68.5 -25.5t-19.5 -58.5q0 -36 32.5 -62.5t132.5 -70.5q175 -75 247.5 -160.5t72.5 -216.5q0 -99 -27.5 -164t-91.5 -117zM379 741q-70 -33 -70 -92q0 -22 4 -38.5t17 -38
t44 -43t79 -42.5q32 15 50.5 40t18.5 53q0 23 -4 38.5t-16.5 37.5t-43.5 43t-79 42z" />
    <glyph glyph-name="copyright" unicode="&#xa9;" horiz-adv-x="1519" 
d="M760 1495q218 0 385.5 -97t259.5 -274t92 -407t-92 -407t-259.5 -274t-385.5 -97t-385.5 97t-259.5 274t-92 407t92 407t259.5 274t385.5 97zM760 1262q-224 0 -356 -147.5t-132 -397.5t132 -397.5t356 -147.5t355.5 147t131.5 398t-131.5 398t-355.5 147zM778 823
q20 40 19 82.5t-27 42.5q-29 0 -29 -78v-266q0 -98 29 -98q19 0 24.5 22t-1.5 52t-21 61l262 2v-96q0 -129 -74 -204t-202 -75q-126 0 -199.5 75t-73.5 204v360q0 129 73.5 204t199.5 75q128 0 202 -75t74 -204v-69z" />
    <glyph glyph-name="guillemotleft" unicode="&#xab;" horiz-adv-x="888" 
d="M49 788l377 287v-276l-113 -82l113 -82v-277l-377 287v143zM438 788l377 287v-276l-113 -82l113 -82v-277l-377 287v143z" />
    <glyph glyph-name="registered" unicode="&#xae;" horiz-adv-x="1519" 
d="M760 1495q218 0 385.5 -97t259.5 -274t92 -407t-92 -407t-259.5 -274t-385.5 -97t-385.5 97t-259.5 274t-92 407t92 407t259.5 274t385.5 97zM1112 315q135 151 135 402t-131.5 398t-355.5 147t-356 -147.5t-132 -397.5t132 -397.5t356 -147.5q212 0 344 135h-627
q43 105 36 415t-56 425h313q131 -2 200.5 -69.5t69.5 -194.5q0 -99 -18.5 -155.5t-69.5 -94.5q90 -206 122 -261q19 -32 38 -57zM750 803q32 0 40.5 9t8.5 44v16q0 36 -9.5 44t-39.5 8v-121zM780 309q17 16 20.5 38t-2 43t-18.5 54l-30 78q-3 -56 -1 -91t6.5 -52t24.5 -70z
" />
    <glyph glyph-name="degree" unicode="&#xb0;" horiz-adv-x="569" 
d="M285 1495q115 0 190.5 -75.5t75.5 -190.5t-75.5 -190.5t-190.5 -75.5q-116 0 -191.5 75.5t-75.5 190.5t75.5 190.5t191.5 75.5zM285 1278q-43 0 -43 -49t43 -49t43 49t-43 49z" />
    <glyph glyph-name="periodcentered" unicode="&#xb7;" horiz-adv-x="462" 
d="M76 561v311h311v-311h-311z" />
    <glyph glyph-name="guillemotright" unicode="&#xbb;" horiz-adv-x="888" 
d="M451 645l-377 -287v277l112 82l-112 82v276l377 -287v-143zM840 645l-377 -287v277l112 82l-112 82v276l377 -287v-143z" />
    <glyph glyph-name="questiondown" unicode="&#xbf;" horiz-adv-x="755" 
d="M565 1188v-311h-311v311h311zM369 -143q-175 0 -270 97t-95 275v33q0 107 24 162.5t115 126.5q33 25 54 43t35.5 36t21.5 29.5t11 32t4.5 33.5t0.5 43l279 -4q0 -20 1.5 -59t1.5 -55t-2 -46t-8 -45t-17 -38.5t-28 -39.5t-42.5 -35t-59.5 -38q-59 -32 -75.5 -66
t-16.5 -104q0 -52 16.5 -75.5t51.5 -23.5q42 0 61 36t8.5 82t-43.5 73l336 -15q0 -236 -87 -347t-277 -111z" />
    <glyph glyph-name="Agrave" unicode="&#xc0;" 
d="M399 1628l-211 266h275l141 -266h-205zM1022 -20h-410q24 32 27 80t-6 100h-252q-9 -55 -6 -103.5t28 -76.5h-403q60 110 134.5 429t115 629t14.5 396h490q-28 -84 14.5 -395.5t118.5 -629.5t135 -429zM596 438l-84 541l-88 -541h172z" />
    <glyph glyph-name="Aacute" unicode="&#xc1;" 
d="M399 1628l142 266h274l-211 -266h-205zM1022 -20h-410q24 32 27 80t-6 100h-252q-9 -55 -6 -103.5t28 -76.5h-403q60 110 134.5 429t115 629t14.5 396h490q-28 -84 14.5 -395.5t118.5 -629.5t135 -429zM596 438l-84 541l-88 -541h172z" />
    <glyph glyph-name="Acircumflex" unicode="&#xc2;" 
d="M586 1628l-80 103l-80 -103h-207l164 266h246l164 -266h-207zM1022 -20h-410q24 32 27 80t-6 100h-252q-9 -55 -6 -103.5t28 -76.5h-403q60 110 134.5 429t115 629t14.5 396h490q-28 -84 14.5 -395.5t118.5 -629.5t135 -429zM596 438l-84 541l-88 -541h172z" />
    <glyph glyph-name="Atilde" unicode="&#xc3;" 
d="M393 1878q46 0 107 -35q44 -26 65 -26q20 0 36.5 14.5t41.5 52.5l113 -102q-43 -77 -86.5 -111.5t-100.5 -34.5q-45 0 -106 35q-46 27 -66 27t-36.5 -14.5t-41.5 -53.5l-112 103q43 77 86 111t100 34zM1022 -20h-410q24 32 27 80t-6 100h-252q-9 -55 -6 -103.5t28 -76.5
h-403q60 110 134.5 429t115 629t14.5 396h490q-28 -84 14.5 -395.5t118.5 -629.5t135 -429zM596 438l-84 541l-88 -541h172z" />
    <glyph glyph-name="Adieresis" unicode="&#xc4;" 
d="M240 1509v238h233v-238h-233zM539 1509v238h233v-238h-233zM1022 -20h-410q24 32 27 80t-6 100h-252q-9 -55 -6 -103.5t28 -76.5h-403q60 110 134.5 429t115 629t14.5 396h490q-28 -84 14.5 -395.5t118.5 -629.5t135 -429zM596 438l-84 541l-88 -541h172z" />
    <glyph glyph-name="Aring" unicode="&#xc5;" 
d="M512 1829q76 0 126 -50.5t50 -127.5q0 -75 -50.5 -125.5t-125.5 -50.5t-125.5 50.5t-50.5 125.5q0 77 50 127.5t126 50.5zM512 1694q-37 0 -37 -43q0 -41 37 -41t37 41q0 43 -37 43zM1022 -20h-410q24 32 27 80t-6 100h-252q-9 -55 -6 -103.5t28 -76.5h-403
q60 110 134.5 429t115 629t14.5 396h490q-28 -84 14.5 -395.5t118.5 -629.5t135 -429zM596 438l-84 541l-88 -541h172z" />
    <glyph glyph-name="AE" unicode="&#xc6;" horiz-adv-x="1349" 
d="M936 262h141q95 0 132.5 6t82.5 29l33 -317h-745q27 63 49 387h-164q-17 -59 -29 -133t-8.5 -150t29.5 -104h-477q68 103 191.5 429t213 643t66.5 382h874l-39 -318q-49 23 -83.5 29t-112.5 6h-154v-303h31q80 0 129.5 6.5t111.5 30.5v-359q-64 24 -121.5 31.5
t-150.5 7.5v-303zM635 922l-86 -297h88q0 281 -2 297z" />
    <glyph glyph-name="Ccedilla" unicode="&#xc7;" horiz-adv-x="956" 
d="M649 459l307 -101q4 -160 -99.5 -266t-262.5 -129v-53q51 -6 81 -41.5t30 -89.5q0 -67 -49.5 -104t-137.5 -37q-87 0 -135 45.5t-39 121.5l152 5q-3 -29 1.5 -39.5t22.5 -10.5q27 0 27 29q0 25 -10 33t-41 8h-41v133q-75 9 -137 38t-106 71.5t-78.5 100.5t-55.5 120
t-34.5 134.5t-18.5 139t-5 138.5q0 132 17 243.5t55.5 206.5t97 161t145 103t195.5 37q189 0 309.5 -108.5t116.5 -290.5l-307 -105q15 78 -16 150t-103 72q-84 0 -128 -109.5t-44 -359.5q0 -463 162 -463q70 0 105 61t24 156z" />
    <glyph glyph-name="Egrave" unicode="&#xc8;" horiz-adv-x="907" 
d="M395 1628l-211 266h275l141 -266h-205zM422 1151v-303h41q104 0 158 6.5t118 30.5v-359q-67 25 -130 32t-187 7v-303h166q109 0 149 6t86 29l33 -317h-786q39 97 53 416.5t-1.5 633.5t-51.5 404h786l-39 -318q-49 23 -86 29t-127 6h-182z" />
    <glyph glyph-name="Eacute" unicode="&#xc9;" horiz-adv-x="907" 
d="M334 1628l141 266h275l-211 -266h-205zM422 1151v-303h41q104 0 158 6.5t118 30.5v-359q-67 25 -130 32t-187 7v-303h166q109 0 149 6t86 29l33 -317h-786q39 97 53 416.5t-1.5 633.5t-51.5 404h786l-39 -318q-49 23 -86 29t-127 6h-182z" />
    <glyph glyph-name="Ecircumflex" unicode="&#xca;" horiz-adv-x="907" 
d="M541 1628l-80 103l-80 -103h-207l164 266h246l164 -266h-207zM422 1151v-303h41q104 0 158 6.5t118 30.5v-359q-67 25 -130 32t-187 7v-303h166q109 0 149 6t86 29l33 -317h-786q39 97 53 416.5t-1.5 633.5t-51.5 404h786l-39 -318q-49 23 -86 29t-127 6h-182z" />
    <glyph glyph-name="Edieresis" unicode="&#xcb;" horiz-adv-x="907" 
d="M195 1509v238h233v-238h-233zM494 1509v238h233v-238h-233zM422 1151v-303h41q104 0 158 6.5t118 30.5v-359q-67 25 -130 32t-187 7v-303h166q109 0 149 6t86 29l33 -317h-786q39 97 53 416.5t-1.5 633.5t-51.5 404h786l-39 -318q-49 23 -86 29t-127 6h-182z" />
    <glyph glyph-name="Igrave" unicode="&#xcc;" horiz-adv-x="532" 
d="M170 1628l-211 266h274l142 -266h-205zM469 -20h-403q38 92 51.5 410.5t-1.5 635t-50 408.5h403q-39 -90 -53 -408t1.5 -635.5t51.5 -410.5z" />
    <glyph glyph-name="Iacute" unicode="&#xcd;" horiz-adv-x="532" 
d="M158 1628l141 266h274l-211 -266h-204zM469 -20h-403q38 92 51.5 410.5t-1.5 635t-50 408.5h403q-39 -90 -53 -408t1.5 -635.5t51.5 -410.5z" />
    <glyph glyph-name="Icircumflex" unicode="&#xce;" horiz-adv-x="532" 
d="M346 1495l-80 102l-80 -102h-206l163 266h246l164 -266h-207zM469 -20h-403q38 92 51.5 410.5t-1.5 635t-50 408.5h403q-39 -90 -53 -408t1.5 -635.5t51.5 -410.5z" />
    <glyph glyph-name="Idieresis" unicode="&#xcf;" horiz-adv-x="532" 
d="M0 1509v238h233v-238h-233zM299 1509v238h233v-238h-233zM469 -20h-403q38 92 51.5 410.5t-1.5 635t-50 408.5h403q-39 -90 -53 -408t1.5 -635.5t51.5 -410.5z" />
    <glyph glyph-name="Eth" unicode="&#xd0;" horiz-adv-x="968" 
d="M475 1434q232 0 347.5 -102.5t115.5 -301.5v-647q0 -403 -463 -403h-405q48 119 55 552h-70v248h72q-7 526 -57 654h405zM657 438v578q0 39 -13 67.5t-33.5 45.5t-52.5 26.5t-63 12.5t-73 3v-391h108v-248h-108v-280q127 0 181 44t54 142z" />
    <glyph glyph-name="Ntilde" unicode="&#xd1;" horiz-adv-x="1075" 
d="M420 1749q45 0 106 -35q44 -26 66 -26q20 0 36.5 14.5t41.5 52.5l112 -102q-43 -77 -86.5 -111.5t-99.5 -34.5q-46 0 -107 35q-46 27 -65 27q-20 0 -36.5 -14.5t-41.5 -53.5l-113 103q43 77 86.5 111t100.5 34zM1014 -20h-334l-281 768q0 -107 -1 -235.5t-1.5 -180.5
t1 -118t8 -96.5t17 -65.5t28.5 -72h-392q38 97 53 409.5t0.5 628t-53.5 416.5h365l252 -654q0 52 0.5 138.5t0.5 124.5t-1 99.5t-4.5 93t-9 72t-15 70t-22.5 56.5h393q-42 -99 -57.5 -415t0 -629t53.5 -410z" />
    <glyph glyph-name="Ograve" unicode="&#xd2;" horiz-adv-x="966" 
d="M397 1628l-211 266h275l141 -266h-205zM483 1448q194 0 303 -108.5t109 -295.5v-688q0 -187 -109 -295t-303 -108t-302.5 108t-108.5 295v688q0 187 108.5 295.5t302.5 108.5zM483 1165q-48 0 -80 -40.5t-32 -102.5v-643q0 -143 112 -143q113 0 113 143v643
q0 143 -113 143z" />
    <glyph glyph-name="Oacute" unicode="&#xd3;" horiz-adv-x="966" 
d="M369 1628l141 266h274l-211 -266h-204zM483 1448q194 0 303 -108.5t109 -295.5v-688q0 -187 -109 -295t-303 -108t-302.5 108t-108.5 295v688q0 187 108.5 295.5t302.5 108.5zM483 1165q-48 0 -80 -40.5t-32 -102.5v-643q0 -143 112 -143q113 0 113 143v643
q0 143 -113 143z" />
    <glyph glyph-name="Ocircumflex" unicode="&#xd4;" horiz-adv-x="966" 
d="M563 1628l-80 103l-80 -103h-206l163 266h246l164 -266h-207zM483 1448q194 0 303 -108.5t109 -295.5v-688q0 -187 -109 -295t-303 -108t-302.5 108t-108.5 295v688q0 187 108.5 295.5t302.5 108.5zM483 1165q-48 0 -80 -40.5t-32 -102.5v-643q0 -143 112 -143
q113 0 113 143v643q0 143 -113 143z" />
    <glyph glyph-name="Otilde" unicode="&#xd5;" horiz-adv-x="966" 
d="M375 1876q45 0 106 -35q44 -26 66 -26q20 0 36.5 14.5t41.5 52.5l112 -102q-43 -77 -86.5 -111.5t-99.5 -34.5q-46 0 -107 35q-46 27 -65 27q-20 0 -36.5 -14.5t-41.5 -53.5l-113 103q43 77 86.5 111t100.5 34zM483 1448q194 0 303 -108.5t109 -295.5v-688
q0 -187 -109 -295t-303 -108t-302.5 108t-108.5 295v688q0 187 108.5 295.5t302.5 108.5zM483 1165q-48 0 -80 -40.5t-32 -102.5v-643q0 -143 112 -143q113 0 113 143v643q0 143 -113 143z" />
    <glyph glyph-name="Odieresis" unicode="&#xd6;" horiz-adv-x="966" 
d="M217 1509v238h234v-238h-234zM516 1509v238h234v-238h-234zM483 1448q194 0 303 -108.5t109 -295.5v-688q0 -187 -109 -295t-303 -108t-302.5 108t-108.5 295v688q0 187 108.5 295.5t302.5 108.5zM483 1165q-48 0 -80 -40.5t-32 -102.5v-643q0 -143 112 -143
q113 0 113 143v643q0 143 -113 143z" />
    <glyph glyph-name="Oslash" unicode="&#xd8;" horiz-adv-x="966" 
d="M928 1374l-70 -139q37 -81 37 -191v-688q0 -187 -109 -295t-303 -108q-137 0 -233 55l-23 -43l-182 80l61 125q-34 78 -34 186v688q0 187 108.5 295.5t302.5 108.5q141 0 232 -55l30 61zM371 1022v-322l207 416q-28 49 -95 49q-48 0 -80 -40.5t-32 -102.5zM596 379v328
l-209 -418q29 -53 96 -53q113 0 113 143z" />
    <glyph glyph-name="Ugrave" unicode="&#xd9;" horiz-adv-x="989" 
d="M412 1628l-211 266h274l141 -266h-204zM948 1434q-19 -52 -31 -149.5t-16.5 -262.5t-5 -265.5t-0.5 -309.5v-105q0 -179 -109 -281t-290 -102t-292.5 103.5t-111.5 279.5v105q0 199 -0.5 307.5t-5 267t-16.5 258.5t-31 154h405q-19 -38 -28 -59t-17 -63.5t-9.5 -74
t-2.5 -120t0.5 -170t2.5 -254.5t1 -345q0 -51 31 -79.5t74 -28.5q40 0 70 28.5t30 79.5q0 190 2 384t2 274t-0.5 163.5t-7.5 118t-17 68t-32 78.5h405z" />
    <glyph glyph-name="Uacute" unicode="&#xda;" horiz-adv-x="989" 
d="M381 1628l141 266h275l-211 -266h-205zM948 1434q-19 -52 -31 -149.5t-16.5 -262.5t-5 -265.5t-0.5 -309.5v-105q0 -179 -109 -281t-290 -102t-292.5 103.5t-111.5 279.5v105q0 199 -0.5 307.5t-5 267t-16.5 258.5t-31 154h405q-19 -38 -28 -59t-17 -63.5t-9.5 -74
t-2.5 -120t0.5 -170t2.5 -254.5t1 -345q0 -51 31 -79.5t74 -28.5q40 0 70 28.5t30 79.5q0 190 2 384t2 274t-0.5 163.5t-7.5 118t-17 68t-32 78.5h405z" />
    <glyph glyph-name="Ucircumflex" unicode="&#xdb;" horiz-adv-x="989" 
d="M578 1495l-80 102l-80 -102h-207l164 266h246l163 -266h-206zM948 1434q-19 -52 -31 -149.5t-16.5 -262.5t-5 -265.5t-0.5 -309.5v-105q0 -179 -109 -281t-290 -102t-292.5 103.5t-111.5 279.5v105q0 199 -0.5 307.5t-5 267t-16.5 258.5t-31 154h405q-19 -38 -28 -59
t-17 -63.5t-9.5 -74t-2.5 -120t0.5 -170t2.5 -254.5t1 -345q0 -51 31 -79.5t74 -28.5q40 0 70 28.5t30 79.5q0 190 2 384t2 274t-0.5 163.5t-7.5 118t-17 68t-32 78.5h405z" />
    <glyph glyph-name="Udieresis" unicode="&#xdc;" horiz-adv-x="989" 
d="M231 1509v238h234v-238h-234zM530 1509v238h234v-238h-234zM948 1434q-19 -52 -31 -149.5t-16.5 -262.5t-5 -265.5t-0.5 -309.5v-105q0 -179 -109 -281t-290 -102t-292.5 103.5t-111.5 279.5v105q0 199 -0.5 307.5t-5 267t-16.5 258.5t-31 154h405q-19 -38 -28 -59
t-17 -63.5t-9.5 -74t-2.5 -120t0.5 -170t2.5 -254.5t1 -345q0 -51 31 -79.5t74 -28.5q40 0 70 28.5t30 79.5q0 190 2 384t2 274t-0.5 163.5t-7.5 118t-17 68t-32 78.5h405z" />
    <glyph glyph-name="Yacute" unicode="&#xdd;" horiz-adv-x="905" 
d="M334 1628l141 266h275l-211 -266h-205zM602 659q0 -255 10 -419.5t43 -259.5h-405q32 93 42.5 261t10.5 421q-104 248 -176 403.5t-106.5 218t-88.5 150.5h443q-21 -22 -26.5 -48.5t10 -89.5t32.5 -112t65 -180q1 -2 1 -3q83 245 95 303q15 78 -14 126q-2 2 -3 4h438
q-63 -111 -93.5 -167t-103.5 -212.5t-174 -395.5z" />
    <glyph glyph-name="Thorn" unicode="&#xde;" horiz-adv-x="929" 
d="M909 825v-176q0 -196 -111 -299.5t-331 -103.5h-55q0 -57 2 -86.5t14 -79t37 -100.5h-406q38 97 53 409.5t0.5 628t-53.5 416.5h406q-53 -108 -53 -205q259 0 378 -95t119 -309zM610 684v107q0 82 -40.5 118.5t-157.5 36.5v-418q62 0 102 10t60.5 31.5t28 48t7.5 66.5z
" />
    <glyph glyph-name="germandbls" unicode="&#xdf;" horiz-adv-x="1619" 
d="M326 506q-78 23 -133 54.5t-86 65t-48.5 80.5t-22.5 89t-5 102q0 213 90.5 323.5t286.5 110.5q190 0 273 -110.5t83 -323.5l-295 -14q6 28 5.5 65t-21 69t-54.5 32q-38 0 -53.5 -28t-15.5 -93q0 -66 31.5 -96.5t136.5 -71.5q159 -62 222.5 -162.5t63.5 -255.5
q0 -173 -97.5 -278t-266.5 -105q-172 0 -268.5 96.5t-96.5 266.5v73l314 15q-35 -57 -23.5 -112.5t70.5 -55.5q29 0 45.5 17t20 36.5t3.5 48.5q0 64 -34 100t-125 62zM1161 506q-78 22 -133 53.5t-86 65t-48.5 80.5t-22.5 89.5t-5 102.5q0 213 90.5 323.5t286.5 110.5
q190 0 273 -110.5t83 -323.5l-294 -14q6 28 5.5 65t-21 69t-54.5 32q-38 0 -54 -28t-16 -93q0 -66 31.5 -96.5t136.5 -71.5q159 -62 223 -162.5t64 -255.5q0 -173 -98 -278t-267 -105q-171 0 -267.5 96.5t-96.5 266.5v73l313 15q-35 -57 -23.5 -112.5t70.5 -55.5
q42 0 56 28.5t14 73.5q0 64 -34.5 100t-125.5 62z" />
    <glyph glyph-name="agrave" unicode="&#xe0;" 
d="M375 1475l-211 266h274l142 -266h-205zM936 -20h-410q24 32 27 80t-6 100h-170q-9 -55 -6 -103.5t28 -76.5h-403q50 110 110.5 398t95 567t17.5 366h490q-19 -85 17.5 -365t98.5 -567.5t111 -398.5zM510 438l-43 418l-47 -418h90z" />
    <glyph glyph-name="aacute" unicode="&#xe1;" 
d="M352 1475l142 266h274l-211 -266h-205zM936 -20h-410q24 32 27 80t-6 100h-170q-9 -55 -6 -103.5t28 -76.5h-403q50 110 110.5 398t95 567t17.5 366h490q-19 -85 17.5 -365t98.5 -567.5t111 -398.5zM510 438l-43 418l-47 -418h90z" />
    <glyph glyph-name="acircumflex" unicode="&#xe2;" 
d="M541 1475l-80 102l-80 -102h-207l164 266h246l164 -266h-207zM936 -20h-410q24 32 27 80t-6 100h-170q-9 -55 -6 -103.5t28 -76.5h-403q50 110 110.5 398t95 567t17.5 366h490q-19 -85 17.5 -365t98.5 -567.5t111 -398.5zM510 438l-43 418l-47 -418h90z" />
    <glyph glyph-name="atilde" unicode="&#xe3;" 
d="M373 1722q47 0 106 -34q46 -27 66 -27t36.5 14.5t41.5 53.5l112 -103q-43 -77 -86 -111t-100 -34q-46 0 -107 35q-44 26 -65 26q-20 0 -36.5 -14.5t-41.5 -52.5l-113 102q43 77 86.5 111t100.5 34zM936 -20h-410q24 32 27 80t-6 100h-170q-9 -55 -6 -103.5t28 -76.5h-403
q50 110 110.5 398t95 567t17.5 366h490q-19 -85 17.5 -365t98.5 -567.5t111 -398.5zM510 438l-43 418l-47 -418h90z" />
    <glyph glyph-name="adieresis" unicode="&#xe4;" 
d="M195 1509v238h233v-238h-233zM494 1509v238h233v-238h-233zM936 -20h-410q24 32 27 80t-6 100h-170q-9 -55 -6 -103.5t28 -76.5h-403q50 110 110.5 398t95 567t17.5 366h490q-19 -85 17.5 -365t98.5 -567.5t111 -398.5zM510 438l-43 418l-47 -418h90z" />
    <glyph glyph-name="aring" unicode="&#xe5;" 
d="M461 1829q76 0 126 -50.5t50 -127.5q0 -75 -50.5 -125.5t-125.5 -50.5t-125.5 50.5t-50.5 125.5q0 77 50 127.5t126 50.5zM461 1694q-37 0 -37 -43q0 -41 37 -41t37 41q0 43 -37 43zM936 -20h-410q24 32 27 80t-6 100h-170q-9 -55 -6 -103.5t28 -76.5h-403
q50 110 110.5 398t95 567t17.5 366h490q-19 -85 17.5 -365t98.5 -567.5t111 -398.5zM510 438l-43 418l-47 -418h90z" />
    <glyph glyph-name="ae" unicode="&#xe6;" horiz-adv-x="1325" 
d="M911 262h142q95 0 132.5 6t82.5 29l32 -317h-745q32 75 49 325h-164q-75 -253 -8 -325h-436q81 106 205 403t200.5 585t24.5 343h874l-38 -318q-49 23 -84 29t-113 6h-154v-242h31q80 0 130 6.5t112 30.5v-358q-64 24 -122 31.5t-151 7.5v-242zM610 799l-86 -236h88
q0 220 -2 236z" />
    <glyph glyph-name="ccedilla" unicode="&#xe7;" horiz-adv-x="827" 
d="M520 459l307 -101q4 -171 -83 -276.5t-246 -120.5v-10q51 -6 80.5 -41.5t29.5 -89.5q0 -67 -49 -104.5t-137 -37.5q-87 0 -135 46t-39 122l151 4q-3 -28 2 -38.5t23 -10.5q27 0 27 29q0 25 -10.5 33t-41.5 8h-41v96q-135 25 -209.5 123.5t-74.5 253.5v623
q0 180 100 282.5t275 102.5q180 0 281 -107t97 -293l-307 -104q43 221 -65 221q-16 0 -28.5 -7t-21.5 -22.5t-15 -32t-9.5 -45t-5.5 -51t-2.5 -60t-0.5 -63t0.5 -68t0.5 -67.5q0 -232 19 -321.5t63 -89.5q50 0 63.5 56.5t1.5 160.5z" />
    <glyph glyph-name="egrave" unicode="&#xe8;" horiz-adv-x="866" 
d="M395 1475l-211 266h275l141 -266h-205zM422 1028v-242h31q81 0 131.5 6.5t113.5 30.5v-358q-66 25 -124 32t-152 7v-242h143q96 0 134 6t83 29l33 -317h-745q39 98 53 386t-1.5 571.5t-51.5 373.5h745l-39 -318q-49 23 -83.5 29t-112.5 6h-158z" />
    <glyph glyph-name="eacute" unicode="&#xe9;" horiz-adv-x="866" 
d="M317 1475l142 266h274l-211 -266h-205zM422 1028v-242h31q81 0 131.5 6.5t113.5 30.5v-358q-66 25 -124 32t-152 7v-242h143q96 0 134 6t83 29l33 -317h-745q39 98 53 386t-1.5 571.5t-51.5 373.5h745l-39 -318q-49 23 -83.5 29t-112.5 6h-158z" />
    <glyph glyph-name="ecircumflex" unicode="&#xea;" horiz-adv-x="866" 
d="M539 1475l-80 102l-80 -102h-207l164 266h246l163 -266h-206zM422 1028v-242h31q81 0 131.5 6.5t113.5 30.5v-358q-66 25 -124 32t-152 7v-242h143q96 0 134 6t83 29l33 -317h-745q39 98 53 386t-1.5 571.5t-51.5 373.5h745l-39 -318q-49 23 -83.5 29t-112.5 6h-158z" />
    <glyph glyph-name="edieresis" unicode="&#xeb;" horiz-adv-x="866" 
d="M195 1509v238h233v-238h-233zM494 1509v238h233v-238h-233zM422 1028v-242h31q81 0 131.5 6.5t113.5 30.5v-358q-66 25 -124 32t-152 7v-242h143q96 0 134 6t83 29l33 -317h-745q39 98 53 386t-1.5 571.5t-51.5 373.5h745l-39 -318q-49 23 -83.5 29t-112.5 6h-158z" />
    <glyph glyph-name="igrave" unicode="&#xec;" horiz-adv-x="552" 
d="M193 1475l-211 266h274l141 -266h-204zM489 -20h-403q38 92 51.5 380t-1.5 573.5t-50 377.5h403q-39 -90 -53 -377.5t1.5 -574t51.5 -379.5z" />
    <glyph glyph-name="iacute" unicode="&#xed;" horiz-adv-x="573" 
d="M156 1475l141 266h274l-211 -266h-204zM469 -20h-403q38 92 51.5 380t-1.5 573.5t-50 377.5h403q-39 -90 -53 -377.5t1.5 -574t51.5 -379.5z" />
    <glyph glyph-name="icircumflex" unicode="&#xee;" horiz-adv-x="532" 
d="M346 1495l-80 102l-80 -102h-206l163 266h246l164 -266h-207zM469 -20h-403q38 92 51.5 380t-1.5 573.5t-50 377.5h403q-39 -90 -53 -377.5t1.5 -574t51.5 -379.5z" />
    <glyph glyph-name="idieresis" unicode="&#xef;" horiz-adv-x="532" 
d="M0 1509v238h233v-238h-233zM299 1509v238h233v-238h-233zM469 -20h-403q38 92 51.5 380t-1.5 573.5t-50 377.5h403q-39 -90 -53 -377.5t1.5 -574t51.5 -379.5z" />
    <glyph glyph-name="eth" unicode="&#xf0;" horiz-adv-x="970" 
d="M475 1311q204 0 313 -104t109 -300v-524q0 -196 -109 -299.5t-313 -103.5h-405q50 126 57 552h-72v248h70q-7 404 -55 531h405zM618 438v455q0 83 -49 119.5t-147 36.5v-269h110v-248h-110v-280q95 0 145.5 50.5t50.5 135.5z" />
    <glyph glyph-name="ntilde" unicode="&#xf1;" horiz-adv-x="1034" 
d="M403 1749q46 0 107 -35q44 -26 65 -26q20 0 36.5 14.5t41.5 52.5l113 -102q-43 -77 -86.5 -111.5t-99.5 -34.5q-46 0 -107 35q-46 27 -65 27q-20 0 -36.5 -14.5t-41.5 -53.5l-113 103q43 77 86 111t100 34zM973 -20h-334l-240 686q0 -109 -1.5 -229.5t-1 -165t1.5 -98
t8 -77.5t16 -50t29 -66h-392q38 97 53 379t0.5 566.5t-53.5 385.5h365l211 -551q0 54 0.5 133t0.5 109.5t-1 80t-4 70t-9 52.5t-15 55t-23 51h393q-42 -100 -57.5 -385t0 -566.5t53.5 -379.5z" />
    <glyph glyph-name="ograve" unicode="&#xf2;" horiz-adv-x="925" 
d="M385 1475l-211 266h275l141 -266h-205zM463 1325q180 0 285.5 -108.5t105.5 -294.5v-566q0 -186 -105.5 -294.5t-285.5 -108.5t-285.5 108.5t-105.5 294.5v566q0 186 105.5 294.5t285.5 108.5zM463 1042q-47 0 -69.5 -29.5t-22.5 -92.5v-562q0 -63 22.5 -92.5t69.5 -29.5
t69.5 29.5t22.5 92.5v562q0 63 -22.5 92.5t-69.5 29.5z" />
    <glyph glyph-name="oacute" unicode="&#xf3;" horiz-adv-x="925" 
d="M340 1475l141 266h275l-211 -266h-205zM463 1325q180 0 285.5 -108.5t105.5 -294.5v-566q0 -186 -105.5 -294.5t-285.5 -108.5t-285.5 108.5t-105.5 294.5v566q0 186 105.5 294.5t285.5 108.5zM463 1042q-47 0 -69.5 -29.5t-22.5 -92.5v-562q0 -63 22.5 -92.5t69.5 -29.5
t69.5 29.5t22.5 92.5v562q0 63 -22.5 92.5t-69.5 29.5z" />
    <glyph glyph-name="ocircumflex" unicode="&#xf4;" horiz-adv-x="925" 
d="M545 1475l-80 102l-80 -102h-207l164 266h246l164 -266h-207zM463 1325q180 0 285.5 -108.5t105.5 -294.5v-566q0 -186 -105.5 -294.5t-285.5 -108.5t-285.5 108.5t-105.5 294.5v566q0 186 105.5 294.5t285.5 108.5zM463 1042q-47 0 -69.5 -29.5t-22.5 -92.5v-562
q0 -63 22.5 -92.5t69.5 -29.5t69.5 29.5t22.5 92.5v562q0 63 -22.5 92.5t-69.5 29.5z" />
    <glyph glyph-name="otilde" unicode="&#xf5;" horiz-adv-x="925" 
d="M373 1722q47 0 106 -34q46 -27 66 -27t36.5 14.5t41.5 53.5l112 -103q-43 -77 -86 -111t-100 -34q-46 0 -107 35q-44 26 -65 26q-20 0 -36.5 -14.5t-41.5 -52.5l-113 102q43 77 86.5 111t100.5 34zM463 1325q180 0 285.5 -108.5t105.5 -294.5v-566q0 -186 -105.5 -294.5
t-285.5 -108.5t-285.5 108.5t-105.5 294.5v566q0 186 105.5 294.5t285.5 108.5zM463 1042q-47 0 -69.5 -29.5t-22.5 -92.5v-562q0 -63 22.5 -92.5t69.5 -29.5t69.5 29.5t22.5 92.5v562q0 63 -22.5 92.5t-69.5 29.5z" />
    <glyph glyph-name="odieresis" unicode="&#xf6;" horiz-adv-x="925" 
d="M199 1509v238h233v-238h-233zM498 1509v238h233v-238h-233zM463 1325q180 0 285.5 -108.5t105.5 -294.5v-566q0 -186 -105.5 -294.5t-285.5 -108.5t-285.5 108.5t-105.5 294.5v566q0 186 105.5 294.5t285.5 108.5zM463 1042q-47 0 -69.5 -29.5t-22.5 -92.5v-562
q0 -63 22.5 -92.5t69.5 -29.5t69.5 29.5t22.5 92.5v562q0 63 -22.5 92.5t-69.5 29.5z" />
    <glyph glyph-name="oslash" unicode="&#xf8;" horiz-adv-x="937" 
d="M770 1192q84 -111 84 -270v-566q0 -186 -105.5 -294.5t-285.5 -108.5q-129 0 -217 55l-19 -43l-182 80l59 133q-32 71 -32 178v566q0 186 105.5 294.5t285.5 108.5q78 0 139 -20l21 47l182 -80zM371 920v-138l114 258q-6 2 -22 2q-47 0 -69.5 -29.5t-22.5 -92.5zM463 236
q47 0 69.5 29.5t22.5 92.5v353l-178 -408q15 -67 86 -67z" />
    <glyph glyph-name="ugrave" unicode="&#xf9;" 
d="M391 1475l-211 266h275l141 -266h-205zM907 1311q-19 -52 -31 -134t-16.5 -221.5t-5 -227t-0.5 -281.5v-105q0 -181 -100 -282t-279 -101t-281 102.5t-102 280.5v105q0 245 -1.5 369t-14 274t-37.5 221h405q-22 -44 -32 -74t-17 -61t-7.5 -104t-0.5 -143t2 -241.5
t2 -339.5q0 -51 24.5 -79.5t57.5 -28.5t57.5 28.5t24.5 79.5q0 164 2 332.5t2 238.5t-0.5 143.5t-7.5 106t-17 65t-32 77.5h405z" />
    <glyph glyph-name="uacute" unicode="&#xfa;" 
d="M360 1475l142 266h274l-211 -266h-205zM907 1311q-19 -52 -31 -134t-16.5 -221.5t-5 -227t-0.5 -281.5v-105q0 -181 -100 -282t-279 -101t-281 102.5t-102 280.5v105q0 245 -1.5 369t-14 274t-37.5 221h405q-22 -44 -32 -74t-17 -61t-7.5 -104t-0.5 -143t2 -241.5
t2 -339.5q0 -51 24.5 -79.5t57.5 -28.5t57.5 28.5t24.5 79.5q0 164 2 332.5t2 238.5t-0.5 143.5t-7.5 106t-17 65t-32 77.5h405z" />
    <glyph glyph-name="ucircumflex" unicode="&#xfb;" 
d="M537 1495l-80 102l-80 -102h-207l164 266h246l163 -266h-206zM907 1311q-19 -52 -31 -134t-16.5 -221.5t-5 -227t-0.5 -281.5v-105q0 -181 -100 -282t-279 -101t-281 102.5t-102 280.5v105q0 245 -1.5 369t-14 274t-37.5 221h405q-22 -44 -32 -74t-17 -61t-7.5 -104
t-0.5 -143t2 -241.5t2 -339.5q0 -51 24.5 -79.5t57.5 -28.5t57.5 28.5t24.5 79.5q0 164 2 332.5t2 238.5t-0.5 143.5t-7.5 106t-17 65t-32 77.5h405z" />
    <glyph glyph-name="udieresis" unicode="&#xfc;" 
d="M203 1509v238h233v-238h-233zM502 1509v238h233v-238h-233zM907 1311q-19 -52 -31 -134t-16.5 -221.5t-5 -227t-0.5 -281.5v-105q0 -181 -100 -282t-279 -101t-281 102.5t-102 280.5v105q0 245 -1.5 369t-14 274t-37.5 221h405q-22 -44 -32 -74t-17 -61t-7.5 -104
t-0.5 -143t2 -241.5t2 -339.5q0 -51 24.5 -79.5t57.5 -28.5t57.5 28.5t24.5 79.5q0 164 2 332.5t2 238.5t-0.5 143.5t-7.5 106t-17 65t-32 77.5h405z" />
    <glyph glyph-name="yacute" unicode="&#xfd;" horiz-adv-x="864" 
d="M315 1475l142 266h274l-211 -266h-205zM582 537q0 -229 9.5 -343.5t43.5 -213.5h-406q33 98 43.5 215.5t10.5 343.5q-179 426 -234 548.5t-117 223.5h443q-41 -45 -28.5 -133.5t89.5 -298.5q73 214 83.5 297.5t-25.5 134.5h438q-61 -107 -113 -221t-189 -439
q-31 -74 -48 -114z" />
    <glyph glyph-name="thorn" unicode="&#xfe;" horiz-adv-x="888" 
d="M467 1106q192 0 296.5 -105.5t104.5 -298.5v-53q0 -193 -104.5 -298t-296.5 -105h-55q0 -57 2 -86.5t14 -79t37 -100.5h-406q38 97 53 379t0.5 566.5t-53.5 385.5h406q-53 -108 -53 -205h55zM569 664v24q0 89 -30 112t-127 23v-295q98 0 127.5 24.5t29.5 111.5z" />
    <glyph glyph-name="ydieresis" unicode="&#xff;" horiz-adv-x="864" 
d="M174 1509v238h234v-238h-234zM473 1509v238h234v-238h-234zM582 537q0 -229 9.5 -343.5t43.5 -213.5h-406q33 98 43.5 215.5t10.5 343.5q-179 426 -234 548.5t-117 223.5h443q-41 -45 -28.5 -133.5t89.5 -298.5q73 214 83.5 297.5t-25.5 134.5h438q-61 -107 -113 -221
t-189 -439q-31 -74 -48 -114z" />
    <glyph glyph-name="Amacron" unicode="&#x100;" 
d="M289 1542v172h434v-172h-434zM1022 -20h-410q24 32 27 80t-6 100h-252q-9 -55 -6 -103.5t28 -76.5h-403q60 110 134.5 429t115 629t14.5 396h490q-28 -84 14.5 -395.5t118.5 -629.5t135 -429zM596 438l-84 541l-88 -541h172z" />
    <glyph glyph-name="amacron" unicode="&#x101;" 
d="M244 1542v172h434v-172h-434zM936 -20h-410q24 32 27 80t-6 100h-170q-9 -55 -6 -103.5t28 -76.5h-403q50 110 110.5 398t95 567t17.5 366h490q-19 -85 17.5 -365t98.5 -567.5t111 -398.5zM510 438l-43 418l-47 -418h90z" />
    <glyph glyph-name="Abreve" unicode="&#x102;" 
d="M762 1905q6 -130 -62 -203.5t-194 -73.5t-194 73.5t-62 203.5h182q-8 -38 12.5 -61t61.5 -23t61.5 23t12.5 61h182zM1022 -20h-410q24 32 27 80t-6 100h-252q-9 -55 -6 -103.5t28 -76.5h-403q60 110 134.5 429t115 629t14.5 396h490q-28 -84 14.5 -395.5t118.5 -629.5
t135 -429zM596 438l-84 541l-88 -541h172z" />
    <glyph glyph-name="abreve" unicode="&#x103;" 
d="M717 1751q6 -130 -62 -203t-194 -73t-194 73t-62 203h182q-8 -38 12.5 -61t61.5 -23t61.5 23t12.5 61h182zM936 -20h-410q24 32 27 80t-6 100h-170q-9 -55 -6 -103.5t28 -76.5h-403q50 110 110.5 398t95 567t17.5 366h490q-19 -85 17.5 -365t98.5 -567.5t111 -398.5z
M510 438l-43 418l-47 -418h90z" />
    <glyph glyph-name="Aogonek" unicode="&#x104;" 
d="M860 -127l33 -14l10 -140q-72 -41 -160 -41q-95 0 -146.5 38t-51.5 108q0 90 88 156h-21q24 32 27 80t-6 100h-252q-9 -55 -6 -103.5t28 -76.5h-403q60 110 134.5 429t115 629t14.5 396h490q-28 -84 14.5 -395.5t118.5 -629.5t135 -429h-215q-53 -47 -53 -89
q0 -36 45 -36q37 0 61 18zM424 438h172l-84 541z" />
    <glyph glyph-name="aogonek" unicode="&#x105;" 
d="M860 -127l33 -14l10 -140q-72 -41 -160 -41q-95 0 -146.5 38t-51.5 108q0 90 88 156h-107q24 32 27 80t-6 100h-170q-9 -55 -6 -103.5t28 -76.5h-403q50 110 110.5 398t95 567t17.5 366h490q-19 -85 17.5 -365t98.5 -567.5t111 -398.5h-129q-53 -47 -53 -89q0 -36 45 -36
q37 0 61 18zM420 438h90l-43 418z" />
    <glyph glyph-name="Cacute" unicode="&#x106;" horiz-adv-x="956" 
d="M410 1495l141 266h274l-211 -266h-204zM649 952q15 78 -16 150t-103 72q-84 0 -128 -109.5t-44 -359.5q0 -463 162 -463q70 0 105 61t24 156l307 -101q4 -180 -124 -289.5t-312 -109.5q-87 0 -158.5 24t-122.5 65t-90 100t-63 123t-39.5 140.5t-21 146.5t-5.5 147
q0 132 17 243.5t55.5 206.5t97 161t145 103t195.5 37q189 0 309.5 -108.5t116.5 -290.5z" />
    <glyph glyph-name="cacute" unicode="&#x107;" horiz-adv-x="827" 
d="M287 1495l141 266h274l-210 -266h-205zM520 848q43 221 -65 221q-16 0 -28.5 -7t-21.5 -22.5t-15 -32t-9.5 -45t-5.5 -51t-2.5 -60t-0.5 -63t0.5 -68t0.5 -67.5q0 -232 19 -321.5t63 -89.5q50 0 63.5 56.5t1.5 160.5l307 -101q4 -186 -97 -292.5t-281 -106.5
q-175 0 -275 102.5t-100 282.5v623q0 180 100 282.5t275 102.5q180 0 281 -107t97 -293z" />
    <glyph glyph-name="Ccaron" unicode="&#x10c;" horiz-adv-x="956" 
d="M406 1495l-164 266h207l79 -102l80 102h207l-164 -266h-245zM649 952q15 78 -16 150t-103 72q-84 0 -128 -109.5t-44 -359.5q0 -463 162 -463q70 0 105 61t24 156l307 -101q4 -180 -124 -289.5t-312 -109.5q-87 0 -158.5 24t-122.5 65t-90 100t-63 123t-39.5 140.5
t-21 146.5t-5.5 147q0 132 17 243.5t55.5 206.5t97 161t145 103t195.5 37q189 0 309.5 -108.5t116.5 -290.5z" />
    <glyph glyph-name="ccaron" unicode="&#x10d;" horiz-adv-x="827" 
d="M303 1495l-164 266h207l80 -102l80 102h207l-164 -266h-246zM520 848q43 221 -65 221q-16 0 -28.5 -7t-21.5 -22.5t-15 -32t-9.5 -45t-5.5 -51t-2.5 -60t-0.5 -63t0.5 -68t0.5 -67.5q0 -232 19 -321.5t63 -89.5q50 0 63.5 56.5t1.5 160.5l307 -101q4 -186 -97 -292.5
t-281 -106.5q-175 0 -275 102.5t-100 282.5v623q0 180 100 282.5t275 102.5q180 0 281 -107t97 -293z" />
    <glyph glyph-name="Dcaron" unicode="&#x10e;" horiz-adv-x="968" 
d="M348 1495l-164 266h207l80 -102l80 102h207l-164 -266h-246zM475 1434q232 0 347.5 -102.5t115.5 -301.5v-647q0 -403 -463 -403h-405q38 98 52 415.5t-1 631.5t-51 407h405zM657 438v578q0 39 -13 67.5t-33.5 45.5t-52.5 26.5t-63 12.5t-73 3v-919q127 0 181 44t54 142z
" />
    <glyph glyph-name="dcaron" unicode="&#x10f;" horiz-adv-x="968" 
d="M301 1495l-164 266h207l80 -102l80 102h207l-164 -266h-246zM475 1311q204 0 313 -104t109 -300v-524q0 -196 -109 -299.5t-313 -103.5h-405q38 98 52 384.5t-1 570t-51 376.5h405zM618 438v455q0 83 -49 119.5t-147 36.5v-797q95 0 145.5 50.5t50.5 135.5z" />
    <glyph glyph-name="Dcroat" unicode="&#x110;" horiz-adv-x="968" 
d="M475 1434q232 0 347.5 -102.5t115.5 -301.5v-647q0 -403 -463 -403h-405q48 119 55 552h-70v248h72q-7 526 -57 654h405zM657 438v578q0 39 -13 67.5t-33.5 45.5t-52.5 26.5t-63 12.5t-73 3v-391h108v-248h-108v-280q127 0 181 44t54 142z" />
    <glyph glyph-name="dcroat" unicode="&#x111;" horiz-adv-x="970" 
d="M475 1311q204 0 313 -104t109 -300v-524q0 -196 -109 -299.5t-313 -103.5h-405q50 126 57 552h-72v248h70q-7 404 -55 531h405zM618 438v455q0 83 -49 119.5t-147 36.5v-269h110v-248h-110v-280q95 0 145.5 50.5t50.5 135.5z" />
    <glyph glyph-name="Emacron" unicode="&#x112;" horiz-adv-x="907" 
d="M244 1542v172h434v-172h-434zM422 1151v-303h41q104 0 158 6.5t118 30.5v-359q-67 25 -130 32t-187 7v-303h166q109 0 149 6t86 29l33 -317h-786q39 97 53 416.5t-1.5 633.5t-51.5 404h786l-39 -318q-49 23 -86 29t-127 6h-182z" />
    <glyph glyph-name="emacron" unicode="&#x113;" horiz-adv-x="866" 
d="M264 1542v172h434v-172h-434zM422 1028v-242h31q81 0 131.5 6.5t113.5 30.5v-358q-66 25 -124 32t-152 7v-242h143q96 0 134 6t83 29l33 -317h-745q39 98 53 386t-1.5 571.5t-51.5 373.5h745l-39 -318q-49 23 -83.5 29t-112.5 6h-158z" />
    <glyph glyph-name="Edotaccent" unicode="&#x116;" horiz-adv-x="907" 
d="M336 1501v254h250v-254h-250zM422 1151v-303h41q104 0 158 6.5t118 30.5v-359q-67 25 -130 32t-187 7v-303h166q109 0 149 6t86 29l33 -317h-786q39 97 53 416.5t-1.5 633.5t-51.5 404h786l-39 -318q-49 23 -86 29t-127 6h-182z" />
    <glyph glyph-name="edotaccent" unicode="&#x117;" horiz-adv-x="866" 
d="M356 1501v254h250v-254h-250zM422 1028v-242h31q81 0 131.5 6.5t113.5 30.5v-358q-66 25 -124 32t-152 7v-242h143q96 0 134 6t83 29l33 -317h-745q39 98 53 386t-1.5 571.5t-51.5 373.5h745l-39 -318q-49 23 -83.5 29t-112.5 6h-158z" />
    <glyph glyph-name="Eogonek" unicode="&#x118;" horiz-adv-x="907" 
d="M748 -20q-54 -48 -54 -89q0 -36 45 -36q38 0 62 18l33 -14l10 -140q-72 -41 -160 -41q-95 0 -147 38t-52 108q0 90 88 156h-503q39 97 53 416.5t-1.5 633.5t-51.5 404h786l-39 -318q-49 23 -86 29t-127 6h-182v-303h41q104 0 158 6.5t118 30.5v-359q-67 25 -130 32
t-187 7v-303h166q109 0 149 6t86 29l33 -317h-108z" />
    <glyph glyph-name="eogonek" unicode="&#x119;" horiz-adv-x="866" 
d="M834 -141l10 -140q-72 -41 -160 -41q-95 0 -147 38t-52 108q0 90 88 156h-503q39 98 53 386t-1.5 571.5t-51.5 373.5h745l-39 -318q-49 23 -83.5 29t-112.5 6h-158v-242h31q81 0 131.5 6.5t113.5 30.5v-358q-66 25 -124 32t-152 7v-242h143q96 0 134 6t83 29l29 -268h8
q-4 -4 -8 -4l4 -45h-67q-54 -48 -54 -89q0 -36 45 -36q38 0 62 18z" />
    <glyph glyph-name="Ecaron" unicode="&#x11a;" horiz-adv-x="907" 
d="M338 1495l-164 266h207l80 -102l80 102h207l-164 -266h-246zM422 1151v-303h41q104 0 158 6.5t118 30.5v-359q-67 25 -130 32t-187 7v-303h166q109 0 149 6t86 29l33 -317h-786q39 97 53 416.5t-1.5 633.5t-51.5 404h786l-39 -318q-49 23 -86 29t-127 6h-182z" />
    <glyph glyph-name="ecaron" unicode="&#x11b;" horiz-adv-x="866" 
d="M317 1495l-163 266h206l80 -102l80 102h207l-164 -266h-246zM422 1028v-242h31q81 0 131.5 6.5t113.5 30.5v-358q-66 25 -124 32t-152 7v-242h143q96 0 134 6t83 29l33 -317h-745q39 98 53 386t-1.5 571.5t-51.5 373.5h745l-39 -318q-49 23 -83.5 29t-112.5 6h-158z" />
    <glyph glyph-name="uni0122" unicode="&#x122;" horiz-adv-x="956" 
d="M649 952q15 78 -16 150t-103 72q-84 0 -128 -109.5t-44 -359.5q0 -463 162 -463q58 0 91.5 56.5t39 135.5t-9 165t-45.5 144h360v-262q2 -135 -32 -237.5t-95.5 -163.5t-139.5 -91t-169 -30q-87 0 -158.5 24t-122.5 65t-90 100t-63 123t-39.5 140.5t-21 146.5t-5.5 147
q0 132 17 243.5t55.5 206.5t97 161t145 103t195.5 37q189 0 309.5 -108.5t116.5 -290.5zM541 -479h-146l68 147h-55v230h249v-197z" />
    <glyph glyph-name="uni0123" unicode="&#x123;" horiz-adv-x="868" 
d="M520 848q43 221 -65 221q-16 0 -28.5 -7t-21.5 -22.5t-15 -32t-9.5 -45t-5.5 -51t-2.5 -60t-0.5 -63t0.5 -68t0.5 -67.5q0 -180 10 -267t30 -115.5t62 -28.5q52 0 68 98.5t0.5 210t-43.5 154.5l327 -7v-340q4 -186 -97 -292.5t-281 -106.5q-175 0 -275 102.5t-100 282.5
v623q0 180 100 282.5t275 102.5q180 0 281 -107t97 -293zM461 -438h-146l68 147h-55v230h250v-197z" />
    <glyph glyph-name="Itilde" unicode="&#x128;" horiz-adv-x="532" 
d="M469 -20h-403q38 92 51.5 410.5t-1.5 635t-50 408.5h403q-39 -90 -53 -408t1.5 -635.5t51.5 -410.5zM307 1884q30 -24 51 -24q9 0 16.5 4t15 12.5t13 16.5t15 23.5t16.5 25.5l141 -132q-41 -82 -98 -126t-119 -44q-57 0 -110 39q-33 23 -62 23q-43 0 -88 -80l-141 131
q40 81 102.5 125.5t130.5 44.5q64 0 117 -39z" />
    <glyph glyph-name="itilde" unicode="&#x129;" horiz-adv-x="532" 
d="M469 -20h-403q38 92 51.5 380t-1.5 573.5t-50 377.5h403q-39 -90 -53 -377.5t1.5 -574t51.5 -379.5zM307 1731q31 -25 51 -25q9 0 16.5 4t15 12.5t13 16.5t15 23.5t16.5 25.5l141 -131q-41 -82 -98 -126t-119 -44q-57 0 -110 39q-32 22 -62 22q-43 0 -88 -80l-141 131
q40 81 102.5 125.5t130.5 44.5q65 0 117 -38z" />
    <glyph glyph-name="Imacron" unicode="&#x12a;" horiz-adv-x="532" 
d="M49 1542v172h434v-172h-434zM469 -20h-403q38 92 51.5 410.5t-1.5 635t-50 408.5h403q-39 -90 -53 -408t1.5 -635.5t51.5 -410.5z" />
    <glyph glyph-name="imacron" unicode="&#x12b;" horiz-adv-x="532" 
d="M49 1542v172h434v-172h-434zM469 -20h-403q38 92 51.5 380t-1.5 573.5t-50 377.5h403q-39 -90 -53 -377.5t1.5 -574t51.5 -379.5z" />
    <glyph glyph-name="Iogonek" unicode="&#x12e;" horiz-adv-x="534" 
d="M340 -20q-53 -47 -53 -89q0 -36 45 -36q37 0 61 18l33 -14l10 -140q-72 -41 -160 -41q-95 0 -146.5 38t-51.5 108q0 90 88 156h-100q38 92 51.5 410.5t-1.5 635t-50 408.5h403q-39 -90 -53 -408t1.5 -635.5t51.5 -410.5h-129z" />
    <glyph glyph-name="iogonek" unicode="&#x12f;" horiz-adv-x="532" 
d="M358 -20q-53 -47 -53 -89q0 -36 45 -36q38 0 62 18l32 -14l11 -140q-72 -41 -160 -41q-95 0 -147 38t-52 108q0 90 88 156h-118q38 92 51.5 380t-1.5 573.5t-50 377.5h403q-39 -90 -53 -377.5t1.5 -574t51.5 -379.5h-111z" />
    <glyph glyph-name="uni0136" unicode="&#x136;" horiz-adv-x="987" 
d="M1059 -20h-469q10 16 15.5 32t6 37t-0.5 39t-10 49t-16.5 54.5t-25 68.5t-31 78t-38.5 96t-44 111h-57q0 -58 -1 -142t-1 -119t2 -87.5t8 -81.5t17 -64.5t28 -70.5h-403q37 95 52 409t0.5 630t-52.5 415h403q-18 -35 -28 -65t-16 -52.5t-8 -72.5t-2.5 -80.5t0.5 -125.5
t1 -161h57q88 189 124.5 294.5t36 160t-18.5 102.5h467q-18 -21 -33 -41t-32.5 -48.5t-30 -49t-33.5 -63t-34 -68.5t-41 -88t-44.5 -98t-55.5 -122.5t-63 -140.5q17 -44 52.5 -136t51 -132t45.5 -111.5t50.5 -110t49 -89t58.5 -87.5t64 -69zM483 -459h-145l68 148h-56v229
h250v-197z" />
    <glyph glyph-name="uni0137" unicode="&#x137;" 
d="M1018 -20h-469q18 29 22.5 52t-7.5 64.5t-28 78t-55.5 128.5t-74.5 180h-17q0 -59 -1 -137.5t-1 -108t2 -72.5t8 -66t16.5 -53t28.5 -66h-403q38 95 52.5 378t0 568.5t-52.5 384.5h403q-17 -35 -27.5 -64.5t-16.5 -51.5t-8 -66.5t-2.5 -71t0.5 -107t1 -135.5h17
q87 158 124 251t36 144.5t-19 100.5h467q-4 -5 -28.5 -33.5t-28 -33t-24 -30.5t-26.5 -38t-26.5 -43t-33 -58t-36 -71t-46 -93.5t-52.5 -114t-66 -143.5q55 -121 128 -288q86 -198 114 -243.5t115 -127.5zM487 -438h-145l68 147h-56v230h250v-197z" />
    <glyph glyph-name="Lacute" unicode="&#x139;" horiz-adv-x="894" 
d="M121 1495l141 266h275l-211 -266h-205zM909 340l-59 -360h-760q11 245 14.5 536.5t-7.5 566t-38 351.5h404q-17 -34 -25.5 -57t-16.5 -49.5t-10 -69.5t-4 -87.5t-1 -135t1.5 -181t1.5 -256t1 -332.5h161q143 0 202.5 12.5t135.5 61.5z" />
    <glyph glyph-name="lacute" unicode="&#x13a;" horiz-adv-x="854" 
d="M104 1495l142 266h274l-211 -266h-205zM868 340l-59 -360h-698q17 757 12 941q-7 248 -51 359q-6 16 -13 31h404q-22 -45 -32 -76.5t-17 -64.5t-7.5 -113t-0.5 -156.5t2 -264t2 -370.5h141q128 0 185 12.5t132 61.5z" />
    <glyph glyph-name="uni013B" unicode="&#x13b;" horiz-adv-x="894" 
d="M909 340l-59 -360h-760q11 245 14.5 536.5t-7.5 566t-38 351.5h404q-17 -34 -25.5 -57t-16.5 -49.5t-10 -69.5t-4 -87.5t-1 -135t1.5 -181t1.5 -256t1 -332.5h161q143 0 202.5 12.5t135.5 61.5zM494 -459h-146l68 148h-56v229h250v-197z" />
    <glyph glyph-name="uni013C" unicode="&#x13c;" horiz-adv-x="854" 
d="M868 340l-59 -360h-698q17 757 12 941q-7 248 -51 359q-6 16 -13 31h404q-22 -45 -32 -76.5t-17 -64.5t-7.5 -113t-0.5 -156.5t2 -264t2 -370.5h141q128 0 185 12.5t132 61.5zM436 -438h-145l67 147h-55v230h250v-197z" />
    <glyph glyph-name="Lcaron" unicode="&#x13d;" horiz-adv-x="894" 
d="M909 340l-59 -360h-760q11 245 14.5 536.5t-7.5 566t-38 351.5h404q-17 -34 -25.5 -57t-16.5 -49.5t-10 -69.5t-4 -87.5t-1 -135t1.5 -181t1.5 -256t1 -332.5h161q143 0 202.5 12.5t135.5 61.5zM668 1057h-146l68 147h-55v230h249v-197z" />
    <glyph glyph-name="lcaron" unicode="&#x13e;" horiz-adv-x="854" 
d="M498 1454h250v-197l-117 -180h-146l68 148h-55v229zM446 1311q-27 -63 -31.5 -219t-4.5 -826h141q128 0 185 12.5t132 61.5l-59 -360h-698q17 757 12 941q-7 248 -51 359q-6 16 -13 31h387z" />
    <glyph glyph-name="Lslash" unicode="&#x141;" horiz-adv-x="894" 
d="M410 266h161q143 0 202.5 12.5t135.5 61.5l-59 -360h-760q11 289 14 550l-71 -51l-78 180l149 107q-4 551 -45 668h404q-29 -59 -39.5 -101.5t-14.5 -115.5t-3 -236l71 51l78 -180l-147 -104q2 -129 2 -482z" />
    <glyph glyph-name="lslash" unicode="&#x142;" horiz-adv-x="854" 
d="M410 266h141q128 0 185 12.5t132 61.5l-59 -360h-698q9 420 10 471l-47 -33l-78 180l129 92q2 272 -12 405t-54 216h404q-40 -83 -49 -148t-8 -272l112 80l78 -180l-188 -136q2 -106 2 -389z" />
    <glyph glyph-name="Nacute" unicode="&#x143;" horiz-adv-x="1075" 
d="M389 1495l141 266h275l-211 -266h-205zM1014 -20h-334l-281 768q0 -107 -1 -235.5t-1.5 -180.5t1 -118t8 -96.5t17 -65.5t28.5 -72h-392q38 97 53 409.5t0.5 628t-53.5 416.5h365l252 -654q0 52 0.5 138.5t0.5 124.5t-1 99.5t-4.5 93t-9 72t-15 70t-22.5 56.5h393
q-42 -99 -57.5 -415t0 -629t53.5 -410z" />
    <glyph glyph-name="nacute" unicode="&#x144;" horiz-adv-x="1034" 
d="M352 1495l142 266h274l-211 -266h-205zM973 -20h-334l-240 686q0 -109 -1.5 -229.5t-1 -165t1.5 -98t8 -77.5t16 -50t29 -66h-392q38 97 53 379t0.5 566.5t-53.5 385.5h365l211 -551q0 54 0.5 133t0.5 109.5t-1 80t-4 70t-9 52.5t-15 55t-23 51h393q-42 -100 -57.5 -385
t0 -566.5t53.5 -379.5z" />
    <glyph glyph-name="uni0145" unicode="&#x145;" horiz-adv-x="1075" 
d="M1014 -20h-334l-281 768q0 -107 -1 -235.5t-1.5 -180.5t1 -118t8 -96.5t17 -65.5t28.5 -72h-392q38 97 53 409.5t0.5 628t-53.5 416.5h365l252 -654q0 52 0.5 138.5t0.5 124.5t-1 99.5t-4.5 93t-9 72t-15 70t-22.5 56.5h393q-42 -99 -57.5 -415t0 -629t53.5 -410z
M516 -459h-145l67 148h-55v229h250v-197z" />
    <glyph glyph-name="uni0146" unicode="&#x146;" horiz-adv-x="1034" 
d="M973 -20h-334l-240 686q0 -109 -1.5 -229.5t-1 -165t1.5 -98t8 -77.5t16 -50t29 -66h-392q38 97 53 379t0.5 566.5t-53.5 385.5h365l211 -551q0 54 0.5 133t0.5 109.5t-1 80t-4 70t-9 52.5t-15 55t-23 51h393q-42 -100 -57.5 -385t0 -566.5t53.5 -379.5zM500 -438h-146
l68 147h-55v230h249v-197z" />
    <glyph glyph-name="Ncaron" unicode="&#x147;" horiz-adv-x="1075" 
d="M385 1495l-164 266h207l80 -102l80 102h207l-164 -266h-246zM1014 -20h-334l-281 768q0 -107 -1 -235.5t-1.5 -180.5t1 -118t8 -96.5t17 -65.5t28.5 -72h-392q38 97 53 409.5t0.5 628t-53.5 416.5h365l252 -654q0 52 0.5 138.5t0.5 124.5t-1 99.5t-4.5 93t-9 72t-15 70
t-22.5 56.5h393q-42 -99 -57.5 -415t0 -629t53.5 -410z" />
    <glyph glyph-name="ncaron" unicode="&#x148;" horiz-adv-x="1034" 
d="M369 1495l-164 266h207l80 -102l79 102h207l-164 -266h-245zM973 -20h-334l-240 686q0 -109 -1.5 -229.5t-1 -165t1.5 -98t8 -77.5t16 -50t29 -66h-392q38 97 53 379t0.5 566.5t-53.5 385.5h365l211 -551q0 54 0.5 133t0.5 109.5t-1 80t-4 70t-9 52.5t-15 55t-23 51h393
q-42 -100 -57.5 -385t0 -566.5t53.5 -379.5z" />
    <glyph glyph-name="Eng" unicode="&#x14a;" horiz-adv-x="1095" 
d="M1001 20q21 -61 24 -114t-10.5 -92.5t-41 -71.5t-66 -53.5t-87 -36t-101 -21t-111.5 -6.5q-77 0 -166 31l17 285q7 -3 21 -8t18.5 -7t15 -5.5t15 -4.5t12.5 -3.5t13.5 -3t12.5 -1t15 -0.5q26 0 41 1.5t29.5 8t19 19.5t3.5 35t-11 55l-265 721q0 -107 -1 -235.5
t-1.5 -180.5t1 -118t8 -96.5t17 -65.5t28.5 -72h-392q38 97 53 409.5t0.5 628t-53.5 416.5h365l252 -654q0 52 0.5 138.5t0.5 124.5t-1 99.5t-4.5 93t-9 72t-15 70t-22.5 56.5h393q-40 -94 -56 -385.5t-4.5 -593.5t43.5 -435z" />
    <glyph glyph-name="eng" unicode="&#x14b;" horiz-adv-x="1054" 
d="M977 1311q-42 -100 -57.5 -385t0 -566.5t53.5 -379.5q22 -78 8.5 -137.5t-48 -101t-93 -67t-126 -37.5t-147.5 -12q-77 0 -166 31l17 285q7 -3 21 -8t18.5 -7t15 -5.5t15 -4.5t12.5 -3.5t13.5 -3t12.5 -1t15 -0.5q21 0 35 1t31 5t23 12t11.5 21t-2.5 33l-240 686
q0 -109 -1.5 -229.5t-1 -165t1.5 -98t8 -77.5t16 -50t29 -66h-392q38 97 53 379t0.5 566.5t-53.5 385.5h365l211 -551q0 54 0.5 133t0.5 109.5t-1 80t-4 70t-9 52.5t-15 55t-23 51h393z" />
    <glyph glyph-name="Omacron" unicode="&#x14c;" horiz-adv-x="966" 
d="M246 1542v172h434v-172h-434zM483 1448q194 0 303 -108.5t109 -295.5v-688q0 -187 -109 -295t-303 -108t-302.5 108t-108.5 295v688q0 187 108.5 295.5t302.5 108.5zM483 1165q-48 0 -80 -40.5t-32 -102.5v-643q0 -143 112 -143q113 0 113 143v643q0 143 -113 143z" />
    <glyph glyph-name="omacron" unicode="&#x14d;" horiz-adv-x="925" 
d="M248 1542v172h434v-172h-434zM463 1325q180 0 285.5 -108.5t105.5 -294.5v-566q0 -186 -105.5 -294.5t-285.5 -108.5t-285.5 108.5t-105.5 294.5v566q0 186 105.5 294.5t285.5 108.5zM463 1042q-47 0 -69.5 -29.5t-22.5 -92.5v-562q0 -63 22.5 -92.5t69.5 -29.5
t69.5 29.5t22.5 92.5v562q0 63 -22.5 92.5t-69.5 29.5z" />
    <glyph glyph-name="Ohungarumlaut" unicode="&#x150;" horiz-adv-x="966" 
d="M188 1495l142 266h258l-211 -266h-189zM475 1495l141 266h258l-210 -266h-189zM483 1448q194 0 303 -108.5t109 -295.5v-688q0 -187 -109 -295t-303 -108t-302.5 108t-108.5 295v688q0 187 108.5 295.5t302.5 108.5zM483 1165q-48 0 -80 -40.5t-32 -102.5v-643
q0 -143 112 -143q113 0 113 143v643q0 143 -113 143z" />
    <glyph glyph-name="ohungarumlaut" unicode="&#x151;" horiz-adv-x="925" 
d="M170 1495l141 266h258l-211 -266h-188zM457 1495l141 266h258l-211 -266h-188zM463 1325q180 0 285.5 -108.5t105.5 -294.5v-566q0 -186 -105.5 -294.5t-285.5 -108.5t-285.5 108.5t-105.5 294.5v566q0 186 105.5 294.5t285.5 108.5zM463 1042q-47 0 -69.5 -29.5
t-22.5 -92.5v-562q0 -63 22.5 -92.5t69.5 -29.5t69.5 29.5t22.5 92.5v562q0 63 -22.5 92.5t-69.5 29.5z" />
    <glyph glyph-name="OE" unicode="&#x152;" horiz-adv-x="1269" 
d="M836 262h143q96 0 134 6t83 29l33 -317h-756q-195 0 -308.5 106t-113.5 297v647q0 191 114 297.5t308 106.5h756l-39 -318q-49 23 -84 29t-113 6h-157v-324h30q82 0 132.5 6.5t113.5 30.5v-358q-66 25 -124 32t-152 7v-283zM481 262h45v889h-45q-131 0 -131 -135v-619
q0 -135 131 -135z" />
    <glyph glyph-name="oe" unicode="&#x153;" horiz-adv-x="1247" 
d="M836 262h143q96 0 134 6t83 29l33 -317h-756q-192 0 -296.5 105t-104.5 298v524q0 193 104.5 298.5t296.5 105.5h756l-39 -318q-49 23 -84 29t-113 6h-157v-242h30q82 0 132.5 6.5t113.5 30.5v-358q-66 25 -124 32t-152 7v-242zM481 262h45v766h-45q-60 0 -85 -30
t-25 -105v-496q0 -75 25 -105t85 -30z" />
    <glyph glyph-name="Racute" unicode="&#x154;" horiz-adv-x="987" 
d="M283 1495l141 266h274l-211 -266h-204zM954 -20h-438q25 35 33.5 66t-3 82.5t-34.5 109t-72 163.5h-49q0 -40 -0.5 -97.5t0 -78.5t0.5 -54.5t3 -46.5t5.5 -33.5t9.5 -35.5t14.5 -32t20.5 -43h-405q38 91 53 405.5t0 632t-53 416.5h407q220 0 331.5 -104t111.5 -300v-225
q0 -119 -42 -212t-124 -128q129 -363 231 -485zM590 840v155q0 93 -38.5 124.5t-160.5 31.5v-467q123 0 161 32t38 124z" />
    <glyph glyph-name="racute" unicode="&#x155;" horiz-adv-x="942" 
d="M266 1495l142 266h274l-211 -266h-205zM954 -20h-438q30 41 28 90.5t-19.5 96t-78.5 177.5q-17 37 -26 57h-29q0 -40 -0.5 -97.5t0 -78.5t0.5 -54.5t3 -46.5t5.5 -33.5t9.5 -35.5t14.5 -32t20.5 -43h-405q38 91 53 374.5t0 570.5t-53 386h407q192 0 297 -105.5
t105 -298.5v-102q0 -225 -146 -334q42 -94 98 -221q61 -137 78 -168t62 -85q9 -11 14 -17zM549 819v74q0 89 -30.5 112t-127.5 23v-344q98 0 128 24t30 111z" />
    <glyph glyph-name="uni0156" unicode="&#x156;" horiz-adv-x="987" 
d="M954 -20h-438q25 35 33.5 66t-3 82.5t-34.5 109t-72 163.5h-49q0 -40 -0.5 -97.5t0 -78.5t0.5 -54.5t3 -46.5t5.5 -33.5t9.5 -35.5t14.5 -32t20.5 -43h-405q38 91 53 405.5t0 632t-53 416.5h407q220 0 331.5 -104t111.5 -300v-225q0 -119 -42 -212t-124 -128
q129 -363 231 -485zM590 840v155q0 93 -38.5 124.5t-160.5 31.5v-467q123 0 161 32t38 124zM489 -459h-145l68 148h-56v229h250v-197z" />
    <glyph glyph-name="uni0157" unicode="&#x157;" horiz-adv-x="942" 
d="M954 -20h-438q30 41 28 90.5t-19.5 96t-78.5 177.5q-17 37 -26 57h-29q0 -40 -0.5 -97.5t0 -78.5t0.5 -54.5t3 -46.5t5.5 -33.5t9.5 -35.5t14.5 -32t20.5 -43h-405q38 91 53 374.5t0 570.5t-53 386h407q192 0 297 -105.5t105 -298.5v-102q0 -225 -146 -334
q42 -94 98 -221q61 -137 78 -168t62 -85q9 -11 14 -17zM549 819v74q0 89 -30.5 112t-127.5 23v-344q98 0 128 24t30 111zM473 -438h-145l67 147h-55v230h250v-197z" />
    <glyph glyph-name="Rcaron" unicode="&#x158;" horiz-adv-x="966" 
d="M299 1495l-164 266h207l80 -102l80 102h207l-164 -266h-246zM954 -20h-438q25 35 33.5 66t-3 82.5t-34.5 109t-72 163.5h-49q0 -40 -0.5 -97.5t0 -78.5t0.5 -54.5t3 -46.5t5.5 -33.5t9.5 -35.5t14.5 -32t20.5 -43h-405q38 91 53 405.5t0 632t-53 416.5h407
q220 0 331.5 -104t111.5 -300v-225q0 -119 -42 -212t-124 -128q129 -363 231 -485zM590 840v155q0 93 -38.5 124.5t-160.5 31.5v-467q123 0 161 32t38 124z" />
    <glyph glyph-name="rcaron" unicode="&#x159;" horiz-adv-x="942" 
d="M283 1495l-164 266h207l80 -102l79 102h207l-164 -266h-245zM954 -20h-438q30 41 28 90.5t-19.5 96t-78.5 177.5q-17 37 -26 57h-29q0 -40 -0.5 -97.5t0 -78.5t0.5 -54.5t3 -46.5t5.5 -33.5t9.5 -35.5t14.5 -32t20.5 -43h-405q38 91 53 374.5t0 570.5t-53 386h407
q192 0 297 -105.5t105 -298.5v-102q0 -225 -146 -334q42 -94 98 -221q61 -137 78 -168t62 -85q9 -11 14 -17zM549 819v74q0 89 -30.5 112t-127.5 23v-344q98 0 128 24t30 111z" />
    <glyph glyph-name="Sacute" unicode="&#x15a;" horiz-adv-x="825" 
d="M260 1495l141 266h275l-211 -266h-205zM346 588q-162 69 -238.5 180.5t-76.5 251.5q0 210 99.5 322t297.5 112q193 0 285 -112.5t92 -321.5l-295 -14q7 21 9 47t-2.5 53.5t-24 46t-52.5 18.5q-49 0 -79.5 -29.5t-30.5 -90.5q0 -71 50 -131t173 -125q148 -78 210 -183.5
t62 -269.5q0 -170 -106.5 -276.5t-278.5 -106.5q-201 0 -293 108t-92 328l314 15q-22 -38 -23.5 -77t19 -65t59.5 -26q45 0 73.5 32t28.5 70q0 68 -48.5 138.5t-131.5 105.5z" />
    <glyph glyph-name="sacute" unicode="&#x15b;" horiz-adv-x="784" 
d="M236 1495l141 266h274l-211 -266h-204zM326 506q-78 23 -133 54.5t-86 65t-48.5 80.5t-22.5 89t-5 102q0 213 90.5 323.5t286.5 110.5q190 0 273 -110.5t83 -323.5l-295 -14q6 28 5.5 65t-21 69t-54.5 32q-38 0 -53.5 -28t-15.5 -93q0 -66 31.5 -96.5t136.5 -71.5
q159 -62 222.5 -162.5t63.5 -255.5q0 -173 -97.5 -278t-266.5 -105q-172 0 -268.5 96.5t-96.5 266.5v73l314 15q-35 -57 -23.5 -112.5t70.5 -55.5q29 0 45.5 17t20 36.5t3.5 48.5q0 64 -34 100t-125 62z" />
    <glyph glyph-name="Scedilla" unicode="&#x15e;" horiz-adv-x="825" 
d="M825 342q0 -161 -96 -266t-254 -115v-10q51 -6 81 -41.5t30 -89.5q0 -67 -49.5 -104.5t-137.5 -37.5q-87 0 -135 46t-39 122l152 4q-3 -29 1.5 -39t22.5 -10q27 0 27 29q0 25 -10 33t-41 8h-41v96q-145 26 -213 132.5t-68 295.5l314 15q-22 -38 -23.5 -77t19 -65
t59.5 -26q45 0 73.5 32t28.5 70q0 68 -48.5 138.5t-131.5 105.5q-162 69 -238.5 180.5t-76.5 251.5q0 210 99.5 322t297.5 112q193 0 285 -112.5t92 -321.5l-295 -14q7 21 9 47t-2.5 53.5t-24 46t-52.5 18.5q-49 0 -79.5 -29.5t-30.5 -90.5q0 -71 50 -131t173 -125
q148 -78 210 -183.5t62 -269.5z" />
    <glyph glyph-name="scedilla" unicode="&#x15f;" horiz-adv-x="784" 
d="M784 342q0 -159 -81.5 -260.5t-227.5 -118.5v-12q51 -6 81 -41.5t30 -89.5q0 -67 -49.5 -104.5t-137.5 -37.5q-87 0 -135 46t-39 122l152 4q-3 -29 1.5 -39t22.5 -10q27 0 27 29q0 25 -10 33t-41 8h-41v94q-134 23 -207.5 115.5t-73.5 241.5v73l314 15
q-35 -57 -23.5 -112.5t70.5 -55.5q29 0 45.5 17t20 36.5t3.5 48.5q0 64 -34 100t-125 62q-78 23 -133 54.5t-86 65t-48.5 80.5t-22.5 89t-5 102q0 213 90.5 323.5t286.5 110.5q190 0 273 -110.5t83 -323.5l-295 -14q6 28 5.5 65t-21 69t-54.5 32q-38 0 -53.5 -28t-15.5 -93
q0 -66 31.5 -96.5t136.5 -71.5q159 -62 222.5 -162.5t63.5 -255.5z" />
    <glyph glyph-name="Scaron" unicode="&#x160;" horiz-adv-x="825" 
d="M276 1495l-163 266h206l80 -102l80 102h207l-164 -266h-246zM346 588q-162 69 -238.5 180.5t-76.5 251.5q0 210 99.5 322t297.5 112q193 0 285 -112.5t92 -321.5l-295 -14q7 21 9 47t-2.5 53.5t-24 46t-52.5 18.5q-49 0 -79.5 -29.5t-30.5 -90.5q0 -71 50 -131t173 -125
q148 -78 210 -183.5t62 -269.5q0 -170 -106.5 -276.5t-278.5 -106.5q-201 0 -293 108t-92 328l314 15q-22 -38 -23.5 -77t19 -65t59.5 -26q45 0 73.5 32t28.5 70q0 68 -48.5 138.5t-131.5 105.5z" />
    <glyph glyph-name="scaron" unicode="&#x161;" horiz-adv-x="784" 
d="M252 1495l-164 266h207l80 -102l80 102h207l-164 -266h-246zM326 506q-78 23 -133 54.5t-86 65t-48.5 80.5t-22.5 89t-5 102q0 213 90.5 323.5t286.5 110.5q190 0 273 -110.5t83 -323.5l-295 -14q6 28 5.5 65t-21 69t-54.5 32q-38 0 -53.5 -28t-15.5 -93
q0 -66 31.5 -96.5t136.5 -71.5q159 -62 222.5 -162.5t63.5 -255.5q0 -173 -97.5 -278t-266.5 -105q-172 0 -268.5 96.5t-96.5 266.5v73l314 15q-35 -57 -23.5 -112.5t70.5 -55.5q29 0 45.5 17t20 36.5t3.5 48.5q0 64 -34 100t-125 62z" />
    <glyph glyph-name="uni0162" unicode="&#x162;" horiz-adv-x="884" 
d="M899 1090q-71 37 -123 47t-129 10h-55v-191.5v-182.5t0.5 -157.5t1.5 -150.5t3.5 -125.5t6.5 -118.5t9.5 -93t13.5 -85.5t18 -62.5h-133v-29q51 -6 81 -41.5t30 -89.5q0 -67 -49.5 -104.5t-137.5 -37.5q-87 0 -135 46t-39 122l152 4q-3 -29 1.5 -39t22.5 -10q27 0 27 29
q0 25 -10 33t-41 8h-41v109h-133q10 27 18 60.5t13.5 84.5t9.5 93t6.5 118.5t3.5 126t1.5 151.5t0.5 158.5v183v191.5h-37q-83 0 -141 -11.5t-131 -50.5l41 349h835z" />
    <glyph glyph-name="uni0163" unicode="&#x163;" horiz-adv-x="843" 
d="M858 967q-80 41 -107 49t-104 8h-76q0 -581 5 -700q9 -233 49 -344h-133v-29q51 -6 80.5 -41.5t29.5 -89.5q0 -67 -49 -104.5t-137 -37.5q-87 0 -135 46t-39 122l151 4q-3 -28 2 -38.5t23 -10.5q26 0 26 29q0 25 -10 33t-41 8h-41v109h-133q26 69 38 196t13.5 243
t1.5 417v188h-53q-91 0 -122 -8.5t-113 -52.5l41 348h794z" />
    <glyph glyph-name="Tcaron" unicode="&#x164;" horiz-adv-x="884" 
d="M319 1495l-163 266h206l80 -102l80 102h207l-164 -266h-246zM592 1147v-191.5v-182.5t0.5 -157.5t1.5 -150.5t3.5 -125.5t6.5 -118.5t9.5 -93t13.5 -85.5t18 -62.5h-405q10 27 18 60.5t13.5 84.5t9.5 93t6.5 118.5t3.5 126t1.5 151.5t0.5 158.5v183v191.5h-37
q-83 0 -141 -11.5t-131 -50.5l41 349h835l39 -344q-71 37 -123 47t-129 10h-55z" />
    <glyph glyph-name="tcaron" unicode="&#x165;" horiz-adv-x="843" 
d="M299 1495l-164 266h207l80 -102l80 102h207l-164 -266h-246zM571 1024q0 -581 5 -700q9 -233 49 -344h-406q26 69 38 196t13.5 243t1.5 417v188h-53q-91 0 -122 -8.5t-113 -52.5l41 348h794l39 -344q-80 41 -107 49t-104 8h-76z" />
    <glyph glyph-name="Tbar" unicode="&#x166;" horiz-adv-x="884" 
d="M592 1147v-379h137v-248h-135q3 -411 51 -540h-405q48 124 51 540h-133v248h135v379h-37q-83 0 -141 -11.5t-131 -50.5l41 349h835l39 -344q-71 37 -123 47t-129 10h-55z" />
    <glyph glyph-name="tbar" unicode="&#x167;" horiz-adv-x="843" 
d="M571 1024v-256h138v-248h-138q2 -213 13 -336t41 -204h-406q29 78 40 200.5t13 339.5h-135v248h135v256h-53q-91 0 -122 -8.5t-113 -52.5l41 348h794l39 -344q-80 41 -107 49t-104 8h-76z" />
    <glyph glyph-name="Utilde" unicode="&#x168;" horiz-adv-x="989" 
d="M948 1434q-19 -52 -31 -149.5t-16.5 -262.5t-5 -265.5t-0.5 -309.5v-105q0 -179 -109 -281t-290 -102t-292.5 103.5t-111.5 279.5v105q0 199 -0.5 307.5t-5 267t-16.5 258.5t-31 154h405q-19 -38 -28 -59t-17 -63.5t-9.5 -74t-2.5 -120t0.5 -170t2.5 -254.5t1 -345
q0 -51 31 -79.5t74 -28.5q40 0 70 28.5t30 79.5q0 190 2 384t2 274t-0.5 163.5t-7.5 118t-17 68t-32 78.5h405zM535 1884q30 -24 51 -24q9 0 16.5 4t15 12.5t13 16.5t15 23.5t16.5 25.5l141 -132q-41 -82 -98 -126t-119 -44q-58 0 -111 39q-33 23 -61 23q-43 0 -88 -80
l-142 131q40 81 103 125.5t131 44.5q64 0 117 -39z" />
    <glyph glyph-name="utilde" unicode="&#x169;" 
d="M907 1311q-19 -52 -31 -134t-16.5 -221.5t-5 -227t-0.5 -281.5v-105q0 -181 -100 -282t-279 -101t-281 102.5t-102 280.5v105q0 245 -1.5 369t-14 274t-37.5 221h405q-22 -44 -32 -74t-17 -61t-7.5 -104t-0.5 -143t2 -241.5t2 -339.5q0 -51 24.5 -79.5t57.5 -28.5
t57.5 28.5t24.5 79.5q0 164 2 332.5t2 238.5t-0.5 143.5t-7.5 106t-17 65t-32 77.5h405zM514 1731q31 -25 51 -25q9 0 16.5 4t15 12.5t13 16.5t15 23.5t16.5 25.5l141 -131q-41 -82 -98 -126t-119 -44q-57 0 -110 39q-32 22 -62 22q-43 0 -88 -80l-141 131
q40 81 102.5 125.5t130.5 44.5q65 0 117 -38z" />
    <glyph glyph-name="Umacron" unicode="&#x16a;" horiz-adv-x="989" 
d="M281 1542v172h434v-172h-434zM948 1434q-19 -52 -31 -149.5t-16.5 -262.5t-5 -265.5t-0.5 -309.5v-105q0 -179 -109 -281t-290 -102t-292.5 103.5t-111.5 279.5v105q0 199 -0.5 307.5t-5 267t-16.5 258.5t-31 154h405q-19 -38 -28 -59t-17 -63.5t-9.5 -74t-2.5 -120
t0.5 -170t2.5 -254.5t1 -345q0 -51 31 -79.5t74 -28.5q40 0 70 28.5t30 79.5q0 190 2 384t2 274t-0.5 163.5t-7.5 118t-17 68t-32 78.5h405z" />
    <glyph glyph-name="umacron" unicode="&#x16b;" 
d="M260 1542v172h434v-172h-434zM907 1311q-19 -52 -31 -134t-16.5 -221.5t-5 -227t-0.5 -281.5v-105q0 -181 -100 -282t-279 -101t-281 102.5t-102 280.5v105q0 245 -1.5 369t-14 274t-37.5 221h405q-22 -44 -32 -74t-17 -61t-7.5 -104t-0.5 -143t2 -241.5t2 -339.5
q0 -51 24.5 -79.5t57.5 -28.5t57.5 28.5t24.5 79.5q0 164 2 332.5t2 238.5t-0.5 143.5t-7.5 106t-17 65t-32 77.5h405z" />
    <glyph glyph-name="Uring" unicode="&#x16e;" horiz-adv-x="989" 
d="M477 1829q76 0 126 -50.5t50 -127.5q0 -75 -50.5 -125.5t-125.5 -50.5t-125.5 50.5t-50.5 125.5q0 77 50 127.5t126 50.5zM477 1694q-37 0 -37 -43q0 -41 37 -41t37 41q0 43 -37 43zM948 1434q-19 -52 -31 -149.5t-16.5 -262.5t-5 -265.5t-0.5 -309.5v-105
q0 -179 -109 -281t-290 -102t-292.5 103.5t-111.5 279.5v105q0 199 -0.5 307.5t-5 267t-16.5 258.5t-31 154h405q-19 -38 -28 -59t-17 -63.5t-9.5 -74t-2.5 -120t0.5 -170t2.5 -254.5t1 -345q0 -51 31 -79.5t74 -28.5q40 0 70 28.5t30 79.5q0 190 2 384t2 274t-0.5 163.5
t-7.5 118t-17 68t-32 78.5h405z" />
    <glyph glyph-name="uring" unicode="&#x16f;" 
d="M473 1829q76 0 126 -50.5t50 -127.5q0 -75 -50.5 -125.5t-125.5 -50.5t-125.5 50.5t-50.5 125.5q0 77 50 127.5t126 50.5zM473 1694q-37 0 -37 -43q0 -41 37 -41t37 41q0 43 -37 43zM907 1311q-19 -52 -31 -134t-16.5 -221.5t-5 -227t-0.5 -281.5v-105q0 -181 -100 -282
t-279 -101t-281 102.5t-102 280.5v105q0 245 -1.5 369t-14 274t-37.5 221h405q-22 -44 -32 -74t-17 -61t-7.5 -104t-0.5 -143t2 -241.5t2 -339.5q0 -51 24.5 -79.5t57.5 -28.5t57.5 28.5t24.5 79.5q0 164 2 332.5t2 238.5t-0.5 143.5t-7.5 106t-17 65t-32 77.5h405z" />
    <glyph glyph-name="Uhungarumlaut" unicode="&#x170;" horiz-adv-x="989" 
d="M244 1495l141 266h258l-211 -266h-188zM530 1495l142 266h258l-211 -266h-189zM948 1434q-19 -52 -31 -149.5t-16.5 -262.5t-5 -265.5t-0.5 -309.5v-105q0 -179 -109 -281t-290 -102t-292.5 103.5t-111.5 279.5v105q0 199 -0.5 307.5t-5 267t-16.5 258.5t-31 154h405
q-19 -38 -28 -59t-17 -63.5t-9.5 -74t-2.5 -120t0.5 -170t2.5 -254.5t1 -345q0 -51 31 -79.5t74 -28.5q40 0 70 28.5t30 79.5q0 190 2 384t2 274t-0.5 163.5t-7.5 118t-17 68t-32 78.5h405z" />
    <glyph glyph-name="uhungarumlaut" unicode="&#x171;" 
d="M182 1495l142 266h258l-211 -266h-189zM469 1495l141 266h258l-211 -266h-188zM907 1311q-19 -52 -31 -134t-16.5 -221.5t-5 -227t-0.5 -281.5v-105q0 -181 -100 -282t-279 -101t-281 102.5t-102 280.5v105q0 245 -1.5 369t-14 274t-37.5 221h405q-22 -44 -32 -74
t-17 -61t-7.5 -104t-0.5 -143t2 -241.5t2 -339.5q0 -51 24.5 -79.5t57.5 -28.5t57.5 28.5t24.5 79.5q0 164 2 332.5t2 238.5t-0.5 143.5t-7.5 106t-17 65t-32 77.5h405z" />
    <glyph glyph-name="Uogonek" unicode="&#x172;" horiz-adv-x="989" 
d="M948 1434q-19 -52 -31 -149.5t-16.5 -262.5t-5 -265.5t-0.5 -309.5v-105q0 -123 -53 -211t-148 -131q-116 -69 -116 -133q0 -37 45 -37q7 0 13 0.5t11.5 1.5t9.5 2t9.5 4t8.5 4.5t9.5 6.5t9 7t11 9t12.5 10l10 -180q-72 -41 -160 -41q-96 0 -147 37.5t-51 107.5
q0 94 94 160q-167 11 -269 113t-102 270v105q0 199 -0.5 307.5t-5 267t-16.5 258.5t-31 154h405q-19 -38 -28 -59t-17 -63.5t-9.5 -74t-2.5 -120t0.5 -170t2.5 -254.5t1 -345q0 -51 31 -79.5t74 -28.5q40 0 70 28.5t30 79.5q0 190 2 384t2 274t-0.5 163.5t-7.5 118t-17 68
t-32 78.5h405z" />
    <glyph glyph-name="uogonek" unicode="&#x173;" 
d="M907 1311q-19 -52 -31 -134t-16.5 -221.5t-5 -227t-0.5 -281.5v-105q0 -134 -56 -225t-161 -131q-59 -50 -59 -95q0 -36 45 -36q37 0 61 18l33 -14l10 -140q-72 -41 -160 -41q-95 0 -146.5 38t-51.5 108q0 75 65 137q-160 12 -251 113t-91 268v105q0 245 -1.5 369
t-14 274t-37.5 221h405q-22 -44 -32 -74t-17 -61t-7.5 -104t-0.5 -143t2 -241.5t2 -339.5q0 -51 24.5 -79.5t57.5 -28.5t57.5 28.5t24.5 79.5q0 164 2 332.5t2 238.5t-0.5 143.5t-7.5 106t-17 65t-32 77.5h405z" />
    <glyph glyph-name="Wcircumflex" unicode="&#x174;" horiz-adv-x="1351" 
d="M733 1495l-80 102l-80 -102h-206l163 266h246l164 -266h-207zM1356 1434q-24 -44 -48 -125.5t-53.5 -228.5t-53 -278.5t-68 -384.5t-78.5 -437h-293l-88 495l-90 -495h-295q-33 187 -76.5 443t-66 383.5t-51 274t-51.5 226.5t-48 127h418q-19 -25 -26.5 -50.5t-9.5 -54
t6.5 -89t19 -122t31.5 -189.5t40 -257l86 631h230l86 -631q19 128 40 255.5t31.5 188.5t19.5 122t7 89.5t-10 54.5t-27 52h418z" />
    <glyph glyph-name="wcircumflex" unicode="&#x175;" horiz-adv-x="1310" 
d="M707 1495l-80 102l-80 -102h-207l164 266h246l163 -266h-206zM1315 1311q-25 -44 -46 -112t-48 -199.5t-47 -241t-63.5 -355t-76.5 -423.5h-293l-88 495l-90 -495h-295q-33 187 -74.5 430t-60.5 353t-44.5 238t-46.5 195.5t-46 114.5h418q-18 -25 -26.5 -50t-10.5 -50.5
t5 -77t16 -102t26 -154t31 -205.5l86 608h229l86 -608q17 116 37 237t28.5 168.5t12 99.5t-5.5 78t-31 56h418z" />
    <glyph glyph-name="Ycircumflex" unicode="&#x176;" horiz-adv-x="905" 
d="M512 1495l-80 102l-80 -102h-207l164 266h246l164 -266h-207zM602 659q0 -255 10 -419.5t43 -259.5h-405q32 93 42.5 261t10.5 421q-104 248 -176 403.5t-106.5 218t-88.5 150.5h443q-21 -22 -26.5 -48.5t10 -89.5t32.5 -112t65 -180q1 -2 1 -3q83 245 95 303
q15 78 -14 126q-2 2 -3 4h438q-63 -111 -93.5 -167t-103.5 -212.5t-174 -395.5z" />
    <glyph glyph-name="ycircumflex" unicode="&#x177;" horiz-adv-x="864" 
d="M479 1495l-80 102l-80 -102h-206l163 266h246l164 -266h-207zM582 537q0 -229 9.5 -343.5t43.5 -213.5h-406q33 98 43.5 215.5t10.5 343.5q-179 426 -234 548.5t-117 223.5h443q-41 -45 -28.5 -133.5t89.5 -298.5q73 214 83.5 297.5t-25.5 134.5h438q-61 -107 -113 -221
t-189 -439q-31 -74 -48 -114z" />
    <glyph glyph-name="Ydieresis" unicode="&#x178;" horiz-adv-x="905" 
d="M174 1509v238h234v-238h-234zM473 1509v238h234v-238h-234zM602 659q0 -255 10 -419.5t43 -259.5h-405q32 93 42.5 261t10.5 421q-104 248 -176 403.5t-106.5 218t-88.5 150.5h443q-21 -22 -26.5 -48.5t10 -89.5t32.5 -112t65 -180q1 -2 1 -3q83 245 95 303
q15 78 -14 126q-2 2 -3 4h438q-63 -111 -93.5 -167t-103.5 -212.5t-174 -395.5z" />
    <glyph glyph-name="Zacute" unicode="&#x179;" horiz-adv-x="839" 
d="M305 1495l141 266h275l-211 -266h-205zM834 319l-39 -339h-729l-86 206l503 965h-104q-123 0 -204 -10.5t-148 -46.5l39 340h729l65 -228l-504 -944q345 0 478 57z" />
    <glyph glyph-name="zacute" unicode="&#x17a;" horiz-adv-x="757" 
d="M223 1495l142 266h274l-211 -266h-205zM752 319l-39 -339h-647l-86 206l421 842h-96q-96 0 -153 -10t-125 -47l39 340h647l65 -228l-422 -821q146 0 234 12.5t162 44.5z" />
    <glyph glyph-name="Zdotaccent" unicode="&#x17b;" horiz-adv-x="839" 
d="M319 1501v254h250v-254h-250zM834 319l-39 -339h-729l-86 206l503 965h-104q-123 0 -204 -10.5t-148 -46.5l39 340h729l65 -228l-504 -944q345 0 478 57z" />
    <glyph glyph-name="zdotaccent" unicode="&#x17c;" horiz-adv-x="757" 
d="M258 1501v254h250v-254h-250zM752 319l-39 -339h-647l-86 206l421 842h-96q-96 0 -153 -10t-125 -47l39 340h647l65 -228l-422 -821q146 0 234 12.5t162 44.5z" />
    <glyph glyph-name="Zcaron" unicode="&#x17d;" horiz-adv-x="839" 
d="M342 1495l-164 266h207l80 -102l80 102h207l-164 -266h-246zM834 319l-39 -339h-729l-86 206l503 965h-104q-123 0 -204 -10.5t-148 -46.5l39 340h729l65 -228l-504 -944q345 0 478 57z" />
    <glyph glyph-name="zcaron" unicode="&#x17e;" horiz-adv-x="757" 
d="M240 1495l-164 266h207l79 -102l80 102h207l-164 -266h-245zM752 319l-39 -339h-647l-86 206l421 842h-96q-96 0 -153 -10t-125 -47l39 340h647l65 -228l-422 -821q146 0 234 12.5t162 44.5z" />
    <glyph glyph-name="Ohorn" unicode="&#x1a0;" horiz-adv-x="966" 
d="M948 1612v-156l-117 -170q64 -98 64 -242v-688q0 -187 -109 -295t-303 -108t-302.5 108t-108.5 295v688q0 187 108.5 295.5t302.5 108.5q181 0 289 -94l23 69h-35v189h188zM596 379v643q0 143 -113 143q-48 0 -80 -40.5t-32 -102.5v-643q0 -143 112 -143q113 0 113 143z
" />
    <glyph glyph-name="ohorn" unicode="&#x1a1;" horiz-adv-x="925" 
d="M915 1323l-116 -170q55 -94 55 -231v-566q0 -186 -105.5 -294.5t-285.5 -108.5t-285.5 108.5t-105.5 294.5v566q0 186 105.5 294.5t285.5 108.5q175 0 278 -100l21 65h-35v191h188v-158zM555 358v562q0 63 -22.5 92.5t-69.5 29.5t-69.5 -29.5t-22.5 -92.5v-562
q0 -63 22.5 -92.5t69.5 -29.5t69.5 29.5t22.5 92.5z" />
    <glyph glyph-name="Uhorn" unicode="&#x1af;" horiz-adv-x="989" 
d="M858 1688h189v-156l-117 -172q-6 -34 -11.5 -76t-9 -98.5t-6 -100.5t-4 -120t-2.5 -116.5t-1.5 -131t-0.5 -123v-132v-120.5q0 -179 -109 -281t-290 -102t-292.5 103.5t-111.5 279.5v105q0 199 -0.5 307.5t-5 267t-16.5 258.5t-31 154h405q-19 -38 -28 -59t-17 -63.5
t-9.5 -74t-2.5 -120t0.5 -170t2.5 -254.5t1 -345q0 -51 31 -79.5t74 -28.5q40 0 70 28.5t30 79.5q0 190 2 384t2 274t-0.5 163.5t-7.5 118t-17 68t-32 78.5h329l23 65h-37v189z" />
    <glyph glyph-name="uhorn" unicode="&#x1b0;" 
d="M815 1556h189v-157l-117 -170h-2q-8 -40 -13.5 -88.5t-9 -113.5t-5.5 -114.5t-2.5 -137.5t-0.5 -134v-152v-147q0 -181 -100 -282t-279 -101t-281 102.5t-102 280.5v105q0 245 -1.5 369t-14 274t-37.5 221h405q-22 -44 -32 -74t-17 -61t-7.5 -104t-0.5 -143t2 -241.5
t2 -339.5q0 -51 24.5 -79.5t57.5 -28.5t57.5 28.5t24.5 79.5q0 164 2 332.5t2 238.5t-0.5 143.5t-7.5 106t-17 65t-32 77.5h329l19 55h-35v190z" />
    <glyph glyph-name="uni01E1" unicode="&#x1e1;" horiz-adv-x="0" 
d="M-516 1522v213h475v-213h-475z" />
    <glyph glyph-name="uni01ED" unicode="&#x1ed;" horiz-adv-x="0" 
d="M-516 1522v213h475v-213h-475z" />
    <glyph glyph-name="gravecomb" unicode="&#x300;" horiz-adv-x="0" 
d="M-307 1475l-244 307h330l164 -307h-250z" />
    <glyph glyph-name="acutecomb" unicode="&#x301;" horiz-adv-x="0" 
d="M-428 1475l162 307h327l-241 -307h-248z" />
    <glyph glyph-name="uni0302" unicode="&#x302;" horiz-adv-x="0" 
d="M-207 1475l-69 90l-70 -90h-254l188 307h271l188 -307h-254z" />
    <glyph glyph-name="tildecomb" unicode="&#x303;" horiz-adv-x="0" 
d="M-223 1731q31 -25 51 -25q9 0 16.5 4t15 12.5t13 16.5t15 23.5t16.5 25.5l141 -131q-41 -82 -98 -126t-119 -44q-58 0 -111 39q-32 22 -61 22q-43 0 -88 -80l-141 131q40 81 102.5 125.5t130.5 44.5q65 0 117 -38z" />
    <glyph glyph-name="uni0304" unicode="&#x304;" horiz-adv-x="0" 
d="M-516 1522v213h475v-213h-475z" />
    <glyph glyph-name="uni0306" unicode="&#x306;" horiz-adv-x="0" 
d="M18 1782q13 -146 -60.5 -232t-213.5 -86t-213.5 86t-60.5 232h227q-31 -84 47 -84t47 84h227z" />
    <glyph glyph-name="uni0307" unicode="&#x307;" horiz-adv-x="0" 
d="M-424 1481v295h291v-295h-291z" />
    <glyph glyph-name="uni0308" unicode="&#x308;" horiz-adv-x="0" 
d="M-584 1489v278h275v-278h-275zM-244 1489v278h275v-278h-275z" />
    <glyph glyph-name="hookabovecomb" unicode="&#x309;" horiz-adv-x="491" 
d="M246 1866q94 0 144 -41.5t50 -118.5v-14q0 -46 -12 -69.5t-61 -53.5q-48 -30 -58 -45.5t-10 -48.5l-149 2q0 8 -1 32t0 31t5 23.5t12.5 24.5t24.5 19.5t40 22.5q31 15 40.5 29t9.5 43q0 24 -8 33.5t-27 9.5q-36 0 -40 -31.5t25 -48.5l-180 4q0 102 47 149.5t148 47.5z
" />
    <glyph glyph-name="uni030A" unicode="&#x30a;" horiz-adv-x="0" 
d="M-256 1849q85 0 141 -56t56 -142q0 -85 -56 -141t-141 -56t-141 56t-56 141q0 86 56 142t141 56zM-256 1673q-16 0 -16 -22q0 -21 16 -21t16 21q0 22 -16 22z" />
    <glyph glyph-name="uni030B" unicode="&#x30b;" horiz-adv-x="0" 
d="M-629 1475l164 307h313l-243 -307h-234zM-260 1475l164 307h313l-244 -307h-233z" />
    <glyph glyph-name="uni030C" unicode="&#x30c;" horiz-adv-x="0" 
d="M-389 1475l-191 307h254l70 -90l70 90h254l-191 -307h-266z" />
    <glyph glyph-name="uni0312" unicode="&#x312;" horiz-adv-x="0" 
d="M-246 1790h146l-68 -148h55v-229h-249v197z" />
    <glyph glyph-name="dotbelowcomb" unicode="&#x323;" horiz-adv-x="512" 
d="M135 -408v254h250v-254h-250z" />
    <glyph glyph-name="uni0326" unicode="&#x326;" horiz-adv-x="0" 
d="M-250 -438h-145l67 147h-55v230h250v-197z" />
    <glyph glyph-name="uni0327" unicode="&#x327;" horiz-adv-x="0" 
d="M-166 -31q51 -12 81 -52t30 -97q0 -75 -55 -118.5t-152 -43.5q-100 0 -155 58.5t-38 148.5l172 8q0 -29 5 -40t18 -11q27 0 27 39q0 30 -52 30h-61v179h180v-101z" />
    <glyph glyph-name="uni0328" unicode="&#x328;" horiz-adv-x="0" 
d="M-14 49q-94 -38 -145.5 -80t-51.5 -78q0 -9 5 -12.5t20 -3.5q19 0 40.5 9.5t71.5 41.5l13 -219q-83 -49 -181 -49q-104 0 -161.5 43.5t-57.5 122.5q0 140 189 225h258z" />
    <glyph glyph-name="uni0335" unicode="&#x335;" horiz-adv-x="0" 
d="M-881 592v250h881v-250h-881z" />
    <glyph glyph-name="uni0337" unicode="&#x337;" horiz-adv-x="0" 
d="M-786 -143l542 1659h262l-542 -1659h-262z" />
    <glyph glyph-name="uni0338" unicode="&#x338;" horiz-adv-x="0" 
d="M-1477 -143l1237 1659h271l-1237 -1659h-271z" />
    <glyph glyph-name="Wgrave" unicode="&#x1e80;" horiz-adv-x="1351" 
d="M588 1495l-211 266h274l142 -266h-205zM1356 1434q-24 -44 -48 -125.5t-53.5 -228.5t-53 -278.5t-68 -384.5t-78.5 -437h-293l-88 495l-90 -495h-295q-33 187 -76.5 443t-66 383.5t-51 274t-51.5 226.5t-48 127h418q-19 -25 -26.5 -50.5t-9.5 -54t6.5 -89t19 -122
t31.5 -189.5t40 -257l86 631h230l86 -631q19 128 40 255.5t31.5 188.5t19.5 122t7 89.5t-10 54.5t-27 52h418z" />
    <glyph glyph-name="wgrave" unicode="&#x1e81;" horiz-adv-x="1310" 
d="M561 1495l-211 266h275l141 -266h-205zM1315 1311q-25 -44 -46 -112t-48 -199.5t-47 -241t-63.5 -355t-76.5 -423.5h-293l-88 495l-90 -495h-295q-33 187 -74.5 430t-60.5 353t-44.5 238t-46.5 195.5t-46 114.5h418q-18 -25 -26.5 -50t-10.5 -50.5t5 -77t16 -102t26 -154
t31 -205.5l86 608h229l86 -608q17 116 37 237t28.5 168.5t12 99.5t-5.5 78t-31 56h418z" />
    <glyph glyph-name="Wacute" unicode="&#x1e82;" horiz-adv-x="1351" 
d="M514 1495l141 266h275l-211 -266h-205zM1356 1434q-24 -44 -48 -125.5t-53.5 -228.5t-53 -278.5t-68 -384.5t-78.5 -437h-293l-88 495l-90 -495h-295q-33 187 -76.5 443t-66 383.5t-51 274t-51.5 226.5t-48 127h418q-19 -25 -26.5 -50.5t-9.5 -54t6.5 -89t19 -122
t31.5 -189.5t40 -257l86 631h230l86 -631q19 128 40 255.5t31.5 188.5t19.5 122t7 89.5t-10 54.5t-27 52h418z" />
    <glyph glyph-name="wacute" unicode="&#x1e83;" horiz-adv-x="1310" 
d="M487 1495l142 266h274l-211 -266h-205zM1315 1311q-25 -44 -46 -112t-48 -199.5t-47 -241t-63.5 -355t-76.5 -423.5h-293l-88 495l-90 -495h-295q-33 187 -74.5 430t-60.5 353t-44.5 238t-46.5 195.5t-46 114.5h418q-18 -25 -26.5 -50t-10.5 -50.5t5 -77t16 -102t26 -154
t31 -205.5l86 608h229l86 -608q17 116 37 237t28.5 168.5t12 99.5t-5.5 78t-31 56h418z" />
    <glyph glyph-name="Wdieresis" unicode="&#x1e84;" horiz-adv-x="1351" 
d="M420 1509v238h233v-238h-233zM719 1509v238h233v-238h-233zM1356 1434q-24 -44 -48 -125.5t-53.5 -228.5t-53 -278.5t-68 -384.5t-78.5 -437h-293l-88 495l-90 -495h-295q-33 187 -76.5 443t-66 383.5t-51 274t-51.5 226.5t-48 127h418q-19 -25 -26.5 -50.5t-9.5 -54
t6.5 -89t19 -122t31.5 -189.5t40 -257l86 631h230l86 -631q19 128 40 255.5t31.5 188.5t19.5 122t7 89.5t-10 54.5t-27 52h418z" />
    <glyph glyph-name="wdieresis" unicode="&#x1e85;" horiz-adv-x="1310" 
d="M381 1509v238h233v-238h-233zM680 1509v238h233v-238h-233zM1315 1311q-25 -44 -46 -112t-48 -199.5t-47 -241t-63.5 -355t-76.5 -423.5h-293l-88 495l-90 -495h-295q-33 187 -74.5 430t-60.5 353t-44.5 238t-46.5 195.5t-46 114.5h418q-18 -25 -26.5 -50t-10.5 -50.5
t5 -77t16 -102t26 -154t31 -205.5l86 608h229l86 -608q17 116 37 237t28.5 168.5t12 99.5t-5.5 78t-31 56h418z" />
    <glyph glyph-name="uni1EA0" unicode="&#x1ea0;" horiz-adv-x="1021" 
d="M0 -20q60 110 134.5 429t115 629t14.5 396h490q-28 -84 14.5 -395.5t118.5 -629.5t135 -429h-410q24 32 27 80t-6 100h-252q-9 -55 -6 -103.5t28 -76.5h-403zM424 438h172l-84 541zM385 -408v254h250v-254h-250z" />
    <glyph glyph-name="uni1EA1" unicode="&#x1ea1;" 
d="M936 -20h-410q24 32 27 80t-6 100h-170q-9 -55 -6 -103.5t28 -76.5h-403q50 110 110.5 398t95 567t17.5 366h490q-19 -85 17.5 -365t98.5 -567.5t111 -398.5zM510 438l-43 418l-47 -418h90zM348 -408v254h250v-254h-250z" />
    <glyph glyph-name="uni1EA2" unicode="&#x1ea2;" horiz-adv-x="1021" 
d="M0 -20q60 110 134.5 429t115 629t14.5 396h490q-28 -84 14.5 -395.5t118.5 -629.5t135 -429h-410q24 32 27 80t-6 100h-252q-9 -55 -6 -103.5t28 -76.5h-403zM424 438h172l-84 541zM510 2019q94 0 144.5 -41.5t50.5 -117.5v-15q0 -46 -12.5 -69.5t-61.5 -53.5
q-48 -30 -58 -45.5t-10 -48.5l-149 2q0 9 -0.5 28.5t-0.5 26.5t2 21.5t7.5 22t14.5 18.5t23.5 19.5t35.5 17.5q31 14 40 28t9 43q0 24 -8 33.5t-27 9.5q-23 0 -33.5 -15t-4.5 -34t24 -30l-181 4q0 101 47 148.5t148 47.5z" />
    <glyph glyph-name="uni1EA3" unicode="&#x1ea3;" 
d="M936 -20h-410q24 32 27 80t-6 100h-170q-9 -55 -6 -103.5t28 -76.5h-403q50 110 110.5 398t95 567t17.5 366h490q-19 -85 17.5 -365t98.5 -567.5t111 -398.5zM510 438l-43 418l-47 -418h90zM473 1866q94 0 144.5 -41.5t50.5 -118.5v-14q0 -46 -12.5 -69.5t-61.5 -53.5
q-48 -30 -58 -45.5t-10 -48.5l-149 2q0 9 -0.5 28.5t-0.5 26.5t2 21.5t7.5 21.5t14.5 18t23.5 19.5t35.5 17.5q31 14 40 28.5t9 43.5q0 24 -8 33.5t-27 9.5q-23 0 -33.5 -15t-4.5 -34.5t24 -30.5l-180 4q0 102 46.5 149.5t147.5 47.5z" />
    <glyph glyph-name="uni1EA4" unicode="&#x1ea4;" 
d="M586 1628l-80 103l-80 -103h-207l164 266h246l164 -266h-207zM1022 -20h-410q24 32 27 80t-6 100h-252q-9 -55 -6 -103.5t28 -76.5h-403q60 110 134.5 429t115 629t14.5 396h490q-28 -84 14.5 -395.5t118.5 -629.5t135 -429zM596 438l-84 541l-88 -541h172zM791 1810
l161 308h328l-242 -308h-247z" />
    <glyph glyph-name="uni1EA5" unicode="&#x1ea5;" 
d="M541 1475l-80 102l-80 -102h-207l164 266h246l164 -266h-207zM936 -20h-410q24 32 27 80t-6 100h-170q-9 -55 -6 -103.5t28 -76.5h-403q50 110 110.5 398t95 567t17.5 366h490q-19 -85 17.5 -365t98.5 -567.5t111 -398.5zM510 438l-43 418l-47 -418h90zM741 1659l162 307
h328l-242 -307h-248z" />
    <glyph glyph-name="uni1EA6" unicode="&#x1ea6;" 
d="M586 1628l-80 103l-80 -103h-207l164 266h246l164 -266h-207zM1022 -20h-410q24 32 27 80t-6 100h-252q-9 -55 -6 -103.5t28 -76.5h-403q60 110 134.5 429t115 629t14.5 396h490q-28 -84 14.5 -395.5t118.5 -629.5t135 -429zM596 438l-84 541l-88 -541h172zM840 1812
l-244 308h330l164 -308h-250z" />
    <glyph glyph-name="uni1EA7" unicode="&#x1ea7;" 
d="M541 1475l-80 102l-80 -102h-207l164 266h246l164 -266h-207zM936 -20h-410q24 32 27 80t-6 100h-170q-9 -55 -6 -103.5t28 -76.5h-403q50 110 110.5 398t95 567t17.5 366h490q-19 -85 17.5 -365t98.5 -567.5t111 -398.5zM510 438l-43 418l-47 -418h90zM791 1657
l-244 307h330l163 -307h-249z" />
    <glyph glyph-name="uni1EA8" unicode="&#x1ea8;" 
d="M586 1628l-80 103l-80 -103h-207l164 266h246l164 -266h-207zM1022 -20h-410q24 32 27 80t-6 100h-252q-9 -55 -6 -103.5t28 -76.5h-403q60 110 134.5 429t115 629t14.5 396h490q-28 -84 14.5 -395.5t118.5 -629.5t135 -429zM596 438l-84 541l-88 -541h172zM883 2200
q94 0 144 -41.5t50 -118.5v-15q0 -46 -12 -69t-61 -53q-48 -30 -58 -45.5t-10 -49.5l-150 2q0 9 -0.5 28.5t-0.5 26.5t2 21.5t7.5 22t14.5 18.5t23.5 19.5t35.5 17.5q31 15 40.5 29t9.5 43q0 24 -8 33.5t-27 9.5q-36 0 -40 -31.5t25 -48.5l-180 4q0 102 47 149.5t148 47.5z
" />
    <glyph glyph-name="uni1EA9" unicode="&#x1ea9;" 
d="M541 1475l-80 102l-80 -102h-207l164 266h246l164 -266h-207zM936 -20h-410q24 32 27 80t-6 100h-170q-9 -55 -6 -103.5t28 -76.5h-403q50 110 110.5 398t95 567t17.5 366h490q-19 -85 17.5 -365t98.5 -567.5t111 -398.5zM510 438l-43 418l-47 -418h90zM844 2050
q94 0 144 -41.5t50 -118.5v-14q0 -46 -12 -69.5t-61 -53.5q-48 -30 -58 -45.5t-10 -48.5l-149 2q0 8 -1 32.5t0 31t5 23.5t12.5 25t24.5 19.5t40 22.5q31 15 40.5 28.5t9.5 42.5q0 24 -8 33.5t-27 9.5q-36 0 -40 -31.5t25 -48.5l-180 4q0 102 47 149.5t148 47.5z" />
    <glyph glyph-name="uni1EAA" unicode="&#x1eaa;" 
d="M586 1628l-80 103l-80 -103h-207l164 266h246l164 -266h-207zM1022 -20h-410q24 32 27 80t-6 100h-252q-9 -55 -6 -103.5t28 -76.5h-403q60 110 134.5 429t115 629t14.5 396h490q-28 -84 14.5 -395.5t118.5 -629.5t135 -429zM596 438l-84 541l-88 -541h172zM547 2259
q31 -25 51 -25q9 0 16.5 4t15 12.5t13 16.5t15 23.5t16.5 25.5l141 -131q-41 -82 -98 -126t-119 -44q-58 0 -111 39q-33 23 -61 23q-43 0 -88 -80l-141 131q40 81 102.5 125.5t130.5 44.5q64 0 117 -39z" />
    <glyph glyph-name="uni1EAB" unicode="&#x1eab;" 
d="M541 1475l-80 102l-80 -102h-207l164 266h246l164 -266h-207zM936 -20h-410q24 32 27 80t-6 100h-170q-9 -55 -6 -103.5t28 -76.5h-403q50 110 110.5 398t95 567t17.5 366h490q-19 -85 17.5 -365t98.5 -567.5t111 -398.5zM510 438l-43 418l-47 -418h90zM500 2105
q30 -24 51 -24q9 0 16.5 4t15 12.5t13 16.5t15 23.5t16.5 25.5l141 -131q-41 -82 -98 -126t-119 -44q-58 0 -111 39q-32 22 -61 22q-43 0 -88 -80l-141 131q40 81 102.5 125.5t130.5 44.5q64 0 117 -39z" />
    <glyph glyph-name="uni1EAC" unicode="&#x1eac;" horiz-adv-x="1021" 
d="M385 -408v254h250v-254h-250zM586 1628l-80 103l-80 -103h-207l164 266h246l164 -266h-207zM1022 -20h-410q24 32 27 80t-6 100h-252q-9 -55 -6 -103.5t28 -76.5h-403q60 110 134.5 429t115 629t14.5 396h490q-28 -84 14.5 -395.5t118.5 -629.5t135 -429zM596 438
l-84 541l-88 -541h172z" />
    <glyph glyph-name="uni1EAD" unicode="&#x1ead;" 
d="M348 -408v254h250v-254h-250zM541 1475l-80 102l-80 -102h-207l164 266h246l164 -266h-207zM936 -20h-410q24 32 27 80t-6 100h-170q-9 -55 -6 -103.5t28 -76.5h-403q50 110 110.5 398t95 567t17.5 366h490q-19 -85 17.5 -365t98.5 -567.5t111 -398.5zM510 438l-43 418
l-47 -418h90z" />
    <glyph glyph-name="uni1EAE" unicode="&#x1eae;" 
d="M762 1905q6 -130 -62 -203.5t-194 -73.5t-194 73.5t-62 203.5h182q-8 -38 12.5 -61t61.5 -23t61.5 23t12.5 61h182zM1022 -20h-410q24 32 27 80t-6 100h-252q-9 -55 -6 -103.5t28 -76.5h-403q60 110 134.5 429t115 629t14.5 396h490q-28 -84 14.5 -395.5t118.5 -629.5
t135 -429zM596 438l-84 541l-88 -541h172zM358 1997l162 307h328l-242 -307h-248z" />
    <glyph glyph-name="uni1EAF" unicode="&#x1eaf;" 
d="M717 1751q6 -130 -62 -203t-194 -73t-194 73t-62 203h182q-8 -38 12.5 -61t61.5 -23t61.5 23t12.5 61h182zM936 -20h-410q24 32 27 80t-6 100h-170q-9 -55 -6 -103.5t28 -76.5h-403q50 110 110.5 398t95 567t17.5 366h490q-19 -85 17.5 -365t98.5 -567.5t111 -398.5z
M510 438l-43 418l-47 -418h90zM319 1843l162 307h328l-242 -307h-248z" />
    <glyph glyph-name="uni1EB0" unicode="&#x1eb0;" 
d="M762 1905q6 -130 -62 -203.5t-194 -73.5t-194 73.5t-62 203.5h182q-8 -38 12.5 -61t61.5 -23t61.5 23t12.5 61h182zM1022 -20h-410q24 32 27 80t-6 100h-252q-9 -55 -6 -103.5t28 -76.5h-403q60 110 134.5 429t115 629t14.5 396h490q-28 -84 14.5 -395.5t118.5 -629.5
t135 -429zM596 438l-84 541l-88 -541h172zM389 1997l-244 307h330l164 -307h-250z" />
    <glyph glyph-name="uni1EB1" unicode="&#x1eb1;" 
d="M717 1751q6 -130 -62 -203t-194 -73t-194 73t-62 203h182q-8 -38 12.5 -61t61.5 -23t61.5 23t12.5 61h182zM936 -20h-410q24 32 27 80t-6 100h-170q-9 -55 -6 -103.5t28 -76.5h-403q50 110 110.5 398t95 567t17.5 366h490q-19 -85 17.5 -365t98.5 -567.5t111 -398.5z
M510 438l-43 418l-47 -418h90zM338 1843l-244 307h330l164 -307h-250z" />
    <glyph glyph-name="uni1EB2" unicode="&#x1eb2;" 
d="M762 1905q6 -130 -62 -203.5t-194 -73.5t-194 73.5t-62 203.5h182q-8 -38 12.5 -61t61.5 -23t61.5 23t12.5 61h182zM1022 -20h-410q24 32 27 80t-6 100h-252q-9 -55 -6 -103.5t28 -76.5h-403q60 110 134.5 429t115 629t14.5 396h490q-28 -84 14.5 -395.5t118.5 -629.5
t135 -429zM596 438l-84 541l-88 -541h172zM506 2388q94 0 144 -41.5t50 -118.5v-14q0 -46 -12 -69.5t-61 -53.5q-48 -30 -58 -45.5t-10 -48.5l-149 2q0 9 -0.5 28.5t-0.5 26.5t2 21.5t7.5 21.5t14.5 18t23.5 19.5t35.5 17.5q31 14 40 28.5t9 43.5q0 24 -8 33.5t-27 9.5
q-23 0 -33.5 -15t-4.5 -34.5t24 -30.5l-181 4q0 102 47 149.5t148 47.5z" />
    <glyph glyph-name="uni1EB3" unicode="&#x1eb3;" 
d="M717 1751q6 -130 -62 -203t-194 -73t-194 73t-62 203h182q-8 -38 12.5 -61t61.5 -23t61.5 23t12.5 61h182zM936 -20h-410q24 32 27 80t-6 100h-170q-9 -55 -6 -103.5t28 -76.5h-403q50 110 110.5 398t95 567t17.5 366h490q-19 -85 17.5 -365t98.5 -567.5t111 -398.5z
M510 438l-43 418l-47 -418h90zM469 2234q94 0 144.5 -41.5t50.5 -117.5v-15q0 -46 -12.5 -69.5t-61.5 -53.5q-48 -30 -58 -45.5t-10 -48.5l-149 2q0 9 -0.5 28.5t-0.5 26.5t2 21.5t7.5 22t14.5 18.5t23.5 19.5t35.5 17.5q31 14 40 28.5t9 43.5q0 24 -8 33.5t-27 9.5
q-23 0 -33.5 -15t-4.5 -34.5t24 -30.5l-181 4q0 101 47 148.5t148 47.5z" />
    <glyph glyph-name="uni1EB4" unicode="&#x1eb4;" 
d="M762 1905q6 -130 -62 -203.5t-194 -73.5t-194 73.5t-62 203.5h182q-8 -38 12.5 -61t61.5 -23t61.5 23t12.5 61h182zM1022 -20h-410q24 32 27 80t-6 100h-252q-9 -55 -6 -103.5t28 -76.5h-403q60 110 134.5 429t115 629t14.5 396h490q-28 -84 14.5 -395.5t118.5 -629.5
t135 -429zM596 438l-84 541l-88 -541h172zM547 2259q31 -25 51 -25q9 0 16.5 4t15 12.5t13 16.5t15 23.5t16.5 25.5l141 -131q-41 -82 -98 -126t-119 -44q-58 0 -111 39q-33 23 -61 23q-43 0 -88 -80l-141 131q40 81 102.5 125.5t130.5 44.5q64 0 117 -39z" />
    <glyph glyph-name="uni1EB5" unicode="&#x1eb5;" 
d="M717 1751q6 -130 -62 -203t-194 -73t-194 73t-62 203h182q-8 -38 12.5 -61t61.5 -23t61.5 23t12.5 61h182zM936 -20h-410q24 32 27 80t-6 100h-170q-9 -55 -6 -103.5t28 -76.5h-403q50 110 110.5 398t95 567t17.5 366h490q-19 -85 17.5 -365t98.5 -567.5t111 -398.5z
M510 438l-43 418l-47 -418h90zM502 2107q30 -24 51 -24q9 0 16.5 4t15 12.5t13 16.5t15 23.5t16.5 25.5l141 -131q-41 -82 -98 -126t-119 -44q-58 0 -111 39q-32 22 -61 22q-43 0 -88 -80l-141 131q40 81 102.5 125.5t130.5 44.5q64 0 117 -39z" />
    <glyph glyph-name="uni1EB6" unicode="&#x1eb6;" horiz-adv-x="1021" 
d="M385 -408v254h250v-254h-250zM762 1905q6 -130 -62 -203.5t-194 -73.5t-194 73.5t-62 203.5h182q-8 -38 12.5 -61t61.5 -23t61.5 23t12.5 61h182zM1022 -20h-410q24 32 27 80t-6 100h-252q-9 -55 -6 -103.5t28 -76.5h-403q60 110 134.5 429t115 629t14.5 396h490
q-28 -84 14.5 -395.5t118.5 -629.5t135 -429zM596 438l-84 541l-88 -541h172z" />
    <glyph glyph-name="uni1EB7" unicode="&#x1eb7;" 
d="M348 -408v254h250v-254h-250zM717 1751q6 -130 -62 -203t-194 -73t-194 73t-62 203h182q-8 -38 12.5 -61t61.5 -23t61.5 23t12.5 61h182zM936 -20h-410q24 32 27 80t-6 100h-170q-9 -55 -6 -103.5t28 -76.5h-403q50 110 110.5 398t95 567t17.5 366h490q-19 -85 17.5 -365
t98.5 -567.5t111 -398.5zM510 438l-43 418l-47 -418h90z" />
    <glyph glyph-name="uni1EB8" unicode="&#x1eb8;" horiz-adv-x="907" 
d="M422 1151v-303h41q104 0 158 6.5t118 30.5v-359q-67 25 -130 32t-187 7v-303h166q109 0 149 6t86 29l33 -317h-786q39 97 53 416.5t-1.5 633.5t-51.5 404h786l-39 -318q-49 23 -86 29t-127 6h-182zM328 -408v254h250v-254h-250z" />
    <glyph glyph-name="uni1EB9" unicode="&#x1eb9;" horiz-adv-x="866" 
d="M422 1028v-242h31q81 0 131.5 6.5t113.5 30.5v-358q-66 25 -124 32t-152 7v-242h143q96 0 134 6t83 29l33 -317h-745q39 98 53 386t-1.5 571.5t-51.5 373.5h745l-39 -318q-49 23 -83.5 29t-112.5 6h-158zM307 -408v254h250v-254h-250z" />
    <glyph glyph-name="uni1EBA" unicode="&#x1eba;" horiz-adv-x="907" 
d="M422 1151v-303h41q104 0 158 6.5t118 30.5v-359q-67 25 -130 32t-187 7v-303h166q109 0 149 6t86 29l33 -317h-786q39 97 53 416.5t-1.5 633.5t-51.5 404h786l-39 -318q-49 23 -86 29t-127 6h-182zM453 2019q94 0 144 -41t50 -118v-15q0 -46 -12.5 -69.5t-61.5 -53.5
q-48 -30 -57.5 -45t-9.5 -49l-150 2q0 9 -0.5 28.5t-0.5 26.5t2 21.5t7.5 22t14.5 18.5t23.5 19.5t35.5 17.5q31 14 40 28t9 43q0 24 -7.5 33.5t-26.5 9.5q-36 0 -40 -31t25 -48l-180 4q0 101 47 148.5t148 47.5z" />
    <glyph glyph-name="uni1EBB" unicode="&#x1ebb;" horiz-adv-x="866" 
d="M422 1028v-242h31q81 0 131.5 6.5t113.5 30.5v-358q-66 25 -124 32t-152 7v-242h143q96 0 134 6t83 29l33 -317h-745q39 98 53 386t-1.5 571.5t-51.5 373.5h745l-39 -318q-49 23 -83.5 29t-112.5 6h-158zM461 1866q94 0 144 -41.5t50 -118.5v-14q0 -46 -12 -69.5
t-61 -53.5q-48 -30 -58 -45.5t-10 -48.5l-149 2q0 8 -1 32t0 31t5 23.5t12.5 24.5t24.5 19.5t40 22.5q31 15 40.5 29t9.5 43q0 24 -8 33.5t-27 9.5q-36 0 -40 -31.5t25 -48.5l-180 4q0 102 47 149.5t148 47.5z" />
    <glyph glyph-name="uni1EBC" unicode="&#x1ebc;" horiz-adv-x="907" 
d="M422 1151v-303h41q104 0 158 6.5t118 30.5v-359q-67 25 -130 32t-187 7v-303h166q109 0 149 6t86 29l33 -317h-786q39 97 53 416.5t-1.5 633.5t-51.5 404h786l-39 -318q-49 23 -86 29t-127 6h-182zM494 1884q30 -24 51 -24q9 0 16.5 4t15 12.5t13 16.5t15 23.5t16.5 25.5
l141 -132q-41 -82 -98 -126t-119 -44q-58 0 -111 39q-33 23 -61 23q-43 0 -88 -80l-142 131q40 81 103 125.5t131 44.5q64 0 117 -39z" />
    <glyph glyph-name="uni1EBD" unicode="&#x1ebd;" horiz-adv-x="866" 
d="M422 1028v-242h31q81 0 131.5 6.5t113.5 30.5v-358q-66 25 -124 32t-152 7v-242h143q96 0 134 6t83 29l33 -317h-745q39 98 53 386t-1.5 571.5t-51.5 373.5h745l-39 -318q-49 23 -83.5 29t-112.5 6h-158zM473 1731q31 -25 51 -25q9 0 16.5 4t15 12.5t13 16.5t15 23.5
t16.5 25.5l141 -131q-41 -82 -98 -126t-119 -44q-57 0 -110 39q-32 22 -62 22q-43 0 -88 -80l-141 131q40 81 102.5 125.5t130.5 44.5q65 0 117 -38z" />
    <glyph glyph-name="uni1EBE" unicode="&#x1ebe;" horiz-adv-x="907" 
d="M541 1628l-80 103l-80 -103h-207l164 266h246l164 -266h-207zM422 1151v-303h41q104 0 158 6.5t118 30.5v-359q-67 25 -130 32t-187 7v-303h166q109 0 149 6t86 29l33 -317h-786q39 97 53 416.5t-1.5 633.5t-51.5 404h786l-39 -318q-49 23 -86 29t-127 6h-182zM754 1810
l161 308h328l-242 -308h-247z" />
    <glyph glyph-name="uni1EBF" unicode="&#x1ebf;" horiz-adv-x="866" 
d="M539 1475l-80 102l-80 -102h-207l164 266h246l163 -266h-206zM422 1028v-242h31q81 0 131.5 6.5t113.5 30.5v-358q-66 25 -124 32t-152 7v-242h143q96 0 134 6t83 29l33 -317h-745q39 98 53 386t-1.5 571.5t-51.5 373.5h745l-39 -318q-49 23 -83.5 29t-112.5 6h-158z
M748 1655l161 307h328l-242 -307h-247z" />
    <glyph glyph-name="uni1EC0" unicode="&#x1ec0;" horiz-adv-x="907" 
d="M541 1628l-80 103l-80 -103h-207l164 266h246l164 -266h-207zM422 1151v-303h41q104 0 158 6.5t118 30.5v-359q-67 25 -130 32t-187 7v-303h166q109 0 149 6t86 29l33 -317h-786q39 97 53 416.5t-1.5 633.5t-51.5 404h786l-39 -318q-49 23 -86 29t-127 6h-182zM788 1806
l-243 308h329l164 -308h-250z" />
    <glyph glyph-name="uni1EC1" unicode="&#x1ec1;" horiz-adv-x="866" 
d="M539 1475l-80 102l-80 -102h-207l164 266h246l163 -266h-206zM422 1028v-242h31q81 0 131.5 6.5t113.5 30.5v-358q-66 25 -124 32t-152 7v-242h143q96 0 134 6t83 29l33 -317h-745q39 98 53 386t-1.5 571.5t-51.5 373.5h745l-39 -318q-49 23 -83.5 29t-112.5 6h-158z
M795 1657l-244 307h330l163 -307h-249z" />
    <glyph glyph-name="uni1EC2" unicode="&#x1ec2;" horiz-adv-x="907" 
d="M541 1628l-80 103l-80 -103h-207l164 266h246l164 -266h-207zM422 1151v-303h41q104 0 158 6.5t118 30.5v-359q-67 25 -130 32t-187 7v-303h166q109 0 149 6t86 29l33 -317h-786q39 97 53 416.5t-1.5 633.5t-51.5 404h786l-39 -318q-49 23 -86 29t-127 6h-182zM831 2204
q94 0 144.5 -41.5t50.5 -118.5v-14q0 -46 -12.5 -69.5t-61.5 -53.5q-48 -30 -57.5 -45.5t-9.5 -49.5l-150 3q0 9 -0.5 28.5t-0.5 26.5t2 21.5t7.5 21.5t14.5 18t23.5 19.5t35.5 17.5q31 14 40 28.5t9 43.5q0 24 -8 33.5t-27 9.5q-23 0 -33.5 -15t-4.5 -34.5t24 -30.5l-180 4
q0 102 46.5 149.5t147.5 47.5z" />
    <glyph glyph-name="uni1EC3" unicode="&#x1ec3;" horiz-adv-x="866" 
d="M539 1475l-80 102l-80 -102h-207l164 266h246l163 -266h-206zM422 1028v-242h31q81 0 131.5 6.5t113.5 30.5v-358q-66 25 -124 32t-152 7v-242h143q96 0 134 6t83 29l33 -317h-745q39 98 53 386t-1.5 571.5t-51.5 373.5h745l-39 -318q-49 23 -83.5 29t-112.5 6h-158z
M842 2046q94 0 144 -41.5t50 -118.5v-14q0 -46 -12 -69.5t-61 -53.5q-48 -30 -58 -45.5t-10 -48.5l-150 2q0 9 -0.5 28.5t-0.5 26.5t2 21.5t7.5 21.5t14.5 18t23.5 19.5t35.5 17.5q31 15 40.5 29t9.5 43q0 24 -8 33.5t-27 9.5q-36 0 -40 -31.5t25 -48.5l-180 4
q0 102 47 149.5t148 47.5z" />
    <glyph glyph-name="uni1EC4" unicode="&#x1ec4;" horiz-adv-x="907" 
d="M541 1628l-80 103l-80 -103h-207l164 266h246l164 -266h-207zM422 1151v-303h41q104 0 158 6.5t118 30.5v-359q-67 25 -130 32t-187 7v-303h166q109 0 149 6t86 29l33 -317h-786q39 97 53 416.5t-1.5 633.5t-51.5 404h786l-39 -318q-49 23 -86 29t-127 6h-182zM502 2259
q31 -25 51 -25q9 0 16.5 4t15 12.5t13 16.5t15 23.5t16.5 25.5l141 -131q-41 -82 -98 -126t-119 -44q-58 0 -111 39q-33 23 -61 23q-43 0 -88 -80l-141 131q40 81 102.5 125.5t130.5 44.5q64 0 117 -39z" />
    <glyph glyph-name="uni1EC5" unicode="&#x1ec5;" horiz-adv-x="866" 
d="M539 1475l-80 102l-80 -102h-207l164 266h246l163 -266h-206zM422 1028v-242h31q81 0 131.5 6.5t113.5 30.5v-358q-66 25 -124 32t-152 7v-242h143q96 0 134 6t83 29l33 -317h-745q39 98 53 386t-1.5 571.5t-51.5 373.5h745l-39 -318q-49 23 -83.5 29t-112.5 6h-158z
M502 2105q30 -24 51 -24q9 0 16.5 4t15 12.5t13 16.5t15 23.5t16.5 25.5l141 -131q-41 -82 -98 -126t-119 -44q-58 0 -111 39q-32 22 -61 22q-43 0 -88 -80l-141 131q40 81 102.5 125.5t130.5 44.5q64 0 117 -39z" />
    <glyph glyph-name="uni1EC6" unicode="&#x1ec6;" horiz-adv-x="907" 
d="M328 -408v254h250v-254h-250zM541 1628l-80 103l-80 -103h-207l164 266h246l164 -266h-207zM422 1151v-303h41q104 0 158 6.5t118 30.5v-359q-67 25 -130 32t-187 7v-303h166q109 0 149 6t86 29l33 -317h-786q39 97 53 416.5t-1.5 633.5t-51.5 404h786l-39 -318
q-49 23 -86 29t-127 6h-182z" />
    <glyph glyph-name="uni1EC7" unicode="&#x1ec7;" horiz-adv-x="866" 
d="M307 -408v254h250v-254h-250zM539 1475l-80 102l-80 -102h-207l164 266h246l163 -266h-206zM422 1028v-242h31q81 0 131.5 6.5t113.5 30.5v-358q-66 25 -124 32t-152 7v-242h143q96 0 134 6t83 29l33 -317h-745q39 98 53 386t-1.5 571.5t-51.5 373.5h745l-39 -318
q-49 23 -83.5 29t-112.5 6h-158z" />
    <glyph glyph-name="uni1EC8" unicode="&#x1ec8;" horiz-adv-x="532" 
d="M469 -20h-403q38 92 51.5 410.5t-1.5 635t-50 408.5h403q-39 -90 -53 -408t1.5 -635.5t51.5 -410.5zM268 2019q94 0 144.5 -41.5t50.5 -117.5v-15q0 -46 -12.5 -69.5t-61.5 -53.5q-48 -30 -57.5 -45t-9.5 -49l-150 2q0 9 -0.5 28.5t-0.5 26.5t2 21.5t7.5 22t14.5 18.5
t23.5 19.5t35.5 17.5q31 14 40 28t9 43q0 24 -8 33.5t-27 9.5q-23 0 -33.5 -15t-4.5 -34t24 -30l-180 4q0 102 46.5 149t147.5 47z" />
    <glyph glyph-name="uni1EC9" unicode="&#x1ec9;" horiz-adv-x="532" 
d="M469 -20h-403q38 92 51.5 380t-1.5 573.5t-50 377.5h403q-39 -90 -53 -377.5t1.5 -574t51.5 -379.5zM266 1866q94 0 144.5 -41.5t50.5 -118.5v-14q0 -46 -12.5 -69.5t-61.5 -53.5q-48 -30 -58 -45.5t-10 -48.5l-149 2q0 9 -0.5 28.5t-0.5 26.5t2 21.5t7.5 21.5t14.5 18
t23.5 19.5t35.5 17.5q31 14 40 28.5t9 43.5q0 24 -8 33.5t-27 9.5q-23 0 -33.5 -15t-4.5 -34.5t24 -30.5l-180 4q0 102 46.5 149.5t147.5 47.5z" />
    <glyph glyph-name="uni1ECA" unicode="&#x1eca;" horiz-adv-x="532" 
d="M469 -20h-403q38 92 51.5 410.5t-1.5 635t-50 408.5h403q-39 -90 -53 -408t1.5 -635.5t51.5 -410.5zM141 -408v254h250v-254h-250z" />
    <glyph glyph-name="uni1ECB" unicode="&#x1ecb;" horiz-adv-x="532" 
d="M469 -20h-403q38 92 51.5 380t-1.5 573.5t-50 377.5h403q-39 -90 -53 -377.5t1.5 -574t51.5 -379.5zM141 -408v254h250v-254h-250z" />
    <glyph glyph-name="uni1ECC" unicode="&#x1ecc;" horiz-adv-x="966" 
d="M483 1448q194 0 303 -108.5t109 -295.5v-688q0 -187 -109 -295t-303 -108t-302.5 108t-108.5 295v688q0 187 108.5 295.5t302.5 108.5zM483 1165q-48 0 -80 -40.5t-32 -102.5v-643q0 -143 112 -143q113 0 113 143v643q0 143 -113 143zM358 -408v254h250v-254h-250z" />
    <glyph glyph-name="uni1ECD" unicode="&#x1ecd;" horiz-adv-x="925" 
d="M463 1325q180 0 285.5 -108.5t105.5 -294.5v-566q0 -186 -105.5 -294.5t-285.5 -108.5t-285.5 108.5t-105.5 294.5v566q0 186 105.5 294.5t285.5 108.5zM463 1042q-47 0 -69.5 -29.5t-22.5 -92.5v-562q0 -63 22.5 -92.5t69.5 -29.5t69.5 29.5t22.5 92.5v562
q0 63 -22.5 92.5t-69.5 29.5zM338 -408v254h250v-254h-250z" />
    <glyph glyph-name="uni1ECE" unicode="&#x1ece;" horiz-adv-x="966" 
d="M483 1448q194 0 303 -108.5t109 -295.5v-688q0 -187 -109 -295t-303 -108t-302.5 108t-108.5 295v688q0 187 108.5 295.5t302.5 108.5zM483 1165q-48 0 -80 -40.5t-32 -102.5v-643q0 -143 112 -143q113 0 113 143v643q0 143 -113 143zM483 2019q94 0 144.5 -41.5
t50.5 -117.5v-15q0 -46 -12.5 -69.5t-61.5 -53.5q-48 -30 -57.5 -45t-9.5 -49l-150 2q0 9 -0.5 28.5t-0.5 26.5t2 21.5t7.5 22t14.5 18.5t23.5 19.5t35.5 17.5q31 14 40 28t9 43q0 24 -8 33.5t-27 9.5q-23 0 -33.5 -15t-4.5 -34t24 -30l-180 4q0 102 46.5 149t147.5 47z" />
    <glyph glyph-name="uni1ECF" unicode="&#x1ecf;" horiz-adv-x="925" 
d="M463 1325q180 0 285.5 -108.5t105.5 -294.5v-566q0 -186 -105.5 -294.5t-285.5 -108.5t-285.5 108.5t-105.5 294.5v566q0 186 105.5 294.5t285.5 108.5zM463 1042q-47 0 -69.5 -29.5t-22.5 -92.5v-562q0 -63 22.5 -92.5t69.5 -29.5t69.5 29.5t22.5 92.5v562
q0 63 -22.5 92.5t-69.5 29.5zM463 1866q94 0 144 -41.5t50 -118.5v-14q0 -46 -12 -69.5t-61 -53.5q-48 -30 -58 -45.5t-10 -48.5l-149 2q0 9 -0.5 28.5t-0.5 26.5t2 21.5t7.5 21.5t14.5 18t23.5 19.5t35.5 17.5q31 14 40 28.5t9 43.5q0 24 -8 33.5t-27 9.5q-23 0 -33.5 -15
t-4.5 -34.5t24 -30.5l-181 4q0 102 47 149.5t148 47.5z" />
    <glyph glyph-name="uni1ED0" unicode="&#x1ed0;" horiz-adv-x="966" 
d="M563 1628l-80 103l-80 -103h-206l163 266h246l164 -266h-207zM483 1448q194 0 303 -108.5t109 -295.5v-688q0 -187 -109 -295t-303 -108t-302.5 108t-108.5 295v688q0 187 108.5 295.5t302.5 108.5zM483 1165q-48 0 -80 -40.5t-32 -102.5v-643q0 -143 112 -143
q113 0 113 143v643q0 143 -113 143zM762 1810l162 308h327l-241 -308h-248z" />
    <glyph glyph-name="uni1ED1" unicode="&#x1ed1;" horiz-adv-x="925" 
d="M545 1475l-80 102l-80 -102h-207l164 266h246l164 -266h-207zM463 1325q180 0 285.5 -108.5t105.5 -294.5v-566q0 -186 -105.5 -294.5t-285.5 -108.5t-285.5 108.5t-105.5 294.5v566q0 186 105.5 294.5t285.5 108.5zM463 1042q-47 0 -69.5 -29.5t-22.5 -92.5v-562
q0 -63 22.5 -92.5t69.5 -29.5t69.5 29.5t22.5 92.5v562q0 63 -22.5 92.5t-69.5 29.5zM743 1659l162 307h328l-242 -307h-248z" />
    <glyph glyph-name="uni1ED2" unicode="&#x1ed2;" horiz-adv-x="966" 
d="M563 1628l-80 103l-80 -103h-206l163 266h246l164 -266h-207zM483 1448q194 0 303 -108.5t109 -295.5v-688q0 -187 -109 -295t-303 -108t-302.5 108t-108.5 295v688q0 187 108.5 295.5t302.5 108.5zM483 1165q-48 0 -80 -40.5t-32 -102.5v-643q0 -143 112 -143
q113 0 113 143v643q0 143 -113 143zM819 1806l-244 308h330l164 -308h-250z" />
    <glyph glyph-name="uni1ED3" unicode="&#x1ed3;" horiz-adv-x="925" 
d="M545 1475l-80 102l-80 -102h-207l164 266h246l164 -266h-207zM463 1325q180 0 285.5 -108.5t105.5 -294.5v-566q0 -186 -105.5 -294.5t-285.5 -108.5t-285.5 108.5t-105.5 294.5v566q0 186 105.5 294.5t285.5 108.5zM463 1042q-47 0 -69.5 -29.5t-22.5 -92.5v-562
q0 -63 22.5 -92.5t69.5 -29.5t69.5 29.5t22.5 92.5v562q0 63 -22.5 92.5t-69.5 29.5zM799 1655l-244 307h330l164 -307h-250z" />
    <glyph glyph-name="uni1ED4" unicode="&#x1ed4;" horiz-adv-x="966" 
d="M563 1628l-80 103l-80 -103h-206l163 266h246l164 -266h-207zM483 1448q194 0 303 -108.5t109 -295.5v-688q0 -187 -109 -295t-303 -108t-302.5 108t-108.5 295v688q0 187 108.5 295.5t302.5 108.5zM483 1165q-48 0 -80 -40.5t-32 -102.5v-643q0 -143 112 -143
q113 0 113 143v643q0 143 -113 143zM856 2200q94 0 144.5 -41.5t50.5 -118.5v-15q0 -45 -12.5 -68.5t-61.5 -53.5q-48 -30 -58 -45.5t-10 -49.5l-149 2q0 9 -0.5 28.5t-0.5 26.5t2 21.5t7.5 22t14.5 18.5t23.5 19.5t35.5 17.5q31 14 40 28.5t9 43.5q0 24 -8 33.5t-27 9.5
q-23 0 -33.5 -15t-4.5 -34.5t24 -30.5l-180 4q0 102 46.5 149.5t147.5 47.5z" />
    <glyph glyph-name="uni1ED5" unicode="&#x1ed5;" horiz-adv-x="925" 
d="M545 1475l-80 102l-80 -102h-207l164 266h246l164 -266h-207zM463 1325q180 0 285.5 -108.5t105.5 -294.5v-566q0 -186 -105.5 -294.5t-285.5 -108.5t-285.5 108.5t-105.5 294.5v566q0 186 105.5 294.5t285.5 108.5zM463 1042q-47 0 -69.5 -29.5t-22.5 -92.5v-562
q0 -63 22.5 -92.5t69.5 -29.5t69.5 29.5t22.5 92.5v562q0 63 -22.5 92.5t-69.5 29.5zM838 2046q94 0 144 -41.5t50 -118.5v-14q0 -46 -12.5 -69.5t-61.5 -53.5q-48 -30 -57.5 -45t-9.5 -49l-150 2q0 9 -0.5 28.5t-0.5 26.5t2 21.5t7.5 21.5t14.5 18t23.5 19.5t35.5 17.5
q31 14 40 28.5t9 43.5q0 24 -7.5 33.5t-26.5 9.5q-36 0 -40 -31.5t25 -48.5l-180 4q0 102 47 149.5t148 47.5z" />
    <glyph glyph-name="uni1ED6" unicode="&#x1ed6;" horiz-adv-x="966" 
d="M563 1628l-80 103l-80 -103h-206l163 266h246l164 -266h-207zM483 1448q194 0 303 -108.5t109 -295.5v-688q0 -187 -109 -295t-303 -108t-302.5 108t-108.5 295v688q0 187 108.5 295.5t302.5 108.5zM483 1165q-48 0 -80 -40.5t-32 -102.5v-643q0 -143 112 -143
q113 0 113 143v643q0 143 -113 143zM524 2261q31 -25 51 -25q9 0 16.5 4t15 12.5t13 16.5t15 23.5t16.5 25.5l142 -131q-41 -82 -98.5 -126t-119.5 -44q-57 0 -110 39q-33 23 -62 23q-43 0 -88 -80l-141 131q40 81 103 125.5t131 44.5q63 0 116 -39z" />
    <glyph glyph-name="uni1ED7" unicode="&#x1ed7;" horiz-adv-x="925" 
d="M545 1475l-80 102l-80 -102h-207l164 266h246l164 -266h-207zM463 1325q180 0 285.5 -108.5t105.5 -294.5v-566q0 -186 -105.5 -294.5t-285.5 -108.5t-285.5 108.5t-105.5 294.5v566q0 186 105.5 294.5t285.5 108.5zM463 1042q-47 0 -69.5 -29.5t-22.5 -92.5v-562
q0 -63 22.5 -92.5t69.5 -29.5t69.5 29.5t22.5 92.5v562q0 63 -22.5 92.5t-69.5 29.5zM504 2087q31 -25 51 -25q9 0 16.5 4t15 12.5t13 16.5t15 23.5t16.5 25.5l141 -131q-41 -82 -98 -126t-119 -44q-58 0 -111 39q-33 23 -61 23q-43 0 -88 -80l-141 131q40 81 102.5 125.5
t130.5 44.5q64 0 117 -39z" />
    <glyph glyph-name="uni1ED8" unicode="&#x1ed8;" horiz-adv-x="966" 
d="M358 -408v254h250v-254h-250zM563 1628l-80 103l-80 -103h-206l163 266h246l164 -266h-207zM483 1448q194 0 303 -108.5t109 -295.5v-688q0 -187 -109 -295t-303 -108t-302.5 108t-108.5 295v688q0 187 108.5 295.5t302.5 108.5zM483 1165q-48 0 -80 -40.5t-32 -102.5
v-643q0 -143 112 -143q113 0 113 143v643q0 143 -113 143z" />
    <glyph glyph-name="uni1ED9" unicode="&#x1ed9;" horiz-adv-x="925" 
d="M338 -408v254h250v-254h-250zM545 1475l-80 102l-80 -102h-207l164 266h246l164 -266h-207zM463 1325q180 0 285.5 -108.5t105.5 -294.5v-566q0 -186 -105.5 -294.5t-285.5 -108.5t-285.5 108.5t-105.5 294.5v566q0 186 105.5 294.5t285.5 108.5zM463 1042
q-47 0 -69.5 -29.5t-22.5 -92.5v-562q0 -63 22.5 -92.5t69.5 -29.5t69.5 29.5t22.5 92.5v562q0 63 -22.5 92.5t-69.5 29.5z" />
    <glyph glyph-name="uni1EDA" unicode="&#x1eda;" horiz-adv-x="966" 
d="M948 1612v-156l-117 -170q64 -98 64 -242v-688q0 -187 -109 -295t-303 -108t-302.5 108t-108.5 295v688q0 187 108.5 295.5t302.5 108.5q181 0 289 -94l23 69h-35v189h188zM596 379v643q0 143 -113 143q-48 0 -80 -40.5t-32 -102.5v-643q0 -143 112 -143q113 0 113 143z
M326 1628l161 307h328l-242 -307h-247z" />
    <glyph glyph-name="uni1EDB" unicode="&#x1edb;" horiz-adv-x="925" 
d="M915 1323l-116 -170q55 -94 55 -231v-566q0 -186 -105.5 -294.5t-285.5 -108.5t-285.5 108.5t-105.5 294.5v566q0 186 105.5 294.5t285.5 108.5q175 0 278 -100l21 65h-35v191h188v-158zM555 358v562q0 63 -22.5 92.5t-69.5 29.5t-69.5 -29.5t-22.5 -92.5v-562
q0 -63 22.5 -92.5t69.5 -29.5t69.5 29.5t22.5 92.5zM287 1475l162 307h327l-241 -307h-248z" />
    <glyph glyph-name="uni1EDC" unicode="&#x1edc;" horiz-adv-x="966" 
d="M948 1612v-156l-117 -170q64 -98 64 -242v-688q0 -187 -109 -295t-303 -108t-302.5 108t-108.5 295v688q0 187 108.5 295.5t302.5 108.5q181 0 289 -94l23 69h-35v189h188zM596 379v643q0 143 -113 143q-48 0 -80 -40.5t-32 -102.5v-643q0 -143 112 -143q113 0 113 143z
M369 1628l-244 307h330l163 -307h-249z" />
    <glyph glyph-name="uni1EDD" unicode="&#x1edd;" horiz-adv-x="925" 
d="M915 1323l-116 -170q55 -94 55 -231v-566q0 -186 -105.5 -294.5t-285.5 -108.5t-285.5 108.5t-105.5 294.5v566q0 186 105.5 294.5t285.5 108.5q175 0 278 -100l21 65h-35v191h188v-158zM555 358v562q0 63 -22.5 92.5t-69.5 29.5t-69.5 -29.5t-22.5 -92.5v-562
q0 -63 22.5 -92.5t69.5 -29.5t69.5 29.5t22.5 92.5zM356 1475l-243 307h329l164 -307h-250z" />
    <glyph glyph-name="uni1EDE" unicode="&#x1ede;" horiz-adv-x="966" 
d="M948 1612v-156l-117 -170q64 -98 64 -242v-688q0 -187 -109 -295t-303 -108t-302.5 108t-108.5 295v688q0 187 108.5 295.5t302.5 108.5q181 0 289 -94l23 69h-35v189h188zM596 379v643q0 143 -113 143q-48 0 -80 -40.5t-32 -102.5v-643q0 -143 112 -143q113 0 113 143z
M483 2019q94 0 144.5 -41.5t50.5 -117.5v-15q0 -46 -12.5 -69.5t-61.5 -53.5q-48 -30 -57.5 -45t-9.5 -49l-150 2q0 9 -0.5 28.5t-0.5 26.5t2 21.5t7.5 22t14.5 18.5t23.5 19.5t35.5 17.5q31 14 40 28t9 43q0 24 -8 33.5t-27 9.5q-23 0 -33.5 -15t-4.5 -34t24 -30l-180 4
q0 102 46.5 149t147.5 47z" />
    <glyph glyph-name="uni1EDF" unicode="&#x1edf;" horiz-adv-x="925" 
d="M915 1323l-116 -170q55 -94 55 -231v-566q0 -186 -105.5 -294.5t-285.5 -108.5t-285.5 108.5t-105.5 294.5v566q0 186 105.5 294.5t285.5 108.5q175 0 278 -100l21 65h-35v191h188v-158zM555 358v562q0 63 -22.5 92.5t-69.5 29.5t-69.5 -29.5t-22.5 -92.5v-562
q0 -63 22.5 -92.5t69.5 -29.5t69.5 29.5t22.5 92.5zM463 1866q94 0 144 -41.5t50 -118.5v-14q0 -46 -12 -69.5t-61 -53.5q-48 -30 -58 -45.5t-10 -48.5l-149 2q0 9 -0.5 28.5t-0.5 26.5t2 21.5t7.5 21.5t14.5 18t23.5 19.5t35.5 17.5q31 14 40 28.5t9 43.5q0 24 -8 33.5
t-27 9.5q-23 0 -33.5 -15t-4.5 -34.5t24 -30.5l-181 4q0 102 47 149.5t148 47.5z" />
    <glyph glyph-name="uni1EE0" unicode="&#x1ee0;" horiz-adv-x="966" 
d="M948 1612v-156l-117 -170q64 -98 64 -242v-688q0 -187 -109 -295t-303 -108t-302.5 108t-108.5 295v688q0 187 108.5 295.5t302.5 108.5q181 0 289 -94l23 69h-35v189h188zM596 379v643q0 143 -113 143q-48 0 -80 -40.5t-32 -102.5v-643q0 -143 112 -143q113 0 113 143z
M524 1884q30 -24 51 -24q9 0 16.5 4t15 12.5t13 16.5t15 23.5t16.5 25.5l142 -132q-41 -82 -98.5 -126t-119.5 -44q-57 0 -110 39q-33 23 -62 23q-43 0 -88 -80l-141 131q40 81 103 125.5t131 44.5q63 0 116 -39z" />
    <glyph glyph-name="uni1EE1" unicode="&#x1ee1;" horiz-adv-x="925" 
d="M915 1323l-116 -170q55 -94 55 -231v-566q0 -186 -105.5 -294.5t-285.5 -108.5t-285.5 108.5t-105.5 294.5v566q0 186 105.5 294.5t285.5 108.5q175 0 278 -100l21 65h-35v191h188v-158zM555 358v562q0 63 -22.5 92.5t-69.5 29.5t-69.5 -29.5t-22.5 -92.5v-562
q0 -63 22.5 -92.5t69.5 -29.5t69.5 29.5t22.5 92.5zM487 1731q31 -25 52 -25q11 0 21 7.5t16 15.5t18.5 28t19.5 31l142 -131q-41 -82 -98 -126t-119 -44q-58 0 -111 39q-32 22 -61 22q-43 0 -88 -80l-142 131q40 81 103 125.5t131 44.5q64 0 116 -38z" />
    <glyph glyph-name="uni1EE2" unicode="&#x1ee2;" horiz-adv-x="966" 
d="M948 1612v-156l-117 -170q64 -98 64 -242v-688q0 -187 -109 -295t-303 -108t-302.5 108t-108.5 295v688q0 187 108.5 295.5t302.5 108.5q181 0 289 -94l23 69h-35v189h188zM596 379v643q0 143 -113 143q-48 0 -80 -40.5t-32 -102.5v-643q0 -143 112 -143q113 0 113 143z
M358 -408v254h250v-254h-250z" />
    <glyph glyph-name="uni1EE3" unicode="&#x1ee3;" horiz-adv-x="925" 
d="M915 1323l-116 -170q55 -94 55 -231v-566q0 -186 -105.5 -294.5t-285.5 -108.5t-285.5 108.5t-105.5 294.5v566q0 186 105.5 294.5t285.5 108.5q175 0 278 -100l21 65h-35v191h188v-158zM555 358v562q0 63 -22.5 92.5t-69.5 29.5t-69.5 -29.5t-22.5 -92.5v-562
q0 -63 22.5 -92.5t69.5 -29.5t69.5 29.5t22.5 92.5zM338 -408v254h250v-254h-250z" />
    <glyph glyph-name="uni1EE4" unicode="&#x1ee4;" horiz-adv-x="989" 
d="M948 1434q-19 -52 -31 -149.5t-16.5 -262.5t-5 -265.5t-0.5 -309.5v-105q0 -179 -109 -281t-290 -102t-292.5 103.5t-111.5 279.5v105q0 199 -0.5 307.5t-5 267t-16.5 258.5t-31 154h405q-19 -38 -28 -59t-17 -63.5t-9.5 -74t-2.5 -120t0.5 -170t2.5 -254.5t1 -345
q0 -51 31 -79.5t74 -28.5q40 0 70 28.5t30 79.5q0 190 2 384t2 274t-0.5 163.5t-7.5 118t-17 68t-32 78.5h405zM369 -408v254h249v-254h-249z" />
    <glyph glyph-name="uni1EE5" unicode="&#x1ee5;" 
d="M907 1311q-19 -52 -31 -134t-16.5 -221.5t-5 -227t-0.5 -281.5v-105q0 -181 -100 -282t-279 -101t-281 102.5t-102 280.5v105q0 245 -1.5 369t-14 274t-37.5 221h405q-22 -44 -32 -74t-17 -61t-7.5 -104t-0.5 -143t2 -241.5t2 -339.5q0 -51 24.5 -79.5t57.5 -28.5
t57.5 28.5t24.5 79.5q0 164 2 332.5t2 238.5t-0.5 143.5t-7.5 106t-17 65t-32 77.5h405zM348 -408v254h250v-254h-250z" />
    <glyph glyph-name="uni1EE6" unicode="&#x1ee6;" horiz-adv-x="989" 
d="M948 1434q-19 -52 -31 -149.5t-16.5 -262.5t-5 -265.5t-0.5 -309.5v-105q0 -179 -109 -281t-290 -102t-292.5 103.5t-111.5 279.5v105q0 199 -0.5 307.5t-5 267t-16.5 258.5t-31 154h405q-19 -38 -28 -59t-17 -63.5t-9.5 -74t-2.5 -120t0.5 -170t2.5 -254.5t1 -345
q0 -51 31 -79.5t74 -28.5q40 0 70 28.5t30 79.5q0 190 2 384t2 274t-0.5 163.5t-7.5 118t-17 68t-32 78.5h405zM494 2019q94 0 144 -41t50 -118v-15q0 -46 -12.5 -69.5t-61.5 -53.5q-48 -30 -57.5 -45t-9.5 -49l-150 2q0 9 -0.5 28.5t-0.5 26.5t2 21.5t7.5 22t14.5 18.5
t23.5 19.5t35.5 17.5q31 14 40 28t9 43q0 24 -7.5 33.5t-26.5 9.5q-36 0 -40 -31t25 -48l-180 4q0 101 47 148.5t148 47.5z" />
    <glyph glyph-name="uni1EE7" unicode="&#x1ee7;" 
d="M907 1311q-19 -52 -31 -134t-16.5 -221.5t-5 -227t-0.5 -281.5v-105q0 -181 -100 -282t-279 -101t-281 102.5t-102 280.5v105q0 245 -1.5 369t-14 274t-37.5 221h405q-22 -44 -32 -74t-17 -61t-7.5 -104t-0.5 -143t2 -241.5t2 -339.5q0 -51 24.5 -79.5t57.5 -28.5
t57.5 28.5t24.5 79.5q0 164 2 332.5t2 238.5t-0.5 143.5t-7.5 106t-17 65t-32 77.5h405zM473 1866q94 0 144.5 -41.5t50.5 -118.5v-14q0 -46 -12.5 -69.5t-61.5 -53.5q-48 -30 -58 -45.5t-10 -48.5l-149 2q0 9 -0.5 28.5t-0.5 26.5t2 21.5t7.5 21.5t14.5 18t23.5 19.5
t35.5 17.5q31 14 40 28.5t9 43.5q0 24 -8 33.5t-27 9.5q-23 0 -33.5 -15t-4.5 -34.5t24 -30.5l-180 4q0 102 46.5 149.5t147.5 47.5z" />
    <glyph glyph-name="uni1EE8" unicode="&#x1ee8;" horiz-adv-x="989" 
d="M858 1688h189v-156l-117 -172q-6 -34 -11.5 -76t-9 -98.5t-6 -100.5t-4 -120t-2.5 -116.5t-1.5 -131t-0.5 -123v-132v-120.5q0 -179 -109 -281t-290 -102t-292.5 103.5t-111.5 279.5v105q0 199 -0.5 307.5t-5 267t-16.5 258.5t-31 154h405q-19 -38 -28 -59t-17 -63.5
t-9.5 -74t-2.5 -120t0.5 -170t2.5 -254.5t1 -345q0 -51 31 -79.5t74 -28.5q40 0 70 28.5t30 79.5q0 190 2 384t2 274t-0.5 163.5t-7.5 118t-17 68t-32 78.5h329l23 65h-37v189zM336 1628l162 307h327l-241 -307h-248z" />
    <glyph glyph-name="uni1EE9" unicode="&#x1ee9;" 
d="M815 1556h189v-157l-117 -170h-2q-8 -40 -13.5 -88.5t-9 -113.5t-5.5 -114.5t-2.5 -137.5t-0.5 -134v-152v-147q0 -181 -100 -282t-279 -101t-281 102.5t-102 280.5v105q0 245 -1.5 369t-14 274t-37.5 221h405q-22 -44 -32 -74t-17 -61t-7.5 -104t-0.5 -143t2 -241.5
t2 -339.5q0 -51 24.5 -79.5t57.5 -28.5t57.5 28.5t24.5 79.5q0 164 2 332.5t2 238.5t-0.5 143.5t-7.5 106t-17 65t-32 77.5h329l19 55h-35v190zM289 1475l162 307h327l-241 -307h-248z" />
    <glyph glyph-name="uni1EEA" unicode="&#x1eea;" horiz-adv-x="989" 
d="M858 1688h189v-156l-117 -172q-6 -34 -11.5 -76t-9 -98.5t-6 -100.5t-4 -120t-2.5 -116.5t-1.5 -131t-0.5 -123v-132v-120.5q0 -179 -109 -281t-290 -102t-292.5 103.5t-111.5 279.5v105q0 199 -0.5 307.5t-5 267t-16.5 258.5t-31 154h405q-19 -38 -28 -59t-17 -63.5
t-9.5 -74t-2.5 -120t0.5 -170t2.5 -254.5t1 -345q0 -51 31 -79.5t74 -28.5q40 0 70 28.5t30 79.5q0 190 2 384t2 274t-0.5 163.5t-7.5 118t-17 68t-32 78.5h329l23 65h-37v189zM410 1628l-244 307h330l163 -307h-249z" />
    <glyph glyph-name="uni1EEB" unicode="&#x1eeb;" 
d="M815 1556h189v-157l-117 -170h-2q-8 -40 -13.5 -88.5t-9 -113.5t-5.5 -114.5t-2.5 -137.5t-0.5 -134v-152v-147q0 -181 -100 -282t-279 -101t-281 102.5t-102 280.5v105q0 245 -1.5 369t-14 274t-37.5 221h405q-22 -44 -32 -74t-17 -61t-7.5 -104t-0.5 -143t2 -241.5
t2 -339.5q0 -51 24.5 -79.5t57.5 -28.5t57.5 28.5t24.5 79.5q0 164 2 332.5t2 238.5t-0.5 143.5t-7.5 106t-17 65t-32 77.5h329l19 55h-35v190zM397 1475l-243 307h329l164 -307h-250z" />
    <glyph glyph-name="uni1EEC" unicode="&#x1eec;" horiz-adv-x="989" 
d="M858 1688h189v-156l-117 -172q-6 -34 -11.5 -76t-9 -98.5t-6 -100.5t-4 -120t-2.5 -116.5t-1.5 -131t-0.5 -123v-132v-120.5q0 -179 -109 -281t-290 -102t-292.5 103.5t-111.5 279.5v105q0 199 -0.5 307.5t-5 267t-16.5 258.5t-31 154h405q-19 -38 -28 -59t-17 -63.5
t-9.5 -74t-2.5 -120t0.5 -170t2.5 -254.5t1 -345q0 -51 31 -79.5t74 -28.5q40 0 70 28.5t30 79.5q0 190 2 384t2 274t-0.5 163.5t-7.5 118t-17 68t-32 78.5h329l23 65h-37v189zM494 2019q94 0 144 -41t50 -118v-15q0 -46 -12.5 -69.5t-61.5 -53.5q-48 -30 -57.5 -45
t-9.5 -49l-150 2q0 9 -0.5 28.5t-0.5 26.5t2 21.5t7.5 22t14.5 18.5t23.5 19.5t35.5 17.5q31 14 40 28t9 43q0 24 -7.5 33.5t-26.5 9.5q-36 0 -40 -31t25 -48l-180 4q0 101 47 148.5t148 47.5z" />
    <glyph glyph-name="uni1EED" unicode="&#x1eed;" 
d="M815 1556h189v-157l-117 -170h-2q-8 -40 -13.5 -88.5t-9 -113.5t-5.5 -114.5t-2.5 -137.5t-0.5 -134v-152v-147q0 -181 -100 -282t-279 -101t-281 102.5t-102 280.5v105q0 245 -1.5 369t-14 274t-37.5 221h405q-22 -44 -32 -74t-17 -61t-7.5 -104t-0.5 -143t2 -241.5
t2 -339.5q0 -51 24.5 -79.5t57.5 -28.5t57.5 28.5t24.5 79.5q0 164 2 332.5t2 238.5t-0.5 143.5t-7.5 106t-17 65t-32 77.5h329l19 55h-35v190zM473 1866q94 0 144.5 -41.5t50.5 -118.5v-14q0 -46 -12.5 -69.5t-61.5 -53.5q-48 -30 -58 -45.5t-10 -48.5l-149 2
q0 9 -0.5 28.5t-0.5 26.5t2 21.5t7.5 21.5t14.5 18t23.5 19.5t35.5 17.5q31 14 40 28.5t9 43.5q0 24 -8 33.5t-27 9.5q-23 0 -33.5 -15t-4.5 -34.5t24 -30.5l-180 4q0 102 46.5 149.5t147.5 47.5z" />
    <glyph glyph-name="uni1EEE" unicode="&#x1eee;" horiz-adv-x="989" 
d="M858 1688h189v-156l-117 -172q-6 -34 -11.5 -76t-9 -98.5t-6 -100.5t-4 -120t-2.5 -116.5t-1.5 -131t-0.5 -123v-132v-120.5q0 -179 -109 -281t-290 -102t-292.5 103.5t-111.5 279.5v105q0 199 -0.5 307.5t-5 267t-16.5 258.5t-31 154h405q-19 -38 -28 -59t-17 -63.5
t-9.5 -74t-2.5 -120t0.5 -170t2.5 -254.5t1 -345q0 -51 31 -79.5t74 -28.5q40 0 70 28.5t30 79.5q0 190 2 384t2 274t-0.5 163.5t-7.5 118t-17 68t-32 78.5h329l23 65h-37v189zM506 1884q30 -24 51 -24q9 0 16.5 4t15 12.5t13 16.5t15 23.5t16.5 25.5l141 -132
q-41 -82 -98 -126t-119 -44q-58 0 -111 39q-33 23 -61 23q-43 0 -88 -80l-141 131q40 81 102.5 125.5t130.5 44.5q64 0 117 -39z" />
    <glyph glyph-name="uni1EEF" unicode="&#x1eef;" 
d="M815 1556h189v-157l-117 -170h-2q-8 -40 -13.5 -88.5t-9 -113.5t-5.5 -114.5t-2.5 -137.5t-0.5 -134v-152v-147q0 -181 -100 -282t-279 -101t-281 102.5t-102 280.5v105q0 245 -1.5 369t-14 274t-37.5 221h405q-22 -44 -32 -74t-17 -61t-7.5 -104t-0.5 -143t2 -241.5
t2 -339.5q0 -51 24.5 -79.5t57.5 -28.5t57.5 28.5t24.5 79.5q0 164 2 332.5t2 238.5t-0.5 143.5t-7.5 106t-17 65t-32 77.5h329l19 55h-35v190zM487 1731q31 -25 52 -25q11 0 21 7.5t16 15.5t18.5 28t19.5 31l142 -131q-41 -82 -98 -126t-119 -44q-58 0 -111 39
q-32 22 -61 22q-43 0 -88 -80l-142 131q40 81 103 125.5t131 44.5q64 0 116 -38z" />
    <glyph glyph-name="uni1EF0" unicode="&#x1ef0;" horiz-adv-x="989" 
d="M858 1688h189v-156l-117 -172q-6 -34 -11.5 -76t-9 -98.5t-6 -100.5t-4 -120t-2.5 -116.5t-1.5 -131t-0.5 -123v-132v-120.5q0 -179 -109 -281t-290 -102t-292.5 103.5t-111.5 279.5v105q0 199 -0.5 307.5t-5 267t-16.5 258.5t-31 154h405q-19 -38 -28 -59t-17 -63.5
t-9.5 -74t-2.5 -120t0.5 -170t2.5 -254.5t1 -345q0 -51 31 -79.5t74 -28.5q40 0 70 28.5t30 79.5q0 190 2 384t2 274t-0.5 163.5t-7.5 118t-17 68t-32 78.5h329l23 65h-37v189zM369 -408v254h249v-254h-249z" />
    <glyph glyph-name="uni1EF1" unicode="&#x1ef1;" 
d="M815 1556h189v-157l-117 -170h-2q-8 -40 -13.5 -88.5t-9 -113.5t-5.5 -114.5t-2.5 -137.5t-0.5 -134v-152v-147q0 -181 -100 -282t-279 -101t-281 102.5t-102 280.5v105q0 245 -1.5 369t-14 274t-37.5 221h405q-22 -44 -32 -74t-17 -61t-7.5 -104t-0.5 -143t2 -241.5
t2 -339.5q0 -51 24.5 -79.5t57.5 -28.5t57.5 28.5t24.5 79.5q0 164 2 332.5t2 238.5t-0.5 143.5t-7.5 106t-17 65t-32 77.5h329l19 55h-35v190zM348 -408v254h250v-254h-250z" />
    <glyph glyph-name="Ygrave" unicode="&#x1ef2;" horiz-adv-x="905" 
d="M367 1628l-211 266h274l141 -266h-204zM602 659q0 -255 10 -419.5t43 -259.5h-405q32 93 42.5 261t10.5 421q-104 248 -176 403.5t-106.5 218t-88.5 150.5h443q-21 -22 -26.5 -48.5t10 -89.5t32.5 -112t65 -180q1 -2 1 -3q83 245 95 303q15 78 -14 126q-2 2 -3 4h438
q-63 -111 -93.5 -167t-103.5 -212.5t-174 -395.5z" />
    <glyph glyph-name="ygrave" unicode="&#x1ef3;" horiz-adv-x="864" 
d="M334 1475l-211 266h274l142 -266h-205zM582 537q0 -229 9.5 -343.5t43.5 -213.5h-406q33 98 43.5 215.5t10.5 343.5q-179 426 -234 548.5t-117 223.5h443q-41 -45 -28.5 -133.5t89.5 -298.5q73 214 83.5 297.5t-25.5 134.5h438q-61 -107 -113 -221t-189 -439
q-31 -74 -48 -114z" />
    <glyph glyph-name="uni1EF4" unicode="&#x1ef4;" horiz-adv-x="905" 
d="M602 659q0 -255 10 -419.5t43 -259.5h-405q32 93 42.5 261t10.5 421q-104 248 -176 403.5t-106.5 218t-88.5 150.5h443q-21 -22 -26.5 -48.5t10 -89.5t32.5 -112t65 -180q1 -2 1 -3q83 245 95 303q15 78 -14 126q-2 2 -3 4h438q-63 -111 -93.5 -167t-103.5 -212.5
t-174 -395.5zM328 -408v254h250v-254h-250z" />
    <glyph glyph-name="uni1EF5" unicode="&#x1ef5;" horiz-adv-x="864" 
d="M582 537q0 -229 9.5 -343.5t43.5 -213.5h-406q33 98 43.5 215.5t10.5 343.5q-179 426 -234 548.5t-117 223.5h443q-41 -45 -28.5 -133.5t89.5 -298.5q73 214 83.5 297.5t-25.5 134.5h438q-61 -107 -113 -221t-189 -439q-31 -74 -48 -114zM307 -408v254h250v-254h-250z
" />
    <glyph glyph-name="uni1EF6" unicode="&#x1ef6;" horiz-adv-x="905" 
d="M602 659q0 -255 10 -419.5t43 -259.5h-405q32 93 42.5 261t10.5 421q-104 248 -176 403.5t-106.5 218t-88.5 150.5h443q-21 -22 -26.5 -48.5t10 -89.5t32.5 -112t65 -180q1 -2 1 -3q83 245 95 303q15 78 -14 126q-2 2 -3 4h438q-63 -111 -93.5 -167t-103.5 -212.5
t-174 -395.5zM453 2019q94 0 144 -41t50 -118v-15q0 -46 -12.5 -69.5t-61.5 -53.5q-48 -30 -57.5 -45t-9.5 -49l-150 2q0 9 -0.5 28.5t-0.5 26.5t2 21.5t7.5 22t14.5 18.5t23.5 19.5t35.5 17.5q31 14 40 28t9 43q0 24 -7.5 33.5t-26.5 9.5q-36 0 -40 -31t25 -48l-180 4
q0 101 47 148.5t148 47.5z" />
    <glyph glyph-name="uni1EF7" unicode="&#x1ef7;" horiz-adv-x="864" 
d="M582 537q0 -229 9.5 -343.5t43.5 -213.5h-406q33 98 43.5 215.5t10.5 343.5q-179 426 -234 548.5t-117 223.5h443q-41 -45 -28.5 -133.5t89.5 -298.5q73 214 83.5 297.5t-25.5 134.5h438q-61 -107 -113 -221t-189 -439q-31 -74 -48 -114zM432 1866q94 0 144.5 -41.5
t50.5 -118.5v-14q0 -46 -12.5 -69.5t-61.5 -53.5q-48 -30 -58 -45.5t-10 -48.5l-149 2q0 9 -0.5 28.5t-0.5 26.5t2 21.5t7.5 21.5t14.5 18t23.5 19.5t35.5 17.5q31 14 40 28.5t9 43.5q0 24 -8 33.5t-27 9.5q-23 0 -33.5 -15t-4.5 -34.5t24 -30.5l-180 4q0 102 46.5 149.5
t147.5 47.5z" />
    <glyph glyph-name="uni1EF8" unicode="&#x1ef8;" horiz-adv-x="905" 
d="M602 659q0 -255 10 -419.5t43 -259.5h-405q32 93 42.5 261t10.5 421q-104 248 -176 403.5t-106.5 218t-88.5 150.5h443q-21 -22 -26.5 -48.5t10 -89.5t32.5 -112t65 -180q1 -2 1 -3q83 245 95 303q15 78 -14 126q-2 2 -3 4h438q-63 -111 -93.5 -167t-103.5 -212.5
t-174 -395.5zM494 1884q30 -24 51 -24q9 0 16.5 4t15 12.5t13 16.5t15 23.5t16.5 25.5l141 -132q-41 -82 -98 -126t-119 -44q-58 0 -111 39q-33 23 -61 23q-43 0 -88 -80l-142 131q40 81 103 125.5t131 44.5q64 0 117 -39z" />
    <glyph glyph-name="uni1EF9" unicode="&#x1ef9;" horiz-adv-x="864" 
d="M582 537q0 -229 9.5 -343.5t43.5 -213.5h-406q33 98 43.5 215.5t10.5 343.5q-179 426 -234 548.5t-117 223.5h443q-41 -45 -28.5 -133.5t89.5 -298.5q73 214 83.5 297.5t-25.5 134.5h438q-61 -107 -113 -221t-189 -439q-31 -74 -48 -114zM473 1731q31 -25 51 -25
q9 0 16.5 4t15 12.5t13 16.5t15 23.5t16.5 25.5l141 -131q-41 -82 -98 -126t-119 -44q-57 0 -110 39q-32 22 -62 22q-43 0 -88 -80l-141 131q40 81 102.5 125.5t130.5 44.5q65 0 117 -38z" />
    <glyph glyph-name="endash" unicode="&#x2013;" horiz-adv-x="901" 
d="M41 612v209h819v-209h-819z" />
    <glyph glyph-name="emdash" unicode="&#x2014;" horiz-adv-x="1638" 
d="M41 612v209h1556v-209h-1556z" />
    <glyph glyph-name="quoteleft" unicode="&#x2018;" horiz-adv-x="434" 
d="M205 1454h153l-73 -229h65v-271h-270v234z" />
    <glyph glyph-name="quoteright" unicode="&#x2019;" horiz-adv-x="434" 
d="M229 954h-153l74 230h-66v270h270v-233z" />
    <glyph glyph-name="quotesinglbase" unicode="&#x201a;" horiz-adv-x="434" 
d="M229 -250h-153l74 230h-66v270h270v-234z" />
    <glyph glyph-name="quotedblleft" unicode="&#x201c;" horiz-adv-x="761" 
d="M205 1454h153l-73 -229h65v-271h-270v234zM532 1454h154l-74 -229h66v-271h-270v234z" />
    <glyph glyph-name="quotedblright" unicode="&#x201d;" horiz-adv-x="761" 
d="M229 954h-153l74 230h-66v270h270v-233zM557 954h-154l74 230h-65v270h270v-233z" />
    <glyph glyph-name="quotedblbase" unicode="&#x201e;" horiz-adv-x="761" 
d="M219 -250h-153l73 230h-65v270h270v-234zM557 -250h-154l74 230h-65v270h270v-234z" />
    <glyph glyph-name="bullet" unicode="&#x2022;" horiz-adv-x="901" 
d="M451 1044q139 0 233 -94t94 -233q0 -140 -94 -234t-233 -94t-233.5 94.5t-94.5 233.5t94 233t234 94z" />
    <glyph glyph-name="ellipsis" unicode="&#x2026;" horiz-adv-x="1638" 
d="M117 -41v311h311v-311h-311zM664 -41v311h311v-311h-311zM1210 -41v311h312v-311h-312z" />
    <glyph glyph-name="guilsinglleft" unicode="&#x2039;" horiz-adv-x="499" 
d="M49 788l377 287v-276l-113 -82l113 -82v-277l-377 287v143z" />
    <glyph glyph-name="guilsinglright" unicode="&#x203a;" horiz-adv-x="499" 
d="M449 645l-377 -287v277l112 82l-112 82v276l377 -287v-143z" />
    <glyph glyph-name="Euro" unicode="&#x20ac;" horiz-adv-x="880" 
d="M516 315q31 25 -27 142l351 -33q6 -187 -95.5 -295.5t-283.5 -108.5q-175 0 -275 103t-100 283v75h-70v144h70v41h-70v143h70v76q0 180 100 282.5t275 102.5q182 0 283.5 -108.5t95.5 -295.5l-351 -32q26 51 33 83.5t-8 51t-55 18.5q-42 0 -58 -24t-16 -80v-74h240v-143
h-240v-41h240v-144h-240v-73q0 -54 19.5 -79.5t62.5 -25.5q30 0 51 12h-2z" />
    <glyph glyph-name="trademark" unicode="&#x2122;" horiz-adv-x="1200" 
d="M-23 1475h496v-273q-49 34 -77.5 44.5t-59.5 10.5q2 -242 7 -329t30 -183h-297q25 98 30 184.5t5 327.5q-57 0 -134 -55v273zM1221 745h-318q35 106 35 310l-39 -113h-106l-39 113q0 -207 34 -310h-290q83 494 -21 730h316l55 -232l53 232h320q-59 -140 -60 -363.5
t60 -366.5z" />
    <glyph glyph-name="CR" horiz-adv-x="389" 
 />
    <glyph glyph-name="A.ss01" horiz-adv-x="923" 
d="M985 -260h-401q10 13 11.5 53.5t-4 94.5t-12.5 104.5t-14.5 101t-9.5 66.5h-178q-9 -55 -6 -103.5t28 -76.5h-403q50 109 110.5 429t95 629t17.5 396h490q-19 -85 30 -455.5t123.5 -749.5t122.5 -489zM510 438l-43 418l-47 -418h90z" />
    <glyph glyph-name="B.ss01" horiz-adv-x="1259" 
d="M238 592q-75 46 -119.5 123t-55 165t21 181t98 170.5t187 133t277.5 69.5q54 4 78 4q110 0 205.5 -29t170 -85.5t117 -147.5t42.5 -207q0 -172 -113 -279q143 -90 143 -307q0 -193 -104.5 -298t-296.5 -105h-455q40 165 53.5 482t-8.5 554l307 86v-275q90 0 132.5 32
t42.5 106q0 45 -8.5 78.5t-30.5 62.5t-66 44t-108 15q-44 0 -97 -6q-182 -24 -254 -133q-47 -71 -27 -138q15 -52 60 -60q7 -1 14 -1zM786 262q86 0 131.5 16t59.5 43t14 76v19q0 56 -28.5 89.5t-92.5 33.5h-84v-277z" />
    <glyph glyph-name="C.ss01" horiz-adv-x="966" 
d="M530 1174q-90 0 -151.5 -113.5t-61.5 -355.5q0 -232 60.5 -347.5t142.5 -115.5q70 0 102.5 71.5t6.5 165.5l307 -100q3 -112 -51.5 -208.5t-151.5 -154t-213 -57.5q-87 0 -158.5 24t-122.5 65t-90 100t-63 123t-39.5 140.5t-21 146.5t-5.5 147q0 132 17 243.5t55.5 206.5
t97 161t145 103t195.5 37q95 0 175 -32t132.5 -86t87 -123.5t40.5 -147.5t-9.5 -153.5t-61 -146.5t-114.5 -122l-276 209q96 0 142 80t13 160t-129 80z" />
    <glyph glyph-name="D.ss01" horiz-adv-x="1179" 
d="M598 1434h35q109 0 208 -33t177.5 -94.5t125 -159.5t46.5 -219v-504q0 -204 -117.5 -324t-345.5 -120h-405q38 97 57 320t16 428t-22 286l311 88v-850q62 0 107.5 19.5t71 53.5t37 72.5t11.5 81.5v445q0 97 -78 172t-215 75q-32 0 -69 -6q-183 -26 -254 -136
q-47 -72 -26 -141q16 -52 61 -60q7 -1 14 -1l-207 -235q-56 34 -95.5 88t-59 117.5t-17 134t25.5 139t74 132t122.5 112.5t177.5 81t233 38z" />
    <glyph glyph-name="E.ss01" horiz-adv-x="1189" 
d="M735 262h166q109 0 150 6t86 29l32 -317h-786q34 83 56.5 309t20 475t-33.5 377q-62 -15 -103 -47t-54 -69t-10 -73.5t25.5 -65t55.5 -38.5l-207 -236q-46 20 -83 61t-57.5 93.5t-30 114.5t1 126t33.5 126t70 116.5t109 96t151 65t195 23.5h647l-39 -318q-48 23 -121 29
t-216 6h-58v-324h33q93 0 158 6.5t127 30.5v-358q-105 39 -318 39v-283z" />
    <glyph glyph-name="F.ss01" horiz-adv-x="1202" 
d="M1143 1116q-47 23 -116 29t-206 6h-53v-324h33q93 0 157.5 6.5t126.5 30.5v-358q-105 39 -317 39q0 -57 -0.5 -131.5t-0.5 -109t0.5 -82t2.5 -69.5t5 -51.5t9 -46.5t14.5 -36t20.5 -39h-405q40 88 60 335.5t14.5 491t-31.5 334.5q-61 -15 -101.5 -47t-53.5 -69t-10 -73.5
t25.5 -65t55.5 -38.5l-207 -236q-46 24 -83.5 66.5t-59.5 96t-32.5 115.5t-1 125.5t32 124.5t69.5 114t109.5 93.5t154 63.5t200.5 23h627z" />
    <glyph glyph-name="G.ss01" horiz-adv-x="1026" 
d="M985 -264h-405q39 89 59 239q-59 -16 -119 -16q-87 0 -158.5 24t-122.5 65t-90 100t-63 123t-39.5 140.5t-21 146.5t-5.5 147q0 132 17 243.5t55.5 206.5t97 161t145 103t195.5 37q95 0 175 -32t132.5 -86t87 -123.5t40.5 -147.5t-9.5 -153.5t-61 -146.5t-114.5 -122
l-276 209q96 0 142 80t13 160t-129 80q-90 0 -151.5 -113.5t-61.5 -355.5q0 -232 60.5 -347.5t142.5 -115.5q61 0 95 54t26 132q-7 41 -23 92l316 86q-1 -44 -2 -128q-2 -187 -2.5 -329t12.5 -249.5t43 -163.5z" />
    <glyph glyph-name="H.ss01" horiz-adv-x="1419" 
d="M1399 1434q-40 -90 -57 -463.5t-1.5 -751.5t56.5 -479h-404q13 27 22.5 68.5t15 100t9 111.5t4.5 133.5t1 131.5t-0.5 140.5t-0.5 129.5h-217q0 -41 -0.5 -114t-0.5 -105t1.5 -85.5t4.5 -82t9 -66t16 -66t24 -56.5h-404q48 119 55 575q-122 -15 -175.5 -82.5t-35 -133.5
t79.5 -85l-206 -236q-54 26 -96 73.5t-66.5 107t-30 128t8 136t54 131.5t101 115t155 85.5t211.5 43.5q-3 209 -17.5 373.5t-37.5 222.5h404q-21 -41 -33.5 -90.5t-17 -119.5t-5.5 -113.5t0.5 -138.5t1.5 -130h217q0 36 1.5 126.5t0.5 137.5t-5 116t-16 120t-32 92h406z" />
    <glyph glyph-name="I.ss01" horiz-adv-x="1007" 
d="M584 1434h403q-23 -43 -32.5 -179t-8 -305.5t-5 -368.5t-21 -370t-58.5 -307t-114 -183l-248 347q56 5 91.5 116.5t46.5 279.5t8.5 346.5t-17.5 340.5h-74q-146 -4 -200 -99q-38 -66 -15 -136q20 -57 66 -66q8 -2 16 -2l-227 -236q-64 31 -111 90.5t-66 133t-16.5 155
t42.5 158.5t105.5 139.5t178.5 102t256 43.5z" />
    <glyph glyph-name="J.ss01" horiz-adv-x="1013" 
d="M1018 1434q-20 -65 -33.5 -163.5t-20.5 -181.5t-10.5 -220t-4 -199.5t0 -205t0.5 -157.5q0 -69 -12.5 -137t-45.5 -141t-84.5 -128t-137.5 -90.5t-195 -35.5h-35q-178 9 -298.5 130t-116.5 290l327 100q-26 -78 16.5 -158t112.5 -80q27 0 48 6.5t42 27t35 54.5t23.5 93
t11.5 139q9 466 -14 774h-72q-146 -4 -200 -99q-38 -66 -15 -136q20 -57 66 -66q8 -2 16 -2l-227 -236q-64 31 -111 90.5t-66 133t-16.5 155t42.5 158.5t105.5 139.5t178.5 102t256 43.5h434z" />
    <glyph glyph-name="K.ss01" horiz-adv-x="1325" 
d="M1014 655q30 -94 71 -194.5t98 -209.5t117.5 -193.5t132 -139.5t138.5 -55h14l-289 -312q-106 101 -195.5 225t-155.5 258.5t-112.5 253t-89.5 257.5h-16q0 -58 -1 -142t-1 -119t2 -87.5t8 -81.5t17 -64.5t28 -70.5h-403q43 106 55.5 495t-10.5 678q-53 -15 -81.5 -57.5
t-28 -89t24.5 -87.5t64 -53l-182 -209q-85 34 -139.5 106.5t-70.5 158t0.5 177.5t61.5 166t125.5 121.5t180.5 47.5h403q-18 -35 -28 -65t-16 -52.5t-8 -72.5t-2.5 -80.5t0.5 -125.5t1 -161q48 0 90 41.5t68.5 107t42.5 140t15.5 147t-17.5 121.5h385q-20 -33 -38.5 -107.5
t-37 -161.5t-44 -180t-71 -182.5t-106.5 -147.5z" />
    <glyph glyph-name="L.ss01" horiz-adv-x="987" 
d="M895 850q-1 -44 -2 -128q-2 -187 -2.5 -329t12.5 -249.5t43 -163.5h-874q11 245 14.5 536.5t-7.5 566t-38 351.5h403q-17 -34 -25.5 -57t-16.5 -49.5t-10 -69.5t-4 -87.5t-1 -135t1.5 -181t1.5 -256t1 -332.5h219q20 144 12.5 290t-42.5 208z" />
    <glyph glyph-name="M.ss01" horiz-adv-x="1636" 
d="M1579 1434q-39 -89 -51.5 -465t2.5 -751t45 -478h-401q37 104 44 275t7 853l-156 -397h-186l-156 397q0 -124 -1.5 -268.5t-2 -208.5t1 -141t7.5 -114.5t16.5 -77.5t29.5 -78h-401q31 76 47.5 285.5t15 450.5t-17.5 437q-53 -15 -81.5 -57.5t-28 -89t24.5 -87.5t64 -53
l-182 -209q-85 34 -139.5 106.5t-70.5 158t0.5 177.5t61.5 166t125.5 121.5t180.5 47.5h440l162 -404l180 404h420z" />
    <glyph glyph-name="N.ss01" horiz-adv-x="1355" 
d="M1335 1434q-42 -99 -58 -475t-1 -749t53 -470h-334l-278 1008q0 -109 -1.5 -236t-1.5 -180t1.5 -118t7.5 -96t16.5 -66t28.5 -72h-391q43 111 56.5 497t-11.5 676q-53 -15 -81.5 -57.5t-28 -89t24.5 -87.5t64 -53l-182 -209q-85 34 -139.5 106.5t-70.5 158t0.5 177.5
t61.5 166t125.5 121.5t180.5 47.5h364l252 -797q0 50 0.5 146t0.5 145.5t-1 127t-4.5 123.5t-9 100t-15 91t-22.5 64h393z" />
    <glyph glyph-name="O.ss01" horiz-adv-x="1050" 
d="M506 1174q-54 0 -94 -31t-54 -77t-11 -94t34.5 -87t83.5 -51l-277 -189q-75 54 -114.5 138t-40.5 172.5t32 179t92.5 161.5t150.5 115.5t198 44.5q113 0 202 -37t149 -103t99 -161t56.5 -206t17.5 -244q0 -106 -15.5 -206.5t-54.5 -200t-97 -173.5t-150 -120t-207 -46
q-77 0 -149.5 25t-137 79.5t-111 131t-70 187.5t-15.5 243l294 -2q-10 -176 45.5 -278.5t143.5 -102.5q39 0 78 27.5t73 81t55 145.5t21 209q0 126 -18 219.5t-50.5 146.5t-72 78t-86.5 25z" />
    <glyph glyph-name="P.ss01" horiz-adv-x="1275" 
d="M1237 989q0 -108 -29.5 -200.5t-89 -167.5t-158 -119t-227.5 -47q-2 -219 8.5 -306t49.5 -169h-406q46 161 54.5 564.5t-40.5 512.5l338 86q0 -284 -2 -395q3 0 10.5 -1.5t10.5 -1.5q57 0 100 40t62.5 93.5t19.5 106.5q0 51 -10 89.5t-36.5 74t-80.5 55t-133 19.5
q-31 0 -49 -2q-191 -13 -270 -123q-50 -70 -32 -141q13 -55 57 -66q8 -2 17 -2l-206 -236q-56 34 -96 88t-60 117t-18.5 133t23 138t70 131.5t117 113t170.5 82t224 39.5q7 0 22.5 1t22.5 1q115 0 216.5 -33.5t180 -95.5t124.5 -160t46 -219z" />
    <glyph glyph-name="Q.ss01" horiz-adv-x="1050" 
d="M862 125q156 -177 289 -199l-254 -272q-134 94 -279 317q-52 -12 -112 -12q-77 0 -149.5 25t-137 79.5t-111 131t-70 187.5t-15.5 243l294 -2q-9 -152 33 -251.5t113 -123.5q-38 80 -51 131l231 104q11 -34 37 -88q53 119 53 310q0 126 -18 219.5t-50.5 146.5t-72 78
t-86.5 25q-54 0 -94 -31t-54 -77t-11 -94t34.5 -87t83.5 -51l-277 -189q-75 54 -114.5 138t-40.5 172.5t32 179t92.5 161.5t150.5 115.5t198 44.5q113 0 202 -37t149 -103t99 -161t56.5 -206t17.5 -244q0 -165 -40.5 -319.5t-127.5 -260.5z" />
    <glyph glyph-name="R.ss01" horiz-adv-x="1267" 
d="M1040 547q45 -119 99.5 -231t122.5 -218t146 -170.5t151 -64.5h16l-289 -312q-327 312 -524 906q-10 -2 -29 -2q-2 -219 8.5 -306t49.5 -169h-406q46 161 54.5 564.5t-40.5 512.5l338 86q0 -284 -2 -395q3 0 10.5 -1.5t10.5 -1.5q57 0 100 40t62.5 93.5t19.5 106.5
q0 51 -10 89.5t-36.5 74t-80.5 55t-133 19.5q-31 0 -49 -2q-191 -13 -270 -123q-50 -70 -32 -141q13 -55 57 -66q8 -2 17 -2l-206 -236q-56 34 -96 88t-60 117t-18.5 133t23 138t70 131.5t117 113t170.5 82t224 39.5q7 0 22.5 1t22.5 1q115 0 216.5 -33.5t180 -95.5
t124.5 -160t46 -219q0 -139 -49.5 -255t-147.5 -187z" />
    <glyph glyph-name="S.ss01" horiz-adv-x="921" 
d="M383 1090q0 -44 28.5 -91.5t74 -93t101.5 -94.5t112.5 -103.5t104 -110.5t79.5 -125t37 -140q9 -140 -36 -251t-149 -178t-254 -67q-111 0 -204 37t-153.5 97.5t-94 141t-33 165.5t38 173.5t110.5 161.5l254 -219q-56 -15 -81 -60t-16 -92.5t51.5 -84.5t107.5 -37
q76 0 121.5 60t33.5 143q-6 43 -39 90t-79.5 90.5t-102.5 91t-110 101.5t-99 112.5t-73 132t-29 152.5q-1 170 106 276.5t279 106.5q178 0 281.5 -112.5t103.5 -324.5l-313 -55q23 40 28.5 87.5t-15.5 84.5t-69 37q-45 0 -73.5 -32t-28.5 -70z" />
    <glyph glyph-name="T.ss01" horiz-adv-x="1249" 
d="M1270 1090q-71 37 -123 47t-129 10h-55v-191.5v-182.5t0.5 -157.5t1.5 -150.5t3.5 -125.5t6.5 -118.5t9.5 -93t13.5 -85.5t18 -62.5h-406q20 53 31.5 134t16.5 240t5.5 261t0.5 362v170h-72q-67 -4 -121 -33t-88 -74t-52.5 -101.5t-20 -115.5t14.5 -115.5t47 -101.5
t81.5 -74t113.5 -32l-207 -236q-93 26 -166.5 91t-118 150.5t-63 187.5t-10 203.5t50.5 197.5t110 170t176 120.5t241 49.5h651z" />
    <glyph glyph-name="U.ss01" horiz-adv-x="1478" 
d="M1438 1434q-19 -52 -31 -152.5t-16.5 -266t-5.5 -270.5t-1 -313v-90q0 -88 -38.5 -161.5t-102.5 -121t-146.5 -74t-172.5 -26.5t-173.5 27t-148.5 75t-104 121.5t-39 159.5q0 618 -15 836q-58 -8 -94 -41.5t-43 -76.5t3 -85.5t43 -73t77 -35.5l-182 -209
q-95 29 -156.5 99.5t-81 156t-3 179t65 169t136 124.5t197.5 49h405q-18 -36 -23 -45.5t-15.5 -39.5t-11 -41.5t-5 -57t-3 -79t0.5 -114.5t1 -157.5t2.5 -213t0.5 -276.5q0 -80 49 -125t117 -45q65 0 113 45t48 125q0 152 1.5 299.5t1.5 227.5t1.5 155.5t-1.5 114t-4 71
t-10.5 58t-16 42.5t-25.5 56h406z" />
    <glyph glyph-name="V.ss01" horiz-adv-x="1406" 
d="M1286 1841q54 -64 88 -144.5t43.5 -185.5t10.5 -200.5t-23.5 -238.5t-44.5 -245.5t-67.5 -275.5t-77 -276t-87.5 -295h-346q-173 783 -284 1179q-119 -2 -165 -82q-37 -63 -10 -130q25 -65 92 -79q8 -1 15 -2l-182 -209q-95 29 -156.5 99.5t-81 156t-3 179t65 169
t136 124.5t197.5 49h415q-10 -17 -14.5 -42.5t-3 -62.5t4.5 -73.5t13 -91.5t19 -99t25.5 -115t28 -120t31.5 -132.5t33 -136.5q76 265 109.5 459t26 323.5t-44.5 207.5t-107 126z" />
    <glyph glyph-name="W.ss01" horiz-adv-x="1970" 
d="M1638 1434h416q-94 -184 -377 -1454h-346q-3 10 -100 342q-12 -39 -47 -156t-56 -186h-346q-173 783 -284 1179q-119 -2 -165 -82q-37 -63 -10 -130q25 -65 92 -79q8 -1 15 -2l-182 -209q-95 29 -156.5 99.5t-81 156t-3 179t65 169t136 124.5t197.5 49h415
q-10 -17 -14.5 -42.5t-3 -62.5t4.5 -73.5t13 -91.5t19 -99t25.5 -115t28 -120t31.5 -132.5t33 -136.5q60 209 90 373t33 270.5t-16 184t-48.5 118.5t-74.5 68l344 164q88 -163 113 -347.5t-4 -379.5q27 -169 106 -451q13 53 33 136.5t31.5 132.5t28 120t25.5 115t19 99
t13 91.5t4.5 73.5t-3 62.5t-14.5 42.5z" />
    <glyph glyph-name="X.ss01" horiz-adv-x="1439" 
d="M1100 733q14 -27 54 -106.5t67.5 -132.5t74.5 -137.5t84.5 -143t87.5 -125.5t93.5 -108.5t93 -69t94.5 -27.5q14 0 20 2l-272 -325q-93 85 -173.5 186t-153 224.5t-117.5 211t-113 230.5q-179 -377 -145 -432h-441q47 51 171.5 273t250.5 478q-109 210 -246 449h-14
q-148 0 -191 -99q-30 -69 2 -145q24 -59 66 -69q4 -1 8 -1l-182 -209q-73 25 -124.5 81t-72 126.5t-21.5 149.5t27 153.5t73 134.5t117.5 96t158.5 36h444q-18 -55 117 -361q136 310 117 361h446q-46 -65 -165.5 -272t-235.5 -429z" />
    <glyph glyph-name="Y.ss01" horiz-adv-x="1347" 
d="M1415 1434q-63 -111 -93.5 -167t-103.5 -212.5t-174 -395.5q0 -252 10.5 -417.5t43.5 -261.5h-406q32 93 42.5 261t10.5 421q-138 332 -229 518q-145 -5 -189 -103q-30 -69 0 -142q24 -58 65 -68q5 -1 9 -1l-182 -209q-64 18 -111.5 62t-72.5 102t-31.5 126.5t5 136.5
t42 131.5t75.5 112t110 77.5t141 29h440q-21 -22 -26.5 -48.5t10 -89.5t32.5 -112t65 -180q1 -2 1 -3q83 245 95 303q15 78 -14 126q-2 2 -3 4h438z" />
    <glyph glyph-name="Z.ss01" horiz-adv-x="1067" 
d="M1087 1206l-503 -944q344 0 477 57l-39 -339h-729l-86 206l504 971h-195q-149 0 -192 -94q-29 -64 3 -133q26 -56 69 -63q3 -1 5 -1l-182 -209q-64 18 -111.5 62t-72.5 102t-31.5 126.5t5 136.5t42 131.5t75.5 112t110 77.5t141 29h645z" />
    <glyph glyph-name="_144" horiz-adv-x="1314" 
d="M719 578h-4q-2 0 -176 -27q2 18 2 55q80 0 149 17q19 5 19 12t-15 10q-37 0 -57 -8q-59 -16 -94 -16v53q75 0 149 18q15 3 15 12.5t-15 10.5q-27 0 -57 -6q-47 -14 -92 -19q-1 8 -2 25t-2 24q20 2 139 19q18 4 45 4q18 0 24.5 -6.5t6.5 -20.5t-1 -36t-3 -52.5t-7 -51
t-12 -20.5q-6 0 -12 3zM688 469q20 4 23 4q14 0 2 -29q-13 -32 -45 -69q-53 34 -76 43q-18 10 -60 20q4 4 11 12t10 11q18 -6 41 -6q34 0 94 14zM659 1106q149 0 276 -73.5t201 -200.5t74 -277q0 -149 -74 -276t-201 -201t-276 -74q-112 0 -213.5 44t-175.5 117.5
t-117.5 175.5t-43.5 214q0 150 74 277t200.5 200.5t275.5 73.5zM1012 219q31 8 17 18q-9 6 -32 9q-104 15 -171.5 39.5t-129.5 68.5q27 27 45 56q26 32 39 41q15 6 18.5 12t-4 13.5t-28.5 17.5q-24 12 -39 12q-12 0 -20 -4q-31 -14 -70 -21q-33 -8 -76 -8q10 10 19 16
q16 11 13.5 19.5t-30.5 28.5q34 0 74 8q62 12 82 12q19 0 22 -10q5 -15 11 -15q9 0 19 12.5t13 30.5q10 63 11 78q1 28 7.5 53t12.5 31q25 21 -31 47q-22 11 -30 11q-10 0 -27 -7q-25 -6 -145 -26q23 37 51 47q30 18 -10 39q144 16 272 16q20 0 30 5.5t5 14.5t-27 19
q-23 10 -47 10q-11 0 -35 -4q-265 -53 -418 -53q-17 0 -23.5 -3.5t-1.5 -9t19 -12.5q13 -10 41 -10q9 0 41 4q58 12 113 19q3 -21 -37 -86q-19 0 -29 -2q-5 2 -26 6h-8q-13 0 -3 -23q22 -42 17 -170q-3 -39 16 -39q6 0 13 7h8q2 -36 -69.5 -115.5t-176.5 -138.5
q-15 -12 -4 -15q2 0 18 4q56 18 111.5 59.5t99.5 94.5q58 -21 125 -72q-79 -73 -209 -98q-12 -2 -17 -5t-1 -6t16 -5q57 0 127 26.5t113 63.5q15 -11 31.5 -24.5t39 -32.5t37.5 -31q27 -21 37 -28t21.5 -12t23.5 -5q7 0 35 4q100 16 111 18zM662 -53h-3q164 0 304.5 81.5
t222.5 222t82 306.5t-78.5 305t-217 220t-306.5 81q-165 0 -306.5 -79.5t-225 -219.5t-83.5 -307q0 -166 81 -306t222 -222t308 -82zM659 -70v-2q-127 0 -243 49.5t-200.5 133.5t-134.5 200.5t-50 245.5q0 169 85 313t231 228t317 84q205 0 370 -119q250 -207 250 -506
q0 -170 -82.5 -314t-226.5 -228.5t-316 -84.5z" />
    </font>
</defs>
</svg>
