<?xml version="1.0" standalone="no"?>
<!DOCTYPE svg PUBLIC "-//W3C//DTD SVG 1.1//EN" "http://www.w3.org/Graphics/SVG/1.1/DTD/svg11.dtd" >
<svg xmlns="http://www.w3.org/2000/svg" xmlns:xlink="http://www.w3.org/1999/xlink" version="1.1">
<metadata>
Created by FontForge 20201107 at Sun Feb 18 22:41:11 2024
 By 
Copyright Shanghai ZiHun Network Technology Co.,Ltd.
</metadata>
<defs>
<font id="ATFzihunliuyedaoT-Regular" horiz-adv-x="690" >
  <font-face 
    font-family="ATF_zihunliuyedao_T"
    font-weight="400"
    font-stretch="normal"
    units-per-em="1000"
    panose-1="0 0 0 0 0 0 0 0 0 0"
    ascent="800"
    descent="-200"
    x-height="416"
    cap-height="645"
    bbox="-438 -276 915.024 1017"
    underline-thickness="50"
    underline-position="-100"
    unicode-range="U+000D-201E"
  />
<missing-glyph horiz-adv-x="600" 
 />
    <glyph glyph-name=".notdef" horiz-adv-x="600" 
 />
    <glyph glyph-name=".null" horiz-adv-x="0" 
 />
    <glyph glyph-name=".null" horiz-adv-x="0" 
 />
    <glyph glyph-name="uni000D" unicode="&#xd;" horiz-adv-x="250" 
 />
    <glyph glyph-name="space" unicode=" " horiz-adv-x="225" 
 />
    <glyph glyph-name="exclam" unicode="!" horiz-adv-x="240" 
d="M166 600q-4 -61 -6.5 -187.5t-2.5 -201.5v-37q-51 2 -76.5 50.5t-32.5 111.5t-8 142q0 46 36.5 82t89.5 40zM120 -27q-34 0 -57 23t-23 57q0 33 23.5 57t56.5 24t56.5 -24t23.5 -57q0 -34 -23.5 -57t-56.5 -23z" />
    <glyph glyph-name="quotedbl" unicode="&#x22;" horiz-adv-x="298" 
d="M42 663q-2 4 -2 7l2 8q3 10 16 11q4 1 8.5 1t9.5 1h22q13 -2 19 -5q6 -1 13 -8q1 -2 1 -12q0 -16 -4 -39l-17 -105q-2 -14 -10 -17q-7 -5 -17 -5l-17 3q-7 4 -7 5q0 32 -5 94q-2 30 -12 61zM167 663q-1 2 -1 5q0 4 3 10q3 10 15 11l19 2h20q15 -2 20 -5q8 -1 12 -8
q3 -4 3 -16q0 -15 -4 -35q-9 -51 -17 -105q-2 -14 -10 -17q-8 -5 -17 -5l-17 3q-7 4 -7 5q0 32 -5 94q-6 40 -14 61z" />
    <glyph glyph-name="numbersign" unicode="#" horiz-adv-x="701" 
d="M659 326q5 -12 -9.5 -30t-54.5 -39.5t-108 -43.5l-4 -156l-1 -56q-16 -3 -35 14t-36.5 59t-29.5 110q-52 -12 -101 -21l-4 -166q-24 -5 -50.5 31t-44.5 118q-8 -1 -23 -1q-49 0 -79 24.5t-40 67.5q33 3 126 16l-5 56q-49 -3 -79 21.5t-41 70.5q41 4 117 14l1 53
q1 61 38 94.5t100 36.5q-4 -52 -9 -166q52 8 77 11v29q1 61 38 94.5t100 36.5l-6 -92q0 -16 -2 -48l100 15q6 -17 -18 -41.5t-84 -49.5l-3 -88zM369 282q-2 23 -4 66q-60 -14 -81 -18l-2 -61z" />
    <glyph glyph-name="dollar" unicode="$" horiz-adv-x="518" 
d="M383 316q46 -23 70.5 -56.5t24.5 -69.5q0 -35 -23 -66t-68 -51.5t-108 -23.5h-21l-11 -64q-13 -1 -26.5 17.5t-22.5 54.5q-67 15 -112.5 55.5t-45.5 97.5q0 16 5 36q70 -51 140 -78q-2 49 4 104q-45 17 -77 36t-49 44q-24 36 -24 74q0 52 41 91t115 45q17 2 50 2
q26 0 38 -1q43 55 79 51l-14 -65q36 -13 59 -32q30 -25 30 -69q0 -19 -5.5 -39t-13.5 -35q-32 25 -93 55l-15 -83q53 -19 73 -30zM179 399q12 -9 27 -15q8 40 24 80q-15 3 -28 3q-23 0 -36.5 -9t-13.5 -22q0 -20 27 -37zM275 148q32 1 53.5 13.5t21.5 28.5q0 20 -31 34
l-29 12z" />
    <glyph glyph-name="percent" unicode="%" horiz-adv-x="758" 
d="M558 581q-70 -128 -286 -573q-10 2 -17 16.5t-7 41.5q0 59 34.5 167.5t113.5 270.5q21 44 50.5 65.5t63.5 21.5q25 0 48 -10zM310 428q0 -31 -10 -68q-13 -33 -29 -55q-20 -23 -47 -38q-27 -13 -58 -14q-22 -2 -50 8q-23 9 -41 28q-16 17 -25 45q-10 28 -10 58
q0 40 12 74q15 36 33 60q21 26 47 40q27 15 54 15q55 0 91 -38q33 -39 33 -115zM161 322q8 0 14 3l14 7l12 12q5 7 10 16t8 17q2 4 4 9.5t4 9.5l3 21q2 6 2 20t-4 34q-1 10 -9 22q-4 9 -13 14q-5 4 -15 4q-16 0 -28 -8l-12 -11q-4 -4 -6.5 -8t-4.5 -7q-10 -16 -16 -38
q-3 -10 -3 -22q-3 -10 -3 -22q0 -33 14 -53q4 -12 13 -15q5 -5 16 -5zM718 239q0 -32 -10 -67q-10 -30 -29 -56q-22 -25 -46 -36q-26 -15 -59 -16q-23 -3 -50 8q-22 8 -40 28q-17 19 -26 45q-10 24 -10 58q0 41 13 74q12 36 31 60q23 26 48 40q27 16 55 16q55 0 89 -39
q34 -38 34 -115zM568 133q9 0 16 3l13 7l12 12q8 10 10 16q1 2 9 17l7 20l4 20l1 20q0 21 -4 34q-3 14 -8 23q-5 8 -14 13q-4 4 -14 4q-17 0 -28 -8l-13 -11q-8 -10 -11 -15q-11 -17 -15 -38q-3 -7 -5 -22q0 -5 -1 -10.5t-1 -11.5q0 -33 14 -53q5 -9 12 -15q13 -5 16 -5z
" />
    <glyph glyph-name="ampersand" unicode="&#x26;" horiz-adv-x="657" 
d="M496 300q35 -19 35 -47q0 -16 -11 -33l-15 -28q-8 -16 -14 -25q23 -25 61 -43t65 -25q-10 -27 -30.5 -41t-48.5 -14q-54 0 -117 46q-26 -18 -29 -20q-20 -14 -41 -25q-32 -12 -47 -16q-5 -1 -54 -6q-36 0 -79 9q-14 3 -36 11q-22 10 -31 16q-18 11 -26 19q-13 13 -21 25
q-8 14 -12 30q-5 13 -5 33q0 14 3 24q2 9 8 23q8 17 12 21q10 14 16 20q12 12 20 17q14 12 22 17l24 16l11 6l-5 3l-22 26q-9 13 -18 29q-10 17 -13 32q-5 15 -5 35q0 34 14 60q7 13 19 24q7 10 23 21q10 8 27 16q13 7 31 12l33 7q12 2 35 2q21 0 31 -2l29 -7q34 -11 51 -27
q12 -7 21 -18q10 -11 17 -23q8 -15 11 -28q4 -12 4 -29q0 -11 -3 -25q-4 -14 -8 -22q-6 -14 -11 -22q-7 -10 -16 -19q-12 -15 -18 -18q-3 -4 -21 -19l-30 -22q21 -19 31 -26l39 -32l1 2q23 40 43 87zM246 355q32 8 58.5 38t26.5 58q0 19 -16 31t-50 12q-31 0 -47 -17
t-16 -43q0 -22 11.5 -43t32.5 -36zM235 243q-42 -26 -56 -38q-19 -19 -19 -35q0 -23 30 -37t65 -14q27 0 42 8q22 9 48 30l-106 87z" />
    <glyph glyph-name="parenleft" unicode="(" horiz-adv-x="305" 
d="M245 -25q0 -17 -13 -29q-11 -12 -30 -12q-21 0 -27 12q-35 53 -50 86q-21 38 -34 78q-31 86 -31 195q0 107 31 193q26 77 84 165q7 12 28 12q19 0 29 -13q13 -12 13 -29q0 -15 -10 -31q-30 -45 -54 -108q-20 -54 -28 -97q-10 -53 -10 -92q0 -87 38 -190q9 -31 26 -59
q11 -24 28 -50q10 -16 10 -31z" />
    <glyph glyph-name="parenright" unicode=")" horiz-adv-x="305" 
d="M60 633q0 20 13 30q11 12 30 12q21 0 27 -12q34 -52 50 -85q22 -40 34 -79q31 -86 31 -194t-31 -194q-24 -73 -84 -165q-7 -12 -28 -12q-19 0 -29 13q-13 12 -13 29q0 15 10 31q31 47 54 108q20 58 28 97q10 53 10 93q0 86 -38 189q-7 23 -26 59q-10 21 -28 51
q-10 14 -10 29z" />
    <glyph glyph-name="asterisk" unicode="*" horiz-adv-x="440" 
d="M41 632l75 43l-76 40l45 89l85 -44v95h100v-91l79 46l50 -87l-75 -43l76 -40l-45 -89l-85 44v-95h-100v91l-79 -46z" />
    <glyph glyph-name="plus" unicode="+" horiz-adv-x="479" 
d="M438 363q3 -16 -11.5 -39.5t-48 -45t-82.5 -32.5v-145q-16 -3 -38.5 11.5t-42.5 47t-30 79.5q-30 4 -62.5 20t-56 41t-26.5 56q38 -2 74 -2l64 1q5 30 22 63t43.5 56t58.5 25q-3 -34 -5 -141l83 3z" />
    <glyph glyph-name="comma" unicode="," horiz-adv-x="229" 
d="M189 29q0 -44 -34 -79q-34 -38 -70 -38q-13 0 -16 9q0 5 1 7l1.5 2t4.5 2q1 2 3 3t4 3l11 11q11 11 11 18q0 4 -1.5 5t-6.5 1q-19 0 -37 15q-20 18 -20 50q0 28 20 51q22 22 54 22q37 0 58 -26q17 -25 17 -56z" />
    <glyph glyph-name="hyphen" unicode="-" horiz-adv-x="603" 
d="M40 352q92 -1 283 3t240 7q-4 -62 -86.5 -90t-191.5 -32q-39 -2 -96 12.5t-100.5 41t-48.5 58.5z" />
    <glyph glyph-name="period" unicode="." horiz-adv-x="239" 
d="M120 -27q-34 0 -57 23t-23 57q0 33 23 56t57 23q33 0 56 -23t23 -56q0 -34 -23 -57t-56 -23z" />
    <glyph glyph-name="slash" unicode="/" horiz-adv-x="252" 
d="M232 645q-29 -125 -84 -385t-68 -328q-60 27 -60 177q0 78 13.5 171t35.5 205q13 69 54 115.5t90 46.5q7 0 19 -2z" />
    <glyph glyph-name="zero" unicode="0" horiz-adv-x="538" 
d="M257 -27q-61 0 -111 38t-79 113t-27 180q1 95 31.5 170.5t79.5 119.5t106 49q9 1 27 1q105 0 159.5 -84.5t54.5 -231.5q0 -109 -31 -189t-85.5 -123t-124.5 -43zM165 304q-1 -50 13 -94.5t35.5 -71.5t43.5 -28q22 -3 45.5 17.5t39.5 65.5t17 111q7 213 -83 213
q-54 0 -81 -53t-30 -160z" />
    <glyph glyph-name="one" unicode="1" horiz-adv-x="559" 
d="M369 645q-6 -114 -11 -359.5t-4 -312.5q-71 4 -107 81t-46 177t-11 223q0 47 23.5 89t64.5 69.5t91 32.5z" />
    <glyph glyph-name="two" unicode="2" horiz-adv-x="551" 
d="M91 146q88 95 140 160t68 121q6 20 6 38q0 46 -43 46q-33 0 -62 -35.5t-56 -89.5q-7 -4 -29 5.5t-39.5 30.5t-17.5 51q0 12 5 30q22 75 85 109t142 34l23 -1q73 -4 116.5 -49.5t43.5 -115.5q0 -57 -31 -120q-27 -52 -98.5 -127.5t-155.5 -144.5q74 9 151 26.5t172 42.5
q-9 -59 -26.5 -96.5t-60.5 -61t-122 -25.5l-45 -1q-217 0 -217 78q0 38 51 95z" />
    <glyph glyph-name="three" unicode="3" horiz-adv-x="510" 
d="M356 352q59 -12 86.5 -47.5t27.5 -82.5q0 -29 -9 -56q-14 -42 -49 -87t-98.5 -77t-154.5 -31q-44 1 -77 46t-42 100q131 2 200 21t86 38q13 18 13 35q0 30 -37 35q-50 8 -96 8q-48 0 -74 -9q-3 15 -3 33q0 42 17 51q20 7 53 15q39 29 59.5 51.5t28.5 44.5q4 12 4 25
q0 32 -41 31q-36 -5 -175 -76q-2 18 -2 35q0 39 8 77t26 55q31 29 77 43t93 14q52 0 80 -15q33 -19 55 -48.5t22 -68.5t-22 -82q-21 -41 -63 -77z" />
    <glyph glyph-name="four" unicode="4" horiz-adv-x="533" 
d="M493 294q-4 -49 -10.5 -75t-28.5 -43.5t-67 -24.5l-17 -2l-7 -176q-32 9 -57.5 51.5t-40.5 114.5q-47 -5 -60 -5q-14 -1 -39 -1q-62 0 -94.5 20.5t-32.5 72.5q0 33 15 82q23 79 58.5 143t77 101t82.5 37q-3 -9 -47 -154q-23 -70 -42 -136q-4 -14 -4 -21q0 -28 35 -28
q4 0 20 2l17 3q-2 38 -2 62q0 58 6 125q3 37 19.5 81.5t48 79.5t78.5 42q-14 -99 -25 -370z" />
    <glyph glyph-name="five" unicode="5" horiz-adv-x="470" 
d="M290 381q68 0 104 -49.5t36 -122.5q0 -51 -19 -103q-22 -59 -76 -94.5t-115 -35.5q-66 0 -116 44t-64 132q67 -37 127 -37q40 0 69.5 17t44.5 42.5t15 51.5q0 25 -14.5 41t-41.5 16q-43 0 -72 -35l-2 -33q-59 -6 -84.5 70.5t-25.5 225.5q0 57 11.5 84t33 35t65.5 13l37 5
l-5 -36l-3 -24l202 29q4 -32 4 -47q0 -45 -21 -72.5t-73 -29.5q-67 -2 -123 9l-11 -135q51 39 117 39z" />
    <glyph glyph-name="six" unicode="6" horiz-adv-x="491" 
d="M420 426q-30 49 -63 76t-72 27q-59 0 -84 -56.5t-22 -170.5q9 31 37 54t59 31q22 5 37 5q67 0 101.5 -57t34.5 -139q0 -66 -24 -116t-68 -78t-103 -28q-107 0 -160 86.5t-53 217.5q0 27 1 40q10 131 62 217t144 107q23 5 43 5q43 0 80 -18.5t59 -50t22 -68.5
q0 -41 -31 -84zM178 196q4 -42 23.5 -73t52.5 -31q6 0 10 1q30 4 48 38t18 75q0 37 -16 62.5t-46 25.5q-34 0 -57.5 -27.5t-32.5 -70.5z" />
    <glyph glyph-name="seven" unicode="7" horiz-adv-x="537" 
d="M350 620q34 23 79 23q30 0 68 -11q-39 -94 -124 -326t-120 -333q-56 26 -56 131q0 43 10 101q7 41 32 139t45 164q-47 -16 -117 -26q-20 -2 -28 -2q-39 0 -59 16t-28 41.5t-12 66.5l165 9q97 4 145 7z" />
    <glyph glyph-name="eight" unicode="8" horiz-adv-x="525" 
d="M485 175q3 -108 -56 -155t-157 -47q-99 0 -165.5 39.5t-66.5 141.5q0 58 31.5 100.5t80.5 69.5q-41 18 -65 55t-24 87q0 46 22.5 85.5t64 65t97.5 28.5l23 1q88 0 133.5 -41.5t50.5 -119.5q4 -49 -18.5 -87.5t-65.5 -62.5q51 -20 82.5 -62t32.5 -98zM247 535
q-18 -2 -31 -18.5t-13 -39.5q0 -6 2 -16q4 -25 21.5 -42t28.5 -18q7 -1 21.5 7t25.5 24t11 37q2 29 -10.5 48t-40.5 19q-10 0 -15 -1zM328 154q3 29 -8 54.5t-29 40t-35 12.5q-29 -1 -47 -37t-15 -78q1 -29 21.5 -42t40.5 -13q36 0 52 16t20 47z" />
    <glyph glyph-name="nine" unicode="9" horiz-adv-x="505" 
d="M71 197q72 -95 154 -95q10 0 26 2q33 5 49 34.5t21 69t6 98.5q-12 -21 -36.5 -40.5t-59.5 -32.5q-29 -10 -57 -10q-61 0 -97.5 46t-36.5 121q0 63 28 135q21 56 74.5 88t112.5 30q112 -6 161 -86t49 -210q0 -30 -1 -45q-8 -158 -53.5 -235t-140.5 -92q-16 -3 -33 -3
q-49 0 -88 22.5t-61 62.5t-22 91q0 21 5 49zM323 426q-3 44 -20 72.5t-50 25.5q-35 -7 -56 -51q-16 -31 -16 -64q0 -30 14 -50.5t38 -20.5l9 1q24 2 42 22t39 65z" />
    <glyph glyph-name="colon" unicode=":" horiz-adv-x="229" 
d="M189 335q0 -17 -4 -30q-5 -14 -15 -24q-23 -22 -55 -22q-33 0 -55 22q-8 8 -16 24q-3 15 -3 30q0 34 19 53q22 22 55 22q32 0 55 -22q19 -19 19 -53zM188 48q0 -18 -5 -29q-2 -12 -14 -24q-23 -22 -55 -22t-55 22q-11 11 -16 24q-3 14 -3 29q0 33 19 53q23 23 55 23
t55 -23q19 -20 19 -53z" />
    <glyph glyph-name="semicolon" unicode=";" horiz-adv-x="232" 
d="M190 332q0 -16 -5 -29q-3 -12 -15 -24q-22 -22 -54 -22q-33 0 -55 22q-10 10 -16 24q-1 4 -3 13t-2 16q0 31 21 54q24 22 55 22q30 0 54 -22q20 -22 20 -54zM192 25q0 -41 -35 -79q-34 -38 -70 -38q-13 0 -16 9q-1 2 1 7q4 4 5 4q1 1 3.5 2.5t5.5 4.5l10 10q11 11 11 18
q0 4 -1.5 5t-6.5 1q-17 0 -37 15q-20 18 -20 50q0 28 20 51q22 22 54 22q36 0 59 -26q17 -27 17 -56z" />
    <glyph glyph-name="less" unicode="&#x3c;" horiz-adv-x="464" 
d="M420 461q3 -10 3 -20q0 -25 -20 -42l-218 -100l207 -95q27 -17 27 -44q0 -4 -2 -16q-15 -37 -48 -37q-19 0 -39 10l-251 117q-14 7 -27 26q-13 17 -13 35v6q0 18 13 35q11 18 27 26l270 128q11 4 22 4q31 0 49 -33z" />
    <glyph glyph-name="equal" unicode="=" horiz-adv-x="526" 
d="M39 457q16 -1 59 -1q122 0 316 9l70 2q1 -3 1 -11q0 -38 -52 -68t-181 -30q-82 0 -145 24.5t-68 74.5zM39 232q14 -1 51 -1q118 0 394 12q1 -3 1 -11q0 -38 -52 -68t-181 -30q-82 0 -145 24.5t-68 73.5z" />
    <glyph glyph-name="greater" unicode="&#x3e;" horiz-adv-x="464" 
d="M43 139q-3 11 -3 20q0 24 19 42l219 100l-207 95q-28 17 -28 43q0 9 3 18q15 37 47 37q16 0 40 -11l252 -116q15 -8 26 -26q13 -19 13 -35v-7q0 -16 -13 -36q-11 -17 -26 -25l-271 -127q-11 -4 -23 -4q-31 0 -48 32z" />
    <glyph glyph-name="question" unicode="?" horiz-adv-x="459" 
d="M40 486q9 39 39.5 66.5t78.5 39.5q39 9 74 9q65 0 112.5 -27t65.5 -72q8 -21 8 -43q0 -62 -66 -116l-25 -20q-32 -24 -48 -41.5t-17 -40.5l-4 -53q-1 -8 -14 -19.5t-33.5 -20t-41.5 -8.5q-5 0 -17 2q1 5 -1 62l-1 40q-4 40 16.5 66.5t67.5 61.5q62 47 62 87q0 25 -21 35
q-22 13 -48 13q-35 0 -63 -20q-18 -12 -57 -76q-22 7 -47 27q-12 9 -17.5 24t-2.5 24zM208 -27q-34 0 -57 23t-23 56q0 34 23 57t57 23q33 0 56.5 -23t23.5 -57q0 -33 -23.5 -56t-56.5 -23z" />
    <glyph glyph-name="at" unicode="@" horiz-adv-x="745" 
d="M187 145q71 -79 220 -79q66 0 122.5 16.5t88 30l38.5 16.5q-5 -25 -35 -57t-85 -55.5t-130 -23.5q-82 0 -172 29q-99 32 -146.5 109t-47.5 174q1 78 44 147.5t122 112t182 42.5q107 0 182.5 -44t108.5 -119q26 -57 26 -123q0 -80 -39 -136t-112 -56q-72 0 -99 58
q-41 -40 -99 -50q-18 -3 -34 -3q-52 0 -84 33t-32 101q0 42 20.5 86.5t54 75.5t69.5 36q4 1 11 1q40 0 81 -39l-2 46q12 0 35 -3t35 -6q10 -4 12.5 -8.5t2.5 -16.5l-3 -179q-1 -25 4 -38.5t25 -17.5q19 -4 41 14t29 51q0 2 2 15t2 32q0 80 -48.5 147.5t-183.5 76.5l-16 1
q-64 0 -123 -34t-95 -90t-36 -119q0 -83 64 -154zM382 229q31 17 59 38v9q1 30 1 78q-8 12 -18 18.5t-29 4.5q-29 -4 -50.5 -44.5t-21.5 -80.5q0 -36 21 -36q7 0 17.5 4t20.5 9z" />
    <glyph glyph-name="A" unicode="A" 
d="M401 564q23 -49 42.5 -89t34.5 -73q111 -229 172 -368q-18 -14 -55.5 -30t-54.5 -18q-14 -2 -18 -2q-12 0 -22 7.5t-21 25.5q-27 46 -68 185q-20 -22 -76 -22q-37 0 -74 4q-9 -21 -23 -48q-40 -75 -94.5 -118t-103.5 -45q63 164 113 312t115 360q29 -1 58 -7t37 -7
q22 -7 31 -18.5t9 -28.5q0 -6 -2 -20zM385 302q-23 91 -34 166l-8 -29q-5 -16 -17.5 -63t-25.5 -86z" />
    <glyph glyph-name="B" unicode="B" horiz-adv-x="559" 
d="M420 372q51 -11 75 -42.5t24 -75.5q0 -20 -5 -43q-10 -43 -39 -92.5t-82.5 -88t-129.5 -43.5q-28 -1 -49 13.5t-43 42.5l-3 -70q-32 8 -61.5 59.5t-48 140.5t-18.5 203q0 59 6 123q5 59 45.5 101t112.5 45l-5 -56q32 17 68 27t65 11q77 4 105 -24.5t33 -77.5
q3 -30 -10.5 -72.5t-39.5 -80.5zM300 545q-31 3 -105 -29q-4 -53 -10 -178q35 12 82 23q19 39 34 76t19 56q6 22 6 30q0 19 -26 22zM371 221q13 17 13 29q0 19 -34 16q-22 -1 -75.5 -7.5t-94.5 -14.5l-6 -140q77 24 129 57t68 60z" />
    <glyph glyph-name="C" unicode="C" horiz-adv-x="556" 
d="M479 415q-26 39 -57 66t-83 27q-7 0 -23 -2q-56 -8 -89.5 -64t-37.5 -160q-2 -78 23.5 -122.5t65.5 -47.5q72 -4 131.5 30.5t95.5 107.5q11 -39 11 -77q0 -27 -4 -44q-21 -84 -77 -120t-132 -36q-20 0 -30 1q-69 5 -123.5 47t-83.5 119t-25 180q4 84 43 153t98.5 112.5
t125.5 55.5q25 4 53 4q72 0 114 -36q17 -14 26 -37.5t9 -51.5t-8 -55.5t-23 -49.5z" />
    <glyph glyph-name="D" unicode="D" horiz-adv-x="617" 
d="M362 594q47 17 88 17q62 0 94.5 -42t32.5 -116q0 -33 -8 -78q-52 -293 -292 -381q-11 -4 -24 -4q-34 0 -70 32l-2 -49q-31 8 -64 70.5t-55 157.5t-22 194q0 56 7 105q10 70 51.5 105.5t118.5 40.5q-5 -49 -8 -104l-3 -38q30 26 71.5 50.5t84.5 39.5zM419 384q11 42 11 64
q0 48 -43 48q-15 0 -36 -6q-33 -8 -73 -29.5t-77 -49.5q-9 -175 -13 -272q-2 -24 -2 -34q100 59 155.5 133t77.5 146z" />
    <glyph glyph-name="E" unicode="E" horiz-adv-x="508" 
d="M181 94q9 1 196 27l91 13q-8 -56 -26 -104q-12 -34 -30.5 -46t-62.5 -12q-10 0 -44 2q-50 1 -129 17l-1 -27q-55 15 -95 96t-40 246q0 69 7 143q9 90 52 144t117 57q-2 -29 -4 -43l31 5q35 5 97.5 15t119.5 18q-4 -50 -22 -100q-11 -33 -31.5 -45t-66.5 -12q-11 0 -43 2
q-33 1 -92 14q-6 -72 -8 -125l71 11l129 19q-3 -52 -21 -100q-12 -33 -33.5 -45t-72.5 -12q-23 0 -36 1q-31 2 -44 4q-6 -85 -9 -163z" />
    <glyph glyph-name="F" unicode="F" horiz-adv-x="505" 
d="M465 638q2 -33 -12 -84q-8 -29 -20 -42.5t-36.5 -20t-75.5 -9.5q-30 -3 -73 -3l-48 1q-2 -37 -8 -117q150 19 209 28q-3 -52 -19 -96q-11 -30 -29 -40.5t-60 -10.5q-22 0 -36 1q-26 0 -71 5q-13 -209 -15 -277q-38 10 -66.5 42t-46.5 110t-18 216q0 51 3 112
q2 40 23.5 84.5t60 75t86.5 32.5l-4 -49q100 20 256 42z" />
    <glyph glyph-name="G" unicode="G" horiz-adv-x="636" 
d="M596 379q-7 -60 -25 -91.5t-53 -45.5q0 -85 2 -168.5t5 -112.5q-99 5 -123 76q-27 -31 -61.5 -47t-72.5 -16q-61 0 -112.5 31t-83.5 99t-32 173q0 32 3 68q7 84 47 150.5t101 105.5t129 46q14 1 40 1q54 0 96 -9.5t60 -23.5q29 -25 29 -81q0 -34 -10.5 -69t-27.5 -59
q-4 4 -9.5 10t-12.5 15q-38 45 -70 72t-70 27q-5 0 -17 -2q-61 -14 -98.5 -56t-44.5 -136q-1 -9 -1 -27q0 -53 13.5 -100t34.5 -75.5t44 -28.5q39 0 75.5 30t63.5 68q2 8 8 24q-57 -1 -102.5 18.5t-68.5 61.5q46 8 176 37q39 8 81.5 17t86.5 18z" />
    <glyph glyph-name="H" unicode="H" horiz-adv-x="607" 
d="M392 501q19 139 175 144q-10 -110 -22 -353.5t-13 -316.5q-26 7 -55 53t-52.5 119t-33.5 155q-42 -27 -106 -27q-48 0 -87 14q-10 -240 -12 -316q-32 9 -66 72.5t-57 159t-23 195.5q0 54 7 100q18 138 174 143q-7 -69 -18 -256l68 8q74 8 114 13q2 52 7 93z" />
    <glyph glyph-name="I" unicode="I" horiz-adv-x="262" 
d="M222 645q-9 -107 -20 -332t-16 -340q-31 8 -65.5 72t-57.5 160t-23 195q0 53 7 99q10 71 54 106.5t121 39.5z" />
    <glyph glyph-name="J" unicode="J" horiz-adv-x="521" 
d="M481 645q-9 -71 -35 -107.5t-88 -53.5q3 -9 3 -18q0 -5 -1 -14.5t0 -16.5l1 -44q2 -90 2 -139q0 -51 -1 -71q-2 -83 -18.5 -125t-60.5 -65q-12 -6 -33 -10.5t-45 -4.5q-65 0 -113.5 39.5t-51.5 134.5q89 -53 127 -53q31 0 37 34q11 81 11 261v82q-47 8 -83 32.5t-57 61.5
l152 29q47 9 129 25t125 23z" />
    <glyph glyph-name="K" unicode="K" horiz-adv-x="609" 
d="M361 350q33 -56 96 -151q84 -127 112 -181q-78 -30 -125 -30h-31t-41.5 22.5t-32.5 70.5l-8 24l-52 164q-60 -58 -84 -80l-12 -185l-2 -31q-31 8 -64 69t-55 153.5t-22 189.5q0 54 7 100q10 67 56.5 102.5t124.5 39.5l-15 -181l-6 -82q40 50 37 46q136 164 189 235
q23 -16 43.5 -38t29.5 -46q6 -15 6 -28q0 -22 -17.5 -45.5t-61.5 -66.5z" />
    <glyph glyph-name="L" unicode="L" horiz-adv-x="522" 
d="M251 104q57 10 117 20.5t114 20.5q-8 -55 -18 -88.5t-30 -54t-55 -26.5q-20 -2 -34 -2q-37 0 -79.5 7.5t-79.5 21.5l-2 -38q-78 21 -111 120t-33 230q0 85 10 153q11 75 56.5 124.5t119.5 52.5q-8 -84 -18.5 -248.5t-17.5 -302.5z" />
    <glyph glyph-name="M" unicode="M" horiz-adv-x="712" 
d="M621 558q27 -61 39 -158.5t12 -193.5q0 -51 -3 -83q-5 -50 -19 -78.5t-42 -44t-78 -23.5l20 423l-74 -176l-54 -130l28 -65q-47 -38 -80 -38q-26 0 -49 22.5t-45 73.5q-19 46 -50 144.5t-49 188.5q0 -32 -1 -48q-2 -260 -8 -398q-69 17 -98.5 65.5t-29.5 125.5
q0 75 14.5 186t46.5 199t82 95q19 -51 193 -445q13 87 44.5 188t59.5 169q18 45 39 66t50 21q32 0 81 -28q-19 -35 -29 -58z" />
    <glyph glyph-name="N" unicode="N" horiz-adv-x="570" 
d="M387 639q48 -6 79 -24.5t47.5 -58t16.5 -108.5q0 -27 -1 -42q-3 -63 -20.5 -156t-46.5 -157q22 -42 38 -80q-14 -13 -33.5 -21t-41.5 -8q-32 0 -60.5 21.5t-49.5 71.5l-20 46q-89 194 -122 299q0 -67 -1 -101q0 -240 -4 -347q-60 10 -94 119.5t-34 289.5v36
q1 73 9.5 118.5t38 76t90.5 31.5q13 -37 133 -262l76 -143v78l-1 249q0 56 1 72z" />
    <glyph glyph-name="O" unicode="O" horiz-adv-x="649" 
d="M317 -27q-84 0 -146.5 37.5t-96.5 108.5t-34 169q0 91 32.5 169.5t93.5 128.5t142 58q30 2 42 2q126 0 187.5 -81.5t70.5 -233.5q5 -113 -30 -193.5t-103 -122.5t-158 -42zM315 515q-59 0 -92.5 -59t-33.5 -158q0 -87 30.5 -138t87.5 -51q74 0 112.5 42t38.5 145
q0 118 -31 169t-95 51z" />
    <glyph glyph-name="P" unicode="P" horiz-adv-x="540" 
d="M288 644q26 2 37 2q86 0 130.5 -45.5t44.5 -116.5q0 -62 -31 -121q-29 -55 -79.5 -91.5t-102.5 -49.5q-8 -2 -13 -2q-35 0 -67 34q4 -90 7 -132l7 -149q-84 10 -129 43.5t-45 103.5q1 77 28.5 177.5t68.5 190.5q-60 -31 -87 -59l-9.5 38t-7.5 53q0 17 6 26q20 32 96.5 61
t145.5 37zM357 430q25 30 25 62q0 24 -16 40t-45 16q-12 0 -27 -3q-39 -8 -99 -33l8 -182q113 50 154 100z" />
    <glyph glyph-name="Q" unicode="Q" horiz-adv-x="585" 
d="M502 51q20 -20 20 -45q0 -52 -102 -115l-48 101q-49 -20 -103 -20l-22 1q-61 4 -109.5 46.5t-74.5 118t-22 174.5q3 83 38 157t88.5 121t110.5 52q24 2 34 2q115 0 174 -90.5t59 -251.5q0 -70 -17 -127.5t-48 -99.5zM279 93q20 0 41 8l-72 152q72 -31 140 -89
q26 50 26 120q0 43 -14 99.5t-40.5 97.5t-61.5 41q-5 0 -13 -2q-49 -14 -80 -82t-31 -172q0 -47 14 -85.5t36 -61t44 -25.5z" />
    <glyph glyph-name="R" unicode="R" horiz-adv-x="626" 
d="M391 281q121 -137 195 -211q-13 -25 -40 -48t-53 -35q-16 -8 -26 -8q-14 0 -36 19q-32 30 -71 100.5t-67 146.5h-4q-5 -1 -16 -1q-46 0 -76 33q6 -146 15 -304q-78 7 -120.5 47.5t-42.5 113.5q1 82 27.5 185.5t67.5 188.5q-68 -26 -97 -55q-1 6 -4 27.5t-3 41.5
q0 29 9 41q19 30 94 53t148 29q30 2 42 2q93 0 138.5 -40.5t45.5 -105.5q0 -61 -35 -125q-31 -59 -91 -95zM194 328q63 24 102 49.5t63 57.5q26 36 26 67q0 22 -15 35t-47 13q-6 0 -26 -2q-56 -8 -110 -25q2 -72 6 -163z" />
    <glyph glyph-name="S" unicode="S" horiz-adv-x="519" 
d="M64 369q-24 45 -24 96q0 68 41 119.5t114 60.5q28 2 42 2q114 0 171 -61q30 -33 30 -92q0 -48 -19 -97q-40 42 -93 79.5t-90 37.5q-24 0 -37.5 -11.5t-13.5 -29.5q0 -26 26 -49q21 -18 43 -30.5t52 -27.5q55 -28 78 -44q47 -31 71 -74.5t24 -91.5q0 -46 -23 -87
t-68 -67.5t-108 -30.5q-54 -4 -109.5 21t-92.5 74.5t-37 117.5q0 19 5 46q131 -126 204 -131q29 -1 47.5 12.5t18.5 33.5q0 28 -35 50l-48 27q-65 37 -104.5 67.5t-64.5 79.5z" />
    <glyph glyph-name="T" unicode="T" horiz-adv-x="639" 
d="M599 645q-9 -51 -27.5 -80.5t-61.5 -48.5t-124 -31l2 -70q10 -328 22 -442q-78 3 -126 44.5t-49 109.5q-2 99 14.5 193t51.5 144l9 12l-26 -1q-84 0 -148 25.5t-96 69.5q122 15 292.5 38t266.5 37z" />
    <glyph glyph-name="U" unicode="U" horiz-adv-x="582" 
d="M213 641q-17 -171 -24 -432q-1 -63 24.5 -87t60.5 -24q41 0 63.5 13t31.5 38t12 68q3 46 5 157q2 100 4 148t18.5 74t48 36.5t85.5 12.5q-8 -89 -12 -316l-3 -128q-3 -120 -71.5 -175t-182.5 -55l-27 1q-206 7 -206 267q0 81 6 219q2 46 2 59q6 124 165 124z" />
    <glyph glyph-name="V" unicode="V" horiz-adv-x="646" 
d="M606 582q-43 -83 -128.5 -263.5t-135.5 -292.5q5 -23 13 -48q-26 -4 -40 -4q-30 0 -55.5 17t-49.5 63q-35 70 -95.5 220.5t-71.5 213.5q-3 17 -3 29q0 34 17 55t42 34t85 39q29 -126 105 -420q29 114 99 303q16 42 45.5 64t68.5 22q49 0 104 -32z" />
    <glyph glyph-name="W" unicode="W" horiz-adv-x="852" 
d="M678 645q58 -27 81 -39.5t38 -33t15 -52.5q0 -15 -3 -33q-12 -66 -53.5 -177.5t-73.5 -172.5q-25 -50 -61 -91q6 -18 16 -42q-55 -27 -86 -27q-29 0 -47 21.5t-32 69.5q-29 106 -42 217q-60 -153 -109 -284l6 -23q-22 -4 -36 -4q-32 0 -60.5 19t-53.5 69
q-28 53 -74.5 199.5t-59.5 219.5q-3 18 -3 33q0 32 15 52.5t38 33t81 39.5l18 -83q73 -322 92 -402q10 85 35.5 177.5t57.5 187.5q15 48 37 72t56 24q36 0 85 -26q-20 -45 -52 -121l15 -61q7 -26 23.5 -91t31.5 -116q75 312 105 445z" />
    <glyph glyph-name="X" unicode="X" horiz-adv-x="606" 
d="M354 310q186 -267 212 -302q-28 -15 -61 -15q-113 0 -260 191q-97 -110 -189 -209q-16 29 -16 68q0 102 123 261q-69 118 -69 218q0 70 33 123q41 -64 145 -215q69 73 128.5 113t108.5 40q31 0 56 -16q-76 -98 -211 -257z" />
    <glyph glyph-name="Y" unicode="Y" horiz-adv-x="594" 
d="M427 649q53 -1 90 -24t37 -61q0 -25 -16 -51q-20 -35 -65.5 -98t-90.5 -111q6 -139 22 -328q-7 -1 -20 -1q-40 0 -71.5 16t-50 40t-21.5 47q-3 18 -3 47q0 39 5 87t14 85q-46 49 -105 125t-112 152q15 23 53 42.5t74 19.5q49 0 68 -39q68 -140 92 -203l11 24
q30 70 51 121.5t38 109.5z" />
    <glyph glyph-name="Z" unicode="Z" horiz-adv-x="588" 
d="M253 116q143 7 295 22q-11 -77 -59 -119.5t-111 -44.5h-32q-124 0 -191 12q-58 10 -84.5 38t-30.5 84q38 0 59 1l75 127q110 185 163 284q-33 -24 -72 -38.5t-71 -14.5l-13 1q-43 3 -71 39t-34 107q91 -2 315 11l9 20q26 -12 55.5 -31.5t50.5 -34.5q24 -16 24 -38
q0 -15 -13 -38q-153 -255 -264 -387z" />
    <glyph glyph-name="bracketleft" unicode="[" horiz-adv-x="312" 
d="M252 628q0 -18 -12 -33q-11 -14 -32 -14h-3q-19 0 -33 -7q-14 -8 -14 -43v-453q0 -34 14 -43q20 -6 33 -6h3q19 0 32 -13q12 -17 12 -35t-12 -33q-12 -14 -32 -14h-89q-25 0 -41 19q-18 19 -18 46v611q0 27 18 46q16 19 41 19h89q21 0 32 -14q12 -15 12 -33z" />
    <glyph glyph-name="backslash" unicode="\" horiz-adv-x="252" 
d="M20 645q12 2 19 2q49 0 90 -46.5t54 -115.5q22 -112 35.5 -205t13.5 -171q0 -150 -60 -177q-13 68 -68 328t-84 385z" />
    <glyph glyph-name="bracketright" unicode="]" horiz-adv-x="311" 
d="M60 -19q0 21 12 33q14 15 30 15h4q17 0 33 6q15 9 15 43v453q0 34 -15 43q-10 6 -33 6h-4q-16 0 -30 15q-12 12 -12 34q0 20 12 32q13 14 30 14h89q27 0 43 -19q17 -20 17 -46v-611q0 -27 -17 -44q-17 -21 -43 -21h-89q-16 0 -30 15q-12 12 -12 32z" />
    <glyph glyph-name="asciicircum" unicode="^" horiz-adv-x="470" 
d="M238 825q4 0 7.5 -1t6.5 -2l17 -7l15 -11q7 -5 11 -11l128 -212q6 -10 6 -22q0 -10 -6 -24q-10 -27 -45 -27q-35 -3 -55 36l-34 61l-23 44l-28 51l-31 -51q-8 -13 -14.5 -26t-9.5 -18l-40 -72q-24 -36 -55 -33q-32 6 -44 27q-5 10 -5 19q0 14 10 30l126 215l11 12
q3 4 8 6.5t7 4.5q10 6 16 7q12 4 16 4h5z" />
    <glyph glyph-name="underscore" unicode="_" horiz-adv-x="1000" 
d="M236 95q90 -4 284.5 -7.5t248.5 -2.5q-7 -61 -91.5 -86.5t-196.5 -25.5q-40 0 -97.5 16.5t-101 44.5t-46.5 61z" />
    <glyph glyph-name="grave" unicode="`" horiz-adv-x="600" 
d="M76 667q24 20 51 26t51.5 0.5t41.5 -19.5q14 -12 26 -23q46 -46 58 -95t2 -87q-24 20 -50 42.5t-52 44.5q-42 37 -128 111z" />
    <glyph glyph-name="a" unicode="a" horiz-adv-x="523" 
d="M488 102q1 -38 -12 -66t-36 -42.5t-48 -14.5q-22 0 -41 11t-32 32q-41 -32 -97 -43q-25 -5 -44 -5q-62 0 -101 41.5t-42 126.5q-1 56 24.5 116t67.5 102.5t88 49.5q4 1 12 1q46 0 91 -41l4 5q15 16 43 29.5t57 13.5q9 0 13 -1v-309q0 -14 5.5 -21t14.5 -7q10 0 19.5 7
t13.5 15zM180 124q0 -43 27 -43q17 0 47 18q21 12 45 29q0 16 -2 50q0 10 -1.5 38.5t-0.5 59.5l1 16q-12 3 -25 2q-24 -3 -45 -31t-33.5 -66.5t-12.5 -72.5z" />
    <glyph glyph-name="b" unicode="b" horiz-adv-x="501" 
d="M291 360q27 10 53 10q55 0 88.5 -43t33.5 -110q0 -66 -33 -138q-26 -56 -75.5 -81t-98.5 -25q-33 0 -63 14v-48q-79 3 -120 59.5t-41 178.5q0 89 20 186t59.5 165.5t96.5 73.5q-7 -109 -10 -315q39 54 90 73zM305 127q10 18 15.5 40.5t5.5 42.5q0 26 -9 42t-27 16
q-7 0 -10 -1q-37 -9 -81 -64q-2 -108 -2 -149q36 8 62.5 24.5t45.5 48.5z" />
    <glyph glyph-name="c" unicode="c" horiz-adv-x="428" 
d="M364 233q-5 4 -25 21.5t-45 30t-50 12.5q-9 0 -13 -1q-29 -3 -56 -25t-28 -69q0 -57 25.5 -85t58.5 -28q39 0 79.5 19.5t63.5 64.5q8 -29 8 -56q0 -16 -3 -30q-15 -60 -60 -87t-105 -27q-81 0 -130.5 51t-49.5 154q0 11 2 37q7 80 61 134t129 67q23 4 45 4q60 0 101 -33
q21 -15 21 -58q0 -25 -8 -51.5t-21 -44.5z" />
    <glyph glyph-name="d" unicode="d" horiz-adv-x="509" 
d="M474 124q3 -50 -16 -84.5t-46 -51.5t-46 -17q-27 0 -42.5 18t-22.5 60q-38 -45 -95 -65q-29 -11 -58 -11q-53 0 -83 39t-30 104q0 64 30 137q27 65 73 95t93 37q12 2 17 2q27 0 48 -19q0 35 2 119q1 49 32.5 76.5t78.5 27.5q7 0 23 -2q0 -302 -5 -455q-1 -27 15 -27
q12 0 32 17zM217 84q40 10 78 48v13q1 38 1 109q-33 25 -64 25q-25 0 -39 -18q-12 -15 -18 -40.5t-6 -52.5q0 -39 12.5 -64.5t35.5 -19.5z" />
    <glyph glyph-name="e" unicode="e" horiz-adv-x="442" 
d="M186 130q22 -29 74 -29q33 0 69.5 11t63.5 27q5 -25 5 -43q0 -77 -79 -107q-39 -15 -85 -15q-61 0 -111 29t-70 86q-18 51 -18 100q0 58 24 107t69 81t104 39q18 2 26 2q50 0 85 -25t47 -55q17 -42 17 -76q0 -37 -22 -61.5t-68 -30.5q-32 -4 -64 -4q-58 0 -92 15
q7 -28 25 -51zM209 309q-16 -8 -28.5 -26.5t-19.5 -41.5l123 20q-2 20 -19 36.5t-37 16.5q-12 0 -19 -5z" />
    <glyph glyph-name="f" unicode="f" horiz-adv-x="502" 
d="M467 412q-30 36 -61 55.5t-55 19.5q-15 0 -25 -7.5t-12 -22.5q-4 -25 -6 -102q75 11 119 18q-8 -49 -37 -75t-82 -40l3 -127q3 -96 3 -163q-5 -1 -15 -1q-29 0 -57.5 15.5t-47 43t-19.5 59.5l-3 157q-93 8 -137 74l137 20v76q2 71 26 111t70 57q34 13 68 13
q55 0 91.5 -41.5t39.5 -139.5z" />
    <glyph glyph-name="g" unicode="g" horiz-adv-x="493" 
d="M347 358q31 42 111 49q0 -61 -1 -99q0 -220 -4 -319q-1 -84 -36.5 -129t-95.5 -58q-22 -5 -52 -5q-50 0 -100 14.5t-84.5 47t-34.5 85.5q0 8 2 24q112 -64 184 -64q19 0 27 2q33 5 45 33t11 84q0 23 1 41q-46 -31 -98 -38q-28 -4 -42 -4q-65 0 -105 36.5t-40 110.5
q0 51 28.5 110t73.5 99t92 40q58 0 118 -60zM254 127q34 18 69 41q1 47 6 127q-12 12 -22 18t-26 6l-11 -1q-23 -3 -43.5 -32t-33 -68.5t-12.5 -68.5q0 -37 27 -37q18 0 46 15z" />
    <glyph glyph-name="h" unicode="h" horiz-adv-x="456" 
d="M414 340q7 -34 7 -92q0 -71 -10.5 -139.5t-27.5 -95.5q-21 -33 -64 -33q-30 0 -62 13q17 48 26.5 133.5t9.5 129.5q0 31 -24 31q-9 0 -14 -2q-12 -4 -29.5 -18t-44.5 -39q-3 -178 -3 -257q-90 5 -116.5 117t-26.5 270v63q0 49 18.5 99.5t54.5 85.5t85 39
q-7 -120 -10 -320q55 64 88 79q31 14 59 14q35 0 56 -22.5t28 -55.5z" />
    <glyph glyph-name="i" unicode="i" horiz-adv-x="266" 
d="M37 587q22 12 52.5 20t58.5 8q36 0 58 -14q25 -16 25 -48q0 -25 -15.5 -52t-43.5 -48q-33 32 -61 61q-34 35 -74 73zM195 418q-13 -167 -18 -248q-4 -51 -7.5 -101t-7.5 -96q-51 29 -89 92.5t-38 159.5q0 23 3 50q3 32 22.5 63.5t54 53.5t80.5 26z" />
    <glyph glyph-name="j" unicode="j" horiz-adv-x="224" 
d="M-6 586q20 11 50.5 19.5t58.5 8.5q38 0 60 -15q24 -16 24 -48q0 -25 -15.5 -51.5t-43.5 -47.5q-24 22 -60 60q-43 45 -74 74zM52 315q1 49 32 77t78 28q8 0 24 -2l1 -150q2 -110 2 -167q0 -47 -2 -125q-3 -78 -17.5 -113.5t-56.5 -54.5q-20 -10 -57 -10
q-62 0 -115.5 40.5t-70.5 137.5q102 -51 150 -51q30 0 30 23l-1 131q0 125 3 236z" />
    <glyph glyph-name="k" unicode="k" horiz-adv-x="480" 
d="M304 227q22 -39 51.5 -83t37.5 -57q37 -55 52 -80q-59 -23 -103 -26l-17 -1q-23 0 -36 12t-27 49l-17 52q-22 63 -31 96l-42 -17q-4 -155 -8 -199q-37 19 -64 51t-46 105t-19 198q0 62 4 122q3 49 41 89.5t105 46.5q-4 -47 -6.5 -137.5t-3.5 -117.5q0 -41 -1 -62l41 30
q90 66 152 116q19 -20 32.5 -45.5t13.5 -50.5q0 -13 -5.5 -23t-19.5 -20q-26 -20 -84 -48z" />
    <glyph glyph-name="l" unicode="l" horiz-adv-x="377" 
d="M167 452q0 -262 11 -337q4 -30 35 -30q21 0 52.5 12.5t76.5 36.5q-3 -88 -47.5 -124.5t-104.5 -36.5q-21 0 -41.5 4.5t-33.5 10.5q-43 21 -60 59t-19 115q-1 17 -1 72q0 58 2 164l1 93q0 6 -0.5 17.5t2 19.5t9.5 15q16 17 46 32.5t59 15.5q9 0 13 -1v-138z" />
    <glyph glyph-name="m" unicode="m" horiz-adv-x="668" 
d="M620 340q13 -63 13 -160q0 -54 -5.5 -98.5t-16.5 -66.5q-10 -20 -35.5 -30t-56.5 -10q-30 0 -51 8q20 130 20 257q0 47 -25 47q-5 0 -8 -1q-13 -3 -25.5 -18t-31.5 -42q1 -15 1 -44q0 -126 -22 -169q-17 -32 -66 -32q-34 0 -66 13q19 129 19 245q0 46 -23 46q-3 0 -9 -2
q-13 -3 -27 -19t-31 -42q-7 -179 -5 -249q-45 2 -76 37.5t-42 101.5q-7 45 -11.5 97t-4.5 91q0 55 38 82.5t109 35.5l-4 -85q37 54 71 69q33 15 58 15q33 0 52.5 -22t26.5 -57l3 -19q22 33 41 53.5t42 30.5q33 15 60 15q36 0 59 -22.5t29 -55.5z" />
    <glyph glyph-name="n" unicode="n" horiz-adv-x="461" 
d="M415 338q11 -57 11 -151q0 -57 -5 -104t-16 -70q-17 -31 -73 -31q-41 0 -70 12q18 129 18 245q1 20 -6.5 35.5t-26.5 10.5q-15 -5 -29.5 -23t-33.5 -47l-2 -78q-3 -75 -3 -129l1 -35q-47 3 -83.5 39t-47.5 100q-6 45 -10 97.5t-4 91.5q0 101 157 117q-2 -67 -4 -92
q41 59 76 76q35 15 60 15q37 0 60.5 -23t30.5 -56z" />
    <glyph glyph-name="o" unicode="o" horiz-adv-x="481" 
d="M207 -26q-48 3 -87.5 29t-62 72.5t-22.5 107.5q0 57 28.5 107.5t75 83.5t96.5 40q21 3 41 3q81 0 122.5 -55.5t47.5 -154.5q4 -77 -26 -131t-85.5 -80t-127.5 -22zM240 306q-40 -6 -56.5 -35t-15.5 -96q0 -38 17 -64t39 -30q8 -2 23 -2q72 0 72 106q-1 50 -19.5 88
t-59.5 33z" />
    <glyph glyph-name="p" unicode="p" horiz-adv-x="471" 
d="M302 412q42 0 72.5 -34t46 -86.5t15.5 -107.5q0 -35 -6 -64q-13 -61 -49 -93t-83 -32q-41 0 -80 24q-23 14 -45 47q-7 -228 -6 -273q-50 12 -78.5 53.5t-41 114t-12.5 186.5t37.5 177.5t114.5 92.5l-3 -54q67 49 118 49zM284 128q11 42 11 90q0 44 -12 73t-38 30
q-19 0 -64 -35l-3 -87q19 -42 42 -71q20 -26 39 -26q17 0 25 26z" />
    <glyph glyph-name="q" unicode="q" horiz-adv-x="480" 
d="M336 354q41 44 109 50q-5 -57 -7.5 -173t-3.5 -147q-1 -30 -3.5 -138t-6.5 -154q-31 16 -55 40t-43.5 75t-26.5 134q-42 -26 -88 -33q-20 -4 -45 -4q-60 0 -95.5 34t-35.5 105q0 52 23 114.5t62 107.5t83 51q5 1 14 1q58 0 119 -63zM242 114q31 15 52 30q0 48 5 125
q2 16 6 33q-17 14 -45 11q-25 -3 -46.5 -35t-34 -75t-10.5 -73q3 -31 27 -31q18 0 46 15z" />
    <glyph glyph-name="r" unicode="r" horiz-adv-x="426" 
d="M387 324q4 -8 4 -18q0 -20 -22 -34q-33 -20 -84.5 -41t-99.5 -30q-6 -166 -11 -228q-32 2 -64 31t-53.5 86t-21.5 137q0 34 2 52q3 31 22.5 61.5t54.5 52t81 25.5q-4 -44 -8 -146l125 146q29 -25 48.5 -51t26.5 -43z" />
    <glyph glyph-name="s" unicode="s" horiz-adv-x="413" 
d="M49 229q-14 25 -14 51q0 30 17 59.5t47 49.5t67 24q21 3 42 3q40 0 74.5 -11t56.5 -30q20 -17 20 -53q0 -22 -7 -46.5t-16 -41.5q-28 42 -63 66t-68 23q-20 -2 -33.5 -11t-13.5 -20q0 -13 20 -22l29 -13q27 -12 54 -25.5t53 -30.5q29 -17 46.5 -48t17.5 -65
q0 -46 -36 -79.5t-109 -37.5q-40 -2 -84.5 10.5t-76 41t-31.5 71.5q0 36 24 77q50 -50 83 -73.5t65 -23.5q19 0 28.5 5.5t9.5 13.5q0 13 -18 22q-23 12 -56 25q-50 22 -78.5 39.5t-49.5 49.5z" />
    <glyph glyph-name="t" unicode="t" horiz-adv-x="473" 
d="M292 142q3 -36 34 -36q22 0 52.5 16t59.5 41q-1 -101 -48.5 -144.5t-108.5 -43.5q-36 0 -58 12q-43 26 -59.5 71.5t-20.5 139.5v58q-37 8 -63.5 31t-44.5 62l111 24q1 25 1 74q0 75 37.5 110.5t86.5 35.5q7 0 21 -2q0 -55 -2 -185l124 29q-7 -68 -38 -107.5t-87 -58.5
q0 -74 3 -127z" />
    <glyph glyph-name="u" unicode="u" horiz-adv-x="504" 
d="M469 105q1 -39 -14.5 -68.5t-41.5 -45.5t-54 -16q-29 0 -52 17.5t-33 51.5q-34 -28 -74 -45.5t-66 -17.5q-9 0 -12 1q-46 12 -64.5 53t-21.5 121l-1 36q0 15 2 57q0 8 2 50q1 31 22.5 55t53.5 37t62 13q9 0 13 -1q0 -48 -2 -112l-1 -71q0 -37 3 -82q1 -24 19 -24
q19 0 59 27l3 171q1 30 20.5 54t49 37t58.5 13q12 0 18 -1v-304q0 -26 19 -26q10 0 19.5 6t13.5 14z" />
    <glyph glyph-name="v" unicode="v" horiz-adv-x="486" 
d="M451 377q-41 -75 -101 -200t-94 -198l2 -5q-6 -1 -18 -1q-73 0 -123 74.5t-75 170.5q-7 27 -7 57q0 47 21.5 85t65.5 57q-1 5 25 -83q49 -165 75 -249q-1 57 11.5 124t27.5 106q16 39 45.5 61.5t67.5 22.5q37 0 77 -22z" />
    <glyph glyph-name="w" unicode="w" horiz-adv-x="660" 
d="M625 394q-24 -62 -75 -187q-67 -163 -84 -211l3 -8q-34 -15 -62 -15q-33 0 -55.5 18t-32.5 50q-11 37 -15 91l-17 -41q-22 -50 -42 -101q0 -4 2 -8q-6 -2 -19 -2q-43 0 -83 44t-68.5 107.5t-39.5 118.5q-2 14 -2 22q0 44 28 85t73 59l22 -88q10 -38 23.5 -93.5
t31.5 -124.5q3 48 16 100t27 93q13 38 44.5 64.5t70.5 26.5q23 0 46 -10q-21 -41 -42 -88l41 -153q9 41 25.5 92t28.5 75q20 39 51.5 63.5t71.5 24.5q17 0 32 -4z" />
    <glyph glyph-name="x" unicode="x" horiz-adv-x="465" 
d="M430 372q-42 -54 -71.5 -88.5t-77.5 -88.5l130 -200q-38 -16 -65 -16q-51 0 -100 48q-40 40 -60 64l-109 -118q-42 33 -42 73q0 37 37 99q13 22 36 52q-8 12 -16 28q-25 50 -25 86q0 30 16.5 57.5t53.5 56.5q-1 2 54 -89l21 -33q100 80 171 80q25 0 47 -11z" />
    <glyph glyph-name="y" unicode="y" horiz-adv-x="499" 
d="M281 339q45 76 132 76q28 0 51 -5q-48 -83 -145 -277t-164 -333q-22 36 -22 99q0 91 47 225q-52 32 -91.5 79.5t-51.5 109.5q-2 7 -2 20q0 28 20 41.5t69 32.5l29 11q16 -73 68 -194q30 68 60 115z" />
    <glyph glyph-name="z" unicode="z" horiz-adv-x="464" 
d="M224 95q123 4 205 11q-1 -68 -57.5 -100t-134.5 -32q-60 0 -107 15.5t-72 43t-23 62.5q22 0 33 -1q71 78 163 206q-33 -12 -66 -12q-24 0 -49 13.5t-43 40.5t-21 65q65 -2 230 7l30 1l11 16q26 -12 51 -30t31 -22q19 -13 19 -29q0 -12 -10 -27q-11 -21 -70.5 -93.5
t-119.5 -134.5z" />
    <glyph glyph-name="braceleft" unicode="{" horiz-adv-x="354" 
d="M79 358q9 2 20 13q10 13 15 25q4 13 4 36v123q0 62 32 89q30 30 89 30q57 0 55 -48q-6 -46 -38 -47q-15 0 -28 -10q-11 -13 -11 -37v-116q0 -36 -10 -62q-9 -27 -31 -41q-1 -1 -1 -3q-3 -4 1 -4q13 -13 16 -17q10 -15 14 -28q8 -22 9 -35q2 -24 2 -36v-112q0 -25 11 -38
q10 -10 28 -10q31 0 36 -34l-2 -16q-3 -45 -51 -45q-19 0 -47 6q-18 5 -38 21q-18 15 -25 38q-11 24 -11 58v113q0 26 -3 42q-2 4 -4.5 11t-7.5 16q-8 8 -20 15q-23 12 -23 34v41q0 22 19 28z" />
    <glyph glyph-name="bar" unicode="|" horiz-adv-x="218" 
d="M168 -173q-61 16 -95 166.5t-34 398.5l1 60q1 105 9.5 169.5t37.5 107t90 44.5q-5 -75 -5 -452q0 -343 -4 -494z" />
    <glyph glyph-name="braceright" unicode="}" horiz-adv-x="354" 
d="M275 252q-14 -7 -20 -13q-8 -10 -15 -25q-4 -15 -4 -36v-124q0 -60 -32 -89q-29 -29 -86 -29q-60 -3 -58 47q6 47 38 47q15 0 28 11q11 11 11 37v117q0 33 10 60q9 27 31 40q1 2 1 5q1 1 0 3t-1 3q-10 7 -16 15q-9 12 -14 28q-8 22 -9 35q-2 22 -2 36v112q0 26 -11 37
q-10 10 -28 10q-31 1 -36 35l2 16q3 45 54 45q18 0 44 -6q22 -6 38 -22q18 -15 26 -37q10 -25 10 -58v-114q0 -24 3 -41q7 -19 12 -27q8 -9 20 -16q23 -10 23 -35v-39q0 -22 -19 -28z" />
    <glyph glyph-name="asciitilde" unicode="~" horiz-adv-x="447" 
d="M68 341q17 17 37 27q25 14 57 14q25 0 43 -9q19 -9 36 -21q18 -11 33 -28q15 -8 36 -8q19 0 39 17q8 7 21 7q7 0 10 -1q18 -5 21 -20q5 -6 5 -16q0 -17 -17 -41q-17 -19 -33 -28q-24 -15 -54 -15q-22 0 -39 10q-24 12 -35 20l-35 28q-16 10 -31 10q-7 0 -10 -1
q-32 0 -50 -34q-15 -10 -26 -10t-24 10q-13 12 -13 28q0 12 7 25q9 24 22 36z" />
    <glyph glyph-name="dieresis" unicode="&#xa8;" horiz-adv-x="600" 
d="M193 544q27 0 44.5 -20t17.5 -46q0 -17 -9.5 -32t-27.5 -23q-14 -7 -31 -7q-24 0 -42.5 14.5t-21.5 34.5q-1 4 -1 11q0 29 20.5 48.5t50.5 19.5zM417 544q27 0 44 -20t17 -46q0 -18 -8.5 -32.5t-26.5 -22.5q-14 -7 -31 -7q-25 0 -44.5 14.5t-21.5 34.5l-1 10q0 29 21 49
t51 20z" />
    <glyph glyph-name="macron" unicode="&#xaf;" horiz-adv-x="600" 
d="M436 502q-2 -44 -44.5 -66t-100.5 -23q-53 0 -89.5 16t-35.5 65l126 4q96 5 144 4z" />
    <glyph glyph-name="acute" unicode="&#xb4;" horiz-adv-x="600" 
d="M421 707q20 -24 26 -51t0.5 -51.5t-19.5 -41.5q-12 -14 -23 -26q-46 -46 -95 -58t-87 -2q20 24 42.5 50t44.5 52q37 42 111 128z" />
    <glyph glyph-name="cedilla" unicode="&#xb8;" horiz-adv-x="600" 
d="M343 -41q-1 -2 -1 -6q0 -8 7 -15q22 -17 33.5 -40.5t11.5 -50.5q0 -18 -4 -33q-9 -40 -45 -65t-85 -25q-17 0 -40 5q-7 1 -11 6t-3 12l3 71q15 -4 33 -4q19 0 33 6.5t17 19.5q2 10 2 13q0 17 -12 29.5t-34 18.5l-5 2q-9 0 -13.5 6.5t-2.5 14.5l25 111q2 7 6.5 11t11.5 4
h80q10 0 15 -8t2 -17z" />
    <glyph glyph-name="Agrave" unicode="&#xc0;" 
d="M401 564q23 -49 42.5 -89t34.5 -73q111 -229 172 -368q-18 -14 -55.5 -30t-54.5 -18q-14 -2 -18 -2q-12 0 -22 7.5t-21 25.5q-27 46 -68 185q-20 -22 -76 -22q-37 0 -74 4q-9 -21 -23 -48q-40 -75 -94.5 -118t-103.5 -45q63 164 113 312t115 360q29 -1 58 -7t37 -7
q22 -7 31 -18.5t9 -28.5q0 -6 -2 -20zM385 302q-23 91 -34 166l-8 -29q-5 -16 -17.5 -63t-25.5 -86zM168 867q24 20 51 26t51.5 0.5t41.5 -19.5q14 -12 26 -23q46 -46 58 -95t2 -87q-24 20 -50 42.5t-52 44.5q-42 37 -128 111z" />
    <glyph glyph-name="Aacute" unicode="&#xc1;" 
d="M401 564q23 -49 42.5 -89t34.5 -73q111 -229 172 -368q-18 -14 -55.5 -30t-54.5 -18q-14 -2 -18 -2q-12 0 -22 7.5t-21 25.5q-27 46 -68 185q-20 -22 -76 -22q-37 0 -74 4q-9 -21 -23 -48q-40 -75 -94.5 -118t-103.5 -45q63 164 113 312t115 360q29 -1 58 -7t37 -7
q22 -7 31 -18.5t9 -28.5q0 -6 -2 -20zM385 302q-23 91 -34 166l-8 -29q-5 -16 -17.5 -63t-25.5 -86zM471 907q20 -24 26 -51t0.5 -51.5t-19.5 -41.5q-12 -14 -23 -26q-46 -46 -95 -58t-87 -2q20 24 42.5 50t44.5 52q37 42 111 128z" />
    <glyph glyph-name="Acircumflex" unicode="&#xc2;" 
d="M401 564q23 -49 42.5 -89t34.5 -73q111 -229 172 -368q-18 -14 -55.5 -30t-54.5 -18q-14 -2 -18 -2q-12 0 -22 7.5t-21 25.5q-27 46 -68 185q-20 -22 -76 -22q-37 0 -74 4q-9 -21 -23 -48q-40 -75 -94.5 -118t-103.5 -45q63 164 113 312t115 360q29 -1 58 -7t37 -7
q22 -7 31 -18.5t9 -28.5q0 -6 -2 -20zM385 302q-23 91 -34 166l-8 -29q-5 -16 -17.5 -63t-25.5 -86zM434 653q-9 -1 -14 0.5t-14 6.5q-21 12 -46 38.5t-49 58.5t-9 61q59 -33 86 -50.5t144 -62.5q-16 -13 -41 -28t-57 -24zM159 654q30 26 76 84t77 106q16 -7 38 -22.5
t31 -28.5q-2 -13 -9 -25q-13 -22 -45 -49.5t-74.5 -48.5t-93.5 -16z" />
    <glyph glyph-name="Atilde" unicode="&#xc3;" 
d="M401 564q23 -49 42.5 -89t34.5 -73q111 -229 172 -368q-18 -14 -55.5 -30t-54.5 -18q-14 -2 -18 -2q-12 0 -22 7.5t-21 25.5q-27 46 -68 185q-20 -22 -76 -22q-37 0 -74 4q-9 -21 -23 -48q-40 -75 -94.5 -118t-103.5 -45q63 164 113 312t115 360q29 -1 58 -7t37 -7
q22 -7 31 -18.5t9 -28.5q0 -6 -2 -20zM385 302q-23 91 -34 166l-8 -29q-5 -16 -17.5 -63t-25.5 -86zM452 665q-72 36 -131 50t-89 8q-19 -10 -11.5 -23t26.5 -34q-15 0 -36.5 9t-38.5 24.5t-21 33.5q-1 4 -2 9q-5 42 50 49q11 1 25 1q39 0 86.5 -14.5t91.5 -44.5
q0 30 -14 44t-37 19q7 9 18 16.5t23 11.5q6 2 16 3q35 2 54 -28q12 -19 16 -49t-4.5 -59t-21.5 -26z" />
    <glyph glyph-name="Egrave" unicode="&#xc8;" horiz-adv-x="508" 
d="M181 94q9 1 196 27l91 13q-8 -56 -26 -104q-12 -34 -30.5 -46t-62.5 -12q-10 0 -44 2q-50 1 -129 17l-1 -27q-55 15 -95 96t-40 246q0 69 7 143q9 90 52 144t117 57q-2 -29 -4 -43l31 5q35 5 97.5 15t119.5 18q-4 -50 -22 -100q-11 -33 -31.5 -45t-66.5 -12q-11 0 -43 2
q-33 1 -92 14q-6 -72 -8 -125l71 11l129 19q-3 -52 -21 -100q-12 -33 -33.5 -45t-72.5 -12q-23 0 -36 1q-31 2 -44 4q-6 -85 -9 -163zM137 867q24 20 51 26t51.5 0.5t41.5 -19.5q14 -12 26 -23q46 -46 58 -95t2 -87q-24 20 -50 42.5t-52 44.5q-42 37 -128 111z" />
    <glyph glyph-name="Eacute" unicode="&#xc9;" horiz-adv-x="508" 
d="M181 94q9 1 196 27l91 13q-8 -56 -26 -104q-12 -34 -30.5 -46t-62.5 -12q-10 0 -44 2q-50 1 -129 17l-1 -27q-55 15 -95 96t-40 246q0 69 7 143q9 90 52 144t117 57q-2 -29 -4 -43l31 5q35 5 97.5 15t119.5 18q-4 -50 -22 -100q-11 -33 -31.5 -45t-66.5 -12q-11 0 -43 2
q-33 1 -92 14q-6 -72 -8 -125l71 11l129 19q-3 -52 -21 -100q-12 -33 -33.5 -45t-72.5 -12q-23 0 -36 1q-31 2 -44 4q-6 -85 -9 -163zM338 907q20 -24 26 -51t0.5 -51.5t-19.5 -41.5q-12 -14 -23 -26q-46 -46 -95 -58t-87 -2q20 24 42.5 50t44.5 52q37 42 111 128z" />
    <glyph glyph-name="Ecircumflex" unicode="&#xca;" horiz-adv-x="508" 
d="M181 94q9 1 196 27l91 13q-8 -56 -26 -104q-12 -34 -30.5 -46t-62.5 -12q-10 0 -44 2q-50 1 -129 17l-1 -27q-55 15 -95 96t-40 246q0 69 7 143q9 90 52 144t117 57q-2 -29 -4 -43l31 5q35 5 97.5 15t119.5 18q-4 -50 -22 -100q-11 -33 -31.5 -45t-66.5 -12q-11 0 -43 2
q-33 1 -92 14q-6 -72 -8 -125l71 11l129 19q-3 -52 -21 -100q-12 -33 -33.5 -45t-72.5 -12q-23 0 -36 1q-31 2 -44 4q-6 -85 -9 -163zM342 653q-9 -1 -14 0.5t-14 6.5q-21 12 -46 38.5t-49 58.5t-9 61q59 -33 86 -50.5t144 -62.5q-16 -13 -41 -28t-57 -24zM67 654
q30 26 76 84t77 106q16 -7 38 -22.5t31 -28.5q-2 -13 -9 -25q-13 -22 -45 -49.5t-74.5 -48.5t-93.5 -16z" />
    <glyph glyph-name="Igrave" unicode="&#xcc;" horiz-adv-x="262" 
d="M222 645q-9 -107 -20 -332t-16 -340q-31 8 -65.5 72t-57.5 160t-23 195q0 53 7 99q10 71 54 106.5t121 39.5zM14 867q24 20 51 26t51.5 0.5t41.5 -19.5q14 -12 26 -23q46 -46 58 -95t2 -87q-24 20 -50 42.5t-52 44.5q-42 37 -128 111z" />
    <glyph glyph-name="Iacute" unicode="&#xcd;" horiz-adv-x="262" 
d="M222 645q-9 -107 -20 -332t-16 -340q-31 8 -65.5 72t-57.5 160t-23 195q0 53 7 99q10 71 54 106.5t121 39.5zM215 907q20 -24 26 -51t0.5 -51.5t-19.5 -41.5q-12 -14 -23 -26q-46 -46 -95 -58t-87 -2q20 24 42.5 50t44.5 52q37 42 111 128z" />
    <glyph glyph-name="Ograve" unicode="&#xd2;" horiz-adv-x="649" 
d="M317 -27q-84 0 -146.5 37.5t-96.5 108.5t-34 169q0 91 32.5 169.5t93.5 128.5t142 58q30 2 42 2q126 0 187.5 -81.5t70.5 -233.5q5 -113 -30 -193.5t-103 -122.5t-158 -42zM315 515q-59 0 -92.5 -59t-33.5 -158q0 -87 30.5 -138t87.5 -51q74 0 112.5 42t38.5 145
q0 118 -31 169t-95 51zM207 867q24 20 51 26t51.5 0.5t41.5 -19.5q14 -12 26 -23q46 -46 58 -95t2 -87q-24 20 -50 42.5t-52 44.5q-42 37 -128 111z" />
    <glyph glyph-name="Oacute" unicode="&#xd3;" horiz-adv-x="649" 
d="M317 -27q-84 0 -146.5 37.5t-96.5 108.5t-34 169q0 91 32.5 169.5t93.5 128.5t142 58q30 2 42 2q126 0 187.5 -81.5t70.5 -233.5q5 -113 -30 -193.5t-103 -122.5t-158 -42zM315 515q-59 0 -92.5 -59t-33.5 -158q0 -87 30.5 -138t87.5 -51q74 0 112.5 42t38.5 145
q0 118 -31 169t-95 51zM409 907q20 -24 26 -51t0.5 -51.5t-19.5 -41.5q-12 -14 -23 -26q-46 -46 -95 -58t-87 -2q20 24 42.5 50t44.5 52q37 42 111 128z" />
    <glyph glyph-name="Ocircumflex" unicode="&#xd4;" horiz-adv-x="649" 
d="M317 -27q-84 0 -146.5 37.5t-96.5 108.5t-34 169q0 91 32.5 169.5t93.5 128.5t142 58q30 2 42 2q126 0 187.5 -81.5t70.5 -233.5q5 -113 -30 -193.5t-103 -122.5t-158 -42zM315 515q-59 0 -92.5 -59t-33.5 -158q0 -87 30.5 -138t87.5 -51q74 0 112.5 42t38.5 145
q0 118 -31 169t-95 51zM423 663q-9 -1 -14 0.5t-14 6.5q-21 12 -46 38.5t-49 58.5t-9 61q59 -33 86 -50.5t144 -62.5q-16 -13 -41 -28t-57 -24zM148 664q30 26 76 84t77 106q16 -7 38 -22.5t31 -28.5q-2 -13 -9 -25q-13 -22 -45 -49.5t-74.5 -48.5t-93.5 -16z" />
    <glyph glyph-name="Otilde" unicode="&#xd5;" horiz-adv-x="649" 
d="M317 -27q-84 0 -146.5 37.5t-96.5 108.5t-34 169q0 91 32.5 169.5t93.5 128.5t142 58q30 2 42 2q126 0 187.5 -81.5t70.5 -233.5q5 -113 -30 -193.5t-103 -122.5t-158 -42zM315 515q-59 0 -92.5 -59t-33.5 -158q0 -87 30.5 -138t87.5 -51q74 0 112.5 42t38.5 145
q0 118 -31 169t-95 51zM463 665q-72 36 -131 50t-89 8q-19 -10 -11.5 -23t26.5 -34q-15 0 -36.5 9t-38.5 24.5t-21 33.5q-1 4 -2 9q-5 42 50 49q11 1 25 1q39 0 86.5 -14.5t91.5 -44.5q0 30 -14 44t-37 19q7 9 18 16.5t23 11.5q6 2 16 3q35 2 54 -28q12 -19 16 -49t-4.5 -59
t-21.5 -26z" />
    <glyph glyph-name="Ugrave" unicode="&#xd9;" horiz-adv-x="582" 
d="M213 641q-17 -171 -24 -432q-1 -63 24.5 -87t60.5 -24q41 0 63.5 13t31.5 38t12 68q3 46 5 157q2 100 4 148t18.5 74t48 36.5t85.5 12.5q-8 -89 -12 -316l-3 -128q-3 -120 -71.5 -175t-182.5 -55l-27 1q-206 7 -206 267q0 81 6 219q2 46 2 59q6 124 165 124zM174 867
q24 20 51 26t51.5 0.5t41.5 -19.5q14 -12 26 -23q46 -46 58 -95t2 -87q-24 20 -50 42.5t-52 44.5q-42 37 -128 111z" />
    <glyph glyph-name="Uacute" unicode="&#xda;" horiz-adv-x="582" 
d="M213 641q-17 -171 -24 -432q-1 -63 24.5 -87t60.5 -24q41 0 63.5 13t31.5 38t12 68q3 46 5 157q2 100 4 148t18.5 74t48 36.5t85.5 12.5q-8 -89 -12 -316l-3 -128q-3 -120 -71.5 -175t-182.5 -55l-27 1q-206 7 -206 267q0 81 6 219q2 46 2 59q6 124 165 124zM375 907
q20 -24 26 -51t0.5 -51.5t-19.5 -41.5q-12 -14 -23 -26q-46 -46 -95 -58t-87 -2q20 24 42.5 50t44.5 52q37 42 111 128z" />
    <glyph glyph-name="Yacute" unicode="&#xdd;" horiz-adv-x="594" 
d="M427 649q53 -1 90 -24t37 -61q0 -25 -16 -51q-20 -35 -65.5 -98t-90.5 -111q6 -139 22 -328q-7 -1 -20 -1q-40 0 -71.5 16t-50 40t-21.5 47q-3 18 -3 47q0 39 5 87t14 85q-46 49 -105 125t-112 152q15 23 53 42.5t74 19.5q49 0 68 -39q68 -140 92 -203l11 24
q30 70 51 121.5t38 109.5zM381 907q20 -24 26 -51t0.5 -51.5t-19.5 -41.5q-12 -14 -23 -26q-46 -46 -95 -58t-87 -2q20 24 42.5 50t44.5 52q37 42 111 128z" />
    <glyph glyph-name="agrave" unicode="&#xe0;" horiz-adv-x="523" 
d="M488 102q1 -38 -12 -66t-36 -42.5t-48 -14.5q-22 0 -41 11t-32 32q-41 -32 -97 -43q-25 -5 -44 -5q-62 0 -101 41.5t-42 126.5q-1 56 24.5 116t67.5 102.5t88 49.5q4 1 12 1q46 0 91 -41l4 5q15 16 43 29.5t57 13.5q9 0 13 -1v-309q0 -14 5.5 -21t14.5 -7q10 0 19.5 7
t13.5 15zM180 124q0 -43 27 -43q17 0 47 18q21 12 45 29q0 16 -2 50q0 10 -1.5 38.5t-0.5 59.5l1 16q-12 3 -25 2q-24 -3 -45 -31t-33.5 -66.5t-12.5 -72.5zM144 647q24 20 51 26t51.5 0.5t41.5 -19.5q14 -12 26 -23q46 -46 58 -95t2 -87q-24 20 -50 42.5t-52 44.5
q-42 37 -128 111z" />
    <glyph glyph-name="aacute" unicode="&#xe1;" horiz-adv-x="523" 
d="M488 102q1 -38 -12 -66t-36 -42.5t-48 -14.5q-22 0 -41 11t-32 32q-41 -32 -97 -43q-25 -5 -44 -5q-62 0 -101 41.5t-42 126.5q-1 56 24.5 116t67.5 102.5t88 49.5q4 1 12 1q46 0 91 -41l4 5q15 16 43 29.5t57 13.5q9 0 13 -1v-309q0 -14 5.5 -21t14.5 -7q10 0 19.5 7
t13.5 15zM180 124q0 -43 27 -43q17 0 47 18q21 12 45 29q0 16 -2 50q0 10 -1.5 38.5t-0.5 59.5l1 16q-12 3 -25 2q-24 -3 -45 -31t-33.5 -66.5t-12.5 -72.5zM346 687q20 -24 26 -51t0.5 -51.5t-19.5 -41.5q-12 -14 -23 -26q-46 -46 -95 -58t-87 -2q20 24 42.5 50t44.5 52
q37 42 111 128z" />
    <glyph glyph-name="acircumflex" unicode="&#xe2;" horiz-adv-x="523" 
d="M488 102q1 -38 -12 -66t-36 -42.5t-48 -14.5q-22 0 -41 11t-32 32q-41 -32 -97 -43q-25 -5 -44 -5q-62 0 -101 41.5t-42 126.5q-1 56 24.5 116t67.5 102.5t88 49.5q4 1 12 1q46 0 91 -41l4 5q15 16 43 29.5t57 13.5q9 0 13 -1v-309q0 -14 5.5 -21t14.5 -7q10 0 19.5 7
t13.5 15zM180 124q0 -43 27 -43q17 0 47 18q21 12 45 29q0 16 -2 50q0 10 -1.5 38.5t-0.5 59.5l1 16q-12 3 -25 2q-24 -3 -45 -31t-33.5 -66.5t-12.5 -72.5zM350 433q-9 -1 -14 0.5t-14 6.5q-21 12 -46 38.5t-49 58.5t-9 61q59 -33 86 -50.5t144 -62.5q-16 -13 -41 -28
t-57 -24zM75 434q30 26 76 84t77 106q16 -7 38 -22.5t31 -28.5q-2 -13 -9 -25q-13 -22 -45 -49.5t-74.5 -48.5t-93.5 -16z" />
    <glyph glyph-name="atilde" unicode="&#xe3;" horiz-adv-x="523" 
d="M488 102q1 -38 -12 -66t-36 -42.5t-48 -14.5q-22 0 -41 11t-32 32q-41 -32 -97 -43q-25 -5 -44 -5q-62 0 -101 41.5t-42 126.5q-1 56 24.5 116t67.5 102.5t88 49.5q4 1 12 1q46 0 91 -41l4 5q15 16 43 29.5t57 13.5q9 0 13 -1v-309q0 -14 5.5 -21t14.5 -7q10 0 19.5 7
t13.5 15zM180 124q0 -43 27 -43q17 0 47 18q21 12 45 29q0 16 -2 50q0 10 -1.5 38.5t-0.5 59.5l1 16q-12 3 -25 2q-24 -3 -45 -31t-33.5 -66.5t-12.5 -72.5zM400 445q-72 36 -131 50t-89 8q-19 -10 -11.5 -23t26.5 -34q-15 0 -36.5 9t-38.5 24.5t-21 33.5q-1 4 -2 9
q-5 42 50 49q11 1 25 1q39 0 86.5 -14.5t91.5 -44.5q0 30 -14 44t-37 19q7 9 18 16.5t23 11.5q6 2 16 3q35 2 54 -28q12 -19 16 -49t-4.5 -59t-21.5 -26z" />
    <glyph glyph-name="egrave" unicode="&#xe8;" horiz-adv-x="442" 
d="M186 130q22 -29 74 -29q33 0 69.5 11t63.5 27q5 -25 5 -43q0 -77 -79 -107q-39 -15 -85 -15q-61 0 -111 29t-70 86q-18 51 -18 100q0 58 24 107t69 81t104 39q18 2 26 2q50 0 85 -25t47 -55q17 -42 17 -76q0 -37 -22 -61.5t-68 -30.5q-32 -4 -64 -4q-58 0 -92 15
q7 -28 25 -51zM209 309q-16 -8 -28.5 -26.5t-19.5 -41.5l123 20q-2 20 -19 36.5t-37 16.5q-12 0 -19 -5zM104 647q24 20 51 26t51.5 0.5t41.5 -19.5q14 -12 26 -23q46 -46 58 -95t2 -87q-24 20 -50 42.5t-52 44.5q-42 37 -128 111z" />
    <glyph glyph-name="eacute" unicode="&#xe9;" horiz-adv-x="442" 
d="M186 130q22 -29 74 -29q33 0 69.5 11t63.5 27q5 -25 5 -43q0 -77 -79 -107q-39 -15 -85 -15q-61 0 -111 29t-70 86q-18 51 -18 100q0 58 24 107t69 81t104 39q18 2 26 2q50 0 85 -25t47 -55q17 -42 17 -76q0 -37 -22 -61.5t-68 -30.5q-32 -4 -64 -4q-58 0 -92 15
q7 -28 25 -51zM209 309q-16 -8 -28.5 -26.5t-19.5 -41.5l123 20q-2 20 -19 36.5t-37 16.5q-12 0 -19 -5zM305 687q20 -24 26 -51t0.5 -51.5t-19.5 -41.5q-12 -14 -23 -26q-46 -46 -95 -58t-87 -2q20 24 42.5 50t44.5 52q37 42 111 128z" />
    <glyph glyph-name="ecircumflex" unicode="&#xea;" horiz-adv-x="442" 
d="M186 130q22 -29 74 -29q33 0 69.5 11t63.5 27q5 -25 5 -43q0 -77 -79 -107q-39 -15 -85 -15q-61 0 -111 29t-70 86q-18 51 -18 100q0 58 24 107t69 81t104 39q18 2 26 2q50 0 85 -25t47 -55q17 -42 17 -76q0 -37 -22 -61.5t-68 -30.5q-32 -4 -64 -4q-58 0 -92 15
q7 -28 25 -51zM209 309q-16 -8 -28.5 -26.5t-19.5 -41.5l123 20q-2 20 -19 36.5t-37 16.5q-12 0 -19 -5zM309 443q-9 -1 -14 0.5t-14 6.5q-21 12 -46 38.5t-49 58.5t-9 61q59 -33 86 -50.5t144 -62.5q-16 -13 -41 -28t-57 -24zM34 444q30 26 76 84t77 106q16 -7 38 -22.5
t31 -28.5q-2 -13 -9 -25q-13 -22 -45 -49.5t-74.5 -48.5t-93.5 -16z" />
    <glyph glyph-name="igrave" unicode="&#xec;" horiz-adv-x="230" 
d="M195 418q-13 -167 -18 -248q-4 -51 -7.5 -101t-7.5 -96q-51 29 -89 92.5t-38 159.5q0 23 3 50q3 32 22.5 63.5t54 53.5t80.5 26zM-2 657q24 20 51 26t51.5 0.5t41.5 -19.5q14 -12 26 -23q46 -46 58 -95t2 -87q-24 20 -50 42.5t-52 44.5q-42 37 -128 111z" />
    <glyph glyph-name="iacute" unicode="&#xed;" horiz-adv-x="230" 
d="M195 418q-13 -167 -18 -248q-4 -51 -7.5 -101t-7.5 -96q-51 29 -89 92.5t-38 159.5q0 23 3 50q3 32 22.5 63.5t54 53.5t80.5 26zM199 687q20 -24 26 -51t0.5 -51.5t-19.5 -41.5q-12 -14 -23 -26q-46 -46 -95 -58t-87 -2q20 24 42.5 50t44.5 52q37 42 111 128z" />
    <glyph glyph-name="ograve" unicode="&#xf2;" horiz-adv-x="481" 
d="M207 -26q-48 3 -87.5 29t-62 72.5t-22.5 107.5q0 57 28.5 107.5t75 83.5t96.5 40q21 3 41 3q81 0 122.5 -55.5t47.5 -154.5q4 -77 -26 -131t-85.5 -80t-127.5 -22zM240 306q-40 -6 -56.5 -35t-15.5 -96q0 -38 17 -64t39 -30q8 -2 23 -2q72 0 72 106q-1 50 -19.5 88
t-59.5 33zM123 647q24 20 51 26t51.5 0.5t41.5 -19.5q14 -12 26 -23q46 -46 58 -95t2 -87q-24 20 -50 42.5t-52 44.5q-42 37 -128 111z" />
    <glyph glyph-name="oacute" unicode="&#xf3;" horiz-adv-x="481" 
d="M207 -26q-48 3 -87.5 29t-62 72.5t-22.5 107.5q0 57 28.5 107.5t75 83.5t96.5 40q21 3 41 3q81 0 122.5 -55.5t47.5 -154.5q4 -77 -26 -131t-85.5 -80t-127.5 -22zM240 306q-40 -6 -56.5 -35t-15.5 -96q0 -38 17 -64t39 -30q8 -2 23 -2q72 0 72 106q-1 50 -19.5 88
t-59.5 33zM325 687q20 -24 26 -51t0.5 -51.5t-19.5 -41.5q-12 -14 -23 -26q-46 -46 -95 -58t-87 -2q20 24 42.5 50t44.5 52q37 42 111 128z" />
    <glyph glyph-name="ocircumflex" unicode="&#xf4;" horiz-adv-x="481" 
d="M207 -26q-48 3 -87.5 29t-62 72.5t-22.5 107.5q0 57 28.5 107.5t75 83.5t96.5 40q21 3 41 3q81 0 122.5 -55.5t47.5 -154.5q4 -77 -26 -131t-85.5 -80t-127.5 -22zM240 306q-40 -6 -56.5 -35t-15.5 -96q0 -38 17 -64t39 -30q8 -2 23 -2q72 0 72 106q-1 50 -19.5 88
t-59.5 33zM329 443q-9 -1 -14 0.5t-14 6.5q-21 12 -46 38.5t-49 58.5t-9 61q59 -33 86 -50.5t144 -62.5q-16 -13 -41 -28t-57 -24zM54 444q30 26 76 84t77 106q16 -7 38 -22.5t31 -28.5q-2 -13 -9 -25q-13 -22 -45 -49.5t-74.5 -48.5t-93.5 -16z" />
    <glyph glyph-name="otilde" unicode="&#xf5;" horiz-adv-x="481" 
d="M207 -26q-48 3 -87.5 29t-62 72.5t-22.5 107.5q0 57 28.5 107.5t75 83.5t96.5 40q21 3 41 3q81 0 122.5 -55.5t47.5 -154.5q4 -77 -26 -131t-85.5 -80t-127.5 -22zM240 306q-40 -6 -56.5 -35t-15.5 -96q0 -38 17 -64t39 -30q8 -2 23 -2q72 0 72 106q-1 50 -19.5 88
t-59.5 33zM379 445q-72 36 -131 50t-89 8q-19 -10 -11.5 -23t26.5 -34q-15 0 -36.5 9t-38.5 24.5t-21 33.5q-1 4 -2 9q-5 42 50 49q11 1 25 1q39 0 86.5 -14.5t91.5 -44.5q0 30 -14 44t-37 19q7 9 18 16.5t23 11.5q6 2 16 3q35 2 54 -28q12 -19 16 -49t-4.5 -59t-21.5 -26z
" />
    <glyph glyph-name="ugrave" unicode="&#xf9;" horiz-adv-x="504" 
d="M469 105q1 -39 -14.5 -68.5t-41.5 -45.5t-54 -16q-29 0 -52 17.5t-33 51.5q-34 -28 -74 -45.5t-66 -17.5q-9 0 -12 1q-46 12 -64.5 53t-21.5 121l-1 36q0 15 2 57q0 8 2 50q1 31 22.5 55t53.5 37t62 13q9 0 13 -1q0 -48 -2 -112l-1 -71q0 -37 3 -82q1 -24 19 -24
q19 0 59 27l3 171q1 30 20.5 54t49 37t58.5 13q12 0 18 -1v-304q0 -26 19 -26q10 0 19.5 6t13.5 14zM135 647q24 20 51 26t51.5 0.5t41.5 -19.5q14 -12 26 -23q46 -46 58 -95t2 -87q-24 20 -50 42.5t-52 44.5q-42 37 -128 111z" />
    <glyph glyph-name="uacute" unicode="&#xfa;" horiz-adv-x="504" 
d="M469 105q1 -39 -14.5 -68.5t-41.5 -45.5t-54 -16q-29 0 -52 17.5t-33 51.5q-34 -28 -74 -45.5t-66 -17.5q-9 0 -12 1q-46 12 -64.5 53t-21.5 121l-1 36q0 15 2 57q0 8 2 50q1 31 22.5 55t53.5 37t62 13q9 0 13 -1q0 -48 -2 -112l-1 -71q0 -37 3 -82q1 -24 19 -24
q19 0 59 27l3 171q1 30 20.5 54t49 37t58.5 13q12 0 18 -1v-304q0 -26 19 -26q10 0 19.5 6t13.5 14zM336 687q20 -24 26 -51t0.5 -51.5t-19.5 -41.5q-12 -14 -23 -26q-46 -46 -95 -58t-87 -2q20 24 42.5 50t44.5 52q37 42 111 128z" />
    <glyph glyph-name="yacute" unicode="&#xfd;" horiz-adv-x="499" 
d="M281 339q45 76 132 76q28 0 51 -5q-48 -83 -145 -277t-164 -333q-22 36 -22 99q0 91 47 225q-52 32 -91.5 79.5t-51.5 109.5q-2 7 -2 20q0 28 20 41.5t69 32.5l29 11q16 -73 68 -194q30 68 60 115zM334 687q20 -24 26 -51t0.5 -51.5t-19.5 -41.5q-12 -14 -23 -26
q-46 -46 -95 -58t-87 -2q20 24 42.5 50t44.5 52q37 42 111 128z" />
    <glyph glyph-name="Abreve" unicode="&#x102;" 
d="M401 564q23 -49 42.5 -89t34.5 -73q111 -229 172 -368q-18 -14 -55.5 -30t-54.5 -18q-14 -2 -18 -2q-12 0 -22 7.5t-21 25.5q-27 46 -68 185q-20 -22 -76 -22q-37 0 -74 4q-9 -21 -23 -48q-40 -75 -94.5 -118t-103.5 -45q63 164 113 312t115 360q29 -1 58 -7t37 -7
q22 -7 31 -18.5t9 -28.5q0 -6 -2 -20zM385 302q-23 91 -34 166l-8 -29q-5 -16 -17.5 -63t-25.5 -86zM251 689q-20 8 -32 23t-14 33q-3 25 14 46.5t46 30.5q-5 -29 4.5 -45t26.5 -23t39 -7t42 3q60 8 70.5 41.5t7.5 45.5t8 -17q9 -24 11 -47q4 -33 -8.5 -55t-44.5 -33
q-9 -3 -28 -7q-78 -14 -142 11z" />
    <glyph glyph-name="abreve" unicode="&#x103;" horiz-adv-x="523" 
d="M488 102q1 -38 -12 -66t-36 -42.5t-48 -14.5q-22 0 -41 11t-32 32q-41 -32 -97 -43q-25 -5 -44 -5q-62 0 -101 41.5t-42 126.5q-1 56 24.5 116t67.5 102.5t88 49.5q4 1 12 1q46 0 91 -41l4 5q15 16 43 29.5t57 13.5q9 0 13 -1v-309q0 -14 5.5 -21t14.5 -7q10 0 19.5 7
t13.5 15zM180 124q0 -43 27 -43q17 0 47 18q21 12 45 29q0 16 -2 50q0 10 -1.5 38.5t-0.5 59.5l1 16q-12 3 -25 2q-24 -3 -45 -31t-33.5 -66.5t-12.5 -72.5zM173 464q-20 8 -32 23t-14 33q-3 25 14 46.5t46 30.5q-5 -29 4.5 -45t26.5 -23t39 -7t42 3q60 8 70.5 41.5
t7.5 45.5t8 -17q9 -24 11 -47q4 -33 -8.5 -55t-44.5 -33q-9 -3 -28 -7q-78 -14 -142 11z" />
    <glyph glyph-name="Dcroat" unicode="&#x110;" horiz-adv-x="735" 
d="M480 594q47 17 88 17q62 0 94.5 -42t32.5 -116q0 -33 -8 -78q-52 -293 -292 -381q-11 -4 -24 -4q-34 0 -70 32l-2 -49q-23 6 -48 43.5t-46.5 97t-33.5 129.5q-52 17 -89 43.5t-42 54.5l120 1q-2 36 -2 54q0 56 7 104q10 70 51.5 105.5t118.5 40.5q-5 -49 -8 -104l-3 -38
q30 26 71.5 50.5t84.5 39.5zM537 384q11 42 11 64q0 48 -43 48q-15 0 -36 -6q-33 -8 -73 -29.5t-77 -49.5l-3 -65l157 5q-3 -49 -54 -77t-109 -41l-6 -128q100 59 155.5 133t77.5 146z" />
    <glyph glyph-name="dcroat" unicode="&#x111;" horiz-adv-x="540" 
d="M427 134q-1 -27 15 -27q12 0 32 17q3 -50 -16 -84.5t-46 -51.5t-46 -17q-27 0 -42.5 18t-22.5 60q-38 -45 -95 -65q-29 -11 -58 -11q-53 0 -83 39t-30 104q0 64 30 137q27 65 73 95t93 37q12 2 17 2q27 0 48 -19q0 41 1 63q-111 10 -111 112q88 2 130 4q15 21 39 32.5
t54 11.5q7 0 23 -2v-38q14 1 38 1t35 -1q-1 -37 -21 -63t-52 -40q0 -137 -5 -314zM217 84q40 10 78 48v13q1 38 1 109q-33 25 -64 25q-25 0 -39 -18q-12 -15 -18 -40.5t-6 -52.5q0 -39 12.5 -64.5t35.5 -19.5z" />
    <glyph glyph-name="Itilde" unicode="&#x128;" horiz-adv-x="262" 
d="M222 645q-9 -107 -20 -332t-16 -340q-31 8 -65.5 72t-57.5 160t-23 195q0 53 7 99q10 71 54 106.5t121 39.5zM269 665q-72 36 -131 50t-89 8q-19 -10 -11.5 -23t26.5 -34q-15 0 -36.5 9t-38.5 24.5t-21 33.5q-1 4 -2 9q-5 42 50 49q11 1 25 1q39 0 86.5 -14.5t91.5 -44.5
q0 30 -14 44t-37 19q7 9 18 16.5t23 11.5q6 2 16 3q35 2 54 -28q12 -19 16 -49t-4.5 -59t-21.5 -26z" />
    <glyph glyph-name="itilde" unicode="&#x129;" horiz-adv-x="230" 
d="M195 418q-13 -167 -18 -248q-4 -51 -7.5 -101t-7.5 -96q-51 29 -89 92.5t-38 159.5q0 23 3 50q3 32 22.5 63.5t54 53.5t80.5 26zM253 445q-72 36 -131 50t-89 8q-19 -10 -11.5 -23t26.5 -34q-15 0 -36.5 9t-38.5 24.5t-21 33.5q-1 4 -2 9q-5 42 50 49q11 1 25 1
q39 0 86.5 -14.5t91.5 -44.5q0 30 -14 44t-37 19q7 9 18 16.5t23 11.5q6 2 16 3q35 2 54 -28q12 -19 16 -49t-4.5 -59t-21.5 -26z" />
    <glyph glyph-name="dotlessi" unicode="&#x131;" horiz-adv-x="230" 
d="M195 418q-13 -167 -18 -248q-4 -51 -7.5 -101t-7.5 -96q-51 29 -89 92.5t-38 159.5q0 23 3 50q3 32 22.5 63.5t54 53.5t80.5 26z" />
    <glyph glyph-name="Utilde" unicode="&#x168;" horiz-adv-x="582" 
d="M213 641q-17 -171 -24 -432q-1 -63 24.5 -87t60.5 -24q41 0 63.5 13t31.5 38t12 68q3 46 5 157q2 100 4 148t18.5 74t48 36.5t85.5 12.5q-8 -89 -12 -316l-3 -128q-3 -120 -71.5 -175t-182.5 -55l-27 1q-206 7 -206 267q0 81 6 219q2 46 2 59q6 124 165 124zM429 665
q-72 36 -131 50t-89 8q-19 -10 -11.5 -23t26.5 -34q-15 0 -36.5 9t-38.5 24.5t-21 33.5q-1 4 -2 9q-5 42 50 49q11 1 25 1q39 0 86.5 -14.5t91.5 -44.5q0 30 -14 44t-37 19q7 9 18 16.5t23 11.5q6 2 16 3q35 2 54 -28q12 -19 16 -49t-4.5 -59t-21.5 -26z" />
    <glyph glyph-name="utilde" unicode="&#x169;" horiz-adv-x="504" 
d="M469 105q1 -39 -14.5 -68.5t-41.5 -45.5t-54 -16q-29 0 -52 17.5t-33 51.5q-34 -28 -74 -45.5t-66 -17.5q-9 0 -12 1q-46 12 -64.5 53t-21.5 121l-1 36q0 15 2 57q0 8 2 50q1 31 22.5 55t53.5 37t62 13q9 0 13 -1q0 -48 -2 -112l-1 -71q0 -37 3 -82q1 -24 19 -24
q19 0 59 27l3 171q1 30 20.5 54t49 37t58.5 13q12 0 18 -1v-304q0 -26 19 -26q10 0 19.5 6t13.5 14zM390 445q-72 36 -131 50t-89 8q-19 -10 -11.5 -23t26.5 -34q-15 0 -36.5 9t-38.5 24.5t-21 33.5q-1 4 -2 9q-5 42 50 49q11 1 25 1q39 0 86.5 -14.5t91.5 -44.5
q0 30 -14 44t-37 19q7 9 18 16.5t23 11.5q6 2 16 3q35 2 54 -28q12 -19 16 -49t-4.5 -59t-21.5 -26z" />
    <glyph glyph-name="Ohorn" unicode="&#x1a0;" horiz-adv-x="649" 
d="M317 -27q-84 0 -146.5 37.5t-96.5 108.5t-34 169q0 91 32.5 169.5t93.5 128.5t142 58q30 2 42 2q126 0 187.5 -81.5t70.5 -233.5q5 -113 -30 -193.5t-103 -122.5t-158 -42zM315 515q-59 0 -92.5 -59t-33.5 -158q0 -87 30.5 -138t87.5 -51q74 0 112.5 42t38.5 145
q0 118 -31 169t-95 51zM491 535q25 33 58 69l33 36q-11 -4 -58 -6q-10 1 -14 3q-6 3 -6.5 6.5t-0.5 5.5q0 5 2 15q3 28 18 69l125 -22q2 -22 2 -46q0 -25 -2 -52q-1 -11 -134 -85z" />
    <glyph glyph-name="ohorn" unicode="&#x1a1;" horiz-adv-x="481" 
d="M207 -26q-48 3 -87.5 29t-62 72.5t-22.5 107.5q0 57 28.5 107.5t75 83.5t96.5 40q21 3 41 3q81 0 122.5 -55.5t47.5 -154.5q4 -77 -26 -131t-85.5 -80t-127.5 -22zM240 306q-40 -6 -56.5 -35t-15.5 -96q0 -38 17 -64t39 -30q8 -2 23 -2q72 0 72 106q-1 50 -19.5 88
t-59.5 33zM324 335q25 33 58 69l33 36q-11 -4 -58 -6q-10 1 -14 3q-6 3 -6.5 6.5t-0.5 5.5q0 5 2 15q3 28 18 69l125 -22q2 -22 2 -46q0 -25 -2 -52q-1 -11 -134 -85z" />
    <glyph glyph-name="Uhorn" unicode="&#x1af;" horiz-adv-x="582" 
d="M213 641q-17 -171 -24 -432q-1 -63 24.5 -87t60.5 -24q41 0 63.5 13t31.5 38t12 68q3 46 5 157q2 100 4 148t18.5 74t48 36.5t85.5 12.5q-8 -89 -12 -316l-3 -128q-3 -120 -71.5 -175t-182.5 -55l-27 1q-206 7 -206 267q0 81 6 219q2 46 2 59q6 124 165 124zM464 585
q25 33 58 69l33 36q-11 -4 -58 -6q-10 1 -14 3q-6 3 -6.5 6.5t-0.5 5.5q0 5 2 15q3 28 18 69l125 -22q2 -22 2 -46q0 -25 -2 -52q-1 -11 -134 -85z" />
    <glyph glyph-name="uhorn" unicode="&#x1b0;" horiz-adv-x="504" 
d="M469 105q1 -39 -14.5 -68.5t-41.5 -45.5t-54 -16q-29 0 -52 17.5t-33 51.5q-34 -28 -74 -45.5t-66 -17.5q-9 0 -12 1q-46 12 -64.5 53t-21.5 121l-1 36q0 15 2 57q0 8 2 50q1 31 22.5 55t53.5 37t62 13q9 0 13 -1q0 -48 -2 -112l-1 -71q0 -37 3 -82q1 -24 19 -24
q19 0 59 27l3 171q1 30 20.5 54t49 37t58.5 13q12 0 18 -1v-304q0 -26 19 -26q10 0 19.5 6t13.5 14zM347 335q25 33 58 69l33 36q-11 -4 -58 -6q-10 1 -14 3q-6 3 -6.5 6.5t-0.5 5.5q0 5 2 15q3 28 18 69l125 -22q2 -22 2 -46q0 -25 -2 -52q-1 -11 -134 -85z" />
    <glyph glyph-name="circumflex" unicode="&#x2c6;" horiz-adv-x="600" 
d="M387 453q-9 -1 -14 0.5t-14 6.5q-21 12 -46 38.5t-49 58.5t-9 61q59 -33 86 -50.5t144 -62.5q-16 -13 -41 -28t-57 -24zM112 454q30 26 76 84t77 106q16 -7 38 -22.5t31 -28.5q-2 -13 -9 -25q-13 -22 -45 -49.5t-74.5 -48.5t-93.5 -16z" />
    <glyph glyph-name="caron" unicode="&#x2c7;" horiz-adv-x="600" 
d="M260 534q18 -19 40 -19q25 0 40 19l22 24q14 16 23.5 19t22.5 3h33q10 0 14 -4q7 -5 8 -11q4 -7 2 -14q0 -8 -7 -15l-90 -94q-6 -8 -17.5 -14.5t-26.5 -6.5h-48q-14 0 -26 6.5t-18 14.5l-90 94q-7 7 -7 15v4q0 4 2 10q1 6 8 11q4 4 15 4h32q10 0 23 -5t23 -17z" />
    <glyph glyph-name="breve" unicode="&#x2d8;" horiz-adv-x="600" 
d="M204 489q-20 8 -32 23t-14 33q-3 25 14 46.5t46 30.5q-5 -29 4.5 -45t26.5 -23t39 -7t42 3q60 8 70.5 41.5t7.5 45.5t8 -17q9 -24 11 -47q4 -33 -8.5 -55t-44.5 -33q-9 -3 -28 -7q-78 -14 -142 11z" />
    <glyph glyph-name="dotaccent" unicode="&#x2d9;" horiz-adv-x="600" 
d="M306 544q27 0 44 -20t17 -46q0 -17 -9 -32t-27 -23q-14 -7 -31 -7q-27 0 -46.5 17.5t-19.5 40.5q0 29 21 49.5t51 20.5z" />
    <glyph glyph-name="ring" unicode="&#x2da;" horiz-adv-x="600" 
d="M300 664q51 0 87 -36t36 -88q0 -33 -16.5 -61.5t-44.5 -45t-61 -16.5q-34 0 -62.5 16.5t-45 45t-16.5 61.5q0 52 36 88t87 36zM299 591q-20 0 -35 -15t-15 -35t14 -35t33 -16q22 -2 38.5 13.5t16.5 38.5q0 20 -15.5 34.5t-36.5 14.5z" />
    <glyph glyph-name="tilde" unicode="&#x2dc;" horiz-adv-x="600" 
d="M412 465q-72 36 -131 50t-89 8q-19 -10 -11.5 -23t26.5 -34q-15 0 -36.5 9t-38.5 24.5t-21 33.5q-1 4 -2 9q-5 42 50 49q11 1 25 1q39 0 86.5 -14.5t91.5 -44.5q0 30 -14 44t-37 19q7 9 18 16.5t23 11.5q6 2 16 3q35 2 54 -28q12 -19 16 -49t-4.5 -59t-21.5 -26z" />
    <glyph glyph-name="hookabovecomb" unicode="&#x309;" horiz-adv-x="0" 
d="M-309 564q21 14 44 15q29 2 40.5 -14t18.5 -41q6 -24 -9 -52t-31.5 -41.5t-52.5 -34.5l-39 -22q1 2 9 11q23 26 36 48q14 19 16 38q2 24 -20 26t-43 -13.5t-31 -27.5q-10 15 -14 38q-3 17 -1 35.5t5 31t9 18.5q11 12 27 15q22 4 50 -3q-22 -22 -40 -51q10 13 26 24z" />
    <glyph glyph-name="uni031B" unicode="&#x31b;" horiz-adv-x="0" 
d="M-438 474q25 33 58 69l33 36q-11 -4 -58 -6q-10 1 -14 3q-6 3 -6.5 6.5t-0.5 5.5q0 5 2 15q3 28 18 69l125 -22q2 -22 2 -46q0 -25 -2 -52q-1 -11 -134 -85z" />
    <glyph glyph-name="dotbelowcomb" unicode="&#x323;" horiz-adv-x="0" 
d="M-412 33q18 10 43 16.5t48 6.5q29 0 47 -12q20 -13 20 -39q0 -20 -12.5 -42t-35.5 -39q-27 26 -49 49q-28 29 -61 60z" />
    <glyph glyph-name="uni1EA0" unicode="&#x1ea0;" 
d="M401 564q23 -49 42.5 -89t34.5 -73q111 -229 172 -368q-18 -14 -55.5 -30t-54.5 -18q-14 -2 -18 -2q-12 0 -22 7.5t-21 25.5q-27 46 -68 185q-20 -22 -76 -22q-37 0 -74 4q-9 -21 -23 -48q-40 -75 -94.5 -118t-103.5 -45q63 164 113 312t115 360q29 -1 58 -7t37 -7
q22 -7 31 -18.5t9 -28.5q0 -6 -2 -20zM385 302q-23 91 -34 166l-8 -29q-5 -16 -17.5 -63t-25.5 -86zM243 -77q18 10 43 16.5t48 6.5q29 0 47 -12q20 -13 20 -39q0 -20 -12.5 -42t-35.5 -39q-27 26 -49 49q-28 29 -61 60z" />
    <glyph glyph-name="uni1EA1" unicode="&#x1ea1;" horiz-adv-x="523" 
d="M488 102q1 -38 -12 -66t-36 -42.5t-48 -14.5q-22 0 -41 11t-32 32q-41 -32 -97 -43q-25 -5 -44 -5q-62 0 -101 41.5t-42 126.5q-1 56 24.5 116t67.5 102.5t88 49.5q4 1 12 1q46 0 91 -41l4 5q15 16 43 29.5t57 13.5q9 0 13 -1v-309q0 -14 5.5 -21t14.5 -7q10 0 19.5 7
t13.5 15zM180 124q0 -43 27 -43q17 0 47 18q21 12 45 29q0 16 -2 50q0 10 -1.5 38.5t-0.5 59.5l1 16q-12 3 -25 2q-24 -3 -45 -31t-33.5 -66.5t-12.5 -72.5zM161 -77q18 10 43 16.5t48 6.5q29 0 47 -12q20 -13 20 -39q0 -20 -12.5 -42t-35.5 -39q-27 26 -49 49
q-28 29 -61 60z" />
    <glyph glyph-name="uni1EA2" unicode="&#x1ea2;" 
d="M401 564q23 -49 42.5 -89t34.5 -73q111 -229 172 -368q-18 -14 -55.5 -30t-54.5 -18q-14 -2 -18 -2q-12 0 -22 7.5t-21 25.5q-27 46 -68 185q-20 -22 -76 -22q-37 0 -74 4q-9 -21 -23 -48q-40 -75 -94.5 -118t-103.5 -45q63 164 113 312t115 360q29 -1 58 -7t37 -7
q22 -7 31 -18.5t9 -28.5q0 -6 -2 -20zM385 302q-23 91 -34 166l-8 -29q-5 -16 -17.5 -63t-25.5 -86zM355 854q21 14 44 15q29 2 40.5 -14t18.5 -41q6 -24 -9 -52t-31.5 -41.5t-52.5 -34.5l-39 -22q1 2 9 11q23 26 36 48q14 19 16 38q2 24 -20 26t-43 -13.5t-31 -27.5
q-10 15 -14 38q-3 17 -1 35.5t5 31t9 18.5q11 12 27 15q22 4 50 -3q-22 -22 -40 -51q10 13 26 24z" />
    <glyph glyph-name="uni1EA3" unicode="&#x1ea3;" horiz-adv-x="523" 
d="M488 102q1 -38 -12 -66t-36 -42.5t-48 -14.5q-22 0 -41 11t-32 32q-41 -32 -97 -43q-25 -5 -44 -5q-62 0 -101 41.5t-42 126.5q-1 56 24.5 116t67.5 102.5t88 49.5q4 1 12 1q46 0 91 -41l4 5q15 16 43 29.5t57 13.5q9 0 13 -1v-309q0 -14 5.5 -21t14.5 -7q10 0 19.5 7
t13.5 15zM180 124q0 -43 27 -43q17 0 47 18q21 12 45 29q0 16 -2 50q0 10 -1.5 38.5t-0.5 59.5l1 16q-12 3 -25 2q-24 -3 -45 -31t-33.5 -66.5t-12.5 -72.5zM273 634q21 14 44 15q29 2 40.5 -14t18.5 -41q6 -24 -9 -52t-31.5 -41.5t-52.5 -34.5l-39 -22q1 2 9 11
q23 26 36 48q14 19 16 38q2 24 -20 26t-43 -13.5t-31 -27.5q-10 15 -14 38q-3 17 -1 35.5t5 31t9 18.5q11 12 27 15q22 4 50 -3q-22 -22 -40 -51q10 13 26 24z" />
    <glyph glyph-name="uni1EA4" unicode="&#x1ea4;" 
d="M401 564q23 -49 42.5 -89t34.5 -73q111 -229 172 -368q-18 -14 -55.5 -30t-54.5 -18q-14 -2 -18 -2q-12 0 -22 7.5t-21 25.5q-27 46 -68 185q-20 -22 -76 -22q-37 0 -74 4q-9 -21 -23 -48q-40 -75 -94.5 -118t-103.5 -45q63 164 113 312t115 360q29 -1 58 -7t37 -7
q22 -7 31 -18.5t9 -28.5q0 -6 -2 -20zM385 302q-23 91 -34 166l-8 -29q-5 -16 -17.5 -63t-25.5 -86zM434 653q-9 -1 -14 0.5t-14 6.5q-21 12 -46 38.5t-49 58.5t-9 61q59 -33 86 -50.5t144 -62.5q-16 -13 -41 -28t-57 -24zM159 654q30 26 76 84t77 106q16 -7 38 -22.5
t31 -28.5q-2 -13 -9 -25q-13 -22 -45 -49.5t-74.5 -48.5t-93.5 -16zM649 994q20 -24 26 -51t0.5 -51.5t-19.5 -41.5q-12 -14 -23 -26q-46 -46 -95 -58t-87 -2q20 24 42.5 50t44.5 52q37 42 111 128z" />
    <glyph glyph-name="uni1EA5" unicode="&#x1ea5;" horiz-adv-x="523" 
d="M488 102q1 -38 -12 -66t-36 -42.5t-48 -14.5q-22 0 -41 11t-32 32q-41 -32 -97 -43q-25 -5 -44 -5q-62 0 -101 41.5t-42 126.5q-1 56 24.5 116t67.5 102.5t88 49.5q4 1 12 1q46 0 91 -41l4 5q15 16 43 29.5t57 13.5q9 0 13 -1v-309q0 -14 5.5 -21t14.5 -7q10 0 19.5 7
t13.5 15zM180 124q0 -43 27 -43q17 0 47 18q21 12 45 29q0 16 -2 50q0 10 -1.5 38.5t-0.5 59.5l1 16q-12 3 -25 2q-24 -3 -45 -31t-33.5 -66.5t-12.5 -72.5zM350 433q-9 -1 -14 0.5t-14 6.5q-21 12 -46 38.5t-49 58.5t-9 61q59 -33 86 -50.5t144 -62.5q-16 -13 -41 -28
t-57 -24zM75 434q30 26 76 84t77 106q16 -7 38 -22.5t31 -28.5q-2 -13 -9 -25q-13 -22 -45 -49.5t-74.5 -48.5t-93.5 -16zM577 770q20 -24 26 -51t0.5 -51.5t-19.5 -41.5q-12 -14 -23 -26q-46 -46 -95 -58t-87 -2q20 24 42.5 50t44.5 52q37 42 111 128z" />
    <glyph glyph-name="uni1EA6" unicode="&#x1ea6;" 
d="M401 564q23 -49 42.5 -89t34.5 -73q111 -229 172 -368q-18 -14 -55.5 -30t-54.5 -18q-14 -2 -18 -2q-12 0 -22 7.5t-21 25.5q-27 46 -68 185q-20 -22 -76 -22q-37 0 -74 4q-9 -21 -23 -48q-40 -75 -94.5 -118t-103.5 -45q63 164 113 312t115 360q29 -1 58 -7t37 -7
q22 -7 31 -18.5t9 -28.5q0 -6 -2 -20zM385 302q-23 91 -34 166l-8 -29q-5 -16 -17.5 -63t-25.5 -86zM434 653q-9 -1 -14 0.5t-14 6.5q-21 12 -46 38.5t-49 58.5t-9 61q59 -33 86 -50.5t144 -62.5q-16 -13 -41 -28t-57 -24zM159 654q30 26 76 84t77 106q16 -7 38 -22.5
t31 -28.5q-2 -13 -9 -25q-13 -22 -45 -49.5t-74.5 -48.5t-93.5 -16zM265 955q24 20 51 26t51.5 0.5t41.5 -19.5q14 -12 26 -23q46 -46 58 -95t2 -87q-24 20 -50 42.5t-52 44.5q-42 37 -128 111z" />
    <glyph glyph-name="uni1EA7" unicode="&#x1ea7;" horiz-adv-x="523" 
d="M488 102q1 -38 -12 -66t-36 -42.5t-48 -14.5q-22 0 -41 11t-32 32q-41 -32 -97 -43q-25 -5 -44 -5q-62 0 -101 41.5t-42 126.5q-1 56 24.5 116t67.5 102.5t88 49.5q4 1 12 1q46 0 91 -41l4 5q15 16 43 29.5t57 13.5q9 0 13 -1v-309q0 -14 5.5 -21t14.5 -7q10 0 19.5 7
t13.5 15zM180 124q0 -43 27 -43q17 0 47 18q21 12 45 29q0 16 -2 50q0 10 -1.5 38.5t-0.5 59.5l1 16q-12 3 -25 2q-24 -3 -45 -31t-33.5 -66.5t-12.5 -72.5zM350 433q-9 -1 -14 0.5t-14 6.5q-21 12 -46 38.5t-49 58.5t-9 61q59 -33 86 -50.5t144 -62.5q-16 -13 -41 -28
t-57 -24zM75 434q30 26 76 84t77 106q16 -7 38 -22.5t31 -28.5q-2 -13 -9 -25q-13 -22 -45 -49.5t-74.5 -48.5t-93.5 -16zM174 727q24 20 51 26t51.5 0.5t41.5 -19.5q14 -12 26 -23q46 -46 58 -95t2 -87q-24 20 -50 42.5t-52 44.5q-42 37 -128 111z" />
    <glyph glyph-name="uni1EA8" unicode="&#x1ea8;" 
d="M401 564q23 -49 42.5 -89t34.5 -73q111 -229 172 -368q-18 -14 -55.5 -30t-54.5 -18q-14 -2 -18 -2q-12 0 -22 7.5t-21 25.5q-27 46 -68 185q-20 -22 -76 -22q-37 0 -74 4q-9 -21 -23 -48q-40 -75 -94.5 -118t-103.5 -45q63 164 113 312t115 360q29 -1 58 -7t37 -7
q22 -7 31 -18.5t9 -28.5q0 -6 -2 -20zM385 302q-23 91 -34 166l-8 -29q-5 -16 -17.5 -63t-25.5 -86zM434 653q-9 -1 -14 0.5t-14 6.5q-21 12 -46 38.5t-49 58.5t-9 61q59 -33 86 -50.5t144 -62.5q-16 -13 -41 -28t-57 -24zM159 654q30 26 76 84t77 106q16 -7 38 -22.5
t31 -28.5q-2 -13 -9 -25q-13 -22 -45 -49.5t-74.5 -48.5t-93.5 -16zM493 941q21 14 44 15q29 2 40.5 -14t18.5 -41q6 -24 -9 -52t-31.5 -41.5t-52.5 -34.5l-39 -22q1 2 9 11q23 26 36 48q14 19 16 38q2 24 -20 26t-43 -13.5t-31 -27.5q-10 15 -14 38q-3 17 -1 35.5t5 31
t9 18.5q11 12 27 15q22 4 50 -3q-22 -22 -40 -51q10 13 26 24z" />
    <glyph glyph-name="uni1EA9" unicode="&#x1ea9;" horiz-adv-x="523" 
d="M488 102q1 -38 -12 -66t-36 -42.5t-48 -14.5q-22 0 -41 11t-32 32q-41 -32 -97 -43q-25 -5 -44 -5q-62 0 -101 41.5t-42 126.5q-1 56 24.5 116t67.5 102.5t88 49.5q4 1 12 1q46 0 91 -41l4 5q15 16 43 29.5t57 13.5q9 0 13 -1v-309q0 -14 5.5 -21t14.5 -7q10 0 19.5 7
t13.5 15zM180 124q0 -43 27 -43q17 0 47 18q21 12 45 29q0 16 -2 50q0 10 -1.5 38.5t-0.5 59.5l1 16q-12 3 -25 2q-24 -3 -45 -31t-33.5 -66.5t-12.5 -72.5zM350 433q-9 -1 -14 0.5t-14 6.5q-21 12 -46 38.5t-49 58.5t-9 61q59 -33 86 -50.5t144 -62.5q-16 -13 -41 -28
t-57 -24zM75 434q30 26 76 84t77 106q16 -7 38 -22.5t31 -28.5q-2 -13 -9 -25q-13 -22 -45 -49.5t-74.5 -48.5t-93.5 -16zM403 720q21 14 44 15q29 2 40.5 -14t18.5 -41q6 -24 -9 -52t-31.5 -41.5t-52.5 -34.5l-39 -22q1 2 9 11q23 26 36 48q14 19 16 38q2 24 -20 26
t-43 -13.5t-31 -27.5q-10 15 -14 38q-3 17 -1 35.5t5 31t9 18.5q11 12 27 15q22 4 50 -3q-22 -22 -40 -51q10 13 26 24z" />
    <glyph glyph-name="uni1EAA" unicode="&#x1eaa;" 
d="M401 564q23 -49 42.5 -89t34.5 -73q111 -229 172 -368q-18 -14 -55.5 -30t-54.5 -18q-14 -2 -18 -2q-12 0 -22 7.5t-21 25.5q-27 46 -68 185q-20 -22 -76 -22q-37 0 -74 4q-9 -21 -23 -48q-40 -75 -94.5 -118t-103.5 -45q63 164 113 312t115 360q29 -1 58 -7t37 -7
q22 -7 31 -18.5t9 -28.5q0 -6 -2 -20zM385 302q-23 91 -34 166l-8 -29q-5 -16 -17.5 -63t-25.5 -86zM434 653q-9 -1 -14 0.5t-14 6.5q-21 12 -46 38.5t-49 58.5t-9 61q59 -33 86 -50.5t144 -62.5q-16 -13 -41 -28t-57 -24zM159 654q30 26 76 84t77 106q16 -7 38 -22.5
t31 -28.5q-2 -13 -9 -25q-13 -22 -45 -49.5t-74.5 -48.5t-93.5 -16zM473 808q-72 36 -131 50t-89 8q-19 -10 -11.5 -23t26.5 -34q-15 0 -36.5 9t-38.5 24.5t-21 33.5q-1 4 -2 9q-5 42 50 49q11 1 25 1q39 0 86.5 -14.5t91.5 -44.5q0 30 -14 44t-37 19q7 9 18 16.5t23 11.5
q6 2 16 3q35 2 54 -28q12 -19 16 -49t-4.5 -59t-21.5 -26z" />
    <glyph glyph-name="uni1EAB" unicode="&#x1eab;" horiz-adv-x="523" 
d="M488 102q1 -38 -12 -66t-36 -42.5t-48 -14.5q-22 0 -41 11t-32 32q-41 -32 -97 -43q-25 -5 -44 -5q-62 0 -101 41.5t-42 126.5q-1 56 24.5 116t67.5 102.5t88 49.5q4 1 12 1q46 0 91 -41l4 5q15 16 43 29.5t57 13.5q9 0 13 -1v-309q0 -14 5.5 -21t14.5 -7q10 0 19.5 7
t13.5 15zM180 124q0 -43 27 -43q17 0 47 18q21 12 45 29q0 16 -2 50q0 10 -1.5 38.5t-0.5 59.5l1 16q-12 3 -25 2q-24 -3 -45 -31t-33.5 -66.5t-12.5 -72.5zM350 433q-9 -1 -14 0.5t-14 6.5q-21 12 -46 38.5t-49 58.5t-9 61q59 -33 86 -50.5t144 -62.5q-16 -13 -41 -28
t-57 -24zM75 434q30 26 76 84t77 106q16 -7 38 -22.5t31 -28.5q-2 -13 -9 -25q-13 -22 -45 -49.5t-74.5 -48.5t-93.5 -16zM400 585q-72 36 -131 50t-89 8q-19 -10 -11.5 -23t26.5 -34q-15 0 -36.5 9t-38.5 24.5t-21 33.5q-1 4 -2 9q-5 42 50 49q11 1 25 1q39 0 86.5 -14.5
t91.5 -44.5q0 30 -14 44t-37 19q7 9 18 16.5t23 11.5q6 2 16 3q35 2 54 -28q12 -19 16 -49t-4.5 -59t-21.5 -26z" />
    <glyph glyph-name="uni1EAC" unicode="&#x1eac;" 
d="M401 564q23 -49 42.5 -89t34.5 -73q111 -229 172 -368q-18 -14 -55.5 -30t-54.5 -18q-14 -2 -18 -2q-12 0 -22 7.5t-21 25.5q-27 46 -68 185q-20 -22 -76 -22q-37 0 -74 4q-9 -21 -23 -48q-40 -75 -94.5 -118t-103.5 -45q63 164 113 312t115 360q29 -1 58 -7t37 -7
q22 -7 31 -18.5t9 -28.5q0 -6 -2 -20zM385 302q-23 91 -34 166l-8 -29q-5 -16 -17.5 -63t-25.5 -86zM243 -77q18 10 43 16.5t48 6.5q29 0 47 -12q20 -13 20 -39q0 -20 -12.5 -42t-35.5 -39q-27 26 -49 49q-28 29 -61 60zM434 653q-9 -1 -14 0.5t-14 6.5q-21 12 -46 38.5
t-49 58.5t-9 61q59 -33 86 -50.5t144 -62.5q-16 -13 -41 -28t-57 -24zM159 654q30 26 76 84t77 106q16 -7 38 -22.5t31 -28.5q-2 -13 -9 -25q-13 -22 -45 -49.5t-74.5 -48.5t-93.5 -16z" />
    <glyph glyph-name="uni1EAD" unicode="&#x1ead;" horiz-adv-x="523" 
d="M488 102q1 -38 -12 -66t-36 -42.5t-48 -14.5q-22 0 -41 11t-32 32q-41 -32 -97 -43q-25 -5 -44 -5q-62 0 -101 41.5t-42 126.5q-1 56 24.5 116t67.5 102.5t88 49.5q4 1 12 1q46 0 91 -41l4 5q15 16 43 29.5t57 13.5q9 0 13 -1v-309q0 -14 5.5 -21t14.5 -7q10 0 19.5 7
t13.5 15zM180 124q0 -43 27 -43q17 0 47 18q21 12 45 29q0 16 -2 50q0 10 -1.5 38.5t-0.5 59.5l1 16q-12 3 -25 2q-24 -3 -45 -31t-33.5 -66.5t-12.5 -72.5zM161 -77q18 10 43 16.5t48 6.5q29 0 47 -12q20 -13 20 -39q0 -20 -12.5 -42t-35.5 -39q-27 26 -49 49
q-28 29 -61 60zM350 433q-9 -1 -14 0.5t-14 6.5q-21 12 -46 38.5t-49 58.5t-9 61q59 -33 86 -50.5t144 -62.5q-16 -13 -41 -28t-57 -24zM75 434q30 26 76 84t77 106q16 -7 38 -22.5t31 -28.5q-2 -13 -9 -25q-13 -22 -45 -49.5t-74.5 -48.5t-93.5 -16z" />
    <glyph glyph-name="uni1EAE" unicode="&#x1eae;" 
d="M401 564q23 -49 42.5 -89t34.5 -73q111 -229 172 -368q-18 -14 -55.5 -30t-54.5 -18q-14 -2 -18 -2q-12 0 -22 7.5t-21 25.5q-27 46 -68 185q-20 -22 -76 -22q-37 0 -74 4q-9 -21 -23 -48q-40 -75 -94.5 -118t-103.5 -45q63 164 113 312t115 360q29 -1 58 -7t37 -7
q22 -7 31 -18.5t9 -28.5q0 -6 -2 -20zM385 302q-23 91 -34 166l-8 -29q-5 -16 -17.5 -63t-25.5 -86zM251 689q-20 8 -32 23t-14 33q-3 25 14 46.5t46 30.5q-5 -29 4.5 -45t26.5 -23t39 -7t42 3q60 8 70.5 41.5t7.5 45.5t8 -17q9 -24 11 -47q4 -33 -8.5 -55t-44.5 -33
q-9 -3 -28 -7q-78 -14 -142 11zM478 1017q20 -24 26 -51t0.5 -51.5t-19.5 -41.5q-12 -14 -23 -26q-46 -46 -95 -58t-87 -2q20 24 42.5 50t44.5 52q37 42 111 128z" />
    <glyph glyph-name="uni1EAF" unicode="&#x1eaf;" horiz-adv-x="523" 
d="M488 102q1 -38 -12 -66t-36 -42.5t-48 -14.5q-22 0 -41 11t-32 32q-41 -32 -97 -43q-25 -5 -44 -5q-62 0 -101 41.5t-42 126.5q-1 56 24.5 116t67.5 102.5t88 49.5q4 1 12 1q46 0 91 -41l4 5q15 16 43 29.5t57 13.5q9 0 13 -1v-309q0 -14 5.5 -21t14.5 -7q10 0 19.5 7
t13.5 15zM180 124q0 -43 27 -43q17 0 47 18q21 12 45 29q0 16 -2 50q0 10 -1.5 38.5t-0.5 59.5l1 16q-12 3 -25 2q-24 -3 -45 -31t-33.5 -66.5t-12.5 -72.5zM173 464q-20 8 -32 23t-14 33q-3 25 14 46.5t46 30.5q-5 -29 4.5 -45t26.5 -23t39 -7t42 3q60 8 70.5 41.5
t7.5 45.5t8 -17q9 -24 11 -47q4 -33 -8.5 -55t-44.5 -33q-9 -3 -28 -7q-78 -14 -142 11zM407 796q20 -24 26 -51t0.5 -51.5t-19.5 -41.5q-12 -14 -23 -26q-46 -46 -95 -58t-87 -2q20 24 42.5 50t44.5 52q37 42 111 128z" />
    <glyph glyph-name="uni1EB0" unicode="&#x1eb0;" 
d="M401 564q23 -49 42.5 -89t34.5 -73q111 -229 172 -368q-18 -14 -55.5 -30t-54.5 -18q-14 -2 -18 -2q-12 0 -22 7.5t-21 25.5q-27 46 -68 185q-20 -22 -76 -22q-37 0 -74 4q-9 -21 -23 -48q-40 -75 -94.5 -118t-103.5 -45q63 164 113 312t115 360q29 -1 58 -7t37 -7
q22 -7 31 -18.5t9 -28.5q0 -6 -2 -20zM385 302q-23 91 -34 166l-8 -29q-5 -16 -17.5 -63t-25.5 -86zM251 689q-20 8 -32 23t-14 33q-3 25 14 46.5t46 30.5q-5 -29 4.5 -45t26.5 -23t39 -7t42 3q60 8 70.5 41.5t7.5 45.5t8 -17q9 -24 11 -47q4 -33 -8.5 -55t-44.5 -33
q-9 -3 -28 -7q-78 -14 -142 11zM160 970q24 20 51 26t51.5 0.5t41.5 -19.5q14 -12 26 -23q46 -46 58 -95t2 -87q-24 20 -50 42.5t-52 44.5q-42 37 -128 111z" />
    <glyph glyph-name="uni1EB1" unicode="&#x1eb1;" horiz-adv-x="523" 
d="M488 102q1 -38 -12 -66t-36 -42.5t-48 -14.5q-22 0 -41 11t-32 32q-41 -32 -97 -43q-25 -5 -44 -5q-62 0 -101 41.5t-42 126.5q-1 56 24.5 116t67.5 102.5t88 49.5q4 1 12 1q46 0 91 -41l4 5q15 16 43 29.5t57 13.5q9 0 13 -1v-309q0 -14 5.5 -21t14.5 -7q10 0 19.5 7
t13.5 15zM180 124q0 -43 27 -43q17 0 47 18q21 12 45 29q0 16 -2 50q0 10 -1.5 38.5t-0.5 59.5l1 16q-12 3 -25 2q-24 -3 -45 -31t-33.5 -66.5t-12.5 -72.5zM173 464q-20 8 -32 23t-14 33q-3 25 14 46.5t46 30.5q-5 -29 4.5 -45t26.5 -23t39 -7t42 3q60 8 70.5 41.5
t7.5 45.5t8 -17q9 -24 11 -47q4 -33 -8.5 -55t-44.5 -33q-9 -3 -28 -7q-78 -14 -142 11zM91 751q24 20 51 26t51.5 0.5t41.5 -19.5q14 -12 26 -23q46 -46 58 -95t2 -87q-24 20 -50 42.5t-52 44.5q-42 37 -128 111z" />
    <glyph glyph-name="uni1EB2" unicode="&#x1eb2;" 
d="M401 564q23 -49 42.5 -89t34.5 -73q111 -229 172 -368q-18 -14 -55.5 -30t-54.5 -18q-14 -2 -18 -2q-12 0 -22 7.5t-21 25.5q-27 46 -68 185q-20 -22 -76 -22q-37 0 -74 4q-9 -21 -23 -48q-40 -75 -94.5 -118t-103.5 -45q63 164 113 312t115 360q29 -1 58 -7t37 -7
q22 -7 31 -18.5t9 -28.5q0 -6 -2 -20zM385 302q-23 91 -34 166l-8 -29q-5 -16 -17.5 -63t-25.5 -86zM251 689q-20 8 -32 23t-14 33q-3 25 14 46.5t46 30.5q-5 -29 4.5 -45t26.5 -23t39 -7t42 3q60 8 70.5 41.5t7.5 45.5t8 -17q9 -24 11 -47q4 -33 -8.5 -55t-44.5 -33
q-9 -3 -28 -7q-78 -14 -142 11zM347 958q21 14 44 15q29 2 40.5 -14t18.5 -41q6 -24 -9 -52t-31.5 -41.5t-52.5 -34.5l-39 -22q1 2 9 11q23 26 36 48q14 19 16 38q2 24 -20 26t-43 -13.5t-31 -27.5q-10 15 -14 38q-3 17 -1 35.5t5 31t9 18.5q11 12 27 15q22 4 50 -3
q-22 -22 -40 -51q10 13 26 24z" />
    <glyph glyph-name="uni1EB3" unicode="&#x1eb3;" horiz-adv-x="523" 
d="M488 102q1 -38 -12 -66t-36 -42.5t-48 -14.5q-22 0 -41 11t-32 32q-41 -32 -97 -43q-25 -5 -44 -5q-62 0 -101 41.5t-42 126.5q-1 56 24.5 116t67.5 102.5t88 49.5q4 1 12 1q46 0 91 -41l4 5q15 16 43 29.5t57 13.5q9 0 13 -1v-309q0 -14 5.5 -21t14.5 -7q10 0 19.5 7
t13.5 15zM180 124q0 -43 27 -43q17 0 47 18q21 12 45 29q0 16 -2 50q0 10 -1.5 38.5t-0.5 59.5l1 16q-12 3 -25 2q-24 -3 -45 -31t-33.5 -66.5t-12.5 -72.5zM173 464q-20 8 -32 23t-14 33q-3 25 14 46.5t46 30.5q-5 -29 4.5 -45t26.5 -23t39 -7t42 3q60 8 70.5 41.5
t7.5 45.5t8 -17q9 -24 11 -47q4 -33 -8.5 -55t-44.5 -33q-9 -3 -28 -7q-78 -14 -142 11zM273 740q21 14 44 15q29 2 40.5 -14t18.5 -41q6 -24 -9 -52t-31.5 -41.5t-52.5 -34.5l-39 -22q1 2 9 11q23 26 36 48q14 19 16 38q2 24 -20 26t-43 -13.5t-31 -27.5q-10 15 -14 38
q-3 17 -1 35.5t5 31t9 18.5q11 12 27 15q22 4 50 -3q-22 -22 -40 -51q10 13 26 24z" />
    <glyph glyph-name="uni1EB4" unicode="&#x1eb4;" 
d="M401 564q23 -49 42.5 -89t34.5 -73q111 -229 172 -368q-18 -14 -55.5 -30t-54.5 -18q-14 -2 -18 -2q-12 0 -22 7.5t-21 25.5q-27 46 -68 185q-20 -22 -76 -22q-37 0 -74 4q-9 -21 -23 -48q-40 -75 -94.5 -118t-103.5 -45q63 164 113 312t115 360q29 -1 58 -7t37 -7
q22 -7 31 -18.5t9 -28.5q0 -6 -2 -20zM385 302q-23 91 -34 166l-8 -29q-5 -16 -17.5 -63t-25.5 -86zM251 689q-20 8 -32 23t-14 33q-3 25 14 46.5t46 30.5q-5 -29 4.5 -45t26.5 -23t39 -7t42 3q60 8 70.5 41.5t7.5 45.5t8 -17q9 -24 11 -47q4 -33 -8.5 -55t-44.5 -33
q-9 -3 -28 -7q-78 -14 -142 11zM483 841q-72 36 -131 50t-89 8q-19 -10 -11.5 -23t26.5 -34q-15 0 -36.5 9t-38.5 24.5t-21 33.5q-1 4 -2 9q-5 42 50 49q11 1 25 1q39 0 86.5 -14.5t91.5 -44.5q0 30 -14 44t-37 19q7 9 18 16.5t23 11.5q6 2 16 3q35 2 54 -28q12 -19 16 -49
t-4.5 -59t-21.5 -26z" />
    <glyph glyph-name="uni1EB5" unicode="&#x1eb5;" horiz-adv-x="523" 
d="M488 102q1 -38 -12 -66t-36 -42.5t-48 -14.5q-22 0 -41 11t-32 32q-41 -32 -97 -43q-25 -5 -44 -5q-62 0 -101 41.5t-42 126.5q-1 56 24.5 116t67.5 102.5t88 49.5q4 1 12 1q46 0 91 -41l4 5q15 16 43 29.5t57 13.5q9 0 13 -1v-309q0 -14 5.5 -21t14.5 -7q10 0 19.5 7
t13.5 15zM180 124q0 -43 27 -43q17 0 47 18q21 12 45 29q0 16 -2 50q0 10 -1.5 38.5t-0.5 59.5l1 16q-12 3 -25 2q-24 -3 -45 -31t-33.5 -66.5t-12.5 -72.5zM173 464q-20 8 -32 23t-14 33q-3 25 14 46.5t46 30.5q-5 -29 4.5 -45t26.5 -23t39 -7t42 3q60 8 70.5 41.5
t7.5 45.5t8 -17q9 -24 11 -47q4 -33 -8.5 -55t-44.5 -33q-9 -3 -28 -7q-78 -14 -142 11zM400 621q-72 36 -131 50t-89 8q-19 -10 -11.5 -23t26.5 -34q-15 0 -36.5 9t-38.5 24.5t-21 33.5q-1 4 -2 9q-5 42 50 49q11 1 25 1q39 0 86.5 -14.5t91.5 -44.5q0 30 -14 44t-37 19
q7 9 18 16.5t23 11.5q6 2 16 3q35 2 54 -28q12 -19 16 -49t-4.5 -59t-21.5 -26z" />
    <glyph glyph-name="uni1EB6" unicode="&#x1eb6;" 
d="M401 564q23 -49 42.5 -89t34.5 -73q111 -229 172 -368q-18 -14 -55.5 -30t-54.5 -18q-14 -2 -18 -2q-12 0 -22 7.5t-21 25.5q-27 46 -68 185q-20 -22 -76 -22q-37 0 -74 4q-9 -21 -23 -48q-40 -75 -94.5 -118t-103.5 -45q63 164 113 312t115 360q29 -1 58 -7t37 -7
q22 -7 31 -18.5t9 -28.5q0 -6 -2 -20zM385 302q-23 91 -34 166l-8 -29q-5 -16 -17.5 -63t-25.5 -86zM243 -77q18 10 43 16.5t48 6.5q29 0 47 -12q20 -13 20 -39q0 -20 -12.5 -42t-35.5 -39q-27 26 -49 49q-28 29 -61 60zM256 689q-20 8 -32 23t-14 33q-3 25 14 46.5t46 30.5
q-5 -29 4.5 -45t26.5 -23t39 -7t42 3q60 8 70.5 41.5t7.5 45.5t8 -17q9 -24 11 -47q4 -33 -8.5 -55t-44.5 -33q-9 -3 -28 -7q-78 -14 -142 11z" />
    <glyph glyph-name="uni1EB7" unicode="&#x1eb7;" horiz-adv-x="523" 
d="M488 102q1 -38 -12 -66t-36 -42.5t-48 -14.5q-22 0 -41 11t-32 32q-41 -32 -97 -43q-25 -5 -44 -5q-62 0 -101 41.5t-42 126.5q-1 56 24.5 116t67.5 102.5t88 49.5q4 1 12 1q46 0 91 -41l4 5q15 16 43 29.5t57 13.5q9 0 13 -1v-309q0 -14 5.5 -21t14.5 -7q10 0 19.5 7
t13.5 15zM180 124q0 -43 27 -43q17 0 47 18q21 12 45 29q0 16 -2 50q0 10 -1.5 38.5t-0.5 59.5l1 16q-12 3 -25 2q-24 -3 -45 -31t-33.5 -66.5t-12.5 -72.5zM161 -77q18 10 43 16.5t48 6.5q29 0 47 -12q20 -13 20 -39q0 -20 -12.5 -42t-35.5 -39q-27 26 -49 49
q-28 29 -61 60zM173 463q-20 8 -32 23t-14 33q-3 25 14 46.5t46 30.5q-5 -29 4.5 -45t26.5 -23t39 -7t42 3q60 8 70.5 41.5t7.5 45.5t8 -17q9 -24 11 -47q4 -33 -8.5 -55t-44.5 -33q-9 -3 -28 -7q-78 -14 -142 11z" />
    <glyph glyph-name="uni1EB8" unicode="&#x1eb8;" horiz-adv-x="508" 
d="M181 94q9 1 196 27l91 13q-8 -56 -26 -104q-12 -34 -30.5 -46t-62.5 -12q-10 0 -44 2q-50 1 -129 17l-1 -27q-55 15 -95 96t-40 246q0 69 7 143q9 90 52 144t117 57q-2 -29 -4 -43l31 5q35 5 97.5 15t119.5 18q-4 -50 -22 -100q-11 -33 -31.5 -45t-66.5 -12q-11 0 -43 2
q-33 1 -92 14q-6 -72 -8 -125l71 11l129 19q-3 -52 -21 -100q-12 -33 -33.5 -45t-72.5 -12q-23 0 -36 1q-31 2 -44 4q-6 -85 -9 -163zM153 -77q18 10 43 16.5t48 6.5q29 0 47 -12q20 -13 20 -39q0 -20 -12.5 -42t-35.5 -39q-27 26 -49 49q-28 29 -61 60z" />
    <glyph glyph-name="uni1EB9" unicode="&#x1eb9;" horiz-adv-x="442" 
d="M186 130q22 -29 74 -29q33 0 69.5 11t63.5 27q5 -25 5 -43q0 -77 -79 -107q-39 -15 -85 -15q-61 0 -111 29t-70 86q-18 51 -18 100q0 58 24 107t69 81t104 39q18 2 26 2q50 0 85 -25t47 -55q17 -42 17 -76q0 -37 -22 -61.5t-68 -30.5q-32 -4 -64 -4q-58 0 -92 15
q7 -28 25 -51zM209 309q-16 -8 -28.5 -26.5t-19.5 -41.5l123 20q-2 20 -19 36.5t-37 16.5q-12 0 -19 -5zM120 -77q18 10 43 16.5t48 6.5q29 0 47 -12q20 -13 20 -39q0 -20 -12.5 -42t-35.5 -39q-27 26 -49 49q-28 29 -61 60z" />
    <glyph glyph-name="uni1EBA" unicode="&#x1eba;" horiz-adv-x="508" 
d="M181 94q9 1 196 27l91 13q-8 -56 -26 -104q-12 -34 -30.5 -46t-62.5 -12q-10 0 -44 2q-50 1 -129 17l-1 -27q-55 15 -95 96t-40 246q0 69 7 143q9 90 52 144t117 57q-2 -29 -4 -43l31 5q35 5 97.5 15t119.5 18q-4 -50 -22 -100q-11 -33 -31.5 -45t-66.5 -12q-11 0 -43 2
q-33 1 -92 14q-6 -72 -8 -125l71 11l129 19q-3 -52 -21 -100q-12 -33 -33.5 -45t-72.5 -12q-23 0 -36 1q-31 2 -44 4q-6 -85 -9 -163zM265 854q21 14 44 15q29 2 40.5 -14t18.5 -41q6 -24 -9 -52t-31.5 -41.5t-52.5 -34.5l-39 -22q1 2 9 11q23 26 36 48q14 19 16 38
q2 24 -20 26t-43 -13.5t-31 -27.5q-10 15 -14 38q-3 17 -1 35.5t5 31t9 18.5q11 12 27 15q22 4 50 -3q-22 -22 -40 -51q10 13 26 24z" />
    <glyph glyph-name="uni1EBB" unicode="&#x1ebb;" horiz-adv-x="442" 
d="M186 130q22 -29 74 -29q33 0 69.5 11t63.5 27q5 -25 5 -43q0 -77 -79 -107q-39 -15 -85 -15q-61 0 -111 29t-70 86q-18 51 -18 100q0 58 24 107t69 81t104 39q18 2 26 2q50 0 85 -25t47 -55q17 -42 17 -76q0 -37 -22 -61.5t-68 -30.5q-32 -4 -64 -4q-58 0 -92 15
q7 -28 25 -51zM209 309q-16 -8 -28.5 -26.5t-19.5 -41.5l123 20q-2 20 -19 36.5t-37 16.5q-12 0 -19 -5zM232 634q21 14 44 15q29 2 40.5 -14t18.5 -41q6 -24 -9 -52t-31.5 -41.5t-52.5 -34.5l-39 -22q1 2 9 11q23 26 36 48q14 19 16 38q2 24 -20 26t-43 -13.5t-31 -27.5
q-10 15 -14 38q-3 17 -1 35.5t5 31t9 18.5q11 12 27 15q22 4 50 -3q-22 -22 -40 -51q10 13 26 24z" />
    <glyph glyph-name="uni1EBC" unicode="&#x1ebc;" horiz-adv-x="508" 
d="M181 94q9 1 196 27l91 13q-8 -56 -26 -104q-12 -34 -30.5 -46t-62.5 -12q-10 0 -44 2q-50 1 -129 17l-1 -27q-55 15 -95 96t-40 246q0 69 7 143q9 90 52 144t117 57q-2 -29 -4 -43l31 5q35 5 97.5 15t119.5 18q-4 -50 -22 -100q-11 -33 -31.5 -45t-66.5 -12q-11 0 -43 2
q-33 1 -92 14q-6 -72 -8 -125l71 11l129 19q-3 -52 -21 -100q-12 -33 -33.5 -45t-72.5 -12q-23 0 -36 1q-31 2 -44 4q-6 -85 -9 -163zM392 665q-72 36 -131 50t-89 8q-19 -10 -11.5 -23t26.5 -34q-15 0 -36.5 9t-38.5 24.5t-21 33.5q-1 4 -2 9q-5 42 50 49q11 1 25 1
q39 0 86.5 -14.5t91.5 -44.5q0 30 -14 44t-37 19q7 9 18 16.5t23 11.5q6 2 16 3q35 2 54 -28q12 -19 16 -49t-4.5 -59t-21.5 -26z" />
    <glyph glyph-name="uni1EBD" unicode="&#x1ebd;" horiz-adv-x="442" 
d="M186 130q22 -29 74 -29q33 0 69.5 11t63.5 27q5 -25 5 -43q0 -77 -79 -107q-39 -15 -85 -15q-61 0 -111 29t-70 86q-18 51 -18 100q0 58 24 107t69 81t104 39q18 2 26 2q50 0 85 -25t47 -55q17 -42 17 -76q0 -37 -22 -61.5t-68 -30.5q-32 -4 -64 -4q-58 0 -92 15
q7 -28 25 -51zM209 309q-16 -8 -28.5 -26.5t-19.5 -41.5l123 20q-2 20 -19 36.5t-37 16.5q-12 0 -19 -5zM359 445q-72 36 -131 50t-89 8q-19 -10 -11.5 -23t26.5 -34q-15 0 -36.5 9t-38.5 24.5t-21 33.5q-1 4 -2 9q-5 42 50 49q11 1 25 1q39 0 86.5 -14.5t91.5 -44.5
q0 30 -14 44t-37 19q7 9 18 16.5t23 11.5q6 2 16 3q35 2 54 -28q12 -19 16 -49t-4.5 -59t-21.5 -26z" />
    <glyph glyph-name="uni1EBE" unicode="&#x1ebe;" horiz-adv-x="508" 
d="M181 94q9 1 196 27l91 13q-8 -56 -26 -104q-12 -34 -30.5 -46t-62.5 -12q-10 0 -44 2q-50 1 -129 17l-1 -27q-55 15 -95 96t-40 246q0 69 7 143q9 90 52 144t117 57q-2 -29 -4 -43l31 5q35 5 97.5 15t119.5 18q-4 -50 -22 -100q-11 -33 -31.5 -45t-66.5 -12q-11 0 -43 2
q-33 1 -92 14q-6 -72 -8 -125l71 11l129 19q-3 -52 -21 -100q-12 -33 -33.5 -45t-72.5 -12q-23 0 -36 1q-31 2 -44 4q-6 -85 -9 -163zM342 653q-9 -1 -14 0.5t-14 6.5q-21 12 -46 38.5t-49 58.5t-9 61q59 -33 86 -50.5t144 -62.5q-16 -13 -41 -28t-57 -24zM67 654
q30 26 76 84t77 106q16 -7 38 -22.5t31 -28.5q-2 -13 -9 -25q-13 -22 -45 -49.5t-74.5 -48.5t-93.5 -16zM555 994q20 -24 26 -51t0.5 -51.5t-19.5 -41.5q-12 -14 -23 -26q-46 -46 -95 -58t-87 -2q20 24 42.5 50t44.5 52q37 42 111 128z" />
    <glyph glyph-name="uni1EBF" unicode="&#x1ebf;" horiz-adv-x="442" 
d="M186 130q22 -29 74 -29q33 0 69.5 11t63.5 27q5 -25 5 -43q0 -77 -79 -107q-39 -15 -85 -15q-61 0 -111 29t-70 86q-18 51 -18 100q0 58 24 107t69 81t104 39q18 2 26 2q50 0 85 -25t47 -55q17 -42 17 -76q0 -37 -22 -61.5t-68 -30.5q-32 -4 -64 -4q-58 0 -92 15
q7 -28 25 -51zM209 309q-16 -8 -28.5 -26.5t-19.5 -41.5l123 20q-2 20 -19 36.5t-37 16.5q-12 0 -19 -5zM309 443q-9 -1 -14 0.5t-14 6.5q-21 12 -46 38.5t-49 58.5t-9 61q59 -33 86 -50.5t144 -62.5q-16 -13 -41 -28t-57 -24zM34 444q30 26 76 84t77 106q16 -7 38 -22.5
t31 -28.5q-2 -13 -9 -25q-13 -22 -45 -49.5t-74.5 -48.5t-93.5 -16zM534 777q20 -24 26 -51t0.5 -51.5t-19.5 -41.5q-12 -14 -23 -26q-46 -46 -95 -58t-87 -2q20 24 42.5 50t44.5 52q37 42 111 128z" />
    <glyph glyph-name="uni1EC0" unicode="&#x1ec0;" horiz-adv-x="508" 
d="M181 94q9 1 196 27l91 13q-8 -56 -26 -104q-12 -34 -30.5 -46t-62.5 -12q-10 0 -44 2q-50 1 -129 17l-1 -27q-55 15 -95 96t-40 246q0 69 7 143q9 90 52 144t117 57q-2 -29 -4 -43l31 5q35 5 97.5 15t119.5 18q-4 -50 -22 -100q-11 -33 -31.5 -45t-66.5 -12q-11 0 -43 2
q-33 1 -92 14q-6 -72 -8 -125l71 11l129 19q-3 -52 -21 -100q-12 -33 -33.5 -45t-72.5 -12q-23 0 -36 1q-31 2 -44 4q-6 -85 -9 -163zM342 653q-9 -1 -14 0.5t-14 6.5q-21 12 -46 38.5t-49 58.5t-9 61q59 -33 86 -50.5t144 -62.5q-16 -13 -41 -28t-57 -24zM67 654
q30 26 76 84t77 106q16 -7 38 -22.5t31 -28.5q-2 -13 -9 -25q-13 -22 -45 -49.5t-74.5 -48.5t-93.5 -16zM166 948q24 20 51 26t51.5 0.5t41.5 -19.5q14 -12 26 -23q46 -46 58 -95t2 -87q-24 20 -50 42.5t-52 44.5q-42 37 -128 111z" />
    <glyph glyph-name="uni1EC1" unicode="&#x1ec1;" horiz-adv-x="442" 
d="M186 130q22 -29 74 -29q33 0 69.5 11t63.5 27q5 -25 5 -43q0 -77 -79 -107q-39 -15 -85 -15q-61 0 -111 29t-70 86q-18 51 -18 100q0 58 24 107t69 81t104 39q18 2 26 2q50 0 85 -25t47 -55q17 -42 17 -76q0 -37 -22 -61.5t-68 -30.5q-32 -4 -64 -4q-58 0 -92 15
q7 -28 25 -51zM209 309q-16 -8 -28.5 -26.5t-19.5 -41.5l123 20q-2 20 -19 36.5t-37 16.5q-12 0 -19 -5zM309 443q-9 -1 -14 0.5t-14 6.5q-21 12 -46 38.5t-49 58.5t-9 61q59 -33 86 -50.5t144 -62.5q-16 -13 -41 -28t-57 -24zM34 444q30 26 76 84t77 106q16 -7 38 -22.5
t31 -28.5q-2 -13 -9 -25q-13 -22 -45 -49.5t-74.5 -48.5t-93.5 -16zM126 737q24 20 51 26t51.5 0.5t41.5 -19.5q14 -12 26 -23q46 -46 58 -95t2 -87q-24 20 -50 42.5t-52 44.5q-42 37 -128 111z" />
    <glyph glyph-name="uni1EC2" unicode="&#x1ec2;" horiz-adv-x="508" 
d="M181 94q9 1 196 27l91 13q-8 -56 -26 -104q-12 -34 -30.5 -46t-62.5 -12q-10 0 -44 2q-50 1 -129 17l-1 -27q-55 15 -95 96t-40 246q0 69 7 143q9 90 52 144t117 57q-2 -29 -4 -43l31 5q35 5 97.5 15t119.5 18q-4 -50 -22 -100q-11 -33 -31.5 -45t-66.5 -12q-11 0 -43 2
q-33 1 -92 14q-6 -72 -8 -125l71 11l129 19q-3 -52 -21 -100q-12 -33 -33.5 -45t-72.5 -12q-23 0 -36 1q-31 2 -44 4q-6 -85 -9 -163zM342 653q-9 -1 -14 0.5t-14 6.5q-21 12 -46 38.5t-49 58.5t-9 61q59 -33 86 -50.5t144 -62.5q-16 -13 -41 -28t-57 -24zM67 654
q30 26 76 84t77 106q16 -7 38 -22.5t31 -28.5q-2 -13 -9 -25q-13 -22 -45 -49.5t-74.5 -48.5t-93.5 -16zM400 943q21 14 44 15q29 2 40.5 -14t18.5 -41q6 -24 -9 -52t-31.5 -41.5t-52.5 -34.5l-39 -22q1 2 9 11q23 26 36 48q14 19 16 38q2 24 -20 26t-43 -13.5t-31 -27.5
q-10 15 -14 38q-3 17 -1 35.5t5 31t9 18.5q11 12 27 15q22 4 50 -3q-22 -22 -40 -51q10 13 26 24z" />
    <glyph glyph-name="uni1EC3" unicode="&#x1ec3;" horiz-adv-x="442" 
d="M186 130q22 -29 74 -29q33 0 69.5 11t63.5 27q5 -25 5 -43q0 -77 -79 -107q-39 -15 -85 -15q-61 0 -111 29t-70 86q-18 51 -18 100q0 58 24 107t69 81t104 39q18 2 26 2q50 0 85 -25t47 -55q17 -42 17 -76q0 -37 -22 -61.5t-68 -30.5q-32 -4 -64 -4q-58 0 -92 15
q7 -28 25 -51zM209 309q-16 -8 -28.5 -26.5t-19.5 -41.5l123 20q-2 20 -19 36.5t-37 16.5q-12 0 -19 -5zM309 443q-9 -1 -14 0.5t-14 6.5q-21 12 -46 38.5t-49 58.5t-9 61q59 -33 86 -50.5t144 -62.5q-16 -13 -41 -28t-57 -24zM34 444q30 26 76 84t77 106q16 -7 38 -22.5
t31 -28.5q-2 -13 -9 -25q-13 -22 -45 -49.5t-74.5 -48.5t-93.5 -16zM360 735q21 14 44 15q29 2 40.5 -14t18.5 -41q6 -24 -9 -52t-31.5 -41.5t-52.5 -34.5l-39 -22q1 2 9 11q23 26 36 48q14 19 16 38q2 24 -20 26t-43 -13.5t-31 -27.5q-10 15 -14 38q-3 17 -1 35.5t5 31
t9 18.5q11 12 27 15q22 4 50 -3q-22 -22 -40 -51q10 13 26 24z" />
    <glyph glyph-name="uni1EC4" unicode="&#x1ec4;" horiz-adv-x="508" 
d="M181 94q9 1 196 27l91 13q-8 -56 -26 -104q-12 -34 -30.5 -46t-62.5 -12q-10 0 -44 2q-50 1 -129 17l-1 -27q-55 15 -95 96t-40 246q0 69 7 143q9 90 52 144t117 57q-2 -29 -4 -43l31 5q35 5 97.5 15t119.5 18q-4 -50 -22 -100q-11 -33 -31.5 -45t-66.5 -12q-11 0 -43 2
q-33 1 -92 14q-6 -72 -8 -125l71 11l129 19q-3 -52 -21 -100q-12 -33 -33.5 -45t-72.5 -12q-23 0 -36 1q-31 2 -44 4q-6 -85 -9 -163zM342 653q-9 -1 -14 0.5t-14 6.5q-21 12 -46 38.5t-49 58.5t-9 61q59 -33 86 -50.5t144 -62.5q-16 -13 -41 -28t-57 -24zM67 654
q30 26 76 84t77 106q16 -7 38 -22.5t31 -28.5q-2 -13 -9 -25q-13 -22 -45 -49.5t-74.5 -48.5t-93.5 -16zM392 809q-72 36 -131 50t-89 8q-19 -10 -11.5 -23t26.5 -34q-15 0 -36.5 9t-38.5 24.5t-21 33.5q-1 4 -2 9q-5 42 50 49q11 1 25 1q39 0 86.5 -14.5t91.5 -44.5
q0 30 -14 44t-37 19q7 9 18 16.5t23 11.5q6 2 16 3q35 2 54 -28q12 -19 16 -49t-4.5 -59t-21.5 -26z" />
    <glyph glyph-name="uni1EC5" unicode="&#x1ec5;" horiz-adv-x="442" 
d="M186 130q22 -29 74 -29q33 0 69.5 11t63.5 27q5 -25 5 -43q0 -77 -79 -107q-39 -15 -85 -15q-61 0 -111 29t-70 86q-18 51 -18 100q0 58 24 107t69 81t104 39q18 2 26 2q50 0 85 -25t47 -55q17 -42 17 -76q0 -37 -22 -61.5t-68 -30.5q-32 -4 -64 -4q-58 0 -92 15
q7 -28 25 -51zM209 309q-16 -8 -28.5 -26.5t-19.5 -41.5l123 20q-2 20 -19 36.5t-37 16.5q-12 0 -19 -5zM309 443q-9 -1 -14 0.5t-14 6.5q-21 12 -46 38.5t-49 58.5t-9 61q59 -33 86 -50.5t144 -62.5q-16 -13 -41 -28t-57 -24zM34 444q30 26 76 84t77 106q16 -7 38 -22.5
t31 -28.5q-2 -13 -9 -25q-13 -22 -45 -49.5t-74.5 -48.5t-93.5 -16zM359 595q-72 36 -131 50t-89 8q-19 -10 -11.5 -23t26.5 -34q-15 0 -36.5 9t-38.5 24.5t-21 33.5q-1 4 -2 9q-5 42 50 49q11 1 25 1q39 0 86.5 -14.5t91.5 -44.5q0 30 -14 44t-37 19q7 9 18 16.5t23 11.5
q6 2 16 3q35 2 54 -28q12 -19 16 -49t-4.5 -59t-21.5 -26z" />
    <glyph glyph-name="uni1EC6" unicode="&#x1ec6;" horiz-adv-x="508" 
d="M181 94q9 1 196 27l91 13q-8 -56 -26 -104q-12 -34 -30.5 -46t-62.5 -12q-10 0 -44 2q-50 1 -129 17l-1 -27q-55 15 -95 96t-40 246q0 69 7 143q9 90 52 144t117 57q-2 -29 -4 -43l31 5q35 5 97.5 15t119.5 18q-4 -50 -22 -100q-11 -33 -31.5 -45t-66.5 -12q-11 0 -43 2
q-33 1 -92 14q-6 -72 -8 -125l71 11l129 19q-3 -52 -21 -100q-12 -33 -33.5 -45t-72.5 -12q-23 0 -36 1q-31 2 -44 4q-6 -85 -9 -163zM153 -77q18 10 43 16.5t48 6.5q29 0 47 -12q20 -13 20 -39q0 -20 -12.5 -42t-35.5 -39q-27 26 -49 49q-28 29 -61 60zM342 653
q-9 -1 -14 0.5t-14 6.5q-21 12 -46 38.5t-49 58.5t-9 61q59 -33 86 -50.5t144 -62.5q-16 -13 -41 -28t-57 -24zM67 654q30 26 76 84t77 106q16 -7 38 -22.5t31 -28.5q-2 -13 -9 -25q-13 -22 -45 -49.5t-74.5 -48.5t-93.5 -16z" />
    <glyph glyph-name="uni1EC7" unicode="&#x1ec7;" horiz-adv-x="442" 
d="M186 130q22 -29 74 -29q33 0 69.5 11t63.5 27q5 -25 5 -43q0 -77 -79 -107q-39 -15 -85 -15q-61 0 -111 29t-70 86q-18 51 -18 100q0 58 24 107t69 81t104 39q18 2 26 2q50 0 85 -25t47 -55q17 -42 17 -76q0 -37 -22 -61.5t-68 -30.5q-32 -4 -64 -4q-58 0 -92 15
q7 -28 25 -51zM209 309q-16 -8 -28.5 -26.5t-19.5 -41.5l123 20q-2 20 -19 36.5t-37 16.5q-12 0 -19 -5zM120 -77q18 10 43 16.5t48 6.5q29 0 47 -12q20 -13 20 -39q0 -20 -12.5 -42t-35.5 -39q-27 26 -49 49q-28 29 -61 60zM309 443q-9 -1 -14 0.5t-14 6.5q-21 12 -46 38.5
t-49 58.5t-9 61q59 -33 86 -50.5t144 -62.5q-16 -13 -41 -28t-57 -24zM34 444q30 26 76 84t77 106q16 -7 38 -22.5t31 -28.5q-2 -13 -9 -25q-13 -22 -45 -49.5t-74.5 -48.5t-93.5 -16z" />
    <glyph glyph-name="uni1EC8" unicode="&#x1ec8;" horiz-adv-x="262" 
d="M222 645q-9 -107 -20 -332t-16 -340q-31 8 -65.5 72t-57.5 160t-23 195q0 53 7 99q10 71 54 106.5t121 39.5zM142 854q21 14 44 15q29 2 40.5 -14t18.5 -41q6 -24 -9 -52t-31.5 -41.5t-52.5 -34.5l-39 -22q1 2 9 11q23 26 36 48q14 19 16 38q2 24 -20 26t-43 -13.5
t-31 -27.5q-10 15 -14 38q-3 17 -1 35.5t5 31t9 18.5q11 12 27 15q22 4 50 -3q-22 -22 -40 -51q10 13 26 24z" />
    <glyph glyph-name="uni1EC9" unicode="&#x1ec9;" horiz-adv-x="230" 
d="M195 418q-13 -167 -18 -248q-4 -51 -7.5 -101t-7.5 -96q-51 29 -89 92.5t-38 159.5q0 23 3 50q3 32 22.5 63.5t54 53.5t80.5 26zM109 624q21 14 44 15q29 2 40.5 -14t18.5 -41q6 -24 -9 -52t-31.5 -41.5t-52.5 -34.5l-39 -22q1 2 9 11q23 26 36 48q14 19 16 38
q2 24 -20 26t-43 -13.5t-31 -27.5q-10 15 -14 38q-3 17 -1 35.5t5 31t9 18.5q11 12 27 15q22 4 50 -3q-22 -22 -40 -51q10 13 26 24z" />
    <glyph glyph-name="uni1ECA" unicode="&#x1eca;" horiz-adv-x="262" 
d="M222 645q-9 -107 -20 -332t-16 -340q-31 8 -65.5 72t-57.5 160t-23 195q0 53 7 99q10 71 54 106.5t121 39.5zM30 -77q18 10 43 16.5t48 6.5q29 0 47 -12q20 -13 20 -39q0 -20 -12.5 -42t-35.5 -39q-27 26 -49 49q-28 29 -61 60z" />
    <glyph glyph-name="uni1ECB" unicode="&#x1ecb;" horiz-adv-x="266" 
d="M37 587q22 12 52.5 20t58.5 8q36 0 58 -14q25 -16 25 -48q0 -25 -15.5 -52t-43.5 -48q-33 32 -61 61q-34 35 -74 73zM195 418q-13 -167 -18 -248q-4 -51 -7.5 -101t-7.5 -96q-51 29 -89 92.5t-38 159.5q0 23 3 50q3 32 22.5 63.5t54 53.5t80.5 26zM32 -77q18 10 43 16.5
t48 6.5q29 0 47 -12q20 -13 20 -39q0 -20 -12.5 -42t-35.5 -39q-27 26 -49 49q-28 29 -61 60z" />
    <glyph glyph-name="uni1ECC" unicode="&#x1ecc;" horiz-adv-x="649" 
d="M317 -27q-84 0 -146.5 37.5t-96.5 108.5t-34 169q0 91 32.5 169.5t93.5 128.5t142 58q30 2 42 2q126 0 187.5 -81.5t70.5 -233.5q5 -113 -30 -193.5t-103 -122.5t-158 -42zM315 515q-59 0 -92.5 -59t-33.5 -158q0 -87 30.5 -138t87.5 -51q74 0 112.5 42t38.5 145
q0 118 -31 169t-95 51zM223 -77q18 10 43 16.5t48 6.5q29 0 47 -12q20 -13 20 -39q0 -20 -12.5 -42t-35.5 -39q-27 26 -49 49q-28 29 -61 60z" />
    <glyph glyph-name="uni1ECD" unicode="&#x1ecd;" horiz-adv-x="481" 
d="M207 -26q-48 3 -87.5 29t-62 72.5t-22.5 107.5q0 57 28.5 107.5t75 83.5t96.5 40q21 3 41 3q81 0 122.5 -55.5t47.5 -154.5q4 -77 -26 -131t-85.5 -80t-127.5 -22zM240 306q-40 -6 -56.5 -35t-15.5 -96q0 -38 17 -64t39 -30q8 -2 23 -2q72 0 72 106q-1 50 -19.5 88
t-59.5 33zM139 -77q18 10 43 16.5t48 6.5q29 0 47 -12q20 -13 20 -39q0 -20 -12.5 -42t-35.5 -39q-27 26 -49 49q-28 29 -61 60z" />
    <glyph glyph-name="uni1ECE" unicode="&#x1ece;" horiz-adv-x="649" 
d="M317 -27q-84 0 -146.5 37.5t-96.5 108.5t-34 169q0 91 32.5 169.5t93.5 128.5t142 58q30 2 42 2q126 0 187.5 -81.5t70.5 -233.5q5 -113 -30 -193.5t-103 -122.5t-158 -42zM315 515q-59 0 -92.5 -59t-33.5 -158q0 -87 30.5 -138t87.5 -51q74 0 112.5 42t38.5 145
q0 118 -31 169t-95 51zM335 854q21 14 44 15q29 2 40.5 -14t18.5 -41q6 -24 -9 -52t-31.5 -41.5t-52.5 -34.5l-39 -22q1 2 9 11q23 26 36 48q14 19 16 38q2 24 -20 26t-43 -13.5t-31 -27.5q-10 15 -14 38q-3 17 -1 35.5t5 31t9 18.5q11 12 27 15q22 4 50 -3q-22 -22 -40 -51
q10 13 26 24z" />
    <glyph glyph-name="uni1ECF" unicode="&#x1ecf;" horiz-adv-x="481" 
d="M207 -26q-48 3 -87.5 29t-62 72.5t-22.5 107.5q0 57 28.5 107.5t75 83.5t96.5 40q21 3 41 3q81 0 122.5 -55.5t47.5 -154.5q4 -77 -26 -131t-85.5 -80t-127.5 -22zM240 306q-40 -6 -56.5 -35t-15.5 -96q0 -38 17 -64t39 -30q8 -2 23 -2q72 0 72 106q-1 50 -19.5 88
t-59.5 33zM251 634q21 14 44 15q29 2 40.5 -14t18.5 -41q6 -24 -9 -52t-31.5 -41.5t-52.5 -34.5l-39 -22q1 2 9 11q23 26 36 48q14 19 16 38q2 24 -20 26t-43 -13.5t-31 -27.5q-10 15 -14 38q-3 17 -1 35.5t5 31t9 18.5q11 12 27 15q22 4 50 -3q-22 -22 -40 -51q10 13 26 24
z" />
    <glyph glyph-name="uni1ED0" unicode="&#x1ed0;" horiz-adv-x="649" 
d="M317 -27q-84 0 -146.5 37.5t-96.5 108.5t-34 169q0 91 32.5 169.5t93.5 128.5t142 58q30 2 42 2q126 0 187.5 -81.5t70.5 -233.5q5 -113 -30 -193.5t-103 -122.5t-158 -42zM315 515q-59 0 -92.5 -59t-33.5 -158q0 -87 30.5 -138t87.5 -51q74 0 112.5 42t38.5 145
q0 118 -31 169t-95 51zM423 663q-9 -1 -14 0.5t-14 6.5q-21 12 -46 38.5t-49 58.5t-9 61q59 -33 86 -50.5t144 -62.5q-16 -13 -41 -28t-57 -24zM148 664q30 26 76 84t77 106q16 -7 38 -22.5t31 -28.5q-2 -13 -9 -25q-13 -22 -45 -49.5t-74.5 -48.5t-93.5 -16zM649 997
q20 -24 26 -51t0.5 -51.5t-19.5 -41.5q-12 -14 -23 -26q-46 -46 -95 -58t-87 -2q20 24 42.5 50t44.5 52q37 42 111 128z" />
    <glyph glyph-name="uni1ED1" unicode="&#x1ed1;" horiz-adv-x="481" 
d="M207 -26q-48 3 -87.5 29t-62 72.5t-22.5 107.5q0 57 28.5 107.5t75 83.5t96.5 40q21 3 41 3q81 0 122.5 -55.5t47.5 -154.5q4 -77 -26 -131t-85.5 -80t-127.5 -22zM240 306q-40 -6 -56.5 -35t-15.5 -96q0 -38 17 -64t39 -30q8 -2 23 -2q72 0 72 106q-1 50 -19.5 88
t-59.5 33zM329 443q-9 -1 -14 0.5t-14 6.5q-21 12 -46 38.5t-49 58.5t-9 61q59 -33 86 -50.5t144 -62.5q-16 -13 -41 -28t-57 -24zM54 444q30 26 76 84t77 106q16 -7 38 -22.5t31 -28.5q-2 -13 -9 -25q-13 -22 -45 -49.5t-74.5 -48.5t-93.5 -16zM550 781q20 -24 26 -51
t0.5 -51.5t-19.5 -41.5q-12 -14 -23 -26q-46 -46 -95 -58t-87 -2q20 24 42.5 50t44.5 52q37 42 111 128z" />
    <glyph glyph-name="uni1ED2" unicode="&#x1ed2;" horiz-adv-x="649" 
d="M317 -27q-84 0 -146.5 37.5t-96.5 108.5t-34 169q0 91 32.5 169.5t93.5 128.5t142 58q30 2 42 2q126 0 187.5 -81.5t70.5 -233.5q5 -113 -30 -193.5t-103 -122.5t-158 -42zM315 515q-59 0 -92.5 -59t-33.5 -158q0 -87 30.5 -138t87.5 -51q74 0 112.5 42t38.5 145
q0 118 -31 169t-95 51zM423 663q-9 -1 -14 0.5t-14 6.5q-21 12 -46 38.5t-49 58.5t-9 61q59 -33 86 -50.5t144 -62.5q-16 -13 -41 -28t-57 -24zM148 664q30 26 76 84t77 106q16 -7 38 -22.5t31 -28.5q-2 -13 -9 -25q-13 -22 -45 -49.5t-74.5 -48.5t-93.5 -16zM245 956
q24 20 51 26t51.5 0.5t41.5 -19.5q14 -12 26 -23q46 -46 58 -95t2 -87q-24 20 -50 42.5t-52 44.5q-42 37 -128 111z" />
    <glyph glyph-name="uni1ED3" unicode="&#x1ed3;" horiz-adv-x="481" 
d="M207 -26q-48 3 -87.5 29t-62 72.5t-22.5 107.5q0 57 28.5 107.5t75 83.5t96.5 40q21 3 41 3q81 0 122.5 -55.5t47.5 -154.5q4 -77 -26 -131t-85.5 -80t-127.5 -22zM240 306q-40 -6 -56.5 -35t-15.5 -96q0 -38 17 -64t39 -30q8 -2 23 -2q72 0 72 106q-1 50 -19.5 88
t-59.5 33zM329 443q-9 -1 -14 0.5t-14 6.5q-21 12 -46 38.5t-49 58.5t-9 61q59 -33 86 -50.5t144 -62.5q-16 -13 -41 -28t-57 -24zM54 444q30 26 76 84t77 106q16 -7 38 -22.5t31 -28.5q-2 -13 -9 -25q-13 -22 -45 -49.5t-74.5 -48.5t-93.5 -16zM151 735q24 20 51 26
t51.5 0.5t41.5 -19.5q14 -12 26 -23q46 -46 58 -95t2 -87q-24 20 -50 42.5t-52 44.5q-42 37 -128 111z" />
    <glyph glyph-name="uni1ED4" unicode="&#x1ed4;" horiz-adv-x="649" 
d="M317 -27q-84 0 -146.5 37.5t-96.5 108.5t-34 169q0 91 32.5 169.5t93.5 128.5t142 58q30 2 42 2q126 0 187.5 -81.5t70.5 -233.5q5 -113 -30 -193.5t-103 -122.5t-158 -42zM315 515q-59 0 -92.5 -59t-33.5 -158q0 -87 30.5 -138t87.5 -51q74 0 112.5 42t38.5 145
q0 118 -31 169t-95 51zM423 663q-9 -1 -14 0.5t-14 6.5q-21 12 -46 38.5t-49 58.5t-9 61q59 -33 86 -50.5t144 -62.5q-16 -13 -41 -28t-57 -24zM148 664q30 26 76 84t77 106q16 -7 38 -22.5t31 -28.5q-2 -13 -9 -25q-13 -22 -45 -49.5t-74.5 -48.5t-93.5 -16zM481 950
q21 14 44 15q29 2 40.5 -14t18.5 -41q6 -24 -9 -52t-31.5 -41.5t-52.5 -34.5l-39 -22q1 2 9 11q23 26 36 48q14 19 16 38q2 24 -20 26t-43 -13.5t-31 -27.5q-10 15 -14 38q-3 17 -1 35.5t5 31t9 18.5q11 12 27 15q22 4 50 -3q-22 -22 -40 -51q10 13 26 24z" />
    <glyph glyph-name="uni1ED5" unicode="&#x1ed5;" horiz-adv-x="481" 
d="M207 -26q-48 3 -87.5 29t-62 72.5t-22.5 107.5q0 57 28.5 107.5t75 83.5t96.5 40q21 3 41 3q81 0 122.5 -55.5t47.5 -154.5q4 -77 -26 -131t-85.5 -80t-127.5 -22zM240 306q-40 -6 -56.5 -35t-15.5 -96q0 -38 17 -64t39 -30q8 -2 23 -2q72 0 72 106q-1 50 -19.5 88
t-59.5 33zM329 443q-9 -1 -14 0.5t-14 6.5q-21 12 -46 38.5t-49 58.5t-9 61q59 -33 86 -50.5t144 -62.5q-16 -13 -41 -28t-57 -24zM54 444q30 26 76 84t77 106q16 -7 38 -22.5t31 -28.5q-2 -13 -9 -25q-13 -22 -45 -49.5t-74.5 -48.5t-93.5 -16zM383 734q21 14 44 15
q29 2 40.5 -14t18.5 -41q6 -24 -9 -52t-31.5 -41.5t-52.5 -34.5l-39 -22q1 2 9 11q23 26 36 48q14 19 16 38q2 24 -20 26t-43 -13.5t-31 -27.5q-10 15 -14 38q-3 17 -1 35.5t5 31t9 18.5q11 12 27 15q22 4 50 -3q-22 -22 -40 -51q10 13 26 24z" />
    <glyph glyph-name="uni1ED6" unicode="&#x1ed6;" horiz-adv-x="649" 
d="M317 -27q-84 0 -146.5 37.5t-96.5 108.5t-34 169q0 91 32.5 169.5t93.5 128.5t142 58q30 2 42 2q126 0 187.5 -81.5t70.5 -233.5q5 -113 -30 -193.5t-103 -122.5t-158 -42zM315 515q-59 0 -92.5 -59t-33.5 -158q0 -87 30.5 -138t87.5 -51q74 0 112.5 42t38.5 145
q0 118 -31 169t-95 51zM423 663q-9 -1 -14 0.5t-14 6.5q-21 12 -46 38.5t-49 58.5t-9 61q59 -33 86 -50.5t144 -62.5q-16 -13 -41 -28t-57 -24zM148 664q30 26 76 84t77 106q16 -7 38 -22.5t31 -28.5q-2 -13 -9 -25q-13 -22 -45 -49.5t-74.5 -48.5t-93.5 -16zM463 819
q-72 36 -131 50t-89 8q-19 -10 -11.5 -23t26.5 -34q-15 0 -36.5 9t-38.5 24.5t-21 33.5q-1 4 -2 9q-5 42 50 49q11 1 25 1q39 0 86.5 -14.5t91.5 -44.5q0 30 -14 44t-37 19q7 9 18 16.5t23 11.5q6 2 16 3q35 2 54 -28q12 -19 16 -49t-4.5 -59t-21.5 -26z" />
    <glyph glyph-name="uni1ED7" unicode="&#x1ed7;" horiz-adv-x="481" 
d="M207 -26q-48 3 -87.5 29t-62 72.5t-22.5 107.5q0 57 28.5 107.5t75 83.5t96.5 40q21 3 41 3q81 0 122.5 -55.5t47.5 -154.5q4 -77 -26 -131t-85.5 -80t-127.5 -22zM240 306q-40 -6 -56.5 -35t-15.5 -96q0 -38 17 -64t39 -30q8 -2 23 -2q72 0 72 106q-1 50 -19.5 88
t-59.5 33zM329 443q-9 -1 -14 0.5t-14 6.5q-21 12 -46 38.5t-49 58.5t-9 61q59 -33 86 -50.5t144 -62.5q-16 -13 -41 -28t-57 -24zM54 444q30 26 76 84t77 106q16 -7 38 -22.5t31 -28.5q-2 -13 -9 -25q-13 -22 -45 -49.5t-74.5 -48.5t-93.5 -16zM379 594q-72 36 -131 50
t-89 8q-19 -10 -11.5 -23t26.5 -34q-15 0 -36.5 9t-38.5 24.5t-21 33.5q-1 4 -2 9q-5 42 50 49q11 1 25 1q39 0 86.5 -14.5t91.5 -44.5q0 30 -14 44t-37 19q7 9 18 16.5t23 11.5q6 2 16 3q35 2 54 -28q12 -19 16 -49t-4.5 -59t-21.5 -26z" />
    <glyph glyph-name="uni1ED8" unicode="&#x1ed8;" horiz-adv-x="649" 
d="M317 -27q-84 0 -146.5 37.5t-96.5 108.5t-34 169q0 91 32.5 169.5t93.5 128.5t142 58q30 2 42 2q126 0 187.5 -81.5t70.5 -233.5q5 -113 -30 -193.5t-103 -122.5t-158 -42zM315 515q-59 0 -92.5 -59t-33.5 -158q0 -87 30.5 -138t87.5 -51q74 0 112.5 42t38.5 145
q0 118 -31 169t-95 51zM223 -77q18 10 43 16.5t48 6.5q29 0 47 -12q20 -13 20 -39q0 -20 -12.5 -42t-35.5 -39q-27 26 -49 49q-28 29 -61 60zM423 663q-9 -1 -14 0.5t-14 6.5q-21 12 -46 38.5t-49 58.5t-9 61q59 -33 86 -50.5t144 -62.5q-16 -13 -41 -28t-57 -24zM148 664
q30 26 76 84t77 106q16 -7 38 -22.5t31 -28.5q-2 -13 -9 -25q-13 -22 -45 -49.5t-74.5 -48.5t-93.5 -16z" />
    <glyph glyph-name="uni1ED9" unicode="&#x1ed9;" horiz-adv-x="481" 
d="M207 -26q-48 3 -87.5 29t-62 72.5t-22.5 107.5q0 57 28.5 107.5t75 83.5t96.5 40q21 3 41 3q81 0 122.5 -55.5t47.5 -154.5q4 -77 -26 -131t-85.5 -80t-127.5 -22zM240 306q-40 -6 -56.5 -35t-15.5 -96q0 -38 17 -64t39 -30q8 -2 23 -2q72 0 72 106q-1 50 -19.5 88
t-59.5 33zM139 -77q18 10 43 16.5t48 6.5q29 0 47 -12q20 -13 20 -39q0 -20 -12.5 -42t-35.5 -39q-27 26 -49 49q-28 29 -61 60zM329 443q-9 -1 -14 0.5t-14 6.5q-21 12 -46 38.5t-49 58.5t-9 61q59 -33 86 -50.5t144 -62.5q-16 -13 -41 -28t-57 -24zM54 444q30 26 76 84
t77 106q16 -7 38 -22.5t31 -28.5q-2 -13 -9 -25q-13 -22 -45 -49.5t-74.5 -48.5t-93.5 -16z" />
    <glyph glyph-name="uni1EDA" unicode="&#x1eda;" horiz-adv-x="649" 
d="M317 -27q-84 0 -146.5 37.5t-96.5 108.5t-34 169q0 91 32.5 169.5t93.5 128.5t142 58q30 2 42 2q126 0 187.5 -81.5t70.5 -233.5q5 -113 -30 -193.5t-103 -122.5t-158 -42zM315 515q-59 0 -92.5 -59t-33.5 -158q0 -87 30.5 -138t87.5 -51q74 0 112.5 42t38.5 145
q0 118 -31 169t-95 51zM491 535q25 33 58 69l33 36q-11 -4 -58 -6q-10 1 -14 3q-6 3 -6.5 6.5t-0.5 5.5q0 5 2 15q3 28 18 69l125 -22q2 -22 2 -46q0 -25 -2 -52q-1 -11 -134 -85zM409 907q20 -24 26 -51t0.5 -51.5t-19.5 -41.5q-12 -14 -23 -26q-46 -46 -95 -58t-87 -2
q20 24 42.5 50t44.5 52q37 42 111 128z" />
    <glyph glyph-name="uni1EDB" unicode="&#x1edb;" horiz-adv-x="481" 
d="M207 -26q-48 3 -87.5 29t-62 72.5t-22.5 107.5q0 57 28.5 107.5t75 83.5t96.5 40q21 3 41 3q81 0 122.5 -55.5t47.5 -154.5q4 -77 -26 -131t-85.5 -80t-127.5 -22zM240 306q-40 -6 -56.5 -35t-15.5 -96q0 -38 17 -64t39 -30q8 -2 23 -2q72 0 72 106q-1 50 -19.5 88
t-59.5 33zM324 335q25 33 58 69l33 36q-11 -4 -58 -6q-10 1 -14 3q-6 3 -6.5 6.5t-0.5 5.5q0 5 2 15q3 28 18 69l125 -22q2 -22 2 -46q0 -25 -2 -52q-1 -11 -134 -85zM305 687q20 -24 26 -51t0.5 -51.5t-19.5 -41.5q-12 -14 -23 -26q-46 -46 -95 -58t-87 -2q20 24 42.5 50
t44.5 52q37 42 111 128z" />
    <glyph glyph-name="uni1EDC" unicode="&#x1edc;" horiz-adv-x="649" 
d="M317 -27q-84 0 -146.5 37.5t-96.5 108.5t-34 169q0 91 32.5 169.5t93.5 128.5t142 58q30 2 42 2q126 0 187.5 -81.5t70.5 -233.5q5 -113 -30 -193.5t-103 -122.5t-158 -42zM315 515q-59 0 -92.5 -59t-33.5 -158q0 -87 30.5 -138t87.5 -51q74 0 112.5 42t38.5 145
q0 118 -31 169t-95 51zM491 535q25 33 58 69l33 36q-11 -4 -58 -6q-10 1 -14 3q-6 3 -6.5 6.5t-0.5 5.5q0 5 2 15q3 28 18 69l125 -22q2 -22 2 -46q0 -25 -2 -52q-1 -11 -134 -85zM207 867q24 20 51 26t51.5 0.5t41.5 -19.5q14 -12 26 -23q46 -46 58 -95t2 -87
q-24 20 -50 42.5t-52 44.5q-42 37 -128 111z" />
    <glyph glyph-name="uni1EDD" unicode="&#x1edd;" horiz-adv-x="481" 
d="M207 -26q-48 3 -87.5 29t-62 72.5t-22.5 107.5q0 57 28.5 107.5t75 83.5t96.5 40q21 3 41 3q81 0 122.5 -55.5t47.5 -154.5q4 -77 -26 -131t-85.5 -80t-127.5 -22zM240 306q-40 -6 -56.5 -35t-15.5 -96q0 -38 17 -64t39 -30q8 -2 23 -2q72 0 72 106q-1 50 -19.5 88
t-59.5 33zM324 335q25 33 58 69l33 36q-11 -4 -58 -6q-10 1 -14 3q-6 3 -6.5 6.5t-0.5 5.5q0 5 2 15q3 28 18 69l125 -22q2 -22 2 -46q0 -25 -2 -52q-1 -11 -134 -85zM68 658q24 20 51 26t51.5 0.5t41.5 -19.5q14 -12 26 -23q46 -46 58 -95t2 -87q-24 20 -50 42.5t-52 44.5
q-42 37 -128 111z" />
    <glyph glyph-name="uni1EDE" unicode="&#x1ede;" horiz-adv-x="649" 
d="M317 -27q-84 0 -146.5 37.5t-96.5 108.5t-34 169q0 91 32.5 169.5t93.5 128.5t142 58q30 2 42 2q126 0 187.5 -81.5t70.5 -233.5q5 -113 -30 -193.5t-103 -122.5t-158 -42zM315 515q-59 0 -92.5 -59t-33.5 -158q0 -87 30.5 -138t87.5 -51q74 0 112.5 42t38.5 145
q0 118 -31 169t-95 51zM491 535q25 33 58 69l33 36q-11 -4 -58 -6q-10 1 -14 3q-6 3 -6.5 6.5t-0.5 5.5q0 5 2 15q3 28 18 69l125 -22q2 -22 2 -46q0 -25 -2 -52q-1 -11 -134 -85zM335 854q21 14 44 15q29 2 40.5 -14t18.5 -41q6 -24 -9 -52t-31.5 -41.5t-52.5 -34.5
l-39 -22q1 2 9 11q23 26 36 48q14 19 16 38q2 24 -20 26t-43 -13.5t-31 -27.5q-10 15 -14 38q-3 17 -1 35.5t5 31t9 18.5q11 12 27 15q22 4 50 -3q-22 -22 -40 -51q10 13 26 24z" />
    <glyph glyph-name="uni1EDF" unicode="&#x1edf;" horiz-adv-x="481" 
d="M207 -26q-48 3 -87.5 29t-62 72.5t-22.5 107.5q0 57 28.5 107.5t75 83.5t96.5 40q21 3 41 3q81 0 122.5 -55.5t47.5 -154.5q4 -77 -26 -131t-85.5 -80t-127.5 -22zM240 306q-40 -6 -56.5 -35t-15.5 -96q0 -38 17 -64t39 -30q8 -2 23 -2q72 0 72 106q-1 50 -19.5 88
t-59.5 33zM324 335q25 33 58 69l33 36q-11 -4 -58 -6q-10 1 -14 3q-6 3 -6.5 6.5t-0.5 5.5q0 5 2 15q3 28 18 69l125 -22q2 -22 2 -46q0 -25 -2 -52q-1 -11 -134 -85zM251 654q21 14 44 15q29 2 40.5 -14t18.5 -41q6 -24 -9 -52t-31.5 -41.5t-52.5 -34.5l-39 -22q1 2 9 11
q23 26 36 48q14 19 16 38q2 24 -20 26t-43 -13.5t-31 -27.5q-10 15 -14 38q-3 17 -1 35.5t5 31t9 18.5q11 12 27 15q22 4 50 -3q-22 -22 -40 -51q10 13 26 24z" />
    <glyph glyph-name="uni1EE0" unicode="&#x1ee0;" horiz-adv-x="649" 
d="M317 -27q-84 0 -146.5 37.5t-96.5 108.5t-34 169q0 91 32.5 169.5t93.5 128.5t142 58q30 2 42 2q126 0 187.5 -81.5t70.5 -233.5q5 -113 -30 -193.5t-103 -122.5t-158 -42zM315 515q-59 0 -92.5 -59t-33.5 -158q0 -87 30.5 -138t87.5 -51q74 0 112.5 42t38.5 145
q0 118 -31 169t-95 51zM491 535q25 33 58 69l33 36q-11 -4 -58 -6q-10 1 -14 3q-6 3 -6.5 6.5t-0.5 5.5q0 5 2 15q3 28 18 69l125 -22q2 -22 2 -46q0 -25 -2 -52q-1 -11 -134 -85zM463 665q-72 36 -131 50t-89 8q-19 -10 -11.5 -23t26.5 -34q-15 0 -36.5 9t-38.5 24.5
t-21 33.5q-1 4 -2 9q-5 42 50 49q11 1 25 1q39 0 86.5 -14.5t91.5 -44.5q0 30 -14 44t-37 19q7 9 18 16.5t23 11.5q6 2 16 3q35 2 54 -28q12 -19 16 -49t-4.5 -59t-21.5 -26z" />
    <glyph glyph-name="uni1EE1" unicode="&#x1ee1;" horiz-adv-x="481" 
d="M207 -26q-48 3 -87.5 29t-62 72.5t-22.5 107.5q0 57 28.5 107.5t75 83.5t96.5 40q21 3 41 3q81 0 122.5 -55.5t47.5 -154.5q4 -77 -26 -131t-85.5 -80t-127.5 -22zM240 306q-40 -6 -56.5 -35t-15.5 -96q0 -38 17 -64t39 -30q8 -2 23 -2q72 0 72 106q-1 50 -19.5 88
t-59.5 33zM324 335q25 33 58 69l33 36q-11 -4 -58 -6q-10 1 -14 3q-6 3 -6.5 6.5t-0.5 5.5q0 5 2 15q3 28 18 69l125 -22q2 -22 2 -46q0 -25 -2 -52q-1 -11 -134 -85zM299 479q-72 36 -131 50t-89 8q-19 -10 -11.5 -23t26.5 -34q-15 0 -36.5 9t-38.5 24.5t-21 33.5
q-1 4 -2 9q-5 42 50 49q11 1 25 1q39 0 86.5 -14.5t91.5 -44.5q0 30 -14 44t-37 19q7 9 18 16.5t23 11.5q6 2 16 3q35 2 54 -28q12 -19 16 -49t-4.5 -59t-21.5 -26z" />
    <glyph glyph-name="uni1EE2" unicode="&#x1ee2;" horiz-adv-x="649" 
d="M317 -27q-84 0 -146.5 37.5t-96.5 108.5t-34 169q0 91 32.5 169.5t93.5 128.5t142 58q30 2 42 2q126 0 187.5 -81.5t70.5 -233.5q5 -113 -30 -193.5t-103 -122.5t-158 -42zM315 515q-59 0 -92.5 -59t-33.5 -158q0 -87 30.5 -138t87.5 -51q74 0 112.5 42t38.5 145
q0 118 -31 169t-95 51zM491 535q25 33 58 69l33 36q-11 -4 -58 -6q-10 1 -14 3q-6 3 -6.5 6.5t-0.5 5.5q0 5 2 15q3 28 18 69l125 -22q2 -22 2 -46q0 -25 -2 -52q-1 -11 -134 -85zM223 -77q18 10 43 16.5t48 6.5q29 0 47 -12q20 -13 20 -39q0 -20 -12.5 -42t-35.5 -39
q-27 26 -49 49q-28 29 -61 60z" />
    <glyph glyph-name="uni1EE3" unicode="&#x1ee3;" horiz-adv-x="481" 
d="M207 -26q-48 3 -87.5 29t-62 72.5t-22.5 107.5q0 57 28.5 107.5t75 83.5t96.5 40q21 3 41 3q81 0 122.5 -55.5t47.5 -154.5q4 -77 -26 -131t-85.5 -80t-127.5 -22zM240 306q-40 -6 -56.5 -35t-15.5 -96q0 -38 17 -64t39 -30q8 -2 23 -2q72 0 72 106q-1 50 -19.5 88
t-59.5 33zM324 335q25 33 58 69l33 36q-11 -4 -58 -6q-10 1 -14 3q-6 3 -6.5 6.5t-0.5 5.5q0 5 2 15q3 28 18 69l125 -22q2 -22 2 -46q0 -25 -2 -52q-1 -11 -134 -85zM139 -77q18 10 43 16.5t48 6.5q29 0 47 -12q20 -13 20 -39q0 -20 -12.5 -42t-35.5 -39q-27 26 -49 49
q-28 29 -61 60z" />
    <glyph glyph-name="uni1EE4" unicode="&#x1ee4;" horiz-adv-x="582" 
d="M213 641q-17 -171 -24 -432q-1 -63 24.5 -87t60.5 -24q41 0 63.5 13t31.5 38t12 68q3 46 5 157q2 100 4 148t18.5 74t48 36.5t85.5 12.5q-8 -89 -12 -316l-3 -128q-3 -120 -71.5 -175t-182.5 -55l-27 1q-206 7 -206 267q0 81 6 219q2 46 2 59q6 124 165 124zM189 -77
q18 10 43 16.5t48 6.5q29 0 47 -12q20 -13 20 -39q0 -20 -12.5 -42t-35.5 -39q-27 26 -49 49q-28 29 -61 60z" />
    <glyph glyph-name="uni1EE5" unicode="&#x1ee5;" horiz-adv-x="504" 
d="M469 105q1 -39 -14.5 -68.5t-41.5 -45.5t-54 -16q-29 0 -52 17.5t-33 51.5q-34 -28 -74 -45.5t-66 -17.5q-9 0 -12 1q-46 12 -64.5 53t-21.5 121l-1 36q0 15 2 57q0 8 2 50q1 31 22.5 55t53.5 37t62 13q9 0 13 -1q0 -48 -2 -112l-1 -71q0 -37 3 -82q1 -24 19 -24
q19 0 59 27l3 171q1 30 20.5 54t49 37t58.5 13q12 0 18 -1v-304q0 -26 19 -26q10 0 19.5 6t13.5 14zM151 -77q18 10 43 16.5t48 6.5q29 0 47 -12q20 -13 20 -39q0 -20 -12.5 -42t-35.5 -39q-27 26 -49 49q-28 29 -61 60z" />
    <glyph glyph-name="uni1EE6" unicode="&#x1ee6;" horiz-adv-x="582" 
d="M213 641q-17 -171 -24 -432q-1 -63 24.5 -87t60.5 -24q41 0 63.5 13t31.5 38t12 68q3 46 5 157q2 100 4 148t18.5 74t48 36.5t85.5 12.5q-8 -89 -12 -316l-3 -128q-3 -120 -71.5 -175t-182.5 -55l-27 1q-206 7 -206 267q0 81 6 219q2 46 2 59q6 124 165 124zM301 854
q21 14 44 15q29 2 40.5 -14t18.5 -41q6 -24 -9 -52t-31.5 -41.5t-52.5 -34.5l-39 -22q1 2 9 11q23 26 36 48q14 19 16 38q2 24 -20 26t-43 -13.5t-31 -27.5q-10 15 -14 38q-3 17 -1 35.5t5 31t9 18.5q11 12 27 15q22 4 50 -3q-22 -22 -40 -51q10 13 26 24z" />
    <glyph glyph-name="uni1EE7" unicode="&#x1ee7;" horiz-adv-x="504" 
d="M469 105q1 -39 -14.5 -68.5t-41.5 -45.5t-54 -16q-29 0 -52 17.5t-33 51.5q-34 -28 -74 -45.5t-66 -17.5q-9 0 -12 1q-46 12 -64.5 53t-21.5 121l-1 36q0 15 2 57q0 8 2 50q1 31 22.5 55t53.5 37t62 13q9 0 13 -1q0 -48 -2 -112l-1 -71q0 -37 3 -82q1 -24 19 -24
q19 0 59 27l3 171q1 30 20.5 54t49 37t58.5 13q12 0 18 -1v-304q0 -26 19 -26q10 0 19.5 6t13.5 14zM263 634q21 14 44 15q29 2 40.5 -14t18.5 -41q6 -24 -9 -52t-31.5 -41.5t-52.5 -34.5l-39 -22q1 2 9 11q23 26 36 48q14 19 16 38q2 24 -20 26t-43 -13.5t-31 -27.5
q-10 15 -14 38q-3 17 -1 35.5t5 31t9 18.5q11 12 27 15q22 4 50 -3q-22 -22 -40 -51q10 13 26 24z" />
    <glyph glyph-name="uni1EE8" unicode="&#x1ee8;" horiz-adv-x="582" 
d="M213 641q-17 -171 -24 -432q-1 -63 24.5 -87t60.5 -24q41 0 63.5 13t31.5 38t12 68q3 46 5 157q2 100 4 148t18.5 74t48 36.5t85.5 12.5q-8 -89 -12 -316l-3 -128q-3 -120 -71.5 -175t-182.5 -55l-27 1q-206 7 -206 267q0 81 6 219q2 46 2 59q6 124 165 124zM464 585
q25 33 58 69l33 36q-11 -4 -58 -6q-10 1 -14 3q-6 3 -6.5 6.5t-0.5 5.5q0 5 2 15q3 28 18 69l125 -22q2 -22 2 -46q0 -25 -2 -52q-1 -11 -134 -85zM375 907q20 -24 26 -51t0.5 -51.5t-19.5 -41.5q-12 -14 -23 -26q-46 -46 -95 -58t-87 -2q20 24 42.5 50t44.5 52
q37 42 111 128z" />
    <glyph glyph-name="uni1EE9" unicode="&#x1ee9;" horiz-adv-x="504" 
d="M469 105q1 -39 -14.5 -68.5t-41.5 -45.5t-54 -16q-29 0 -52 17.5t-33 51.5q-34 -28 -74 -45.5t-66 -17.5q-9 0 -12 1q-46 12 -64.5 53t-21.5 121l-1 36q0 15 2 57q0 8 2 50q1 31 22.5 55t53.5 37t62 13q9 0 13 -1q0 -48 -2 -112l-1 -71q0 -37 3 -82q1 -24 19 -24
q19 0 59 27l3 171q1 30 20.5 54t49 37t58.5 13q12 0 18 -1v-304q0 -26 19 -26q10 0 19.5 6t13.5 14zM347 335q25 33 58 69l33 36q-11 -4 -58 -6q-10 1 -14 3q-6 3 -6.5 6.5t-0.5 5.5q0 5 2 15q3 28 18 69l125 -22q2 -22 2 -46q0 -25 -2 -52q-1 -11 -134 -85zM336 687
q20 -24 26 -51t0.5 -51.5t-19.5 -41.5q-12 -14 -23 -26q-46 -46 -95 -58t-87 -2q20 24 42.5 50t44.5 52q37 42 111 128z" />
    <glyph glyph-name="uni1EEA" unicode="&#x1eea;" horiz-adv-x="582" 
d="M213 641q-17 -171 -24 -432q-1 -63 24.5 -87t60.5 -24q41 0 63.5 13t31.5 38t12 68q3 46 5 157q2 100 4 148t18.5 74t48 36.5t85.5 12.5q-8 -89 -12 -316l-3 -128q-3 -120 -71.5 -175t-182.5 -55l-27 1q-206 7 -206 267q0 81 6 219q2 46 2 59q6 124 165 124zM464 585
q25 33 58 69l33 36q-11 -4 -58 -6q-10 1 -14 3q-6 3 -6.5 6.5t-0.5 5.5q0 5 2 15q3 28 18 69l125 -22q2 -22 2 -46q0 -25 -2 -52q-1 -11 -134 -85zM174 867q24 20 51 26t51.5 0.5t41.5 -19.5q14 -12 26 -23q46 -46 58 -95t2 -87q-24 20 -50 42.5t-52 44.5q-42 37 -128 111z
" />
    <glyph glyph-name="uni1EEB" unicode="&#x1eeb;" horiz-adv-x="504" 
d="M469 105q1 -39 -14.5 -68.5t-41.5 -45.5t-54 -16q-29 0 -52 17.5t-33 51.5q-34 -28 -74 -45.5t-66 -17.5q-9 0 -12 1q-46 12 -64.5 53t-21.5 121l-1 36q0 15 2 57q0 8 2 50q1 31 22.5 55t53.5 37t62 13q9 0 13 -1q0 -48 -2 -112l-1 -71q0 -37 3 -82q1 -24 19 -24
q19 0 59 27l3 171q1 30 20.5 54t49 37t58.5 13q12 0 18 -1v-304q0 -26 19 -26q10 0 19.5 6t13.5 14zM347 335q25 33 58 69l33 36q-11 -4 -58 -6q-10 1 -14 3q-6 3 -6.5 6.5t-0.5 5.5q0 5 2 15q3 28 18 69l125 -22q2 -22 2 -46q0 -25 -2 -52q-1 -11 -134 -85zM95 647
q24 20 51 26t51.5 0.5t41.5 -19.5q14 -12 26 -23q46 -46 58 -95t2 -87q-24 20 -50 42.5t-52 44.5q-42 37 -128 111z" />
    <glyph glyph-name="uni1EEC" unicode="&#x1eec;" horiz-adv-x="582" 
d="M213 641q-17 -171 -24 -432q-1 -63 24.5 -87t60.5 -24q41 0 63.5 13t31.5 38t12 68q3 46 5 157q2 100 4 148t18.5 74t48 36.5t85.5 12.5q-8 -89 -12 -316l-3 -128q-3 -120 -71.5 -175t-182.5 -55l-27 1q-206 7 -206 267q0 81 6 219q2 46 2 59q6 124 165 124zM464 585
q25 33 58 69l33 36q-11 -4 -58 -6q-10 1 -14 3q-6 3 -6.5 6.5t-0.5 5.5q0 5 2 15q3 28 18 69l125 -22q2 -22 2 -46q0 -25 -2 -52q-1 -11 -134 -85zM301 854q21 14 44 15q29 2 40.5 -14t18.5 -41q6 -24 -9 -52t-31.5 -41.5t-52.5 -34.5l-39 -22q1 2 9 11q23 26 36 48
q14 19 16 38q2 24 -20 26t-43 -13.5t-31 -27.5q-10 15 -14 38q-3 17 -1 35.5t5 31t9 18.5q11 12 27 15q22 4 50 -3q-22 -22 -40 -51q10 13 26 24z" />
    <glyph glyph-name="uni1EED" unicode="&#x1eed;" horiz-adv-x="504" 
d="M469 105q1 -39 -14.5 -68.5t-41.5 -45.5t-54 -16q-29 0 -52 17.5t-33 51.5q-34 -28 -74 -45.5t-66 -17.5q-9 0 -12 1q-46 12 -64.5 53t-21.5 121l-1 36q0 15 2 57q0 8 2 50q1 31 22.5 55t53.5 37t62 13q9 0 13 -1q0 -48 -2 -112l-1 -71q0 -37 3 -82q1 -24 19 -24
q19 0 59 27l3 171q1 30 20.5 54t49 37t58.5 13q12 0 18 -1v-304q0 -26 19 -26q10 0 19.5 6t13.5 14zM347 335q25 33 58 69l33 36q-11 -4 -58 -6q-10 1 -14 3q-6 3 -6.5 6.5t-0.5 5.5q0 5 2 15q3 28 18 69l125 -22q2 -22 2 -46q0 -25 -2 -52q-1 -11 -134 -85zM253 634
q21 14 44 15q29 2 40.5 -14t18.5 -41q6 -24 -9 -52t-31.5 -41.5t-52.5 -34.5l-39 -22q1 2 9 11q23 26 36 48q14 19 16 38q2 24 -20 26t-43 -13.5t-31 -27.5q-10 15 -14 38q-3 17 -1 35.5t5 31t9 18.5q11 12 27 15q22 4 50 -3q-22 -22 -40 -51q10 13 26 24z" />
    <glyph glyph-name="uni1EEE" unicode="&#x1eee;" horiz-adv-x="582" 
d="M213 641q-17 -171 -24 -432q-1 -63 24.5 -87t60.5 -24q41 0 63.5 13t31.5 38t12 68q3 46 5 157q2 100 4 148t18.5 74t48 36.5t85.5 12.5q-8 -89 -12 -316l-3 -128q-3 -120 -71.5 -175t-182.5 -55l-27 1q-206 7 -206 267q0 81 6 219q2 46 2 59q6 124 165 124zM464 585
q25 33 58 69l33 36q-11 -4 -58 -6q-10 1 -14 3q-6 3 -6.5 6.5t-0.5 5.5q0 5 2 15q3 28 18 69l125 -22q2 -22 2 -46q0 -25 -2 -52q-1 -11 -134 -85zM429 665q-72 36 -131 50t-89 8q-19 -10 -11.5 -23t26.5 -34q-15 0 -36.5 9t-38.5 24.5t-21 33.5q-1 4 -2 9q-5 42 50 49
q11 1 25 1q39 0 86.5 -14.5t91.5 -44.5q0 30 -14 44t-37 19q7 9 18 16.5t23 11.5q6 2 16 3q35 2 54 -28q12 -19 16 -49t-4.5 -59t-21.5 -26z" />
    <glyph glyph-name="uni1EEF" unicode="&#x1eef;" horiz-adv-x="504" 
d="M469 105q1 -39 -14.5 -68.5t-41.5 -45.5t-54 -16q-29 0 -52 17.5t-33 51.5q-34 -28 -74 -45.5t-66 -17.5q-9 0 -12 1q-46 12 -64.5 53t-21.5 121l-1 36q0 15 2 57q0 8 2 50q1 31 22.5 55t53.5 37t62 13q9 0 13 -1q0 -48 -2 -112l-1 -71q0 -37 3 -82q1 -24 19 -24
q19 0 59 27l3 171q1 30 20.5 54t49 37t58.5 13q12 0 18 -1v-304q0 -26 19 -26q10 0 19.5 6t13.5 14zM347 335q25 33 58 69l33 36q-11 -4 -58 -6q-10 1 -14 3q-6 3 -6.5 6.5t-0.5 5.5q0 5 2 15q3 28 18 69l125 -22q2 -22 2 -46q0 -25 -2 -52q-1 -11 -134 -85zM320 465
q-72 36 -131 50t-89 8q-19 -10 -11.5 -23t26.5 -34q-15 0 -36.5 9t-38.5 24.5t-21 33.5q-1 4 -2 9q-5 42 50 49q11 1 25 1q39 0 86.5 -14.5t91.5 -44.5q0 30 -14 44t-37 19q7 9 18 16.5t23 11.5q6 2 16 3q35 2 54 -28q12 -19 16 -49t-4.5 -59t-21.5 -26z" />
    <glyph glyph-name="uni1EF0" unicode="&#x1ef0;" horiz-adv-x="582" 
d="M213 641q-17 -171 -24 -432q-1 -63 24.5 -87t60.5 -24q41 0 63.5 13t31.5 38t12 68q3 46 5 157q2 100 4 148t18.5 74t48 36.5t85.5 12.5q-8 -89 -12 -316l-3 -128q-3 -120 -71.5 -175t-182.5 -55l-27 1q-206 7 -206 267q0 81 6 219q2 46 2 59q6 124 165 124zM464 585
q25 33 58 69l33 36q-11 -4 -58 -6q-10 1 -14 3q-6 3 -6.5 6.5t-0.5 5.5q0 5 2 15q3 28 18 69l125 -22q2 -22 2 -46q0 -25 -2 -52q-1 -11 -134 -85zM189 -77q18 10 43 16.5t48 6.5q29 0 47 -12q20 -13 20 -39q0 -20 -12.5 -42t-35.5 -39q-27 26 -49 49q-28 29 -61 60z" />
    <glyph glyph-name="uni1EF1" unicode="&#x1ef1;" horiz-adv-x="504" 
d="M469 105q1 -39 -14.5 -68.5t-41.5 -45.5t-54 -16q-29 0 -52 17.5t-33 51.5q-34 -28 -74 -45.5t-66 -17.5q-9 0 -12 1q-46 12 -64.5 53t-21.5 121l-1 36q0 15 2 57q0 8 2 50q1 31 22.5 55t53.5 37t62 13q9 0 13 -1q0 -48 -2 -112l-1 -71q0 -37 3 -82q1 -24 19 -24
q19 0 59 27l3 171q1 30 20.5 54t49 37t58.5 13q12 0 18 -1v-304q0 -26 19 -26q10 0 19.5 6t13.5 14zM347 335q25 33 58 69l33 36q-11 -4 -58 -6q-10 1 -14 3q-6 3 -6.5 6.5t-0.5 5.5q0 5 2 15q3 28 18 69l125 -22q2 -22 2 -46q0 -25 -2 -52q-1 -11 -134 -85zM151 -77
q18 10 43 16.5t48 6.5q29 0 47 -12q20 -13 20 -39q0 -20 -12.5 -42t-35.5 -39q-27 26 -49 49q-28 29 -61 60z" />
    <glyph glyph-name="Ygrave" unicode="&#x1ef2;" horiz-adv-x="594" 
d="M427 649q53 -1 90 -24t37 -61q0 -25 -16 -51q-20 -35 -65.5 -98t-90.5 -111q6 -139 22 -328q-7 -1 -20 -1q-40 0 -71.5 16t-50 40t-21.5 47q-3 18 -3 47q0 39 5 87t14 85q-46 49 -105 125t-112 152q15 23 53 42.5t74 19.5q49 0 68 -39q68 -140 92 -203l11 24
q30 70 51 121.5t38 109.5zM180 867q24 20 51 26t51.5 0.5t41.5 -19.5q14 -12 26 -23q46 -46 58 -95t2 -87q-24 20 -50 42.5t-52 44.5q-42 37 -128 111z" />
    <glyph glyph-name="ygrave" unicode="&#x1ef3;" horiz-adv-x="499" 
d="M281 339q45 76 132 76q28 0 51 -5q-48 -83 -145 -277t-164 -333q-22 36 -22 99q0 91 47 225q-52 32 -91.5 79.5t-51.5 109.5q-2 7 -2 20q0 28 20 41.5t69 32.5l29 11q16 -73 68 -194q30 68 60 115zM132 647q24 20 51 26t51.5 0.5t41.5 -19.5q14 -12 26 -23q46 -46 58 -95
t2 -87q-24 20 -50 42.5t-52 44.5q-42 37 -128 111z" />
    <glyph glyph-name="uni1EF4" unicode="&#x1ef4;" horiz-adv-x="594" 
d="M427 649q53 -1 90 -24t37 -61q0 -25 -16 -51q-20 -35 -65.5 -98t-90.5 -111q6 -139 22 -328q-7 -1 -20 -1q-40 0 -71.5 16t-50 40t-21.5 47q-3 18 -3 47q0 39 5 87t14 85q-46 49 -105 125t-112 152q15 23 53 42.5t74 19.5q49 0 68 -39q68 -140 92 -203l11 24
q30 70 51 121.5t38 109.5zM196 -77q18 10 43 16.5t48 6.5q29 0 47 -12q20 -13 20 -39q0 -20 -12.5 -42t-35.5 -39q-27 26 -49 49q-28 29 -61 60z" />
    <glyph glyph-name="uni1EF5" unicode="&#x1ef5;" horiz-adv-x="499" 
d="M281 339q45 76 132 76q28 0 51 -5q-48 -83 -145 -277t-164 -333q-22 36 -22 99q0 91 47 225q-52 32 -91.5 79.5t-51.5 109.5q-2 7 -2 20q0 28 20 41.5t69 32.5l29 11q16 -73 68 -194q30 68 60 115zM228 -67q18 10 43 16.5t48 6.5q29 0 47 -12q20 -13 20 -39
q0 -20 -12.5 -42t-35.5 -39q-27 26 -49 49q-28 29 -61 60z" />
    <glyph glyph-name="uni1EF6" unicode="&#x1ef6;" horiz-adv-x="594" 
d="M427 649q53 -1 90 -24t37 -61q0 -25 -16 -51q-20 -35 -65.5 -98t-90.5 -111q6 -139 22 -328q-7 -1 -20 -1q-40 0 -71.5 16t-50 40t-21.5 47q-3 18 -3 47q0 39 5 87t14 85q-46 49 -105 125t-112 152q15 23 53 42.5t74 19.5q49 0 68 -39q68 -140 92 -203l11 24
q30 70 51 121.5t38 109.5zM308 854q21 14 44 15q29 2 40.5 -14t18.5 -41q6 -24 -9 -52t-31.5 -41.5t-52.5 -34.5l-39 -22q1 2 9 11q23 26 36 48q14 19 16 38q2 24 -20 26t-43 -13.5t-31 -27.5q-10 15 -14 38q-3 17 -1 35.5t5 31t9 18.5q11 12 27 15q22 4 50 -3
q-22 -22 -40 -51q10 13 26 24z" />
    <glyph glyph-name="uni1EF7" unicode="&#x1ef7;" horiz-adv-x="499" 
d="M281 339q45 76 132 76q28 0 51 -5q-48 -83 -145 -277t-164 -333q-22 36 -22 99q0 91 47 225q-52 32 -91.5 79.5t-51.5 109.5q-2 7 -2 20q0 28 20 41.5t69 32.5l29 11q16 -73 68 -194q30 68 60 115zM260 634q21 14 44 15q29 2 40.5 -14t18.5 -41q6 -24 -9 -52t-31.5 -41.5
t-52.5 -34.5l-39 -22q1 2 9 11q23 26 36 48q14 19 16 38q2 24 -20 26t-43 -13.5t-31 -27.5q-10 15 -14 38q-3 17 -1 35.5t5 31t9 18.5q11 12 27 15q22 4 50 -3q-22 -22 -40 -51q10 13 26 24z" />
    <glyph glyph-name="uni1EF8" unicode="&#x1ef8;" horiz-adv-x="594" 
d="M427 649q53 -1 90 -24t37 -61q0 -25 -16 -51q-20 -35 -65.5 -98t-90.5 -111q6 -139 22 -328q-7 -1 -20 -1q-40 0 -71.5 16t-50 40t-21.5 47q-3 18 -3 47q0 39 5 87t14 85q-46 49 -105 125t-112 152q15 23 53 42.5t74 19.5q49 0 68 -39q68 -140 92 -203l11 24
q30 70 51 121.5t38 109.5zM435 665q-72 36 -131 50t-89 8q-19 -10 -11.5 -23t26.5 -34q-15 0 -36.5 9t-38.5 24.5t-21 33.5q-1 4 -2 9q-5 42 50 49q11 1 25 1q39 0 86.5 -14.5t91.5 -44.5q0 30 -14 44t-37 19q7 9 18 16.5t23 11.5q6 2 16 3q35 2 54 -28q12 -19 16 -49
t-4.5 -59t-21.5 -26z" />
    <glyph glyph-name="uni1EF9" unicode="&#x1ef9;" horiz-adv-x="499" 
d="M281 339q45 76 132 76q28 0 51 -5q-48 -83 -145 -277t-164 -333q-22 36 -22 99q0 91 47 225q-52 32 -91.5 79.5t-51.5 109.5q-2 7 -2 20q0 28 20 41.5t69 32.5l29 11q16 -73 68 -194q30 68 60 115zM388 445q-72 36 -131 50t-89 8q-19 -10 -11.5 -23t26.5 -34
q-15 0 -36.5 9t-38.5 24.5t-21 33.5q-1 4 -2 9q-5 42 50 49q11 1 25 1q39 0 86.5 -14.5t91.5 -44.5q0 30 -14 44t-37 19q7 9 18 16.5t23 11.5q6 2 16 3q35 2 54 -28q12 -19 16 -49t-4.5 -59t-21.5 -26z" />
    <glyph glyph-name="endash" unicode="&#x2013;" horiz-adv-x="509" 
d="M40 343q74 -1 230.5 2.5t198.5 5.5q-3 -51 -70.5 -74t-157.5 -26q-32 -2 -79 10t-82.5 33.5t-39.5 48.5z" />
    <glyph glyph-name="emdash" unicode="&#x2014;" horiz-adv-x="1000" 
d="M84 360q35 -1 129 -1q137 0 336 3t261 4l104 2q8 -23 -46.5 -55.5t-170 -56t-281.5 -23.5q-62 0 -139 16t-133 45.5t-60 65.5z" />
    <glyph glyph-name="quoteleft" unicode="&#x2018;" horiz-adv-x="1000" 
d="M761 583q0 43 34 78q34 38 70 38q14 0 15 -9q2 -4 0 -6q-1 -2 -3 -3t-3 -2q-1 -2 -3 -3t-4 -3q-6 -3 -11 -11q-11 -10 -11 -18q0 -6 7 -6q20 0 37 -15q21 -18 21 -50q0 -28 -21 -51q-21 -22 -53 -22q-37 0 -58 27q-17 23 -17 56z" />
    <glyph glyph-name="quoteright" unicode="&#x2019;" horiz-adv-x="1000" 
d="M238 617q0 -43 -33 -79q-35 -38 -70 -38q-13 0 -16 9q-1 3 0 7q1 3 6 5t7 6q6 3 11 10q11 11 11 18t-7 7q-22 0 -37 14q-20 17 -20 51q0 28 20 51q22 22 53 22q36 0 58 -27q17 -20 17 -56z" />
    <glyph glyph-name="quotesinglbase" unicode="&#x201a;" horiz-adv-x="202" 
d="M162 -19q0 -34 -27 -64q-28 -31 -58 -31q-10 0 -13 7q-2 3 0 5q1 2 5 4l6 5q5 3 9 9q9 9 9 15q0 5 -6 5q-16 0 -30 12q-17 14 -17 41q0 25 17 42q18 18 43 18q30 0 48 -22q14 -17 14 -46z" />
    <glyph glyph-name="quotedblleft" unicode="&#x201c;" horiz-adv-x="1000" 
d="M557 583q0 42 33 78q37 38 72 38q14 0 15 -9q2 -4 0 -6q-1 -2 -3 -3t-3 -2q-1 -2 -3.5 -3t-4.5 -3q-5 -3 -11 -11q-11 -11 -11 -18q0 -6 8 -6q20 0 36 -15q22 -18 22 -50q0 -29 -22 -51q-21 -22 -52 -22q-36 0 -59 27q-17 23 -17 56zM760 583q0 43 34 78q34 38 71 38
q13 0 14 -9q2 -4 0 -6q-1 -2 -6 -5q-1 -2 -3 -3t-4 -3q-6 -3 -11 -11q-11 -10 -11 -18q0 -6 7 -6q21 0 37 -15q22 -19 22 -50q0 -27 -22 -51q-21 -22 -53 -22q-37 0 -58 27q-17 23 -17 56z" />
    <glyph glyph-name="quotedblright" unicode="&#x201d;" horiz-adv-x="1000" 
d="M240 617q0 -42 -34 -79q-34 -38 -71 -38q-12 0 -15 9q-4 4 1 7l1.5 2t3.5 2q1 1 3 2.5t5 4.5q3 2 11 10q11 11 11 18q0 4 -1.5 5t-6.5 1q-19 0 -37 15q-21 19 -21 50q0 27 21 51q22 22 54 22q37 0 58 -26q17 -25 17 -56zM443 617q0 -44 -34 -79q-35 -38 -71 -38
q-13 0 -16 9q0 5 1 7q4 4 5 4q1 1 3.5 2.5t5.5 4.5l11 10q11 13 11 18q0 6 -9 6q-18 0 -37 15q-20 18 -20 50q0 28 20 51q22 22 54 22q36 0 59 -26q17 -25 17 -56z" />
    <glyph glyph-name="quotedblbase" unicode="&#x201e;" horiz-adv-x="368" 
d="M162 -19q0 -34 -27 -64q-28 -31 -58 -31q-10 0 -13 7q-2 3 0 5q1 2 5 4l6 5q5 3 9 9q9 9 9 15q0 5 -6 5q-16 0 -30 12q-17 14 -17 41q0 25 17 42q18 18 43 18q30 0 48 -22q14 -17 14 -46zM328 -19q0 -34 -27 -64q-28 -31 -58 -31q-10 0 -13 7q-2 3 0 5q1 2 5 4l7 5l8 9
q9 9 9 15q0 5 -6 5q-16 0 -30 12q-17 14 -17 41q0 25 17 42q18 18 43 18q30 0 48 -22q14 -17 14 -46z" />
    </font>
</defs>
</svg>
